<svg width="480" height="275" viewBox="0 0 480 275" fill="none" xmlns="http://www.w3.org/2000/svg">
<path d="M306.645 161.513C306.645 161.513 302.463 173.588 304.913 186.398C307.38 199.208 310.828 211.038 310.828 211.038C310.828 211.038 311.563 236.168 310.828 238.88C310.093 241.593 304.423 245.04 304.423 249.975C304.423 254.91 306.225 261.14 315.343 262.628C324.46 264.115 331.845 261.07 334.89 257.378C339.283 252.04 338.425 248.26 338.425 244.323C338.425 240.385 338.67 217.723 339.65 214.258C340.63 210.81 342.118 208.833 344.83 209.078C347.543 209.323 350.5 213.505 350.745 221.398C350.99 229.273 351.235 243.08 350.99 245.793C350.745 248.505 348.278 257.623 350.255 261.315C352.233 265.008 361.175 268.595 368.07 268.21C377.1 267.72 382.525 262.05 383.015 257.623C383.505 253.195 380.548 243.08 380.548 240.123C380.548 237.165 383.995 216.97 384.975 215.728C385.955 214.503 388.965 214.765 395.563 211.79C401.565 209.078 404.768 206.365 404.768 206.365C404.768 206.365 404.925 223.865 404.68 225.825C404.435 227.803 398.52 233.963 399.5 238.635C400.48 243.308 406.255 246.038 411.4 246.51C420.098 247.333 428.568 240.595 430.773 234.68C432.995 228.765 431.998 221.38 431.508 217.443C431.018 213.505 431.018 199.698 431.508 196.005C431.998 192.313 432.803 190.073 433.118 188.13C433.608 184.928 433.485 181.358 433.485 181.358C433.485 181.358 441.99 181.358 447.03 178.033C452.07 174.708 457.373 168.915 459.718 161.775C462.01 154.793 461.45 152.658 459.473 152.413C457.495 152.168 448.64 164.593 441.115 164.978C429.163 165.59 430.353 152.78 421.235 145.028C410.963 136.278 394.95 135.175 394.95 135.175C394.95 135.175 397.715 124.833 397.75 117.185C397.873 83.7951 381.615 72.4726 381.615 72.4726C381.615 72.4726 362.068 57.9126 339.895 58.8926C317.723 59.8726 301.465 77.4951 301.465 77.4951L289.268 131.325C289.268 131.325 292.348 141.668 297.283 149.193C302.463 157.068 306.645 161.513 306.645 161.513Z" fill="#FFD2B1"/>
<path d="M291.245 65.5601C273.132 65.9276 263.56 81.3626 263.28 90.8126C263.122 96.3601 260.935 136.68 283.23 137.503C292.172 137.835 298.822 127.458 302.2 115.698C306.452 100.875 306.26 86.0176 306.75 82.0626C307.537 75.7451 308.85 71.1076 308.85 71.1076C308.85 71.1076 306.645 65.2451 291.245 65.5601ZM388.195 59.4001C407.9 60.1351 414.62 68.8676 416.527 73.9426C418.627 79.4901 420.465 99.2826 417.385 112.495C414.882 123.275 411.102 128.753 402.23 128.385C394.11 128.053 389.997 116.345 383.872 100.42C377.957 85.0201 373.425 71.2301 372.655 69.2526C371.675 66.6626 369.575 65.5601 369.575 65.5601C369.575 65.5601 373.512 58.8401 388.195 59.4001Z" fill="#865B52"/>
<path d="M365.655 99.4224C355.925 100.035 351.27 110.85 353.335 121.717C355.558 133.425 363.24 138.972 372.918 137.73C383.505 136.382 386.708 124.307 385.36 115.19C384.118 106.895 379.428 98.5474 365.655 99.4224Z" fill="#D27856"/>
<path d="M377.1 119.25C377.1 124.36 374.265 128.63 369.768 128.508C363.66 128.333 362.068 122.925 362.19 118.375C362.33 113.055 365.515 110.535 370.065 110.658C374.125 110.745 377.1 114.14 377.1 119.25ZM325.738 122.068C325.738 127.388 322.903 131.833 318.405 131.693C312.298 131.518 310.705 125.883 310.828 121.14C310.968 115.593 314.765 113.23 318.335 113.493C322.378 113.79 325.738 116.748 325.738 122.068ZM349.135 151.783C349.135 151.783 359.845 150.68 359.355 142.91C358.865 135.158 351.603 134.65 345.933 134.773C340.263 134.895 332.143 137.853 333 144.38C333.858 150.908 343.098 151.765 343.098 151.765C343.098 151.765 343.08 156.595 339.895 156.945C336.448 157.313 331.513 152.01 330.165 150.663C328.818 149.315 326.718 149.805 325.983 150.908C325.248 152.01 325.738 154.478 327.838 156.578C329.938 158.678 334.855 163.963 339.79 163.473C344.725 162.983 344.848 160.393 346.808 160.27C348.785 160.148 348.663 163.105 353.58 162.983C357.045 162.895 364.028 156.805 365.288 155.72C368.123 153.253 368.858 150.785 367.633 149.193C366.408 147.6 362.96 149.928 361.105 151.293C359.25 152.64 356.258 155.825 353.353 156.35C348.523 157.208 349.135 151.783 349.135 151.783Z" fill="#060401"/>
<path d="M392.868 140.233C392.868 140.233 390.54 145.343 388.598 149.438C386.253 154.373 382.893 158.678 382.893 158.678C382.893 158.678 386.69 184.648 409.283 182.408C417.368 181.603 423.493 175.268 424.07 168.548C425.05 157.208 420.745 151.905 414.06 146.725C403.228 138.36 392.868 140.233 392.868 140.233ZM377.223 180.85C373.215 184.525 375.368 191.438 380.67 192.19C385.973 192.925 388.825 188.515 388.423 185.173C387.828 179.993 381.79 176.668 377.223 180.85ZM324.88 174.025C324.88 174.025 321.345 183.72 328.818 195.865C332.003 201.028 339.09 203.933 344.095 203.74C349.38 203.548 354.158 201.71 358.253 196.6C364.78 188.463 362.925 174.918 362.925 174.918C362.925 174.918 352.583 179.17 343.098 178.855C333 178.54 324.88 174.025 324.88 174.025ZM311.983 248.225C309.41 247.438 308.378 251.428 308.203 253.965C308.028 256.503 308.045 259.793 310.338 260.615C312.63 261.438 312.175 256.555 312.385 254.945C312.805 251.848 314.695 249.048 311.983 248.225ZM322.08 249.713C320.54 249.643 318.913 251.2 318.72 255.715C318.563 259.495 318.72 262.61 320.855 262.785C323.725 263.013 322.92 259.338 323.078 256.293C323.148 254.56 325.283 249.87 322.08 249.713ZM361.263 254.63C358.795 254.63 358.725 257.43 358.725 260.458C358.725 263.503 358.095 267.265 360.86 267.598C364.22 268 363.573 263.485 363.573 260.948C363.555 258.743 363.958 254.63 361.263 254.63ZM372.428 254.07C370.45 254.473 370.625 257.185 370.695 260.475C370.783 263.765 370.293 267.248 373.075 266.968C375.455 266.723 375.298 262.855 375.21 259.898C375.14 257.343 375.473 253.423 372.428 254.07ZM406.255 232.668C404.558 232.335 402.633 233.77 402.143 237.603C401.74 240.893 401.898 243.78 404.768 244.41C406.238 244.743 406.5 240.963 406.57 238.25C406.658 235.905 408.39 233.088 406.255 232.668ZM415.53 234.663C413.903 234.4 412.31 235.398 411.89 239.475C411.645 241.855 410.77 246.125 413.728 246.283C416.02 246.388 415.845 242.625 416.055 240.665C416.388 237.568 418.208 235.118 415.53 234.663Z" fill="#D27856"/>
<path d="M42.3244 98.1192C42.2384 98.1192 42.1525 98.1192 42.0666 98.0978C41.9376 98.0763 38.715 97.711 33.2365 96.7228C27.2638 95.6271 23.3322 95.1759 23.2892 95.1759C22.0001 95.0255 21.0548 93.8653 21.2052 92.5548C21.3556 91.2657 22.5373 90.3204 23.8263 90.4708C23.9982 90.4923 27.9513 90.9435 34.0958 92.0607C39.4025 93.0274 42.5822 93.3927 42.6037 93.3927C43.8927 93.5431 44.838 94.7032 44.6876 96.0138C44.5373 97.2169 43.506 98.1192 42.3244 98.1192ZM23.1603 107.594C21.9787 107.594 20.9474 106.713 20.8185 105.51C20.7826 105.201 20.8081 104.888 20.8935 104.589C20.9789 104.289 21.1226 104.01 21.3162 103.767C21.5098 103.523 21.7496 103.32 22.0218 103.169C22.294 103.019 22.5933 102.923 22.9025 102.889C22.9669 102.889 28.9396 102.18 31.9689 101.686C35.1056 101.192 42.1525 100.074 42.1525 100.074L42.883 104.736L32.7208 106.348C29.5841 106.863 23.6974 107.551 23.4396 107.572C23.3322 107.572 23.2462 107.594 23.1603 107.594ZM26.8771 117.477C25.8458 117.477 24.9005 116.811 24.5998 115.758C24.2345 114.512 24.965 113.201 26.2326 112.836L43.1623 108.002C43.7604 107.849 44.3946 107.936 44.9296 108.244C45.4646 108.552 45.8581 109.057 46.0263 109.651C46.1944 110.245 46.1238 110.882 45.8296 111.424C45.5354 111.967 45.0408 112.373 44.4513 112.557L27.5216 117.391C27.3283 117.434 27.0919 117.477 26.8771 117.477Z" fill="#888071"/>
<path d="M114.49 181.35L91.2014 199.203C91.2014 199.203 92.1037 236.414 91.5022 237.918C90.9006 239.422 82.7366 248.811 83.6389 254.246C84.3479 258.478 87.5705 259.982 96.3362 260.305C105.102 260.627 122.955 256.674 122.955 256.674L114.49 181.35ZM182.854 195.551L165.623 205.219C165.623 205.219 168.051 212.48 168.051 222.771C168.051 233.062 167.149 239.508 166.547 241.635C165.946 243.762 160.897 247.779 161.412 253.623C161.649 256.33 165.043 258.457 171.08 258.156C177.117 257.855 185.905 257.254 185.905 257.254L194.67 200.084L182.854 195.551Z" fill="#B85C3E"/>
<path d="M71.4569 59.7481C71.4569 59.7481 68.6424 49.8653 71.0487 34.1387C73.4764 18.4122 77.494 10.1407 81.3397 9.73248C85.1639 9.32427 92.4256 16.586 98.076 25.2657C103.726 33.9454 108.367 49.2637 108.367 49.2637L71.4569 59.7481ZM137.178 208.957C137.178 208.957 137.371 227.111 137.779 235.168C138.187 243.225 137.801 261.121 136.168 263.098C133.654 266.127 131.119 266.213 125.683 266.428C122.439 266.557 126.693 246.469 126.693 245.652C126.693 244.836 126.887 196.647 126.887 196.647L137.178 208.957Z" fill="#FB8B02"/>
<path d="M83.3377 146.266C83.3377 146.266 78.5037 161.584 79.7068 173.078C80.9099 184.572 87.5701 199.096 94.2302 204.94C100.89 210.783 106.927 213.813 107.529 215.231C108.131 216.649 110.558 236.607 109.742 240.84C108.926 245.072 103.082 255.965 104.092 260.197C105.101 264.43 109.097 267.094 119.41 266.857C132.816 266.557 132.107 264.537 133.117 256.18C133.804 250.551 132.924 211.621 132.924 211.621C132.924 211.621 141.195 212.438 152.883 211.621C164.57 210.805 179.094 205.563 179.094 205.563C179.094 205.563 187.365 231.365 184.529 239.229C181.715 247.092 177.074 251.539 177.869 256.975C178.685 262.41 185.732 264.838 194.412 264.022C203.092 263.205 209.73 257.576 210.138 250.1C210.547 242.645 210.332 201.309 211.556 198.086C212.76 194.863 217.207 183.777 216.799 172.67C216.39 161.563 215.595 157.137 215.595 157.137C215.595 157.137 226.015 153.162 235.662 145.857C243.01 140.293 248.531 132.967 251.474 122.053C256.308 104.113 249.67 86.3673 236.349 80.3087C223.545 74.4864 210.933 76.6778 210.547 85.9591C210.16 95.2403 218.41 93.2208 224.662 95.627C230.914 98.0548 237.961 109.141 230.506 120.033C223.051 130.926 209.945 134.342 205.906 134.75C201.867 135.158 194.412 128.906 178.879 128.498C163.345 128.09 140.98 139.391 140.357 137.973C139.756 136.555 162.529 121.838 164.14 102.695C165.644 84.9493 161.928 76.6778 161.928 76.6778C161.928 76.6778 159.113 46.6426 155.074 32.5274C151.035 18.4122 145.449 7.9278 141.818 8.14265C138.187 8.33601 126.5 21.0548 122.267 27.3067C118.035 33.5587 113.394 43.6348 113.394 43.6348C113.394 43.6348 95.3474 42.9688 87.3767 45.8477C80.115 48.4688 71.8435 52.8946 66.6013 61.1661C61.3591 69.4376 59.7478 74.2716 57.3201 75.4747C54.8923 76.6778 43.3982 79.1055 42.3884 80.5235C41.3787 81.9415 38.7576 100.697 39.3591 103.512C39.9607 106.326 40.4334 112.9 43.7849 116.617C47.6091 120.85 58.2009 128.004 66.5798 133.354C74.6795 138.51 82.5427 142.635 83.3377 146.266Z" fill="#FFB800"/>
<path d="M157.652 166.01C165.107 165.902 164.914 156.943 165.022 145.836C165.107 136.125 164.721 130.41 164.721 130.41C164.721 130.41 160.445 130.99 156.664 132.43C152.926 133.848 149.703 135.158 149.703 135.158V150.777C149.682 156.127 150.283 166.117 157.652 166.01ZM170.758 129.014C170.758 129.014 170.758 138.381 170.865 146.352C170.973 154.924 170.156 164.205 178.729 164.098C186.098 164.012 186.098 154.623 186.184 144.031C186.227 138.488 186.377 129.014 186.377 129.014C186.377 129.014 182.746 128.305 178.406 128.412C174.99 128.498 170.758 129.014 170.758 129.014Z" fill="#FF9B31"/>
<path d="M96.2716 88.1289C94.7033 91.9317 91.3302 97.3672 85.7658 95.9492C82.1994 95.0469 81.9416 87.377 84.0255 82.8223C86.4962 77.4512 89.7834 75.0235 93.6291 75.4746C97.8615 75.9903 98.2697 83.252 96.2716 88.1289ZM59.4474 86.9688C59.34 84.541 53.088 82.8438 48.2541 81.0176C44.1505 79.4922 41.8947 79.4063 40.799 80.416C39.7033 81.4258 38.3712 84.0469 37.7697 88.086C37.1681 92.125 37.383 98.9571 38.3712 103.211C39.381 107.551 40.9923 112.986 48.1466 115.822C54.2912 118.25 57.922 114.92 60.5431 113.094C63.8732 110.795 62.4337 105.338 57.7287 108.152C54.2052 110.279 51.7775 110.881 49.049 108.861C45.3107 106.09 44.4084 97.8828 44.7091 97.1738C46.0197 94.1016 51.2619 93.3496 53.3888 92.5332C55.5158 91.7168 59.5548 89.0957 59.4474 86.9688Z" fill="#2C312C"/>
<path d="M101.707 108.389H101.535C101.471 108.389 94.6815 107.895 90.4491 107.787L78.3534 107.486C78.3534 107.486 75.8183 107.701 75.8183 105.209C75.8183 102.566 78.4608 102.975 78.4608 102.975L90.5565 103.275C94.8964 103.383 101.578 103.855 101.857 103.877C103.103 103.963 104.027 105.059 103.941 106.283C103.855 107.486 102.867 108.389 101.707 108.389ZM97.8612 123.106C97.539 123.106 97.1952 123.041 96.8944 122.891C96.8515 122.869 91.5019 120.313 86.6679 118.658C81.6405 116.961 76.0116 115.135 76.0116 115.135C74.83 114.748 74.164 113.481 74.5507 112.299C74.9374 111.117 76.205 110.451 77.3866 110.838C77.3866 110.838 83.0585 112.664 88.1073 114.383C93.2206 116.123 98.6132 118.701 98.8495 118.83C99.9667 119.367 100.439 120.721 99.9022 121.838C99.5155 122.633 98.6991 123.106 97.8612 123.106ZM86.8827 131.484C86.453 131.484 86.0019 131.356 85.6151 131.098C85.5722 131.076 81.7909 128.498 79.2558 126.93C76.6132 125.318 71.8651 122.268 71.8651 122.268C71.8651 122.268 69.7382 121.022 71.1132 119.045C72.4882 117.068 74.2929 118.443 74.2929 118.443C74.2929 118.443 79.0194 121.451 81.619 123.063C84.2616 124.674 87.9999 127.252 88.1718 127.359C89.203 128.068 89.4608 129.465 88.7519 130.496C88.3007 131.141 87.5917 131.484 86.8827 131.484Z" fill="#888071"/>
<path d="M138.252 26.4902C137.221 26.1249 130.539 33.9023 127.209 41.6152C123.879 49.3281 122.676 53.5605 122.977 54.914C123.106 55.5156 126.951 58.8456 132.645 63.3788C138.553 68.0624 142.313 70.9413 143.988 70.7909C145.643 70.6406 146.115 57.7929 144.74 46.1484C143.365 34.5038 139.906 27.0917 138.252 26.4902Z" fill="#FED0AB"/>
</svg>
