<svg width="28" height="29" viewBox="0 0 28 29" fill="none" xmlns="http://www.w3.org/2000/svg">
<path d="M0.128705 14.5C0.128523 14.2445 0.178707 13.9915 0.276385 13.7555C0.374064 13.5194 0.517321 13.3049 0.697963 13.1243C0.878605 12.9437 1.09309 12.8004 1.32914 12.7027C1.5652 12.605 1.81819 12.5549 2.07366 12.555L12.0535 12.5532L12.0553 2.57338C12.0553 2.31797 12.1056 2.06505 12.2034 1.82908C12.3011 1.59311 12.4444 1.3787 12.625 1.19809C12.8056 1.01748 13.02 0.87422 13.256 0.776477C13.4919 0.678733 13.7449 0.628426 14.0003 0.628426C14.2557 0.628426 14.5086 0.678733 14.7446 0.776477C14.9806 0.874219 15.195 1.01748 15.3756 1.19809C15.5562 1.3787 15.6994 1.59311 15.7972 1.82908C15.8949 2.06505 15.9452 2.31797 15.9452 2.57338L15.9471 12.5532L25.9269 12.555C26.4427 12.555 26.9374 12.76 27.3022 13.1247C27.6669 13.4895 27.8719 13.9842 27.8719 14.5C27.8719 15.0158 27.6669 15.5105 27.3022 15.8753C26.9374 16.24 26.4427 16.445 25.9269 16.445L15.9471 16.4468L15.9452 26.4266C15.9452 26.9425 15.7403 27.4372 15.3756 27.8019C15.0108 28.1667 14.5161 28.3716 14.0003 28.3716C13.4844 28.3716 12.9897 28.1667 12.625 27.8019C12.2602 27.4372 12.0553 26.9425 12.0553 26.4266L12.0535 16.4468L2.07366 16.445C1.81819 16.4451 1.5652 16.395 1.32914 16.2973C1.09309 16.1996 0.878605 16.0563 0.697963 15.8757C0.517321 15.6951 0.374064 15.4806 0.276385 15.2445C0.178707 15.0085 0.128523 14.7555 0.128705 14.5Z" fill="#30322A"/>
</svg>
