<svg width="50" height="50" viewBox="0 0 50 50" fill="none" xmlns="http://www.w3.org/2000/svg">
<path d="M0 25C0 11.1929 11.1929 0 25 0C38.8071 0 50 11.1929 50 25C50 38.8071 38.8071 50 25 50C11.1929 50 0 38.8071 0 25Z" fill="#9A8470"/>
<path d="M35.0326 25.9548L21.8662 39.3078C20.9562 40.2307 19.4847 40.2307 18.5843 39.3078L16.3964 37.0889C15.4864 36.1659 15.4864 34.6735 16.3964 33.7604L25.729 24.2955L16.3964 14.8306C15.4864 13.9077 15.4864 12.4153 16.3964 11.5022L18.5746 9.26364C19.4847 8.34071 20.9562 8.34071 21.8565 9.26364L35.0229 22.6166C35.9426 23.5395 35.9426 25.0319 35.0326 25.9548Z" fill="white"/>
</svg>
