<svg width="138" height="138" viewBox="0 0 138 138" fill="none" xmlns="http://www.w3.org/2000/svg">
<g clip-path="url(#clip0_138_845)">
<path d="M75.014 28.6851C79.589 30.6203 81.269 37.9138 78.7191 45.038C76.1908 52.1266 70.4693 56.3621 65.8728 54.4626C61.312 52.5846 59.5963 45.2696 62.1105 38.1238C64.6031 31.0136 70.396 26.8212 75.014 28.6851ZM100.517 44.0852C104.352 47.326 103.303 54.3831 98.242 59.9424C93.0528 65.4728 85.8158 67.3817 81.9947 64.1981C78.1379 60.993 79.2226 53.9574 84.3546 48.4411C89.4726 42.8677 96.7095 40.9588 100.517 44.0852ZM46.0239 33.5691C51.1454 34.2768 54.757 40.7897 54.3076 48.0629C53.6153 55.3353 49.1125 60.6962 44.0266 60.01C38.9408 59.3239 35.3433 52.8682 35.9071 45.5668C36.4709 38.2653 41.0666 32.9119 46.0239 33.5691ZM110.226 72.3387C113.116 76.42 110.517 82.9796 104.318 86.8779C98.1188 90.7762 90.7305 90.598 87.7554 86.4164C84.7804 82.2348 87.4284 75.754 93.5423 71.7554C99.7699 67.9715 107.215 68.1356 110.226 72.3387ZM81.0509 107.192C79.1689 110.631 74.3608 112.789 70.4533 112.328C62.3026 111.397 58.4026 100.768 51.3047 96.4814C44.2068 92.1953 32.7615 93.8992 28.4009 86.9339C25.8895 83.0324 26.2285 76.9094 29.0183 73.3372C32.8696 68.4104 40.9773 69.4124 47.1058 67.8077C55.1719 65.8155 64.4464 58.5174 71.6157 62.8466C78.7492 67.1544 76.9084 78.7468 78.6005 86.8264C79.9319 93.5686 84.312 101.227 81.0509 107.192Z" fill="#9A8470"/>
</g>
<defs>
<clipPath id="clip0_138_845">
<rect width="100" height="100" fill="white" transform="translate(51.6929) rotate(31.1264)"/>
</clipPath>
</defs>
</svg>
