<svg width="300" height="276" viewBox="0 0 300 276" fill="none" xmlns="http://www.w3.org/2000/svg">
<path fill-rule="evenodd" clip-rule="evenodd" d="M85.7142 69.6907V15.527C85.7072 14.8199 85.554 14.121 85.2632 13.4702C84.9724 12.8195 84.5498 12.2296 84.0195 11.7343C83.4892 11.239 82.8616 10.848 82.1725 10.5836C81.4835 10.3192 80.7464 10.1866 80.0035 10.1933H48.675C47.9239 10.1757 47.1766 10.3001 46.4764 10.5594C45.7762 10.8187 45.137 11.2077 44.5959 11.7038C44.0547 12.1999 43.6224 12.7933 43.3239 13.4495C43.0255 14.1058 42.8668 14.812 42.8571 15.527V103.702L32.1428 112.198V275.372H267.857V122.396L150.75 18.0665L85.7142 69.6907Z" fill="#CDB381"/>
<path d="M149.143 254.985H65.1427C64.7141 254.985 64.2855 254.577 64.2855 254.169V146.78C64.2855 139.131 70.8212 132.91 78.8569 132.91H135.536C143.571 132.91 150.107 139.131 150.107 146.78V254.169C150 254.577 149.571 254.985 149.143 254.985Z" fill="#9A2828"/>
<path d="M133.929 193.785C135.349 193.785 136.712 193.247 137.717 192.291C138.721 191.335 139.286 190.038 139.286 188.685C139.286 187.333 138.721 186.036 137.717 185.08C136.712 184.123 135.349 183.586 133.929 183.586C132.508 183.586 131.145 184.123 130.141 185.08C129.136 186.036 128.572 187.333 128.572 188.685C128.572 190.038 129.136 191.335 130.141 192.291C131.145 193.247 132.508 193.785 133.929 193.785Z" fill="#5C0000"/>
<path d="M149.572 265.173H64.2858C58.393 265.173 53.5715 260.584 53.5715 254.975C53.5715 249.366 58.393 244.777 64.2858 244.777H149.572C155.464 244.777 160.286 249.366 160.286 254.975C160.286 260.584 155.464 265.173 149.572 265.173Z" fill="white"/>
<path d="M300 275.372H0V274.454C0 263.643 9.10714 254.975 20.4643 254.975H279.536C290.786 254.975 300 263.643 300 274.454V275.372Z" fill="#8C9E6E"/>
<path d="M159.429 3.59494L296.143 131.789C301.286 136.582 301.286 144.333 296.143 149.024C291.107 153.817 282.857 153.817 277.714 149.024L150.214 29.4989L22.2857 149.432C17.25 154.225 9 154.225 3.85714 149.432C-1.28571 144.639 -1.28571 136.888 3.85714 132.095L141 3.59494C146.036 -1.19831 154.286 -1.19831 159.429 3.59494Z" fill="#7F0000"/>
<path d="M226.5 193.785H180.643C175.5 193.785 171.428 189.909 171.428 185.014V141.365C171.428 136.572 175.5 132.594 180.643 132.594H226.5C231.536 132.594 235.714 136.47 235.714 141.365V185.014C235.714 189.909 231.643 193.785 226.5 193.785Z" fill="#F0F0F0"/>
</svg>
