<svg width="95" height="95" viewBox="0 0 95 95" fill="none" xmlns="http://www.w3.org/2000/svg">
<path d="M41.6899 15.5326C45.6555 15.7905 48.8443 20.8583 48.793 26.9115C48.7487 32.9322 45.541 37.6378 41.5686 37.4126C37.6287 37.1942 34.4073 32.1195 34.426 26.0594C34.4377 20.0319 37.7106 15.34 41.6899 15.5326ZM65.0094 20.4547C68.7598 21.8936 69.8247 27.5011 67.4647 33.033C65 38.5768 60.0351 41.9236 56.3104 40.5242C52.5532 39.1179 51.5209 33.5173 53.9462 27.9992C56.3457 22.4416 61.3105 19.0949 65.0094 20.4547ZM21.0743 26.8524C25.1297 26.0391 29.5723 30.0088 31.1471 35.6217C32.5381 41.298 30.5474 46.5331 26.5246 47.3533C22.5018 48.1735 18.085 44.2433 16.5892 38.5789C15.0934 32.9146 17.1563 27.6607 21.0743 26.8524ZM79.7809 39.2438C83.038 41.5665 82.8016 47.2059 79.1442 51.7826C75.4869 56.3593 69.8584 58.1692 66.5103 55.7932C63.1621 53.4172 63.4569 47.8241 67.0233 43.1942C70.7321 38.6965 76.4001 36.8609 79.7809 39.2438ZM66.9131 73.2528C66.3965 76.3461 63.3323 79.2424 60.2589 79.9223C53.8564 81.3645 48.1124 74.3606 41.6221 72.9906C35.1317 71.6207 26.9337 75.9203 21.8062 71.806C18.882 69.5195 17.5265 64.8045 18.694 61.3716C20.3068 56.636 26.6956 55.259 30.9031 52.4338C36.4724 48.8057 41.5582 40.8512 48.1138 42.2349C54.6367 43.6118 56.2971 52.8539 59.7019 58.5124C62.4823 63.2555 67.8069 67.8884 66.9131 73.2528Z" fill="#8F9546"/>
</svg>
