<svg width="68" height="63" viewBox="0 0 68 63" fill="none" xmlns="http://www.w3.org/2000/svg">
<path d="M34.1618 1.1101C37.9786 2.12597 39.9998 7.29939 38.6448 12.7149C37.3035 18.1026 33.1568 21.6856 29.3264 20.6976C25.5262 19.7222 23.4746 14.5362 24.7993 9.10803C26.1102 3.70775 30.3176 0.149967 34.1618 1.1101ZM55.8719 10.1366C59.2238 12.1684 59.0548 17.4053 55.5577 21.8966C51.9557 26.3779 46.3861 28.3952 43.0507 26.4038C39.685 24.3998 39.8844 19.1756 43.4423 14.7096C46.9835 10.203 52.5531 8.1857 55.8719 10.1366ZM11.5907 7.1767C15.7261 7.25021 19.2084 11.6875 19.536 17.0301C19.6706 22.3932 16.5981 26.6915 12.4931 26.6307C8.38805 26.5698 4.92235 22.173 4.68292 16.7999C4.44348 11.4268 7.5905 7.12582 11.5907 7.1767ZM66.2453 29.9007C68.9251 32.6272 67.4785 37.6351 62.9204 41.0135C58.3624 44.3919 52.4761 44.9004 49.7189 42.1082C46.9617 39.316 48.4554 34.3611 52.9361 30.917C57.5273 27.6195 63.4577 27.0958 66.2453 29.9007ZM46.3483 57.8373C45.1769 60.5077 41.5604 62.4974 38.4127 62.4986C31.8498 62.5243 27.7508 55.1098 21.7084 52.5976C15.6661 50.0853 6.73388 52.3168 2.61393 47.6144C0.251486 44.9863 -0.0556531 40.492 1.82445 37.646C4.42027 33.7205 10.9556 33.7506 15.6733 32.0508C21.8938 29.9011 28.5749 23.7777 34.678 26.3152C40.7507 28.8401 40.3796 37.4526 42.4844 43.1982C44.1769 47.9998 48.3776 53.206 46.3483 57.8373Z" fill="#C0A790"/>
</svg>
