<svg width="67" height="68" viewBox="0 0 67 68" fill="none" xmlns="http://www.w3.org/2000/svg">
<path d="M12.5248 9.62062C15.9224 7.55938 21.4399 9.88506 24.8668 14.8751C28.2808 19.8344 28.3488 25.529 24.9643 27.6209C21.6104 29.6997 16.0623 27.3871 12.6046 22.4101C9.16003 17.4638 9.15336 11.7432 12.5248 9.62062ZM34.456 0.290508C38.354 -0.67955 42.4402 3.30554 43.6764 9.19138C44.8335 15.147 42.6827 20.735 38.8284 21.7227C34.9435 22.7234 30.888 18.7253 29.7132 12.8133C28.4947 6.88377 30.6454 1.29581 34.456 0.290508ZM2.11738 30.7115C4.9747 27.7209 10.8904 28.4282 15.3975 32.1255C19.7904 35.9801 21.1591 41.4111 18.3324 44.3886C15.5058 47.3662 9.63382 46.6765 5.16194 42.8917C0.690068 39.1069 -0.63029 33.6192 2.11738 30.7115ZM57.3288 7.22307C61.3291 7.25997 64.3672 12.017 63.9927 17.8635C63.6183 23.7101 60.043 28.4188 55.9375 28.3904C51.832 28.362 48.8684 23.6096 49.1378 17.7715C49.5997 11.9602 53.1926 7.20769 57.3288 7.22307ZM66.2733 42.4677C67.6226 45.2988 66.7713 49.4283 64.6423 51.7468C60.2219 56.5978 51.5008 54.1498 45.3969 56.7466C39.293 59.3433 35.0387 67.565 28.4789 67.1317C24.7721 66.9336 20.9593 63.8465 19.9488 60.3642C18.5566 55.5591 23.0031 50.7694 24.8321 46.0429C27.3171 39.8781 26.9263 30.4448 33.0916 27.8219C39.2262 25.2121 45.8834 31.8346 51.9163 34.5205C56.913 36.8142 63.9316 37.5594 66.2733 42.4677Z" fill="#9A8470"/>
</svg>
