<svg width="95" height="95" viewBox="0 0 95 95" fill="none" xmlns="http://www.w3.org/2000/svg">
<path d="M41.1375 15.3117C45.1052 15.5346 48.3385 20.5741 48.3407 26.6275C48.3494 32.6483 45.1833 37.3821 41.2091 37.1919C37.2674 37.0082 34.0014 31.9621 33.9666 25.9021C33.9252 19.8747 37.1566 15.1541 41.1375 15.3117ZM64.4995 20.028C68.2624 21.4338 69.3767 27.0317 67.0655 32.5841C64.6498 38.1495 59.7146 41.5399 55.9778 40.1734C52.2083 38.8003 51.1267 33.209 53.5032 27.6698C55.8536 22.0912 60.7888 18.7008 64.4995 20.028ZM20.6225 26.8128C24.6706 25.9637 29.148 29.8941 30.7722 35.4929C32.2132 41.1568 30.2687 46.4092 26.2533 47.2648C22.2379 48.1205 17.7866 44.2293 16.2409 38.5784C14.6953 32.9274 16.7117 27.6555 20.6225 26.8128ZM79.436 38.6861C82.7135 40.9801 82.5268 46.6213 78.9099 51.2301C75.2931 55.8388 69.6808 57.6983 66.3118 55.3519C62.9428 53.0055 63.1883 47.4101 66.7138 42.7489C70.3828 38.2187 76.0344 36.3331 79.436 38.6861ZM66.8686 72.8073C66.3792 75.905 63.3407 78.8282 60.2734 79.5352C53.8839 81.0337 48.0783 74.0807 41.5762 72.7681C35.074 71.4554 26.9142 75.8271 21.7506 71.7582C18.8064 69.4975 17.4094 64.7947 18.5466 61.3516C20.1176 56.6019 26.494 55.1687 30.6764 52.3065C36.2136 48.6295 41.229 40.6305 47.7965 41.9563C54.3313 43.2756 56.0731 52.5028 59.5277 58.131C62.3498 62.8494 67.7151 67.4352 66.8686 72.8073Z" fill="#C0A790"/>
</svg>
