<svg width="768" height="104" viewBox="0 0 768 104" fill="none" xmlns="http://www.w3.org/2000/svg">
<path d="M0 1.5H768" stroke="#30322A"/>
<path d="M62 0H212V93.4483C212 98.9711 207.523 103.448 202 103.448H72C66.4772 103.448 62 98.9711 62 93.4483V0Z" fill="#C0A790"/>
<path d="M222 0H372V93.4483C372 98.9711 367.523 103.448 362 103.448H232C226.477 103.448 222 98.9711 222 93.4483V0Z" fill="#C0A790"/>
<path d="M382 0H532V93.4483C532 98.9711 527.523 103.448 522 103.448H392C386.477 103.448 382 98.9711 382 93.4483V0Z" fill="#C0A790"/>
<path d="M542 0H692V93.4483C692 98.9711 687.523 103.448 682 103.448H552C546.477 103.448 542 98.9711 542 93.4483V0Z" fill="#C0A790"/>
<path d="M659.437 62.75C660.912 62.5375 662.475 64.15 662.925 66.375C663.375 68.5875 662.562 70.5625 661.087 70.7875C659.625 71.0125 658.05 69.4 657.587 67.175C657.125 64.9625 657.962 62.9875 659.437 62.75ZM668.375 62.75C669.862 62.9875 670.687 64.9625 670.25 67.175C669.775 69.4 668.212 71.0125 666.737 70.7875C665.25 70.5625 664.437 68.5875 664.9 66.375C665.35 64.15 666.912 62.5375 668.375 62.75ZM652.75 68.5C654.175 67.8875 656.112 69 657.125 70.9375C658.075 72.9125 657.75 74.9875 656.337 75.6C654.925 76.2125 653 75.1125 652.012 73.15C651.025 71.1875 651.375 69.1 652.75 68.5ZM675.25 68.5C676.625 69.1 676.975 71.1875 675.987 73.15C675 75.1125 673.075 76.2125 671.662 75.6C670.25 74.9875 669.925 72.9125 670.875 70.9375C671.887 69 673.825 67.8875 675.25 68.5ZM673.162 81.975C673.212 83.15 672.312 84.45 671.237 84.9375C669 85.9625 666.35 83.8375 663.862 83.8375C661.375 83.8375 658.7 86.05 656.5 84.9375C655.25 84.325 654.387 82.7 654.55 81.35C654.775 79.4875 657.012 78.4875 658.337 77.125C660.1 75.3625 661.35 72.05 663.862 72.05C666.362 72.05 667.687 75.3125 669.375 77.125C670.762 78.65 673.075 79.9375 673.162 81.975Z" fill="white"/>
<path d="M331.437 25.75C332.912 25.5375 334.475 27.15 334.925 29.375C335.375 31.5875 334.562 33.5625 333.087 33.7875C331.625 34.0125 330.05 32.4 329.587 30.175C329.125 27.9625 329.962 25.9875 331.437 25.75ZM340.375 25.75C341.862 25.9875 342.687 27.9625 342.25 30.175C341.775 32.4 340.212 34.0125 338.737 33.7875C337.25 33.5625 336.437 31.5875 336.9 29.375C337.35 27.15 338.912 25.5375 340.375 25.75ZM324.75 31.5C326.175 30.8875 328.112 32 329.125 33.9375C330.075 35.9125 329.75 37.9875 328.337 38.6C326.925 39.2125 325 38.1125 324.012 36.15C323.025 34.1875 323.375 32.1 324.75 31.5ZM347.25 31.5C348.625 32.1 348.975 34.1875 347.987 36.15C347 38.1125 345.075 39.2125 343.662 38.6C342.25 37.9875 341.925 35.9125 342.875 33.9375C343.887 32 345.825 30.8875 347.25 31.5ZM345.162 44.975C345.212 46.15 344.312 47.45 343.237 47.9375C341 48.9625 338.35 46.8375 335.862 46.8375C333.375 46.8375 330.7 49.05 328.5 47.9375C327.25 47.325 326.387 45.7 326.55 44.35C326.775 42.4875 329.012 41.4875 330.337 40.125C332.1 38.3625 333.35 35.05 335.862 35.05C338.362 35.05 339.687 38.3125 341.375 40.125C342.762 41.65 345.075 42.9375 345.162 44.975Z" fill="white"/>
<path d="M95.1426 41.6131C100.943 41.5037 106.85 41.3887 112.626 40.874C113.969 40.7544 118.739 40.7536 119.457 39.3193" stroke="white" stroke-width="3" stroke-linecap="round"/>
<path d="M103.859 28.7681C103.859 47.1207 104.777 65.4648 104.777 83.8186" stroke="white" stroke-width="3" stroke-linecap="round"/>
<path d="M103.4 53.082C101.77 53.4441 100.012 56.1028 98.8122 57.2363C97.252 58.7098 95.5399 60.1542 94.2246 61.7984" stroke="white" stroke-width="3" stroke-linecap="round"/>
<path d="M105.235 54.4585C106.998 54.6544 109.313 57.9942 110.511 59.046C113.921 62.0402 117.236 63.2574 121.75 63.6336" stroke="white" stroke-width="3" stroke-linecap="round"/>
<path d="M135.513 81.0661C134.914 67.8798 133.219 54.8301 133.219 41.6133C133.219 40.2372 133.013 36.5503 133.958 35.3946C135.522 33.4841 139.475 32.5195 141.834 32.4382C144.46 32.3476 145.143 33.0065 146.523 35.3946C150.582 42.4199 151.335 50.8207 152.258 58.7146C153.095 65.8793 155.239 87.3621 155.239 80.1486" stroke="white" stroke-width="3" stroke-linecap="round"/>
<path d="M132.302 50.7884C136.645 50.7884 141.472 51.2489 145.606 49.8708" stroke="white" stroke-width="3" stroke-linecap="round"/>
<path d="M136.889 65.0098C141.937 65.0098 146.969 65.4685 152.028 65.4685" stroke="white" stroke-width="3" stroke-linecap="round"/>
<path d="M136.431 81.066C140.218 81.066 143.743 80.7022 147.441 80.174C149.039 79.9457 150.925 79.231 152.487 79.231" stroke="white" stroke-width="3" stroke-linecap="round"/>
<path d="M421.918 41.845C427.718 41.7356 433.626 41.6206 439.402 41.1059C440.744 40.9863 445.515 40.9855 446.232 39.5513" stroke="white" stroke-width="3" stroke-linecap="round"/>
<path d="M430.635 29C430.635 47.3527 431.552 65.6967 431.552 84.0505" stroke="white" stroke-width="3" stroke-linecap="round"/>
<path d="M430.175 53.314C428.546 53.676 426.788 56.3347 425.588 57.4682C424.027 58.9418 422.315 60.3861 421 62.0303" stroke="white" stroke-width="3" stroke-linecap="round"/>
<path d="M432.011 54.6904C433.773 54.8863 436.089 58.2262 437.286 59.278C440.696 62.2721 444.011 63.4893 448.526 63.8655" stroke="white" stroke-width="3" stroke-linecap="round"/>
<path d="M462.288 81.298C461.689 68.1118 459.995 55.0621 459.995 41.8452C459.995 40.4691 459.788 36.7822 460.734 35.6265C462.297 33.716 466.25 32.7514 468.609 32.6701C471.236 32.5795 471.919 33.2385 473.299 35.6265C477.358 42.6518 478.11 51.0527 479.033 58.9465C479.87 66.1112 482.015 87.594 482.015 80.3805" stroke="white" stroke-width="3" stroke-linecap="round"/>
<path d="M459.077 51.0203C463.42 51.0203 468.247 51.4808 472.381 50.1028" stroke="white" stroke-width="3" stroke-linecap="round"/>
<path d="M463.664 65.2417C468.713 65.2417 473.745 65.7005 478.803 65.7005" stroke="white" stroke-width="3" stroke-linecap="round"/>
<path d="M463.206 81.2979C466.993 81.2979 470.519 80.9341 474.216 80.4059C475.814 80.1776 477.7 79.4629 479.262 79.4629" stroke="white" stroke-width="3" stroke-linecap="round"/>
<path d="M262.588 15.9229C267.321 15.4496 272.112 14.831 276.351 12.7117" stroke="white" stroke-width="3" stroke-linecap="round"/>
<path d="M263.505 26.4744C265.908 28.0766 267.412 32.9292 268.092 35.6494" stroke="white" stroke-width="3" stroke-linecap="round"/>
<path d="M272.222 21.8867V27.8505" stroke="white" stroke-width="3" stroke-linecap="round"/>
<path d="M280.479 20.5105C280.479 22.4308 280.725 24.5216 280.453 26.4233C280.339 27.2208 279.375 27.952 279.103 28.7681" stroke="white" stroke-width="3" stroke-linecap="round"/>
<path d="M255.248 44.3657V52.1645" stroke="white" stroke-width="3" stroke-linecap="round"/>
<path d="M257.083 42.9895C266.771 41.7785 278.028 42.4285 287.31 38.6313C289.395 37.7785 290.017 36.6816 290.139 39.4724C290.304 43.2699 289.842 48.1393 291.031 51.7058" stroke="white" stroke-width="3" stroke-linecap="round"/>
<path d="M260.294 52.6233C260.396 54.4635 261.055 56.2566 261.211 58.1283" stroke="white" stroke-width="3" stroke-linecap="round"/>
<path d="M266.258 50.3296C266.258 52.5856 266.598 59.4018 269.24 59.9889C271.513 60.4942 276.223 62.0525 277.727 59.0459" stroke="white" stroke-width="3" stroke-linecap="round"/>
<path d="M272.222 50.7883C274.242 51.0128 274.849 54.8344 275.433 56.2934" stroke="white" stroke-width="3" stroke-linecap="round"/>
<path d="M279.562 48.4946C281.655 49.8903 282.194 52.9092 283.588 54.9172C284.297 55.937 284.865 56.9196 285.067 58.1285" stroke="white" stroke-width="3" stroke-linecap="round"/>
<path d="M272.469 66.386C271.963 70.9438 266.765 74.2221 265.129 78.3136" stroke="white" stroke-width="3" stroke-linecap="round"/>
<path d="M271.552 70.9735C273.554 70.9735 275.567 70.898 277.567 70.9735C278.956 71.0259 278.892 73.5431 278.892 74.6435C278.892 79.2161 272.736 83.1573 270.176 86.5711" stroke="white" stroke-width="3" stroke-linecap="round"/>
<path d="M267.882 76.0198C268.648 76.1049 269.255 76.8102 269.844 77.2431C271.867 78.7306 273.97 80.1575 276.139 81.4229C278.608 82.8628 281.449 84.7361 284.397 84.7361" stroke="white" stroke-width="3" stroke-linecap="round"/>
<path d="M587.221 26.3088C584.385 29.1454 581.729 32.1296 578.759 34.8026C577.424 36.0038 575.72 37.3312 574.764 38.7664" stroke="white" stroke-width="3" stroke-linecap="round"/>
<path d="M584.39 33.104C584.924 49.1413 591.185 64.6743 591.185 80.6693" stroke="white" stroke-width="3" stroke-linecap="round"/>
<path d="M600.812 28.5737C604.209 29.3288 606.22 37.3794 608.739 39.8988" stroke="white" stroke-width="3" stroke-linecap="round"/>
<path d="M624.027 29.7063C623.49 32.6645 618.927 36.3946 617.232 38.7663" stroke="white" stroke-width="3" stroke-linecap="round"/>
<path d="M601.378 55.754C606.547 55.754 611.668 54.7349 616.856 54.6215C620.05 54.5517 623.192 53.489 626.293 53.489" stroke="white" stroke-width="3" stroke-linecap="round"/>
<path d="M601.378 67.079C612.669 67.079 625.737 69.1133 636.486 64.814" stroke="white" stroke-width="3" stroke-linecap="round"/>
<path d="M614.967 20.6462C614.59 25.175 613.835 29.441 613.835 34.0476C613.835 41.7778 614.498 49.2009 615.093 56.8864C615.555 62.8443 617.036 68.8043 617.232 74.7549C617.33 77.7136 618.365 80.5794 618.365 83.5003" stroke="white" stroke-width="3" stroke-linecap="round"/>
</svg>
