<svg width="984" height="59" viewBox="0 0 984 59" fill="none" xmlns="http://www.w3.org/2000/svg">
<path d="M67.7955 25.5455H69.9091V38.0227C69.9091 39.1364 69.7045 40.0824 69.2955 40.8608C68.8864 41.6392 68.3097 42.2301 67.5653 42.6335C66.821 43.0369 65.9432 43.2386 64.9318 43.2386C63.9773 43.2386 63.1278 43.0653 62.3835 42.7188C61.6392 42.3665 61.054 41.8665 60.6278 41.2188C60.2017 40.571 59.9886 39.8011 59.9886 38.9091H62.0682C62.0682 39.4034 62.1903 39.8352 62.4347 40.2045C62.6847 40.5682 63.0256 40.8523 63.4574 41.0568C63.8892 41.2614 64.3807 41.3636 64.9318 41.3636C65.5398 41.3636 66.0568 41.2358 66.483 40.9801C66.9091 40.7244 67.233 40.3494 67.4545 39.8551C67.6818 39.3551 67.7955 38.7443 67.7955 38.0227V25.5455ZM82.7903 43.2727C81.6085 43.2727 80.5716 42.9915 79.6795 42.429C78.7932 41.8665 78.1 41.0795 77.6 40.0682C77.1057 39.0568 76.8585 37.875 76.8585 36.5227C76.8585 35.1591 77.1057 33.9687 77.6 32.9517C78.1 31.9347 78.7932 31.1449 79.6795 30.5824C80.5716 30.0199 81.6085 29.7386 82.7903 29.7386C83.9722 29.7386 85.0063 30.0199 85.8926 30.5824C86.7847 31.1449 87.4778 31.9347 87.9722 32.9517C88.4722 33.9687 88.7222 35.1591 88.7222 36.5227C88.7222 37.875 88.4722 39.0568 87.9722 40.0682C87.4778 41.0795 86.7847 41.8665 85.8926 42.429C85.0063 42.9915 83.9722 43.2727 82.7903 43.2727ZM82.7903 41.4659C83.6881 41.4659 84.4267 41.2358 85.0063 40.7756C85.5858 40.3153 86.0148 39.7102 86.2932 38.9602C86.5716 38.2102 86.7108 37.3977 86.7108 36.5227C86.7108 35.6477 86.5716 34.8324 86.2932 34.0767C86.0148 33.321 85.5858 32.7102 85.0063 32.2443C84.4267 31.7784 83.6881 31.5455 82.7903 31.5455C81.8926 31.5455 81.154 31.7784 80.5744 32.2443C79.9949 32.7102 79.5659 33.321 79.2875 34.0767C79.0091 34.8324 78.8699 35.6477 78.8699 36.5227C78.8699 37.3977 79.0091 38.2102 79.2875 38.9602C79.5659 39.7102 79.9949 40.3153 80.5744 40.7756C81.154 41.2358 81.8926 41.4659 82.7903 41.4659ZM96.2192 47.9091C95.8783 47.9091 95.5743 47.8807 95.3072 47.8239C95.0402 47.7727 94.8555 47.7216 94.7533 47.6705L95.2646 45.8977C95.7533 46.0227 96.1851 46.0682 96.5601 46.0341C96.9351 46 97.2675 45.8324 97.5572 45.5312C97.8527 45.2358 98.1226 44.7557 98.3669 44.0909L98.7419 43.0682L93.901 29.9091H96.0828L99.6964 40.3409H99.8328L103.446 29.9091H105.628L100.071 44.9091C99.8214 45.5852 99.5118 46.1449 99.1425 46.5881C98.7732 47.0369 98.3442 47.3693 97.8555 47.5852C97.3726 47.8011 96.8271 47.9091 96.2192 47.9091ZM117.713 29.9091V31.6136H110.656V29.9091H117.713ZM112.769 43V28.1023C112.769 27.3523 112.946 26.7273 113.298 26.2273C113.65 25.7273 114.108 25.3523 114.67 25.1023C115.233 24.8523 115.826 24.7273 116.451 24.7273C116.946 24.7273 117.349 24.767 117.662 24.8466C117.974 24.9261 118.207 25 118.36 25.0682L117.781 26.8068C117.679 26.7727 117.537 26.7301 117.355 26.679C117.179 26.6278 116.946 26.6023 116.656 26.6023C115.991 26.6023 115.511 26.7699 115.215 27.1051C114.926 27.4403 114.781 27.9318 114.781 28.5795V43H112.769ZM132.382 37.6477V29.9091H134.393V43H132.382V40.7841H132.245C131.938 41.4489 131.461 42.0142 130.813 42.4801C130.166 42.9403 129.347 43.1705 128.359 43.1705C127.541 43.1705 126.813 42.9915 126.177 42.6335C125.541 42.2699 125.041 41.7244 124.677 40.9972C124.313 40.2642 124.132 39.3409 124.132 38.2273V29.9091H126.143V38.0909C126.143 39.0455 126.41 39.8068 126.944 40.375C127.484 40.9432 128.171 41.2273 129.007 41.2273C129.507 41.2273 130.015 41.0994 130.532 40.8438C131.055 40.5881 131.492 40.196 131.845 39.6676C132.203 39.1392 132.382 38.4659 132.382 37.6477ZM143.688 25.5455V43H141.677V25.5455H143.688ZM160.64 27.4205V25.5455H173.731V27.4205H168.243V43H166.129V27.4205H160.64ZM182.392 43.3068C181.562 43.3068 180.809 43.1506 180.133 42.8381C179.457 42.5199 178.92 42.0625 178.522 41.4659C178.125 40.8636 177.926 40.1364 177.926 39.2841C177.926 38.5341 178.073 37.9261 178.369 37.4602C178.664 36.9886 179.059 36.6193 179.554 36.3523C180.048 36.0852 180.593 35.8864 181.19 35.7557C181.792 35.6193 182.397 35.5114 183.005 35.4318C183.801 35.3295 184.446 35.2528 184.94 35.2017C185.44 35.1449 185.804 35.0511 186.031 34.9205C186.264 34.7898 186.38 34.5625 186.38 34.2386V34.1705C186.38 33.3295 186.15 32.6761 185.69 32.2102C185.235 31.7443 184.545 31.5114 183.619 31.5114C182.659 31.5114 181.906 31.7216 181.36 32.142C180.815 32.5625 180.431 33.0114 180.21 33.4886L178.301 32.8068C178.642 32.0114 179.096 31.392 179.664 30.9489C180.238 30.5 180.863 30.1875 181.539 30.0114C182.221 29.8295 182.892 29.7386 183.551 29.7386C183.971 29.7386 184.454 29.7898 185 29.892C185.551 29.9886 186.082 30.1903 186.593 30.4972C187.11 30.804 187.539 31.267 187.88 31.8864C188.221 32.5057 188.392 33.3352 188.392 34.375V43H186.38V41.2273H186.278C186.142 41.5114 185.914 41.8153 185.596 42.1392C185.278 42.4631 184.855 42.7386 184.326 42.9659C183.798 43.1932 183.153 43.3068 182.392 43.3068ZM182.698 41.5C183.494 41.5 184.164 41.3438 184.71 41.0312C185.261 40.7188 185.676 40.3153 185.954 39.821C186.238 39.3267 186.38 38.8068 186.38 38.2614V36.4205C186.295 36.5227 186.108 36.6165 185.818 36.7017C185.534 36.7812 185.204 36.8523 184.829 36.9148C184.46 36.9716 184.099 37.0227 183.747 37.0682C183.4 37.108 183.119 37.142 182.903 37.1705C182.38 37.2386 181.892 37.3494 181.437 37.5028C180.988 37.6506 180.625 37.875 180.346 38.1761C180.073 38.4716 179.937 38.875 179.937 39.3864C179.937 40.0852 180.196 40.6136 180.713 40.9716C181.235 41.3239 181.897 41.5 182.698 41.5ZM195.663 43V29.9091H197.674V43H195.663ZM196.686 27.7273C196.293 27.7273 195.955 27.5938 195.671 27.3267C195.393 27.0597 195.254 26.7386 195.254 26.3636C195.254 25.9886 195.393 25.6676 195.671 25.4006C195.955 25.1335 196.293 25 196.686 25C197.078 25 197.413 25.1335 197.691 25.4006C197.975 25.6676 198.117 25.9886 198.117 26.3636C198.117 26.7386 197.975 27.0597 197.691 27.3267C197.413 27.5938 197.078 27.7273 196.686 27.7273ZM206.969 25.5455V43H204.958V25.5455H206.969ZM223.526 32.8409L221.719 33.3523C221.606 33.0511 221.438 32.7585 221.216 32.4744C221.001 32.1847 220.705 31.946 220.33 31.7585C219.955 31.571 219.475 31.4773 218.89 31.4773C218.089 31.4773 217.421 31.6619 216.887 32.0312C216.359 32.3949 216.094 32.858 216.094 33.4205C216.094 33.9205 216.276 34.3153 216.64 34.6051C217.003 34.8949 217.572 35.1364 218.344 35.3295L220.288 35.8068C221.458 36.0909 222.33 36.5256 222.904 37.1108C223.478 37.6903 223.765 38.4375 223.765 39.3523C223.765 40.1023 223.549 40.7727 223.117 41.3636C222.691 41.9545 222.094 42.4205 221.327 42.7614C220.56 43.1023 219.668 43.2727 218.651 43.2727C217.316 43.2727 216.211 42.983 215.336 42.4034C214.461 41.8239 213.907 40.9773 213.674 39.8636L215.583 39.3864C215.765 40.0909 216.109 40.6193 216.614 40.9716C217.126 41.3239 217.793 41.5 218.617 41.5C219.555 41.5 220.299 41.3011 220.85 40.9034C221.407 40.5 221.685 40.017 221.685 39.4545C221.685 39 221.526 38.6193 221.208 38.3125C220.89 38 220.401 37.767 219.742 37.6136L217.56 37.1023C216.361 36.8182 215.481 36.3778 214.918 35.7812C214.361 35.179 214.083 34.4261 214.083 33.5227C214.083 32.7841 214.29 32.1307 214.705 31.5625C215.126 30.9943 215.697 30.5483 216.418 30.2244C217.145 29.9006 217.969 29.7386 218.89 29.7386C220.185 29.7386 221.202 30.0227 221.941 30.5909C222.685 31.1591 223.214 31.9091 223.526 32.8409ZM233.392 40.6136L233.256 41.5341C233.16 42.1818 233.012 42.875 232.813 43.6136C232.62 44.3523 232.418 45.0483 232.208 45.7017C231.998 46.3551 231.824 46.875 231.688 47.2614H230.154C230.228 46.8977 230.324 46.4176 230.444 45.821C230.563 45.2244 230.682 44.5568 230.802 43.8182C230.927 43.0852 231.029 42.3352 231.108 41.5682L231.211 40.6136H233.392ZM265.387 31H263.274C263.149 30.392 262.93 29.858 262.617 29.3977C262.311 28.9375 261.936 28.5511 261.492 28.2386C261.055 27.9205 260.569 27.6818 260.035 27.5227C259.501 27.3636 258.944 27.2841 258.364 27.2841C257.308 27.2841 256.35 27.5511 255.492 28.0852C254.64 28.6193 253.961 29.4062 253.455 30.446C252.955 31.4858 252.705 32.7614 252.705 34.2727C252.705 35.7841 252.955 37.0597 253.455 38.0994C253.961 39.1392 254.64 39.9261 255.492 40.4602C256.35 40.9943 257.308 41.2614 258.364 41.2614C258.944 41.2614 259.501 41.1818 260.035 41.0227C260.569 40.8636 261.055 40.6278 261.492 40.3153C261.936 39.9972 262.311 39.608 262.617 39.1477C262.93 38.6818 263.149 38.1477 263.274 37.5455H265.387C265.228 38.4375 264.938 39.2358 264.518 39.9403C264.097 40.6449 263.575 41.2443 262.95 41.7386C262.325 42.2273 261.623 42.5994 260.845 42.8551C260.072 43.1108 259.245 43.2386 258.364 43.2386C256.876 43.2386 255.552 42.875 254.393 42.1477C253.234 41.4205 252.322 40.3864 251.657 39.0455C250.992 37.7045 250.66 36.1136 250.66 34.2727C250.66 32.4318 250.992 30.8409 251.657 29.5C252.322 28.1591 253.234 27.125 254.393 26.3977C255.552 25.6705 256.876 25.3068 258.364 25.3068C259.245 25.3068 260.072 25.4347 260.845 25.6903C261.623 25.946 262.325 26.321 262.95 26.8153C263.575 27.304 264.097 27.9006 264.518 28.6051C264.938 29.304 265.228 30.1023 265.387 31ZM275.982 43.3068C275.153 43.3068 274.4 43.1506 273.724 42.8381C273.048 42.5199 272.511 42.0625 272.113 41.4659C271.715 40.8636 271.516 40.1364 271.516 39.2841C271.516 38.5341 271.664 37.9261 271.96 37.4602C272.255 36.9886 272.65 36.6193 273.144 36.3523C273.638 36.0852 274.184 35.8864 274.781 35.7557C275.383 35.6193 275.988 35.5114 276.596 35.4318C277.391 35.3295 278.036 35.2528 278.531 35.2017C279.031 35.1449 279.394 35.0511 279.621 34.9205C279.854 34.7898 279.971 34.5625 279.971 34.2386V34.1705C279.971 33.3295 279.741 32.6761 279.281 32.2102C278.826 31.7443 278.136 31.5114 277.21 31.5114C276.249 31.5114 275.496 31.7216 274.951 32.142C274.406 32.5625 274.022 33.0114 273.8 33.4886L271.891 32.8068C272.232 32.0114 272.687 31.392 273.255 30.9489C273.829 30.5 274.454 30.1875 275.13 30.0114C275.812 29.8295 276.482 29.7386 277.141 29.7386C277.562 29.7386 278.045 29.7898 278.59 29.892C279.141 29.9886 279.673 30.1903 280.184 30.4972C280.701 30.804 281.13 31.267 281.471 31.8864C281.812 32.5057 281.982 33.3352 281.982 34.375V43H279.971V41.2273H279.869C279.732 41.5114 279.505 41.8153 279.187 42.1392C278.869 42.4631 278.445 42.7386 277.917 42.9659C277.388 43.1932 276.744 43.3068 275.982 43.3068ZM276.289 41.5C277.085 41.5 277.755 41.3438 278.3 41.0312C278.852 40.7188 279.266 40.3153 279.545 39.821C279.829 39.3267 279.971 38.8068 279.971 38.2614V36.4205C279.886 36.5227 279.698 36.6165 279.408 36.7017C279.124 36.7812 278.795 36.8523 278.42 36.9148C278.05 36.9716 277.69 37.0227 277.337 37.0682C276.991 37.108 276.71 37.142 276.494 37.1705C275.971 37.2386 275.482 37.3494 275.028 37.5028C274.579 37.6506 274.215 37.875 273.937 38.1761C273.664 38.4716 273.528 38.875 273.528 39.3864C273.528 40.0852 273.786 40.6136 274.303 40.9716C274.826 41.3239 275.488 41.5 276.289 41.5ZM289.253 43V29.9091H291.197V31.8864H291.333C291.572 31.2386 292.003 30.7131 292.628 30.3097C293.253 29.9062 293.958 29.7045 294.742 29.7045C294.89 29.7045 295.074 29.7074 295.296 29.7131C295.518 29.7187 295.685 29.7273 295.799 29.7386V31.7841C295.731 31.767 295.574 31.7415 295.33 31.7074C295.091 31.6676 294.839 31.6477 294.572 31.6477C293.935 31.6477 293.367 31.7812 292.867 32.0483C292.373 32.3097 291.981 32.6733 291.691 33.1392C291.407 33.5994 291.265 34.125 291.265 34.7159V43H289.253ZM301.783 43V29.9091H303.794V43H301.783ZM302.806 27.7273C302.414 27.7273 302.076 27.5938 301.792 27.3267C301.513 27.0597 301.374 26.7386 301.374 26.3636C301.374 25.9886 301.513 25.6676 301.792 25.4006C302.076 25.1335 302.414 25 302.806 25C303.198 25 303.533 25.1335 303.812 25.4006C304.096 25.6676 304.238 25.9886 304.238 26.3636C304.238 26.7386 304.096 27.0597 303.812 27.3267C303.533 27.5938 303.198 27.7273 302.806 27.7273ZM313.09 35.125V43H311.078V29.9091H313.022V31.9545H313.192C313.499 31.2898 313.965 30.7557 314.59 30.3523C315.215 29.9432 316.022 29.7386 317.01 29.7386C317.897 29.7386 318.672 29.9205 319.337 30.2841C320.002 30.642 320.519 31.1875 320.888 31.9205C321.257 32.6477 321.442 33.5682 321.442 34.6818V43H319.431V34.8182C319.431 33.7898 319.164 32.9886 318.63 32.4148C318.095 31.8352 317.363 31.5455 316.431 31.5455C315.789 31.5455 315.215 31.6847 314.709 31.9631C314.209 32.2415 313.814 32.6477 313.524 33.1818C313.235 33.7159 313.09 34.3636 313.09 35.125ZM334.002 48.1818C333.03 48.1818 332.195 48.0568 331.496 47.8068C330.797 47.5625 330.215 47.2386 329.749 46.8352C329.288 46.4375 328.922 46.0114 328.649 45.5568L330.252 44.4318C330.433 44.6705 330.663 44.9432 330.942 45.25C331.22 45.5625 331.601 45.8324 332.084 46.0597C332.573 46.2926 333.212 46.4091 334.002 46.4091C335.058 46.4091 335.931 46.1534 336.618 45.642C337.306 45.1307 337.649 44.3295 337.649 43.2386V40.5795H337.479C337.331 40.8182 337.121 41.1136 336.848 41.4659C336.581 41.8125 336.195 42.1222 335.689 42.3949C335.189 42.6619 334.513 42.7955 333.661 42.7955C332.604 42.7955 331.655 42.5455 330.814 42.0455C329.979 41.5455 329.317 40.8182 328.828 39.8636C328.345 38.9091 328.104 37.75 328.104 36.3864C328.104 35.0455 328.34 33.8778 328.811 32.8835C329.283 31.8835 329.939 31.1108 330.78 30.5653C331.621 30.0142 332.592 29.7386 333.695 29.7386C334.547 29.7386 335.223 29.8807 335.723 30.1648C336.229 30.4432 336.615 30.7614 336.882 31.1193C337.155 31.4716 337.365 31.7614 337.513 31.9886H337.717V29.9091H339.661V43.375C339.661 44.5 339.405 45.4148 338.894 46.1193C338.388 46.8295 337.706 47.3494 336.848 47.679C335.996 48.0142 335.047 48.1818 334.002 48.1818ZM333.933 40.9886C334.74 40.9886 335.422 40.804 335.979 40.4347C336.536 40.0653 336.959 39.5341 337.249 38.8409C337.538 38.1477 337.683 37.3182 337.683 36.3523C337.683 35.4091 337.541 34.5767 337.257 33.8551C336.973 33.1335 336.553 32.5682 335.996 32.1591C335.439 31.75 334.752 31.5455 333.933 31.5455C333.081 31.5455 332.371 31.7614 331.803 32.1932C331.24 32.625 330.817 33.2045 330.533 33.9318C330.254 34.6591 330.115 35.4659 330.115 36.3523C330.115 37.2614 330.257 38.0653 330.541 38.7642C330.831 39.4574 331.257 40.0028 331.82 40.4006C332.388 40.7926 333.092 40.9886 333.933 40.9886ZM357.565 43V25.5455H359.679V33.3182H368.986V25.5455H371.099V43H368.986V35.1932H359.679V43H357.565ZM384.147 43.2727C382.885 43.2727 381.797 42.9943 380.883 42.4375C379.973 41.875 379.272 41.0909 378.777 40.0852C378.289 39.0739 378.044 37.8977 378.044 36.5568C378.044 35.2159 378.289 34.0341 378.777 33.0114C379.272 31.983 379.959 31.1818 380.84 30.608C381.726 30.0284 382.76 29.7386 383.942 29.7386C384.624 29.7386 385.297 29.8523 385.962 30.0795C386.627 30.3068 387.232 30.6761 387.777 31.1875C388.323 31.6932 388.758 32.3636 389.081 33.1989C389.405 34.0341 389.567 35.0625 389.567 36.2841V37.1364H379.476V35.3977H387.522C387.522 34.6591 387.374 34 387.079 33.4205C386.789 32.8409 386.374 32.3835 385.834 32.0483C385.3 31.7131 384.669 31.5455 383.942 31.5455C383.141 31.5455 382.448 31.7443 381.863 32.142C381.283 32.5341 380.837 33.0455 380.525 33.6761C380.212 34.3068 380.056 34.983 380.056 35.7045V36.8636C380.056 37.8523 380.226 38.6903 380.567 39.3778C380.914 40.0597 381.394 40.5795 382.008 40.9375C382.621 41.2898 383.334 41.4659 384.147 41.4659C384.675 41.4659 385.152 41.392 385.579 41.2443C386.01 41.0909 386.383 40.8636 386.695 40.5625C387.008 40.2557 387.249 39.875 387.419 39.4205L389.363 39.9659C389.158 40.625 388.814 41.2045 388.331 41.7045C387.848 42.1989 387.252 42.5852 386.542 42.8636C385.831 43.1364 385.033 43.2727 384.147 43.2727ZM400.079 43.3068C399.25 43.3068 398.497 43.1506 397.821 42.8381C397.144 42.5199 396.608 42.0625 396.21 41.4659C395.812 40.8636 395.613 40.1364 395.613 39.2841C395.613 38.5341 395.761 37.9261 396.056 37.4602C396.352 36.9886 396.747 36.6193 397.241 36.3523C397.735 36.0852 398.281 35.8864 398.877 35.7557C399.48 35.6193 400.085 35.5114 400.693 35.4318C401.488 35.3295 402.133 35.2528 402.627 35.2017C403.127 35.1449 403.491 35.0511 403.718 34.9205C403.951 34.7898 404.068 34.5625 404.068 34.2386V34.1705C404.068 33.3295 403.838 32.6761 403.377 32.2102C402.923 31.7443 402.233 31.5114 401.306 31.5114C400.346 31.5114 399.593 31.7216 399.048 32.142C398.502 32.5625 398.119 33.0114 397.897 33.4886L395.988 32.8068C396.329 32.0114 396.784 31.392 397.352 30.9489C397.926 30.5 398.551 30.1875 399.227 30.0114C399.909 29.8295 400.579 29.7386 401.238 29.7386C401.659 29.7386 402.142 29.7898 402.687 29.892C403.238 29.9886 403.769 30.1903 404.281 30.4972C404.798 30.804 405.227 31.267 405.568 31.8864C405.909 32.5057 406.079 33.3352 406.079 34.375V43H404.068V41.2273H403.965C403.829 41.5114 403.602 41.8153 403.284 42.1392C402.965 42.4631 402.542 42.7386 402.014 42.9659C401.485 43.1932 400.84 43.3068 400.079 43.3068ZM400.386 41.5C401.181 41.5 401.852 41.3438 402.397 41.0312C402.948 40.7188 403.363 40.3153 403.642 39.821C403.926 39.3267 404.068 38.8068 404.068 38.2614V36.4205C403.983 36.5227 403.795 36.6165 403.505 36.7017C403.221 36.7812 402.892 36.8523 402.517 36.9148C402.147 36.9716 401.786 37.0227 401.434 37.0682C401.088 37.108 400.806 37.142 400.59 37.1705C400.068 37.2386 399.579 37.3494 399.125 37.5028C398.676 37.6506 398.312 37.875 398.034 38.1761C397.761 38.4716 397.625 38.875 397.625 39.3864C397.625 40.0852 397.883 40.6136 398.4 40.9716C398.923 41.3239 399.585 41.5 400.386 41.5ZM413.35 43V29.9091H415.293V31.8864H415.43C415.668 31.2386 416.1 30.7131 416.725 30.3097C417.35 29.9062 418.055 29.7045 418.839 29.7045C418.987 29.7045 419.171 29.7074 419.393 29.7131C419.614 29.7187 419.782 29.7273 419.896 29.7386V31.7841C419.828 31.767 419.671 31.7415 419.427 31.7074C419.188 31.6676 418.936 31.6477 418.668 31.6477C418.032 31.6477 417.464 31.7812 416.964 32.0483C416.47 32.3097 416.078 32.6733 415.788 33.1392C415.504 33.5994 415.362 34.125 415.362 34.7159V43H413.35ZM432.393 29.9091V31.6136H425.609V29.9091H432.393ZM427.587 26.7727H429.598V39.25C429.598 39.8182 429.68 40.2443 429.845 40.5284C430.016 40.8068 430.232 40.9943 430.493 41.0909C430.76 41.1818 431.041 41.2273 431.337 41.2273C431.558 41.2273 431.74 41.2159 431.882 41.1932C432.024 41.1648 432.138 41.142 432.223 41.125L432.632 42.9318C432.496 42.983 432.305 43.0341 432.061 43.0852C431.817 43.142 431.507 43.1705 431.132 43.1705C430.564 43.1705 430.007 43.0483 429.462 42.804C428.922 42.5597 428.473 42.1875 428.115 41.6875C427.763 41.1875 427.587 40.5568 427.587 39.7955V26.7727ZM448.057 32.8409L446.251 33.3523C446.137 33.0511 445.969 32.7585 445.748 32.4744C445.532 32.1847 445.236 31.946 444.861 31.7585C444.486 31.571 444.006 31.4773 443.421 31.4773C442.62 31.4773 441.952 31.6619 441.418 32.0312C440.89 32.3949 440.626 32.858 440.626 33.4205C440.626 33.9205 440.807 34.3153 441.171 34.6051C441.535 34.8949 442.103 35.1364 442.876 35.3295L444.819 35.8068C445.989 36.0909 446.861 36.5256 447.435 37.1108C448.009 37.6903 448.296 38.4375 448.296 39.3523C448.296 40.1023 448.08 40.7727 447.648 41.3636C447.222 41.9545 446.626 42.4205 445.859 42.7614C445.091 43.1023 444.199 43.2727 443.182 43.2727C441.847 43.2727 440.742 42.983 439.867 42.4034C438.992 41.8239 438.438 40.9773 438.205 39.8636L440.114 39.3864C440.296 40.0909 440.64 40.6193 441.145 40.9716C441.657 41.3239 442.324 41.5 443.148 41.5C444.086 41.5 444.83 41.3011 445.381 40.9034C445.938 40.5 446.216 40.017 446.216 39.4545C446.216 39 446.057 38.6193 445.739 38.3125C445.421 38 444.932 37.767 444.273 37.6136L442.091 37.1023C440.893 36.8182 440.012 36.3778 439.449 35.7812C438.893 35.179 438.614 34.4261 438.614 33.5227C438.614 32.7841 438.822 32.1307 439.236 31.5625C439.657 30.9943 440.228 30.5483 440.949 30.2244C441.677 29.9006 442.501 29.7386 443.421 29.7386C444.716 29.7386 445.734 30.0227 446.472 30.5909C447.216 31.1591 447.745 31.9091 448.057 32.8409ZM456.39 43.1364C455.969 43.1364 455.608 42.9858 455.307 42.6847C455.006 42.3835 454.856 42.0227 454.856 41.6023C454.856 41.1818 455.006 40.821 455.307 40.5199C455.608 40.2187 455.969 40.0682 456.39 40.0682C456.81 40.0682 457.171 40.2187 457.472 40.5199C457.773 40.821 457.924 41.1818 457.924 41.6023C457.924 41.8807 457.853 42.1364 457.711 42.3693C457.574 42.6023 457.39 42.7898 457.157 42.9318C456.929 43.0682 456.674 43.1364 456.39 43.1364Z" fill="white"/>
<path d="M588.795 25.5455H590.909V38.0227C590.909 39.1364 590.705 40.0824 590.295 40.8608C589.886 41.6392 589.31 42.2301 588.565 42.6335C587.821 43.0369 586.943 43.2386 585.932 43.2386C584.977 43.2386 584.128 43.0653 583.384 42.7188C582.639 42.3665 582.054 41.8665 581.628 41.2188C581.202 40.571 580.989 39.8011 580.989 38.9091H583.068C583.068 39.4034 583.19 39.8352 583.435 40.2045C583.685 40.5682 584.026 40.8523 584.457 41.0568C584.889 41.2614 585.381 41.3636 585.932 41.3636C586.54 41.3636 587.057 41.2358 587.483 40.9801C587.909 40.7244 588.233 40.3494 588.455 39.8551C588.682 39.3551 588.795 38.7443 588.795 38.0227V25.5455ZM603.79 43.2727C602.609 43.2727 601.572 42.9915 600.68 42.429C599.793 41.8665 599.1 41.0795 598.6 40.0682C598.106 39.0568 597.859 37.875 597.859 36.5227C597.859 35.1591 598.106 33.9687 598.6 32.9517C599.1 31.9347 599.793 31.1449 600.68 30.5824C601.572 30.0199 602.609 29.7386 603.79 29.7386C604.972 29.7386 606.006 30.0199 606.893 30.5824C607.785 31.1449 608.478 31.9347 608.972 32.9517C609.472 33.9687 609.722 35.1591 609.722 36.5227C609.722 37.875 609.472 39.0568 608.972 40.0682C608.478 41.0795 607.785 41.8665 606.893 42.429C606.006 42.9915 604.972 43.2727 603.79 43.2727ZM603.79 41.4659C604.688 41.4659 605.427 41.2358 606.006 40.7756C606.586 40.3153 607.015 39.7102 607.293 38.9602C607.572 38.2102 607.711 37.3977 607.711 36.5227C607.711 35.6477 607.572 34.8324 607.293 34.0767C607.015 33.321 606.586 32.7102 606.006 32.2443C605.427 31.7784 604.688 31.5455 603.79 31.5455C602.893 31.5455 602.154 31.7784 601.574 32.2443C600.995 32.7102 600.566 33.321 600.288 34.0767C600.009 34.8324 599.87 35.6477 599.87 36.5227C599.87 37.3977 600.009 38.2102 600.288 38.9602C600.566 39.7102 600.995 40.3153 601.574 40.7756C602.154 41.2358 602.893 41.4659 603.79 41.4659ZM617.219 47.9091C616.878 47.9091 616.574 47.8807 616.307 47.8239C616.04 47.7727 615.856 47.7216 615.753 47.6705L616.265 45.8977C616.753 46.0227 617.185 46.0682 617.56 46.0341C617.935 46 618.267 45.8324 618.557 45.5312C618.853 45.2358 619.123 44.7557 619.367 44.0909L619.742 43.0682L614.901 29.9091H617.083L620.696 40.3409H620.833L624.446 29.9091H626.628L621.071 44.9091C620.821 45.5852 620.512 46.1449 620.142 46.5881C619.773 47.0369 619.344 47.3693 618.856 47.5852C618.373 47.8011 617.827 47.9091 617.219 47.9091ZM638.713 29.9091V31.6136H631.656V29.9091H638.713ZM633.769 43V28.1023C633.769 27.3523 633.946 26.7273 634.298 26.2273C634.65 25.7273 635.108 25.3523 635.67 25.1023C636.233 24.8523 636.826 24.7273 637.451 24.7273C637.946 24.7273 638.349 24.767 638.662 24.8466C638.974 24.9261 639.207 25 639.36 25.0682L638.781 26.8068C638.679 26.7727 638.537 26.7301 638.355 26.679C638.179 26.6278 637.946 26.6023 637.656 26.6023C636.991 26.6023 636.511 26.7699 636.215 27.1051C635.926 27.4403 635.781 27.9318 635.781 28.5795V43H633.769ZM653.382 37.6477V29.9091H655.393V43H653.382V40.7841H653.245C652.938 41.4489 652.461 42.0142 651.813 42.4801C651.166 42.9403 650.347 43.1705 649.359 43.1705C648.541 43.1705 647.813 42.9915 647.177 42.6335C646.541 42.2699 646.041 41.7244 645.677 40.9972C645.313 40.2642 645.132 39.3409 645.132 38.2273V29.9091H647.143V38.0909C647.143 39.0455 647.41 39.8068 647.944 40.375C648.484 40.9432 649.171 41.2273 650.007 41.2273C650.507 41.2273 651.015 41.0994 651.532 40.8438C652.055 40.5881 652.492 40.196 652.845 39.6676C653.203 39.1392 653.382 38.4659 653.382 37.6477ZM664.688 25.5455V43H662.677V25.5455H664.688ZM681.64 27.4205V25.5455H694.731V27.4205H689.243V43H687.129V27.4205H681.64ZM703.392 43.3068C702.562 43.3068 701.809 43.1506 701.133 42.8381C700.457 42.5199 699.92 42.0625 699.522 41.4659C699.125 40.8636 698.926 40.1364 698.926 39.2841C698.926 38.5341 699.073 37.9261 699.369 37.4602C699.664 36.9886 700.059 36.6193 700.554 36.3523C701.048 36.0852 701.593 35.8864 702.19 35.7557C702.792 35.6193 703.397 35.5114 704.005 35.4318C704.801 35.3295 705.446 35.2528 705.94 35.2017C706.44 35.1449 706.804 35.0511 707.031 34.9205C707.264 34.7898 707.38 34.5625 707.38 34.2386V34.1705C707.38 33.3295 707.15 32.6761 706.69 32.2102C706.235 31.7443 705.545 31.5114 704.619 31.5114C703.659 31.5114 702.906 31.7216 702.36 32.142C701.815 32.5625 701.431 33.0114 701.21 33.4886L699.301 32.8068C699.642 32.0114 700.096 31.392 700.664 30.9489C701.238 30.5 701.863 30.1875 702.539 30.0114C703.221 29.8295 703.892 29.7386 704.551 29.7386C704.971 29.7386 705.454 29.7898 706 29.892C706.551 29.9886 707.082 30.1903 707.593 30.4972C708.11 30.804 708.539 31.267 708.88 31.8864C709.221 32.5057 709.392 33.3352 709.392 34.375V43H707.38V41.2273H707.278C707.142 41.5114 706.914 41.8153 706.596 42.1392C706.278 42.4631 705.855 42.7386 705.326 42.9659C704.798 43.1932 704.153 43.3068 703.392 43.3068ZM703.698 41.5C704.494 41.5 705.164 41.3438 705.71 41.0312C706.261 40.7188 706.676 40.3153 706.954 39.821C707.238 39.3267 707.38 38.8068 707.38 38.2614V36.4205C707.295 36.5227 707.108 36.6165 706.818 36.7017C706.534 36.7812 706.204 36.8523 705.829 36.9148C705.46 36.9716 705.099 37.0227 704.747 37.0682C704.4 37.108 704.119 37.142 703.903 37.1705C703.38 37.2386 702.892 37.3494 702.437 37.5028C701.988 37.6506 701.625 37.875 701.346 38.1761C701.073 38.4716 700.937 38.875 700.937 39.3864C700.937 40.0852 701.196 40.6136 701.713 40.9716C702.235 41.3239 702.897 41.5 703.698 41.5ZM716.663 43V29.9091H718.674V43H716.663ZM717.686 27.7273C717.293 27.7273 716.955 27.5938 716.671 27.3267C716.393 27.0597 716.254 26.7386 716.254 26.3636C716.254 25.9886 716.393 25.6676 716.671 25.4006C716.955 25.1335 717.293 25 717.686 25C718.078 25 718.413 25.1335 718.691 25.4006C718.975 25.6676 719.117 25.9886 719.117 26.3636C719.117 26.7386 718.975 27.0597 718.691 27.3267C718.413 27.5938 718.078 27.7273 717.686 27.7273ZM727.969 25.5455V43H725.958V25.5455H727.969ZM744.526 32.8409L742.719 33.3523C742.606 33.0511 742.438 32.7585 742.216 32.4744C742.001 32.1847 741.705 31.946 741.33 31.7585C740.955 31.571 740.475 31.4773 739.89 31.4773C739.089 31.4773 738.421 31.6619 737.887 32.0312C737.359 32.3949 737.094 32.858 737.094 33.4205C737.094 33.9205 737.276 34.3153 737.64 34.6051C738.003 34.8949 738.572 35.1364 739.344 35.3295L741.288 35.8068C742.458 36.0909 743.33 36.5256 743.904 37.1108C744.478 37.6903 744.765 38.4375 744.765 39.3523C744.765 40.1023 744.549 40.7727 744.117 41.3636C743.691 41.9545 743.094 42.4205 742.327 42.7614C741.56 43.1023 740.668 43.2727 739.651 43.2727C738.316 43.2727 737.211 42.983 736.336 42.4034C735.461 41.8239 734.907 40.9773 734.674 39.8636L736.583 39.3864C736.765 40.0909 737.109 40.6193 737.614 40.9716C738.126 41.3239 738.793 41.5 739.617 41.5C740.555 41.5 741.299 41.3011 741.85 40.9034C742.407 40.5 742.685 40.017 742.685 39.4545C742.685 39 742.526 38.6193 742.208 38.3125C741.89 38 741.401 37.767 740.742 37.6136L738.56 37.1023C737.361 36.8182 736.481 36.3778 735.918 35.7812C735.361 35.179 735.083 34.4261 735.083 33.5227C735.083 32.7841 735.29 32.1307 735.705 31.5625C736.126 30.9943 736.697 30.5483 737.418 30.2244C738.145 29.9006 738.969 29.7386 739.89 29.7386C741.185 29.7386 742.202 30.0227 742.941 30.5909C743.685 31.1591 744.214 31.9091 744.526 32.8409ZM754.392 40.6136L754.256 41.5341C754.16 42.1818 754.012 42.875 753.813 43.6136C753.62 44.3523 753.418 45.0483 753.208 45.7017C752.998 46.3551 752.824 46.875 752.688 47.2614H751.154C751.228 46.8977 751.324 46.4176 751.444 45.821C751.563 45.2244 751.682 44.5568 751.802 43.8182C751.927 43.0852 752.029 42.3352 752.108 41.5682L752.211 40.6136H754.392ZM786.387 31H784.274C784.149 30.392 783.93 29.858 783.617 29.3977C783.311 28.9375 782.936 28.5511 782.492 28.2386C782.055 27.9205 781.569 27.6818 781.035 27.5227C780.501 27.3636 779.944 27.2841 779.364 27.2841C778.308 27.2841 777.35 27.5511 776.492 28.0852C775.64 28.6193 774.961 29.4062 774.455 30.446C773.955 31.4858 773.705 32.7614 773.705 34.2727C773.705 35.7841 773.955 37.0597 774.455 38.0994C774.961 39.1392 775.64 39.9261 776.492 40.4602C777.35 40.9943 778.308 41.2614 779.364 41.2614C779.944 41.2614 780.501 41.1818 781.035 41.0227C781.569 40.8636 782.055 40.6278 782.492 40.3153C782.936 39.9972 783.311 39.608 783.617 39.1477C783.93 38.6818 784.149 38.1477 784.274 37.5455H786.387C786.228 38.4375 785.938 39.2358 785.518 39.9403C785.097 40.6449 784.575 41.2443 783.95 41.7386C783.325 42.2273 782.623 42.5994 781.845 42.8551C781.072 43.1108 780.245 43.2386 779.364 43.2386C777.876 43.2386 776.552 42.875 775.393 42.1477C774.234 41.4205 773.322 40.3864 772.657 39.0455C771.992 37.7045 771.66 36.1136 771.66 34.2727C771.66 32.4318 771.992 30.8409 772.657 29.5C773.322 28.1591 774.234 27.125 775.393 26.3977C776.552 25.6705 777.876 25.3068 779.364 25.3068C780.245 25.3068 781.072 25.4347 781.845 25.6903C782.623 25.946 783.325 26.321 783.95 26.8153C784.575 27.304 785.097 27.9006 785.518 28.6051C785.938 29.304 786.228 30.1023 786.387 31ZM796.982 43.3068C796.153 43.3068 795.4 43.1506 794.724 42.8381C794.048 42.5199 793.511 42.0625 793.113 41.4659C792.715 40.8636 792.516 40.1364 792.516 39.2841C792.516 38.5341 792.664 37.9261 792.96 37.4602C793.255 36.9886 793.65 36.6193 794.144 36.3523C794.638 36.0852 795.184 35.8864 795.781 35.7557C796.383 35.6193 796.988 35.5114 797.596 35.4318C798.391 35.3295 799.036 35.2528 799.531 35.2017C800.031 35.1449 800.394 35.0511 800.621 34.9205C800.854 34.7898 800.971 34.5625 800.971 34.2386V34.1705C800.971 33.3295 800.741 32.6761 800.281 32.2102C799.826 31.7443 799.136 31.5114 798.21 31.5114C797.249 31.5114 796.496 31.7216 795.951 32.142C795.406 32.5625 795.022 33.0114 794.8 33.4886L792.891 32.8068C793.232 32.0114 793.687 31.392 794.255 30.9489C794.829 30.5 795.454 30.1875 796.13 30.0114C796.812 29.8295 797.482 29.7386 798.141 29.7386C798.562 29.7386 799.045 29.7898 799.59 29.892C800.141 29.9886 800.673 30.1903 801.184 30.4972C801.701 30.804 802.13 31.267 802.471 31.8864C802.812 32.5057 802.982 33.3352 802.982 34.375V43H800.971V41.2273H800.869C800.732 41.5114 800.505 41.8153 800.187 42.1392C799.869 42.4631 799.445 42.7386 798.917 42.9659C798.388 43.1932 797.744 43.3068 796.982 43.3068ZM797.289 41.5C798.085 41.5 798.755 41.3438 799.3 41.0312C799.852 40.7188 800.266 40.3153 800.545 39.821C800.829 39.3267 800.971 38.8068 800.971 38.2614V36.4205C800.886 36.5227 800.698 36.6165 800.408 36.7017C800.124 36.7812 799.795 36.8523 799.42 36.9148C799.05 36.9716 798.69 37.0227 798.337 37.0682C797.991 37.108 797.71 37.142 797.494 37.1705C796.971 37.2386 796.482 37.3494 796.028 37.5028C795.579 37.6506 795.215 37.875 794.937 38.1761C794.664 38.4716 794.528 38.875 794.528 39.3864C794.528 40.0852 794.786 40.6136 795.303 40.9716C795.826 41.3239 796.488 41.5 797.289 41.5ZM810.253 43V29.9091H812.197V31.8864H812.333C812.572 31.2386 813.003 30.7131 813.628 30.3097C814.253 29.9062 814.958 29.7045 815.742 29.7045C815.89 29.7045 816.074 29.7074 816.296 29.7131C816.518 29.7187 816.685 29.7273 816.799 29.7386V31.7841C816.731 31.767 816.574 31.7415 816.33 31.7074C816.091 31.6676 815.839 31.6477 815.572 31.6477C814.935 31.6477 814.367 31.7812 813.867 32.0483C813.373 32.3097 812.981 32.6733 812.691 33.1392C812.407 33.5994 812.265 34.125 812.265 34.7159V43H810.253ZM822.783 43V29.9091H824.794V43H822.783ZM823.806 27.7273C823.414 27.7273 823.076 27.5938 822.792 27.3267C822.513 27.0597 822.374 26.7386 822.374 26.3636C822.374 25.9886 822.513 25.6676 822.792 25.4006C823.076 25.1335 823.414 25 823.806 25C824.198 25 824.533 25.1335 824.812 25.4006C825.096 25.6676 825.238 25.9886 825.238 26.3636C825.238 26.7386 825.096 27.0597 824.812 27.3267C824.533 27.5938 824.198 27.7273 823.806 27.7273ZM834.09 35.125V43H832.078V29.9091H834.022V31.9545H834.192C834.499 31.2898 834.965 30.7557 835.59 30.3523C836.215 29.9432 837.022 29.7386 838.01 29.7386C838.897 29.7386 839.672 29.9205 840.337 30.2841C841.002 30.642 841.519 31.1875 841.888 31.9205C842.257 32.6477 842.442 33.5682 842.442 34.6818V43H840.431V34.8182C840.431 33.7898 840.164 32.9886 839.63 32.4148C839.095 31.8352 838.363 31.5455 837.431 31.5455C836.789 31.5455 836.215 31.6847 835.709 31.9631C835.209 32.2415 834.814 32.6477 834.524 33.1818C834.235 33.7159 834.09 34.3636 834.09 35.125ZM855.002 48.1818C854.03 48.1818 853.195 48.0568 852.496 47.8068C851.797 47.5625 851.215 47.2386 850.749 46.8352C850.288 46.4375 849.922 46.0114 849.649 45.5568L851.252 44.4318C851.433 44.6705 851.663 44.9432 851.942 45.25C852.22 45.5625 852.601 45.8324 853.084 46.0597C853.573 46.2926 854.212 46.4091 855.002 46.4091C856.058 46.4091 856.931 46.1534 857.618 45.642C858.306 45.1307 858.649 44.3295 858.649 43.2386V40.5795H858.479C858.331 40.8182 858.121 41.1136 857.848 41.4659C857.581 41.8125 857.195 42.1222 856.689 42.3949C856.189 42.6619 855.513 42.7955 854.661 42.7955C853.604 42.7955 852.655 42.5455 851.814 42.0455C850.979 41.5455 850.317 40.8182 849.828 39.8636C849.345 38.9091 849.104 37.75 849.104 36.3864C849.104 35.0455 849.34 33.8778 849.811 32.8835C850.283 31.8835 850.939 31.1108 851.78 30.5653C852.621 30.0142 853.592 29.7386 854.695 29.7386C855.547 29.7386 856.223 29.8807 856.723 30.1648C857.229 30.4432 857.615 30.7614 857.882 31.1193C858.155 31.4716 858.365 31.7614 858.513 31.9886H858.717V29.9091H860.661V43.375C860.661 44.5 860.405 45.4148 859.894 46.1193C859.388 46.8295 858.706 47.3494 857.848 47.679C856.996 48.0142 856.047 48.1818 855.002 48.1818ZM854.933 40.9886C855.74 40.9886 856.422 40.804 856.979 40.4347C857.536 40.0653 857.959 39.5341 858.249 38.8409C858.538 38.1477 858.683 37.3182 858.683 36.3523C858.683 35.4091 858.541 34.5767 858.257 33.8551C857.973 33.1335 857.553 32.5682 856.996 32.1591C856.439 31.75 855.752 31.5455 854.933 31.5455C854.081 31.5455 853.371 31.7614 852.803 32.1932C852.24 32.625 851.817 33.2045 851.533 33.9318C851.254 34.6591 851.115 35.4659 851.115 36.3523C851.115 37.2614 851.257 38.0653 851.541 38.7642C851.831 39.4574 852.257 40.0028 852.82 40.4006C853.388 40.7926 854.092 40.9886 854.933 40.9886ZM878.565 43V25.5455H880.679V33.3182H889.986V25.5455H892.099V43H889.986V35.1932H880.679V43H878.565ZM905.147 43.2727C903.885 43.2727 902.797 42.9943 901.883 42.4375C900.973 41.875 900.272 41.0909 899.777 40.0852C899.289 39.0739 899.044 37.8977 899.044 36.5568C899.044 35.2159 899.289 34.0341 899.777 33.0114C900.272 31.983 900.959 31.1818 901.84 30.608C902.726 30.0284 903.76 29.7386 904.942 29.7386C905.624 29.7386 906.297 29.8523 906.962 30.0795C907.627 30.3068 908.232 30.6761 908.777 31.1875C909.323 31.6932 909.758 32.3636 910.081 33.1989C910.405 34.0341 910.567 35.0625 910.567 36.2841V37.1364H900.476V35.3977H908.522C908.522 34.6591 908.374 34 908.079 33.4205C907.789 32.8409 907.374 32.3835 906.834 32.0483C906.3 31.7131 905.669 31.5455 904.942 31.5455C904.141 31.5455 903.448 31.7443 902.863 32.142C902.283 32.5341 901.837 33.0455 901.525 33.6761C901.212 34.3068 901.056 34.983 901.056 35.7045V36.8636C901.056 37.8523 901.226 38.6903 901.567 39.3778C901.914 40.0597 902.394 40.5795 903.008 40.9375C903.621 41.2898 904.334 41.4659 905.147 41.4659C905.675 41.4659 906.152 41.392 906.579 41.2443C907.01 41.0909 907.383 40.8636 907.695 40.5625C908.008 40.2557 908.249 39.875 908.419 39.4205L910.363 39.9659C910.158 40.625 909.814 41.2045 909.331 41.7045C908.848 42.1989 908.252 42.5852 907.542 42.8636C906.831 43.1364 906.033 43.2727 905.147 43.2727ZM921.079 43.3068C920.25 43.3068 919.497 43.1506 918.821 42.8381C918.144 42.5199 917.608 42.0625 917.21 41.4659C916.812 40.8636 916.613 40.1364 916.613 39.2841C916.613 38.5341 916.761 37.9261 917.056 37.4602C917.352 36.9886 917.747 36.6193 918.241 36.3523C918.735 36.0852 919.281 35.8864 919.877 35.7557C920.48 35.6193 921.085 35.5114 921.693 35.4318C922.488 35.3295 923.133 35.2528 923.627 35.2017C924.127 35.1449 924.491 35.0511 924.718 34.9205C924.951 34.7898 925.068 34.5625 925.068 34.2386V34.1705C925.068 33.3295 924.838 32.6761 924.377 32.2102C923.923 31.7443 923.233 31.5114 922.306 31.5114C921.346 31.5114 920.593 31.7216 920.048 32.142C919.502 32.5625 919.119 33.0114 918.897 33.4886L916.988 32.8068C917.329 32.0114 917.784 31.392 918.352 30.9489C918.926 30.5 919.551 30.1875 920.227 30.0114C920.909 29.8295 921.579 29.7386 922.238 29.7386C922.659 29.7386 923.142 29.7898 923.687 29.892C924.238 29.9886 924.769 30.1903 925.281 30.4972C925.798 30.804 926.227 31.267 926.568 31.8864C926.909 32.5057 927.079 33.3352 927.079 34.375V43H925.068V41.2273H924.965C924.829 41.5114 924.602 41.8153 924.284 42.1392C923.965 42.4631 923.542 42.7386 923.014 42.9659C922.485 43.1932 921.84 43.3068 921.079 43.3068ZM921.386 41.5C922.181 41.5 922.852 41.3438 923.397 41.0312C923.948 40.7188 924.363 40.3153 924.642 39.821C924.926 39.3267 925.068 38.8068 925.068 38.2614V36.4205C924.983 36.5227 924.795 36.6165 924.505 36.7017C924.221 36.7812 923.892 36.8523 923.517 36.9148C923.147 36.9716 922.786 37.0227 922.434 37.0682C922.088 37.108 921.806 37.142 921.59 37.1705C921.068 37.2386 920.579 37.3494 920.125 37.5028C919.676 37.6506 919.312 37.875 919.034 38.1761C918.761 38.4716 918.625 38.875 918.625 39.3864C918.625 40.0852 918.883 40.6136 919.4 40.9716C919.923 41.3239 920.585 41.5 921.386 41.5ZM934.35 43V29.9091H936.293V31.8864H936.43C936.668 31.2386 937.1 30.7131 937.725 30.3097C938.35 29.9062 939.055 29.7045 939.839 29.7045C939.987 29.7045 940.171 29.7074 940.393 29.7131C940.614 29.7187 940.782 29.7273 940.896 29.7386V31.7841C940.828 31.767 940.671 31.7415 940.427 31.7074C940.188 31.6676 939.936 31.6477 939.668 31.6477C939.032 31.6477 938.464 31.7812 937.964 32.0483C937.47 32.3097 937.078 32.6733 936.788 33.1392C936.504 33.5994 936.362 34.125 936.362 34.7159V43H934.35ZM953.393 29.9091V31.6136H946.609V29.9091H953.393ZM948.587 26.7727H950.598V39.25C950.598 39.8182 950.68 40.2443 950.845 40.5284C951.016 40.8068 951.232 40.9943 951.493 41.0909C951.76 41.1818 952.041 41.2273 952.337 41.2273C952.558 41.2273 952.74 41.2159 952.882 41.1932C953.024 41.1648 953.138 41.142 953.223 41.125L953.632 42.9318C953.496 42.983 953.305 43.0341 953.061 43.0852C952.817 43.142 952.507 43.1705 952.132 43.1705C951.564 43.1705 951.007 43.0483 950.462 42.804C949.922 42.5597 949.473 42.1875 949.115 41.6875C948.763 41.1875 948.587 40.5568 948.587 39.7955V26.7727ZM969.057 32.8409L967.251 33.3523C967.137 33.0511 966.969 32.7585 966.748 32.4744C966.532 32.1847 966.236 31.946 965.861 31.7585C965.486 31.571 965.006 31.4773 964.421 31.4773C963.62 31.4773 962.952 31.6619 962.418 32.0312C961.89 32.3949 961.626 32.858 961.626 33.4205C961.626 33.9205 961.807 34.3153 962.171 34.6051C962.535 34.8949 963.103 35.1364 963.876 35.3295L965.819 35.8068C966.989 36.0909 967.861 36.5256 968.435 37.1108C969.009 37.6903 969.296 38.4375 969.296 39.3523C969.296 40.1023 969.08 40.7727 968.648 41.3636C968.222 41.9545 967.626 42.4205 966.859 42.7614C966.091 43.1023 965.199 43.2727 964.182 43.2727C962.847 43.2727 961.742 42.983 960.867 42.4034C959.992 41.8239 959.438 40.9773 959.205 39.8636L961.114 39.3864C961.296 40.0909 961.64 40.6193 962.145 40.9716C962.657 41.3239 963.324 41.5 964.148 41.5C965.086 41.5 965.83 41.3011 966.381 40.9034C966.938 40.5 967.216 40.017 967.216 39.4545C967.216 39 967.057 38.6193 966.739 38.3125C966.421 38 965.932 37.767 965.273 37.6136L963.091 37.1023C961.893 36.8182 961.012 36.3778 960.449 35.7812C959.893 35.179 959.614 34.4261 959.614 33.5227C959.614 32.7841 959.822 32.1307 960.236 31.5625C960.657 30.9943 961.228 30.5483 961.949 30.2244C962.677 29.9006 963.501 29.7386 964.421 29.7386C965.716 29.7386 966.734 30.0227 967.472 30.5909C968.216 31.1591 968.745 31.9091 969.057 32.8409ZM977.39 43.1364C976.969 43.1364 976.608 42.9858 976.307 42.6847C976.006 42.3835 975.856 42.0227 975.856 41.6023C975.856 41.1818 976.006 40.821 976.307 40.5199C976.608 40.2187 976.969 40.0682 977.39 40.0682C977.81 40.0682 978.171 40.2187 978.472 40.5199C978.773 40.821 978.924 41.1818 978.924 41.6023C978.924 41.8807 978.853 42.1364 978.711 42.3693C978.574 42.6023 978.39 42.7898 978.157 42.9318C977.929 43.0682 977.674 43.1364 977.39 43.1364Z" fill="white"/>
<path d="M25.7095 9.56882C28.1893 9.70814 30.2101 12.8578 30.2114 16.6412C30.2169 20.4042 28.2381 23.3628 25.7542 23.2439C23.2907 23.1292 21.2494 19.9754 21.2277 16.1878C21.2018 12.4207 23.2214 9.47035 25.7095 9.56882ZM40.3107 12.5165C42.6625 13.3952 43.359 16.8938 41.9145 20.3641C40.4046 23.8424 37.3202 25.9615 34.9846 25.1074C32.6287 24.2492 31.9527 20.7547 33.438 17.2926C34.907 13.806 37.9915 11.687 40.3107 12.5165ZM12.8876 16.757C15.4177 16.2263 18.216 18.6829 19.2312 22.1821C20.1318 25.722 18.9165 29.0047 16.4068 29.5395C13.8972 30.0743 11.1151 27.6423 10.1491 24.1105C9.18309 20.5787 10.4434 17.2837 12.8876 16.757ZM49.646 24.1778C51.6945 25.6116 51.5778 29.1374 49.3172 32.0178C47.0567 34.8983 43.549 36.0605 41.4434 34.594C39.3378 33.1274 39.4912 29.6303 41.6946 26.7171C43.9878 23.8857 47.52 22.7072 49.646 24.1778ZM41.7914 45.5036C41.4856 47.4397 39.5865 49.2666 37.6694 49.7085C33.676 50.6451 30.0475 46.2995 25.9836 45.4791C21.9198 44.6586 16.8199 47.391 13.5927 44.8479C11.7526 43.435 10.8794 40.4957 11.5902 38.3438C12.572 35.3752 16.5573 34.4795 19.1713 32.6906C22.632 30.3925 25.7667 25.3931 29.8713 26.2217C33.9556 27.0463 35.0442 32.8132 37.2033 36.3309C38.9671 39.2799 42.3205 42.146 41.7914 45.5036Z" fill="#9A8470"/>
<path d="M487 49.897L483.979 47.0593C473.25 37.02 466.167 30.3773 466.167 22.2728C466.167 15.6301 471.208 10.4492 477.625 10.4492C481.25 10.4492 484.729 12.1905 487 14.9207C489.271 12.1905 492.75 10.4492 496.375 10.4492C502.792 10.4492 507.833 15.6301 507.833 22.2728C507.833 30.3773 500.75 37.02 490.021 47.0593L487 49.897Z" fill="#347781"/>
<path d="M538.709 9.56882C541.189 9.70814 543.21 12.8578 543.211 16.6412C543.217 20.4042 541.238 23.3628 538.754 23.2439C536.291 23.1292 534.249 19.9754 534.228 16.1878C534.202 12.4207 536.221 9.47035 538.709 9.56882ZM553.311 12.5165C555.663 13.3952 556.359 16.8938 554.914 20.3641C553.405 23.8424 550.32 25.9615 547.985 25.1074C545.629 24.2492 544.953 20.7547 546.438 17.2926C547.907 13.806 550.992 11.687 553.311 12.5165ZM525.888 16.757C528.418 16.2263 531.216 18.6829 532.231 22.1821C533.132 25.722 531.916 29.0047 529.407 29.5395C526.897 30.0743 524.115 27.6423 523.149 24.1105C522.183 20.5787 523.443 17.2837 525.888 16.757ZM562.646 24.1778C564.694 25.6116 564.578 29.1374 562.317 32.0178C560.057 34.8983 556.549 36.0605 554.443 34.594C552.338 33.1274 552.491 29.6303 554.695 26.7171C556.988 23.8857 560.52 22.7072 562.646 24.1778ZM554.791 45.5036C554.486 47.4397 552.586 49.2666 550.669 49.7085C546.676 50.6451 543.047 46.2995 538.984 45.4791C534.92 44.6586 529.82 47.391 526.593 44.8479C524.753 43.435 523.879 40.4957 524.59 38.3438C525.572 35.3752 529.557 34.4795 532.171 32.6906C535.632 30.3925 538.767 25.3931 542.871 26.2217C546.956 27.0463 548.044 32.8132 550.203 36.3309C551.967 39.2799 555.32 42.146 554.791 45.5036Z" fill="#9A8470"/>
</svg>
