<svg width="1025" height="59" viewBox="0 0 1025 59" fill="none" xmlns="http://www.w3.org/2000/svg">
<path d="M67.2841 43L62.5114 25.5455H64.6591L68.3068 39.7614H68.4773L72.1932 25.5455H74.5795L78.2955 39.7614H78.4659L82.1136 25.5455H84.2614L79.4886 43H77.3068L73.4545 29.0909H73.3182L69.4659 43H67.2841ZM92.8557 43.3068C92.0261 43.3068 91.2733 43.1506 90.5972 42.8381C89.921 42.5199 89.3841 42.0625 88.9864 41.4659C88.5886 40.8636 88.3898 40.1364 88.3898 39.2841C88.3898 38.5341 88.5375 37.9261 88.833 37.4602C89.1284 36.9886 89.5233 36.6193 90.0176 36.3523C90.5119 36.0852 91.0574 35.8864 91.654 35.7557C92.2563 35.6193 92.8614 35.5114 93.4693 35.4318C94.2648 35.3295 94.9097 35.2528 95.404 35.2017C95.904 35.1449 96.2676 35.0511 96.4949 34.9205C96.7278 34.7898 96.8443 34.5625 96.8443 34.2386V34.1705C96.8443 33.3295 96.6142 32.6761 96.154 32.2102C95.6994 31.7443 95.0091 31.5114 94.083 31.5114C93.1227 31.5114 92.3699 31.7216 91.8244 32.142C91.279 32.5625 90.8955 33.0114 90.6739 33.4886L88.7648 32.8068C89.1057 32.0114 89.5602 31.392 90.1284 30.9489C90.7023 30.5 91.3273 30.1875 92.0034 30.0114C92.6852 29.8295 93.3557 29.7386 94.0148 29.7386C94.4352 29.7386 94.9182 29.7898 95.4636 29.892C96.0148 29.9886 96.546 30.1903 97.0574 30.4972C97.5744 30.804 98.0034 31.267 98.3443 31.8864C98.6852 32.5057 98.8557 33.3352 98.8557 34.375V43H96.8443V41.2273H96.742C96.6057 41.5114 96.3784 41.8153 96.0602 42.1392C95.742 42.4631 95.3188 42.7386 94.7903 42.9659C94.2619 43.1932 93.617 43.3068 92.8557 43.3068ZM93.1625 41.5C93.958 41.5 94.6284 41.3438 95.1739 41.0312C95.725 40.7188 96.1398 40.3153 96.4182 39.821C96.7023 39.3267 96.8443 38.8068 96.8443 38.2614V36.4205C96.7591 36.5227 96.5716 36.6165 96.2818 36.7017C95.9977 36.7812 95.6682 36.8523 95.2932 36.9148C94.9239 36.9716 94.5631 37.0227 94.2108 37.0682C93.8642 37.108 93.583 37.142 93.367 37.1705C92.8443 37.2386 92.3557 37.3494 91.9011 37.5028C91.4523 37.6506 91.0886 37.875 90.8102 38.1761C90.5375 38.4716 90.4011 38.875 90.4011 39.3864C90.4011 40.0852 90.6597 40.6136 91.1767 40.9716C91.6994 41.3239 92.3614 41.5 93.1625 41.5ZM106.127 43V29.9091H108.07V31.8864H108.206C108.445 31.2386 108.877 30.7131 109.502 30.3097C110.127 29.9062 110.831 29.7045 111.615 29.7045C111.763 29.7045 111.948 29.7074 112.169 29.7131C112.391 29.7187 112.559 29.7273 112.672 29.7386V31.7841C112.604 31.767 112.448 31.7415 112.204 31.7074C111.965 31.6676 111.712 31.6477 111.445 31.6477C110.809 31.6477 110.24 31.7812 109.74 32.0483C109.246 32.3097 108.854 32.6733 108.564 33.1392C108.28 33.5994 108.138 34.125 108.138 34.7159V43H106.127ZM118.657 43V29.9091H120.6V31.9545H120.77C121.043 31.2557 121.483 30.7131 122.091 30.3267C122.699 29.9347 123.429 29.7386 124.282 29.7386C125.145 29.7386 125.864 29.9347 126.438 30.3267C127.017 30.7131 127.469 31.2557 127.793 31.9545H127.929C128.264 31.2784 128.767 30.7415 129.438 30.3438C130.108 29.9403 130.912 29.7386 131.85 29.7386C133.02 29.7386 133.978 30.1051 134.722 30.8381C135.466 31.5653 135.838 32.6989 135.838 34.2386V43H133.827V34.2386C133.827 33.2727 133.563 32.5824 133.034 32.1676C132.506 31.7528 131.884 31.5455 131.168 31.5455C130.247 31.5455 129.534 31.8239 129.029 32.3807C128.523 32.9318 128.27 33.6307 128.27 34.4773V43H126.225V34.0341C126.225 33.2898 125.983 32.6903 125.5 32.2358C125.017 31.7756 124.395 31.5455 123.634 31.5455C123.111 31.5455 122.622 31.6847 122.168 31.9631C121.719 32.2415 121.355 32.6278 121.077 33.1222C120.804 33.6108 120.668 34.1761 120.668 34.8182V43H118.657ZM153.739 43V25.5455H159.636C161.006 25.5455 162.125 25.7926 162.994 26.2869C163.869 26.7756 164.517 27.4375 164.938 28.2727C165.358 29.108 165.568 30.0398 165.568 31.0682C165.568 32.0966 165.358 33.0312 164.938 33.8722C164.523 34.7131 163.881 35.3835 163.011 35.8835C162.142 36.3778 161.028 36.625 159.67 36.625H155.443V34.75H159.602C160.54 34.75 161.293 34.5881 161.861 34.2642C162.429 33.9403 162.841 33.5028 163.097 32.9517C163.358 32.3949 163.489 31.767 163.489 31.0682C163.489 30.3693 163.358 29.7443 163.097 29.1932C162.841 28.642 162.426 28.2102 161.852 27.8977C161.278 27.5795 160.517 27.4205 159.568 27.4205H155.852V43H153.739ZM176.153 43.3068C175.323 43.3068 174.57 43.1506 173.894 42.8381C173.218 42.5199 172.681 42.0625 172.283 41.4659C171.886 40.8636 171.687 40.1364 171.687 39.2841C171.687 38.5341 171.834 37.9261 172.13 37.4602C172.425 36.9886 172.82 36.6193 173.314 36.3523C173.809 36.0852 174.354 35.8864 174.951 35.7557C175.553 35.6193 176.158 35.5114 176.766 35.4318C177.562 35.3295 178.207 35.2528 178.701 35.2017C179.201 35.1449 179.564 35.0511 179.792 34.9205C180.025 34.7898 180.141 34.5625 180.141 34.2386V34.1705C180.141 33.3295 179.911 32.6761 179.451 32.2102C178.996 31.7443 178.306 31.5114 177.38 31.5114C176.42 31.5114 175.667 31.7216 175.121 32.142C174.576 32.5625 174.192 33.0114 173.971 33.4886L172.062 32.8068C172.403 32.0114 172.857 31.392 173.425 30.9489C173.999 30.5 174.624 30.1875 175.3 30.0114C175.982 29.8295 176.653 29.7386 177.312 29.7386C177.732 29.7386 178.215 29.7898 178.761 29.892C179.312 29.9886 179.843 30.1903 180.354 30.4972C180.871 30.804 181.3 31.267 181.641 31.8864C181.982 32.5057 182.153 33.3352 182.153 34.375V43H180.141V41.2273H180.039C179.903 41.5114 179.675 41.8153 179.357 42.1392C179.039 42.4631 178.616 42.7386 178.087 42.9659C177.559 43.1932 176.914 43.3068 176.153 43.3068ZM176.459 41.5C177.255 41.5 177.925 41.3438 178.471 41.0312C179.022 40.7188 179.437 40.3153 179.715 39.821C179.999 39.3267 180.141 38.8068 180.141 38.2614V36.4205C180.056 36.5227 179.868 36.6165 179.579 36.7017C179.295 36.7812 178.965 36.8523 178.59 36.9148C178.221 36.9716 177.86 37.0227 177.508 37.0682C177.161 37.108 176.88 37.142 176.664 37.1705C176.141 37.2386 175.653 37.3494 175.198 37.5028C174.749 37.6506 174.386 37.875 174.107 38.1761C173.834 38.4716 173.698 38.875 173.698 39.3864C173.698 40.0852 173.957 40.6136 174.474 40.9716C174.996 41.3239 175.658 41.5 176.459 41.5ZM192.39 43L188.401 29.9091H190.515L193.344 39.9318H193.481L196.276 29.9091H198.424L201.185 39.8977H201.321L204.151 29.9091H206.265L202.276 43H200.299L197.435 32.9432H197.231L194.367 43H192.39ZM221.796 32.8409L219.99 33.3523C219.876 33.0511 219.708 32.7585 219.487 32.4744C219.271 32.1847 218.975 31.946 218.6 31.7585C218.225 31.571 217.745 31.4773 217.16 31.4773C216.359 31.4773 215.691 31.6619 215.157 32.0312C214.629 32.3949 214.365 32.858 214.365 33.4205C214.365 33.9205 214.546 34.3153 214.91 34.6051C215.274 34.8949 215.842 35.1364 216.615 35.3295L218.558 35.8068C219.728 36.0909 220.6 36.5256 221.174 37.1108C221.748 37.6903 222.035 38.4375 222.035 39.3523C222.035 40.1023 221.819 40.7727 221.387 41.3636C220.961 41.9545 220.365 42.4205 219.598 42.7614C218.831 43.1023 217.938 43.2727 216.921 43.2727C215.586 43.2727 214.481 42.983 213.606 42.4034C212.731 41.8239 212.177 40.9773 211.944 39.8636L213.853 39.3864C214.035 40.0909 214.379 40.6193 214.885 40.9716C215.396 41.3239 216.063 41.5 216.887 41.5C217.825 41.5 218.569 41.3011 219.12 40.9034C219.677 40.5 219.956 40.017 219.956 39.4545C219.956 39 219.796 38.6193 219.478 38.3125C219.16 38 218.671 37.767 218.012 37.6136L215.831 37.1023C214.632 36.8182 213.751 36.3778 213.188 35.7812C212.632 35.179 212.353 34.4261 212.353 33.5227C212.353 32.7841 212.561 32.1307 212.975 31.5625C213.396 30.9943 213.967 30.5483 214.688 30.2244C215.416 29.9006 216.24 29.7386 217.16 29.7386C218.456 29.7386 219.473 30.0227 220.211 30.5909C220.956 31.1591 221.484 31.9091 221.796 32.8409ZM231.663 40.6136L231.526 41.5341C231.43 42.1818 231.282 42.875 231.083 43.6136C230.89 44.3523 230.688 45.0483 230.478 45.7017C230.268 46.3551 230.095 46.875 229.958 47.2614H228.424C228.498 46.8977 228.595 46.4176 228.714 45.821C228.833 45.2244 228.953 44.5568 229.072 43.8182C229.197 43.0852 229.299 42.3352 229.379 41.5682L229.481 40.6136H231.663ZM249.612 43V25.5455H251.726V41.125H259.839V43H249.612ZM271.758 43.2727C270.576 43.2727 269.539 42.9915 268.647 42.429C267.76 41.8665 267.067 41.0795 266.567 40.0682C266.073 39.0568 265.826 37.875 265.826 36.5227C265.826 35.1591 266.073 33.9687 266.567 32.9517C267.067 31.9347 267.76 31.1449 268.647 30.5824C269.539 30.0199 270.576 29.7386 271.758 29.7386C272.939 29.7386 273.973 30.0199 274.86 30.5824C275.752 31.1449 276.445 31.9347 276.939 32.9517C277.439 33.9687 277.689 35.1591 277.689 36.5227C277.689 37.875 277.439 39.0568 276.939 40.0682C276.445 41.0795 275.752 41.8665 274.86 42.429C273.973 42.9915 272.939 43.2727 271.758 43.2727ZM271.758 41.4659C272.655 41.4659 273.394 41.2358 273.973 40.7756C274.553 40.3153 274.982 39.7102 275.26 38.9602C275.539 38.2102 275.678 37.3977 275.678 36.5227C275.678 35.6477 275.539 34.8324 275.26 34.0767C274.982 33.321 274.553 32.7102 273.973 32.2443C273.394 31.7784 272.655 31.5455 271.758 31.5455C270.86 31.5455 270.121 31.7784 269.542 32.2443C268.962 32.7102 268.533 33.321 268.255 34.0767C267.976 34.8324 267.837 35.6477 267.837 36.5227C267.837 37.3977 267.976 38.2102 268.255 38.9602C268.533 39.7102 268.962 40.3153 269.542 40.7756C270.121 41.2358 270.86 41.4659 271.758 41.4659ZM294.595 29.9091L289.755 43H287.709L282.868 29.9091H285.05L288.664 40.3409H288.8L292.414 29.9091H294.595ZM300.85 43V29.9091H302.862V43H300.85ZM301.873 27.7273C301.481 27.7273 301.143 27.5938 300.859 27.3267C300.58 27.0597 300.441 26.7386 300.441 26.3636C300.441 25.9886 300.58 25.6676 300.859 25.4006C301.143 25.1335 301.481 25 301.873 25C302.265 25 302.6 25.1335 302.879 25.4006C303.163 25.6676 303.305 25.9886 303.305 26.3636C303.305 26.7386 303.163 27.0597 302.879 27.3267C302.6 27.5938 302.265 27.7273 301.873 27.7273ZM312.157 35.125V43H310.146V29.9091H312.089V31.9545H312.259C312.566 31.2898 313.032 30.7557 313.657 30.3523C314.282 29.9432 315.089 29.7386 316.077 29.7386C316.964 29.7386 317.739 29.9205 318.404 30.2841C319.069 30.642 319.586 31.1875 319.955 31.9205C320.325 32.6477 320.509 33.5682 320.509 34.6818V43H318.498V34.8182C318.498 33.7898 318.231 32.9886 317.697 32.4148C317.163 31.8352 316.43 31.5455 315.498 31.5455C314.856 31.5455 314.282 31.6847 313.776 31.9631C313.276 32.2415 312.881 32.6477 312.592 33.1818C312.302 33.7159 312.157 34.3636 312.157 35.125ZM333.069 48.1818C332.097 48.1818 331.262 48.0568 330.563 47.8068C329.864 47.5625 329.282 47.2386 328.816 46.8352C328.356 46.4375 327.989 46.0114 327.716 45.5568L329.319 44.4318C329.501 44.6705 329.731 44.9432 330.009 45.25C330.288 45.5625 330.668 45.8324 331.151 46.0597C331.64 46.2926 332.279 46.4091 333.069 46.4091C334.126 46.4091 334.998 46.1534 335.685 45.642C336.373 45.1307 336.716 44.3295 336.716 43.2386V40.5795H336.546C336.398 40.8182 336.188 41.1136 335.915 41.4659C335.648 41.8125 335.262 42.1222 334.756 42.3949C334.256 42.6619 333.58 42.7955 332.728 42.7955C331.671 42.7955 330.722 42.5455 329.881 42.0455C329.046 41.5455 328.384 40.8182 327.895 39.8636C327.413 38.9091 327.171 37.75 327.171 36.3864C327.171 35.0455 327.407 33.8778 327.878 32.8835C328.35 31.8835 329.006 31.1108 329.847 30.5653C330.688 30.0142 331.66 29.7386 332.762 29.7386C333.614 29.7386 334.29 29.8807 334.79 30.1648C335.296 30.4432 335.682 30.7614 335.949 31.1193C336.222 31.4716 336.432 31.7614 336.58 31.9886H336.785V29.9091H338.728V43.375C338.728 44.5 338.472 45.4148 337.961 46.1193C337.455 46.8295 336.773 47.3494 335.915 47.679C335.063 48.0142 334.114 48.1818 333.069 48.1818ZM333.001 40.9886C333.807 40.9886 334.489 40.804 335.046 40.4347C335.603 40.0653 336.026 39.5341 336.316 38.8409C336.606 38.1477 336.751 37.3182 336.751 36.3523C336.751 35.4091 336.609 34.5767 336.324 33.8551C336.04 33.1335 335.62 32.5682 335.063 32.1591C334.506 31.75 333.819 31.5455 333.001 31.5455C332.148 31.5455 331.438 31.7614 330.87 32.1932C330.307 32.625 329.884 33.2045 329.6 33.9318C329.322 34.6591 329.182 35.4659 329.182 36.3523C329.182 37.2614 329.324 38.0653 329.609 38.7642C329.898 39.4574 330.324 40.0028 330.887 40.4006C331.455 40.7926 332.16 40.9886 333.001 40.9886ZM356.632 43V25.5455H358.746V33.3182H368.053V25.5455H370.166V43H368.053V35.1932H358.746V43H356.632ZM383.043 43.2727C381.862 43.2727 380.825 42.9915 379.933 42.429C379.046 41.8665 378.353 41.0795 377.853 40.0682C377.359 39.0568 377.112 37.875 377.112 36.5227C377.112 35.1591 377.359 33.9687 377.853 32.9517C378.353 31.9347 379.046 31.1449 379.933 30.5824C380.825 30.0199 381.862 29.7386 383.043 29.7386C384.225 29.7386 385.259 30.0199 386.146 30.5824C387.038 31.1449 387.731 31.9347 388.225 32.9517C388.725 33.9687 388.975 35.1591 388.975 36.5227C388.975 37.875 388.725 39.0568 388.225 40.0682C387.731 41.0795 387.038 41.8665 386.146 42.429C385.259 42.9915 384.225 43.2727 383.043 43.2727ZM383.043 41.4659C383.941 41.4659 384.68 41.2358 385.259 40.7756C385.839 40.3153 386.268 39.7102 386.546 38.9602C386.825 38.2102 386.964 37.3977 386.964 36.5227C386.964 35.6477 386.825 34.8324 386.546 34.0767C386.268 33.321 385.839 32.7102 385.259 32.2443C384.68 31.7784 383.941 31.5455 383.043 31.5455C382.146 31.5455 381.407 31.7784 380.828 32.2443C380.248 32.7102 379.819 33.321 379.541 34.0767C379.262 34.8324 379.123 35.6477 379.123 36.5227C379.123 37.3977 379.262 38.2102 379.541 38.9602C379.819 39.7102 380.248 40.3153 380.828 40.7756C381.407 41.2358 382.146 41.4659 383.043 41.4659ZM395.646 43V29.9091H397.589V31.9545H397.759C398.032 31.2557 398.472 30.7131 399.08 30.3267C399.688 29.9347 400.418 29.7386 401.271 29.7386C402.134 29.7386 402.853 29.9347 403.427 30.3267C404.006 30.7131 404.458 31.2557 404.782 31.9545H404.918C405.254 31.2784 405.756 30.7415 406.427 30.3438C407.097 29.9403 407.901 29.7386 408.839 29.7386C410.009 29.7386 410.967 30.1051 411.711 30.8381C412.455 31.5653 412.827 32.6989 412.827 34.2386V43H410.816V34.2386C410.816 33.2727 410.552 32.5824 410.023 32.1676C409.495 31.7528 408.873 31.5455 408.157 31.5455C407.237 31.5455 406.523 31.8239 406.018 32.3807C405.512 32.9318 405.259 33.6307 405.259 34.4773V43H403.214V34.0341C403.214 33.2898 402.972 32.6903 402.489 32.2358C402.006 31.7756 401.384 31.5455 400.623 31.5455C400.1 31.5455 399.612 31.6847 399.157 31.9631C398.708 32.2415 398.344 32.6278 398.066 33.1222C397.793 33.6108 397.657 34.1761 397.657 34.8182V43H395.646ZM425.594 43.2727C424.332 43.2727 423.244 42.9943 422.329 42.4375C421.42 41.875 420.719 41.0909 420.224 40.0852C419.736 39.0739 419.491 37.8977 419.491 36.5568C419.491 35.2159 419.736 34.0341 420.224 33.0114C420.719 31.983 421.406 31.1818 422.287 30.608C423.173 30.0284 424.207 29.7386 425.389 29.7386C426.071 29.7386 426.744 29.8523 427.409 30.0795C428.074 30.3068 428.679 30.6761 429.224 31.1875C429.77 31.6932 430.204 32.3636 430.528 33.1989C430.852 34.0341 431.014 35.0625 431.014 36.2841V37.1364H420.923V35.3977H428.969C428.969 34.6591 428.821 34 428.525 33.4205C428.236 32.8409 427.821 32.3835 427.281 32.0483C426.747 31.7131 426.116 31.5455 425.389 31.5455C424.588 31.5455 423.895 31.7443 423.31 32.142C422.73 32.5341 422.284 33.0455 421.971 33.6761C421.659 34.3068 421.503 34.983 421.503 35.7045V36.8636C421.503 37.8523 421.673 38.6903 422.014 39.3778C422.361 40.0597 422.841 40.5795 423.454 40.9375C424.068 41.2898 424.781 41.4659 425.594 41.4659C426.122 41.4659 426.599 41.392 427.025 41.2443C427.457 41.0909 427.829 40.8636 428.142 40.5625C428.454 40.2557 428.696 39.875 428.866 39.4205L430.81 39.9659C430.605 40.625 430.261 41.2045 429.778 41.7045C429.295 42.1989 428.699 42.5852 427.989 42.8636C427.278 43.1364 426.48 43.2727 425.594 43.2727ZM446.946 32.8409L445.14 33.3523C445.026 33.0511 444.858 32.7585 444.637 32.4744C444.421 32.1847 444.125 31.946 443.75 31.7585C443.375 31.571 442.895 31.4773 442.31 31.4773C441.509 31.4773 440.841 31.6619 440.307 32.0312C439.779 32.3949 439.515 32.858 439.515 33.4205C439.515 33.9205 439.696 34.3153 440.06 34.6051C440.424 34.8949 440.992 35.1364 441.765 35.3295L443.708 35.8068C444.878 36.0909 445.75 36.5256 446.324 37.1108C446.898 37.6903 447.185 38.4375 447.185 39.3523C447.185 40.1023 446.969 40.7727 446.537 41.3636C446.111 41.9545 445.515 42.4205 444.748 42.7614C443.981 43.1023 443.089 43.2727 442.071 43.2727C440.736 43.2727 439.631 42.983 438.756 42.4034C437.881 41.8239 437.327 40.9773 437.094 39.8636L439.003 39.3864C439.185 40.0909 439.529 40.6193 440.035 40.9716C440.546 41.3239 441.214 41.5 442.037 41.5C442.975 41.5 443.719 41.3011 444.27 40.9034C444.827 40.5 445.106 40.017 445.106 39.4545C445.106 39 444.946 38.6193 444.628 38.3125C444.31 38 443.821 37.767 443.162 37.6136L440.981 37.1023C439.782 36.8182 438.901 36.3778 438.339 35.7812C437.782 35.179 437.503 34.4261 437.503 33.5227C437.503 32.7841 437.711 32.1307 438.125 31.5625C438.546 30.9943 439.117 30.5483 439.839 30.2244C440.566 29.9006 441.39 29.7386 442.31 29.7386C443.606 29.7386 444.623 30.0227 445.361 30.5909C446.106 31.1591 446.634 31.9091 446.946 32.8409ZM455.279 43.1364C454.858 43.1364 454.497 42.9858 454.196 42.6847C453.895 42.3835 453.745 42.0227 453.745 41.6023C453.745 41.1818 453.895 40.821 454.196 40.5199C454.497 40.2187 454.858 40.0682 455.279 40.0682C455.699 40.0682 456.06 40.2187 456.361 40.5199C456.662 40.821 456.813 41.1818 456.813 41.6023C456.813 41.8807 456.742 42.1364 456.6 42.3693C456.463 42.6023 456.279 42.7898 456.046 42.9318C455.818 43.0682 455.563 43.1364 455.279 43.1364Z" fill="white"/>
<path d="M633.284 41L628.511 23.5455H630.659L634.307 37.7614H634.477L638.193 23.5455H640.58L644.295 37.7614H644.466L648.114 23.5455H650.261L645.489 41H643.307L639.455 27.0909H639.318L635.466 41H633.284ZM658.856 41.3068C658.026 41.3068 657.273 41.1506 656.597 40.8381C655.921 40.5199 655.384 40.0625 654.986 39.4659C654.589 38.8636 654.39 38.1364 654.39 37.2841C654.39 36.5341 654.538 35.9261 654.833 35.4602C655.128 34.9886 655.523 34.6193 656.018 34.3523C656.512 34.0852 657.057 33.8864 657.654 33.7557C658.256 33.6193 658.861 33.5114 659.469 33.4318C660.265 33.3295 660.91 33.2528 661.404 33.2017C661.904 33.1449 662.268 33.0511 662.495 32.9205C662.728 32.7898 662.844 32.5625 662.844 32.2386V32.1705C662.844 31.3295 662.614 30.6761 662.154 30.2102C661.699 29.7443 661.009 29.5114 660.083 29.5114C659.123 29.5114 658.37 29.7216 657.824 30.142C657.279 30.5625 656.895 31.0114 656.674 31.4886L654.765 30.8068C655.106 30.0114 655.56 29.392 656.128 28.9489C656.702 28.5 657.327 28.1875 658.003 28.0114C658.685 27.8295 659.356 27.7386 660.015 27.7386C660.435 27.7386 660.918 27.7898 661.464 27.892C662.015 27.9886 662.546 28.1903 663.057 28.4972C663.574 28.804 664.003 29.267 664.344 29.8864C664.685 30.5057 664.856 31.3352 664.856 32.375V41H662.844V39.2273H662.742C662.606 39.5114 662.378 39.8153 662.06 40.1392C661.742 40.4631 661.319 40.7386 660.79 40.9659C660.262 41.1932 659.617 41.3068 658.856 41.3068ZM659.163 39.5C659.958 39.5 660.628 39.3438 661.174 39.0312C661.725 38.7188 662.14 38.3153 662.418 37.821C662.702 37.3267 662.844 36.8068 662.844 36.2614V34.4205C662.759 34.5227 662.572 34.6165 662.282 34.7017C661.998 34.7812 661.668 34.8523 661.293 34.9148C660.924 34.9716 660.563 35.0227 660.211 35.0682C659.864 35.108 659.583 35.142 659.367 35.1705C658.844 35.2386 658.356 35.3494 657.901 35.5028C657.452 35.6506 657.089 35.875 656.81 36.1761C656.538 36.4716 656.401 36.875 656.401 37.3864C656.401 38.0852 656.66 38.6136 657.177 38.9716C657.699 39.3239 658.361 39.5 659.163 39.5ZM672.127 41V27.9091H674.07V29.8864H674.206C674.445 29.2386 674.877 28.7131 675.502 28.3097C676.127 27.9062 676.831 27.7045 677.615 27.7045C677.763 27.7045 677.948 27.7074 678.169 27.7131C678.391 27.7187 678.559 27.7273 678.672 27.7386V29.7841C678.604 29.767 678.448 29.7415 678.204 29.7074C677.965 29.6676 677.712 29.6477 677.445 29.6477C676.809 29.6477 676.24 29.7812 675.74 30.0483C675.246 30.3097 674.854 30.6733 674.564 31.1392C674.28 31.5994 674.138 32.125 674.138 32.7159V41H672.127ZM684.657 41V27.9091H686.6V29.9545H686.77C687.043 29.2557 687.483 28.7131 688.091 28.3267C688.699 27.9347 689.429 27.7386 690.282 27.7386C691.145 27.7386 691.864 27.9347 692.438 28.3267C693.017 28.7131 693.469 29.2557 693.793 29.9545H693.929C694.264 29.2784 694.767 28.7415 695.438 28.3438C696.108 27.9403 696.912 27.7386 697.85 27.7386C699.02 27.7386 699.978 28.1051 700.722 28.8381C701.466 29.5653 701.838 30.6989 701.838 32.2386V41H699.827V32.2386C699.827 31.2727 699.563 30.5824 699.034 30.1676C698.506 29.7528 697.884 29.5455 697.168 29.5455C696.247 29.5455 695.534 29.8239 695.029 30.3807C694.523 30.9318 694.27 31.6307 694.27 32.4773V41H692.225V32.0341C692.225 31.2898 691.983 30.6903 691.5 30.2358C691.017 29.7756 690.395 29.5455 689.634 29.5455C689.111 29.5455 688.622 29.6847 688.168 29.9631C687.719 30.2415 687.355 30.6278 687.077 31.1222C686.804 31.6108 686.668 32.1761 686.668 32.8182V41H684.657ZM719.739 41V23.5455H725.636C727.006 23.5455 728.125 23.7926 728.994 24.2869C729.869 24.7756 730.517 25.4375 730.938 26.2727C731.358 27.108 731.568 28.0398 731.568 29.0682C731.568 30.0966 731.358 31.0312 730.938 31.8722C730.523 32.7131 729.881 33.3835 729.011 33.8835C728.142 34.3778 727.028 34.625 725.67 34.625H721.443V32.75H725.602C726.54 32.75 727.293 32.5881 727.861 32.2642C728.429 31.9403 728.841 31.5028 729.097 30.9517C729.358 30.3949 729.489 29.767 729.489 29.0682C729.489 28.3693 729.358 27.7443 729.097 27.1932C728.841 26.642 728.426 26.2102 727.852 25.8977C727.278 25.5795 726.517 25.4205 725.568 25.4205H721.852V41H719.739ZM742.153 41.3068C741.323 41.3068 740.57 41.1506 739.894 40.8381C739.218 40.5199 738.681 40.0625 738.283 39.4659C737.886 38.8636 737.687 38.1364 737.687 37.2841C737.687 36.5341 737.834 35.9261 738.13 35.4602C738.425 34.9886 738.82 34.6193 739.314 34.3523C739.809 34.0852 740.354 33.8864 740.951 33.7557C741.553 33.6193 742.158 33.5114 742.766 33.4318C743.562 33.3295 744.207 33.2528 744.701 33.2017C745.201 33.1449 745.564 33.0511 745.792 32.9205C746.025 32.7898 746.141 32.5625 746.141 32.2386V32.1705C746.141 31.3295 745.911 30.6761 745.451 30.2102C744.996 29.7443 744.306 29.5114 743.38 29.5114C742.42 29.5114 741.667 29.7216 741.121 30.142C740.576 30.5625 740.192 31.0114 739.971 31.4886L738.062 30.8068C738.403 30.0114 738.857 29.392 739.425 28.9489C739.999 28.5 740.624 28.1875 741.3 28.0114C741.982 27.8295 742.653 27.7386 743.312 27.7386C743.732 27.7386 744.215 27.7898 744.761 27.892C745.312 27.9886 745.843 28.1903 746.354 28.4972C746.871 28.804 747.3 29.267 747.641 29.8864C747.982 30.5057 748.153 31.3352 748.153 32.375V41H746.141V39.2273H746.039C745.903 39.5114 745.675 39.8153 745.357 40.1392C745.039 40.4631 744.616 40.7386 744.087 40.9659C743.559 41.1932 742.914 41.3068 742.153 41.3068ZM742.459 39.5C743.255 39.5 743.925 39.3438 744.471 39.0312C745.022 38.7188 745.437 38.3153 745.715 37.821C745.999 37.3267 746.141 36.8068 746.141 36.2614V34.4205C746.056 34.5227 745.868 34.6165 745.579 34.7017C745.295 34.7812 744.965 34.8523 744.59 34.9148C744.221 34.9716 743.86 35.0227 743.508 35.0682C743.161 35.108 742.88 35.142 742.664 35.1705C742.141 35.2386 741.653 35.3494 741.198 35.5028C740.749 35.6506 740.386 35.875 740.107 36.1761C739.834 36.4716 739.698 36.875 739.698 37.3864C739.698 38.0852 739.957 38.6136 740.474 38.9716C740.996 39.3239 741.658 39.5 742.459 39.5ZM758.39 41L754.401 27.9091H756.515L759.344 37.9318H759.481L762.276 27.9091H764.424L767.185 37.8977H767.321L770.151 27.9091H772.265L768.276 41H766.299L763.435 30.9432H763.231L760.367 41H758.39ZM787.796 30.8409L785.99 31.3523C785.876 31.0511 785.708 30.7585 785.487 30.4744C785.271 30.1847 784.975 29.946 784.6 29.7585C784.225 29.571 783.745 29.4773 783.16 29.4773C782.359 29.4773 781.691 29.6619 781.157 30.0312C780.629 30.3949 780.365 30.858 780.365 31.4205C780.365 31.9205 780.546 32.3153 780.91 32.6051C781.274 32.8949 781.842 33.1364 782.615 33.3295L784.558 33.8068C785.728 34.0909 786.6 34.5256 787.174 35.1108C787.748 35.6903 788.035 36.4375 788.035 37.3523C788.035 38.1023 787.819 38.7727 787.387 39.3636C786.961 39.9545 786.365 40.4205 785.598 40.7614C784.831 41.1023 783.938 41.2727 782.921 41.2727C781.586 41.2727 780.481 40.983 779.606 40.4034C778.731 39.8239 778.177 38.9773 777.944 37.8636L779.853 37.3864C780.035 38.0909 780.379 38.6193 780.885 38.9716C781.396 39.3239 782.063 39.5 782.887 39.5C783.825 39.5 784.569 39.3011 785.12 38.9034C785.677 38.5 785.956 38.017 785.956 37.4545C785.956 37 785.796 36.6193 785.478 36.3125C785.16 36 784.671 35.767 784.012 35.6136L781.831 35.1023C780.632 34.8182 779.751 34.3778 779.188 33.7812C778.632 33.179 778.353 32.4261 778.353 31.5227C778.353 30.7841 778.561 30.1307 778.975 29.5625C779.396 28.9943 779.967 28.5483 780.688 28.2244C781.416 27.9006 782.24 27.7386 783.16 27.7386C784.456 27.7386 785.473 28.0227 786.211 28.5909C786.956 29.1591 787.484 29.9091 787.796 30.8409ZM797.663 38.6136L797.526 39.5341C797.43 40.1818 797.282 40.875 797.083 41.6136C796.89 42.3523 796.688 43.0483 796.478 43.7017C796.268 44.3551 796.095 44.875 795.958 45.2614H794.424C794.498 44.8977 794.595 44.4176 794.714 43.821C794.833 43.2244 794.953 42.5568 795.072 41.8182C795.197 41.0852 795.299 40.3352 795.379 39.5682L795.481 38.6136H797.663ZM815.612 41V23.5455H817.726V39.125H825.839V41H815.612ZM837.758 41.2727C836.576 41.2727 835.539 40.9915 834.647 40.429C833.76 39.8665 833.067 39.0795 832.567 38.0682C832.073 37.0568 831.826 35.875 831.826 34.5227C831.826 33.1591 832.073 31.9687 832.567 30.9517C833.067 29.9347 833.76 29.1449 834.647 28.5824C835.539 28.0199 836.576 27.7386 837.758 27.7386C838.939 27.7386 839.973 28.0199 840.86 28.5824C841.752 29.1449 842.445 29.9347 842.939 30.9517C843.439 31.9687 843.689 33.1591 843.689 34.5227C843.689 35.875 843.439 37.0568 842.939 38.0682C842.445 39.0795 841.752 39.8665 840.86 40.429C839.973 40.9915 838.939 41.2727 837.758 41.2727ZM837.758 39.4659C838.655 39.4659 839.394 39.2358 839.973 38.7756C840.553 38.3153 840.982 37.7102 841.26 36.9602C841.539 36.2102 841.678 35.3977 841.678 34.5227C841.678 33.6477 841.539 32.8324 841.26 32.0767C840.982 31.321 840.553 30.7102 839.973 30.2443C839.394 29.7784 838.655 29.5455 837.758 29.5455C836.86 29.5455 836.121 29.7784 835.542 30.2443C834.962 30.7102 834.533 31.321 834.255 32.0767C833.976 32.8324 833.837 33.6477 833.837 34.5227C833.837 35.3977 833.976 36.2102 834.255 36.9602C834.533 37.7102 834.962 38.3153 835.542 38.7756C836.121 39.2358 836.86 39.4659 837.758 39.4659ZM860.595 27.9091L855.755 41H853.709L848.868 27.9091H851.05L854.664 38.3409H854.8L858.414 27.9091H860.595ZM866.85 41V27.9091H868.862V41H866.85ZM867.873 25.7273C867.481 25.7273 867.143 25.5938 866.859 25.3267C866.58 25.0597 866.441 24.7386 866.441 24.3636C866.441 23.9886 866.58 23.6676 866.859 23.4006C867.143 23.1335 867.481 23 867.873 23C868.265 23 868.6 23.1335 868.879 23.4006C869.163 23.6676 869.305 23.9886 869.305 24.3636C869.305 24.7386 869.163 25.0597 868.879 25.3267C868.6 25.5938 868.265 25.7273 867.873 25.7273ZM878.157 33.125V41H876.146V27.9091H878.089V29.9545H878.259C878.566 29.2898 879.032 28.7557 879.657 28.3523C880.282 27.9432 881.089 27.7386 882.077 27.7386C882.964 27.7386 883.739 27.9205 884.404 28.2841C885.069 28.642 885.586 29.1875 885.955 29.9205C886.325 30.6477 886.509 31.5682 886.509 32.6818V41H884.498V32.8182C884.498 31.7898 884.231 30.9886 883.697 30.4148C883.163 29.8352 882.43 29.5455 881.498 29.5455C880.856 29.5455 880.282 29.6847 879.776 29.9631C879.276 30.2415 878.881 30.6477 878.592 31.1818C878.302 31.7159 878.157 32.3636 878.157 33.125ZM899.069 46.1818C898.097 46.1818 897.262 46.0568 896.563 45.8068C895.864 45.5625 895.282 45.2386 894.816 44.8352C894.356 44.4375 893.989 44.0114 893.716 43.5568L895.319 42.4318C895.501 42.6705 895.731 42.9432 896.009 43.25C896.288 43.5625 896.668 43.8324 897.151 44.0597C897.64 44.2926 898.279 44.4091 899.069 44.4091C900.126 44.4091 900.998 44.1534 901.685 43.642C902.373 43.1307 902.716 42.3295 902.716 41.2386V38.5795H902.546C902.398 38.8182 902.188 39.1136 901.915 39.4659C901.648 39.8125 901.262 40.1222 900.756 40.3949C900.256 40.6619 899.58 40.7955 898.728 40.7955C897.671 40.7955 896.722 40.5455 895.881 40.0455C895.046 39.5455 894.384 38.8182 893.895 37.8636C893.413 36.9091 893.171 35.75 893.171 34.3864C893.171 33.0455 893.407 31.8778 893.878 30.8835C894.35 29.8835 895.006 29.1108 895.847 28.5653C896.688 28.0142 897.66 27.7386 898.762 27.7386C899.614 27.7386 900.29 27.8807 900.79 28.1648C901.296 28.4432 901.682 28.7614 901.949 29.1193C902.222 29.4716 902.432 29.7614 902.58 29.9886H902.785V27.9091H904.728V41.375C904.728 42.5 904.472 43.4148 903.961 44.1193C903.455 44.8295 902.773 45.3494 901.915 45.679C901.063 46.0142 900.114 46.1818 899.069 46.1818ZM899.001 38.9886C899.807 38.9886 900.489 38.804 901.046 38.4347C901.603 38.0653 902.026 37.5341 902.316 36.8409C902.606 36.1477 902.751 35.3182 902.751 34.3523C902.751 33.4091 902.609 32.5767 902.324 31.8551C902.04 31.1335 901.62 30.5682 901.063 30.1591C900.506 29.75 899.819 29.5455 899.001 29.5455C898.148 29.5455 897.438 29.7614 896.87 30.1932C896.307 30.625 895.884 31.2045 895.6 31.9318C895.322 32.6591 895.182 33.4659 895.182 34.3523C895.182 35.2614 895.324 36.0653 895.609 36.7642C895.898 37.4574 896.324 38.0028 896.887 38.4006C897.455 38.7926 898.16 38.9886 899.001 38.9886ZM922.632 41V23.5455H924.746V31.3182H934.053V23.5455H936.166V41H934.053V33.1932H924.746V41H922.632ZM949.043 41.2727C947.862 41.2727 946.825 40.9915 945.933 40.429C945.046 39.8665 944.353 39.0795 943.853 38.0682C943.359 37.0568 943.112 35.875 943.112 34.5227C943.112 33.1591 943.359 31.9687 943.853 30.9517C944.353 29.9347 945.046 29.1449 945.933 28.5824C946.825 28.0199 947.862 27.7386 949.043 27.7386C950.225 27.7386 951.259 28.0199 952.146 28.5824C953.038 29.1449 953.731 29.9347 954.225 30.9517C954.725 31.9687 954.975 33.1591 954.975 34.5227C954.975 35.875 954.725 37.0568 954.225 38.0682C953.731 39.0795 953.038 39.8665 952.146 40.429C951.259 40.9915 950.225 41.2727 949.043 41.2727ZM949.043 39.4659C949.941 39.4659 950.68 39.2358 951.259 38.7756C951.839 38.3153 952.268 37.7102 952.546 36.9602C952.825 36.2102 952.964 35.3977 952.964 34.5227C952.964 33.6477 952.825 32.8324 952.546 32.0767C952.268 31.321 951.839 30.7102 951.259 30.2443C950.68 29.7784 949.941 29.5455 949.043 29.5455C948.146 29.5455 947.407 29.7784 946.828 30.2443C946.248 30.7102 945.819 31.321 945.541 32.0767C945.262 32.8324 945.123 33.6477 945.123 34.5227C945.123 35.3977 945.262 36.2102 945.541 36.9602C945.819 37.7102 946.248 38.3153 946.828 38.7756C947.407 39.2358 948.146 39.4659 949.043 39.4659ZM961.646 41V27.9091H963.589V29.9545H963.759C964.032 29.2557 964.472 28.7131 965.08 28.3267C965.688 27.9347 966.418 27.7386 967.271 27.7386C968.134 27.7386 968.853 27.9347 969.427 28.3267C970.006 28.7131 970.458 29.2557 970.782 29.9545H970.918C971.254 29.2784 971.756 28.7415 972.427 28.3438C973.097 27.9403 973.901 27.7386 974.839 27.7386C976.009 27.7386 976.967 28.1051 977.711 28.8381C978.455 29.5653 978.827 30.6989 978.827 32.2386V41H976.816V32.2386C976.816 31.2727 976.552 30.5824 976.023 30.1676C975.495 29.7528 974.873 29.5455 974.157 29.5455C973.237 29.5455 972.523 29.8239 972.018 30.3807C971.512 30.9318 971.259 31.6307 971.259 32.4773V41H969.214V32.0341C969.214 31.2898 968.972 30.6903 968.489 30.2358C968.006 29.7756 967.384 29.5455 966.623 29.5455C966.1 29.5455 965.612 29.6847 965.157 29.9631C964.708 30.2415 964.344 30.6278 964.066 31.1222C963.793 31.6108 963.657 32.1761 963.657 32.8182V41H961.646ZM991.594 41.2727C990.332 41.2727 989.244 40.9943 988.329 40.4375C987.42 39.875 986.719 39.0909 986.224 38.0852C985.736 37.0739 985.491 35.8977 985.491 34.5568C985.491 33.2159 985.736 32.0341 986.224 31.0114C986.719 29.983 987.406 29.1818 988.287 28.608C989.173 28.0284 990.207 27.7386 991.389 27.7386C992.071 27.7386 992.744 27.8523 993.409 28.0795C994.074 28.3068 994.679 28.6761 995.224 29.1875C995.77 29.6932 996.204 30.3636 996.528 31.1989C996.852 32.0341 997.014 33.0625 997.014 34.2841V35.1364H986.923V33.3977H994.969C994.969 32.6591 994.821 32 994.525 31.4205C994.236 30.8409 993.821 30.3835 993.281 30.0483C992.747 29.7131 992.116 29.5455 991.389 29.5455C990.588 29.5455 989.895 29.7443 989.31 30.142C988.73 30.5341 988.284 31.0455 987.971 31.6761C987.659 32.3068 987.503 32.983 987.503 33.7045V34.8636C987.503 35.8523 987.673 36.6903 988.014 37.3778C988.361 38.0597 988.841 38.5795 989.454 38.9375C990.068 39.2898 990.781 39.4659 991.594 39.4659C992.122 39.4659 992.599 39.392 993.025 39.2443C993.457 39.0909 993.829 38.8636 994.142 38.5625C994.454 38.2557 994.696 37.875 994.866 37.4205L996.81 37.9659C996.605 38.625 996.261 39.2045 995.778 39.7045C995.295 40.1989 994.699 40.5852 993.989 40.8636C993.278 41.1364 992.48 41.2727 991.594 41.2727ZM1012.95 30.8409L1011.14 31.3523C1011.03 31.0511 1010.86 30.7585 1010.64 30.4744C1010.42 30.1847 1010.13 29.946 1009.75 29.7585C1009.38 29.571 1008.9 29.4773 1008.31 29.4773C1007.51 29.4773 1006.84 29.6619 1006.31 30.0312C1005.78 30.3949 1005.51 30.858 1005.51 31.4205C1005.51 31.9205 1005.7 32.3153 1006.06 32.6051C1006.42 32.8949 1006.99 33.1364 1007.76 33.3295L1009.71 33.8068C1010.88 34.0909 1011.75 34.5256 1012.32 35.1108C1012.9 35.6903 1013.19 36.4375 1013.19 37.3523C1013.19 38.1023 1012.97 38.7727 1012.54 39.3636C1012.11 39.9545 1011.51 40.4205 1010.75 40.7614C1009.98 41.1023 1009.09 41.2727 1008.07 41.2727C1006.74 41.2727 1005.63 40.983 1004.76 40.4034C1003.88 39.8239 1003.33 38.9773 1003.09 37.8636L1005 37.3864C1005.19 38.0909 1005.53 38.6193 1006.03 38.9716C1006.55 39.3239 1007.21 39.5 1008.04 39.5C1008.97 39.5 1009.72 39.3011 1010.27 38.9034C1010.83 38.5 1011.11 38.017 1011.11 37.4545C1011.11 37 1010.95 36.6193 1010.63 36.3125C1010.31 36 1009.82 35.767 1009.16 35.6136L1006.98 35.1023C1005.78 34.8182 1004.9 34.3778 1004.34 33.7812C1003.78 33.179 1003.5 32.4261 1003.5 31.5227C1003.5 30.7841 1003.71 30.1307 1004.13 29.5625C1004.55 28.9943 1005.12 28.5483 1005.84 28.2244C1006.57 27.9006 1007.39 27.7386 1008.31 27.7386C1009.61 27.7386 1010.62 28.0227 1011.36 28.5909C1012.11 29.1591 1012.63 29.9091 1012.95 30.8409ZM1021.28 41.1364C1020.86 41.1364 1020.5 40.9858 1020.2 40.6847C1019.9 40.3835 1019.74 40.0227 1019.74 39.6023C1019.74 39.1818 1019.9 38.821 1020.2 38.5199C1020.5 38.2187 1020.86 38.0682 1021.28 38.0682C1021.7 38.0682 1022.06 38.2187 1022.36 38.5199C1022.66 38.821 1022.81 39.1818 1022.81 39.6023C1022.81 39.8807 1022.74 40.1364 1022.6 40.3693C1022.46 40.6023 1022.28 40.7898 1022.05 40.9318C1021.82 41.0682 1021.56 41.1364 1021.28 41.1364Z" fill="white"/>
<path d="M25.7095 9.56882C28.1893 9.70814 30.2101 12.8578 30.2114 16.6412C30.2169 20.4042 28.2381 23.3628 25.7542 23.2439C23.2907 23.1292 21.2494 19.9754 21.2277 16.1878C21.2018 12.4207 23.2214 9.47035 25.7095 9.56882ZM40.3107 12.5165C42.6625 13.3952 43.359 16.8938 41.9145 20.3641C40.4046 23.8424 37.3202 25.9615 34.9846 25.1074C32.6287 24.2492 31.9527 20.7547 33.438 17.2926C34.907 13.806 37.9915 11.687 40.3107 12.5165ZM12.8876 16.757C15.4177 16.2263 18.216 18.6829 19.2312 22.1821C20.1318 25.722 18.9165 29.0047 16.4068 29.5395C13.8972 30.0743 11.1151 27.6423 10.1491 24.1105C9.18309 20.5787 10.4434 17.2837 12.8876 16.757ZM49.646 24.1778C51.6945 25.6116 51.5778 29.1374 49.3172 32.0178C47.0567 34.8983 43.549 36.0605 41.4434 34.594C39.3378 33.1274 39.4912 29.6303 41.6946 26.7171C43.9878 23.8857 47.52 22.7072 49.646 24.1778ZM41.7914 45.5036C41.4856 47.4397 39.5865 49.2666 37.6694 49.7085C33.676 50.6451 30.0475 46.2995 25.9836 45.4791C21.9198 44.6586 16.8199 47.391 13.5927 44.8479C11.7526 43.435 10.8794 40.4957 11.5902 38.3438C12.572 35.3752 16.5573 34.4795 19.1713 32.6906C22.632 30.3925 25.7667 25.3931 29.8713 26.2217C33.9556 27.0463 35.0442 32.8132 37.2033 36.3309C38.9671 39.2799 42.3205 42.146 41.7914 45.5036Z" fill="#D5FAFF"/>
<path d="M489.534 8.8332C489.339 8.61845 489.101 8.44686 488.836 8.32944C488.57 8.21202 488.283 8.15137 487.993 8.15137C487.703 8.15137 487.416 8.21202 487.15 8.32944C486.885 8.44686 486.647 8.61845 486.452 8.8332L467.708 29.6594C467.432 29.9574 467.249 30.3298 467.181 30.7306C467.114 31.1314 467.165 31.5432 467.329 31.9152C467.493 32.2871 467.762 32.603 468.103 32.8239C468.445 33.0448 468.843 33.161 469.249 33.1582H473.415V47.7366C473.415 48.2889 473.634 48.8186 474.025 49.2092C474.415 49.5998 474.945 49.8192 475.497 49.8192H500.489C501.041 49.8192 501.571 49.5998 501.961 49.2092C502.352 48.8186 502.571 48.2889 502.571 47.7366V33.1582H506.737C507.289 33.1582 507.819 32.9388 508.209 32.5482C508.6 32.1577 508.819 31.6279 508.819 31.0756C508.823 30.5523 508.63 30.0467 508.278 29.6594L489.534 8.8332Z" fill="#347781"/>
<path d="M539 49.897L535.979 47.0593C525.25 37.02 518.167 30.3773 518.167 22.2728C518.167 15.6301 523.208 10.4492 529.625 10.4492C533.25 10.4492 536.729 12.1905 539 14.9207C541.271 12.1905 544.75 10.4492 548.375 10.4492C554.792 10.4492 559.833 15.6301 559.833 22.2728C559.833 30.3773 552.75 37.02 542.021 47.0593L539 49.897Z" fill="white"/>
<path d="M590.709 9.56882C593.189 9.70814 595.21 12.8578 595.211 16.6412C595.217 20.4042 593.238 23.3628 590.754 23.2439C588.291 23.1292 586.249 19.9754 586.228 16.1878C586.202 12.4207 588.221 9.47035 590.709 9.56882ZM605.311 12.5165C607.663 13.3952 608.359 16.8938 606.914 20.3641C605.405 23.8424 602.32 25.9615 599.985 25.1074C597.629 24.2492 596.953 20.7547 598.438 17.2926C599.907 13.806 602.992 11.687 605.311 12.5165ZM577.888 16.757C580.418 16.2263 583.216 18.6829 584.231 22.1821C585.132 25.722 583.916 29.0047 581.407 29.5395C578.897 30.0743 576.115 27.6423 575.149 24.1105C574.183 20.5787 575.443 17.2837 577.888 16.757ZM614.646 24.1778C616.694 25.6116 616.578 29.1374 614.317 32.0178C612.057 34.8983 608.549 36.0605 606.443 34.594C604.338 33.1274 604.491 29.6303 606.695 26.7171C608.988 23.8857 612.52 22.7072 614.646 24.1778ZM606.791 45.5036C606.486 47.4397 604.586 49.2666 602.669 49.7085C598.676 50.6451 595.047 46.2995 590.984 45.4791C586.92 44.6586 581.82 47.391 578.593 44.8479C576.753 43.435 575.879 40.4957 576.59 38.3438C577.572 35.3752 581.557 34.4795 584.171 32.6906C587.632 30.3925 590.767 25.3931 594.871 26.2217C598.956 27.0463 600.044 32.8132 602.203 36.3309C603.967 39.2799 607.32 42.146 606.791 45.5036Z" fill="#D5FAFF"/>
</svg>
