<svg width="1119" height="52" viewBox="0 0 1119 52" fill="none" xmlns="http://www.w3.org/2000/svg">
<path d="M70.1591 28H68.0455C67.9205 27.392 67.7017 26.858 67.3892 26.3977C67.0824 25.9375 66.7074 25.5511 66.2642 25.2386C65.8267 24.9205 65.3409 24.6818 64.8068 24.5227C64.2727 24.3636 63.7159 24.2841 63.1364 24.2841C62.0795 24.2841 61.1222 24.5511 60.2642 25.0852C59.4119 25.6193 58.733 26.4062 58.2273 27.446C57.7273 28.4858 57.4773 29.7614 57.4773 31.2727C57.4773 32.7841 57.7273 34.0597 58.2273 35.0994C58.733 36.1392 59.4119 36.9261 60.2642 37.4602C61.1222 37.9943 62.0795 38.2614 63.1364 38.2614C63.7159 38.2614 64.2727 38.1818 64.8068 38.0227C65.3409 37.8636 65.8267 37.6278 66.2642 37.3153C66.7074 36.9972 67.0824 36.608 67.3892 36.1477C67.7017 35.6818 67.9205 35.1477 68.0455 34.5455H70.1591C70 35.4375 69.7102 36.2358 69.2898 36.9403C68.8693 37.6449 68.3466 38.2443 67.7216 38.7386C67.0966 39.2273 66.3949 39.5994 65.6165 39.8551C64.8438 40.1108 64.017 40.2386 63.1364 40.2386C61.6477 40.2386 60.3239 39.875 59.1648 39.1477C58.0057 38.4205 57.0938 37.3864 56.429 36.0455C55.7642 34.7045 55.4318 33.1136 55.4318 31.2727C55.4318 29.4318 55.7642 27.8409 56.429 26.5C57.0938 25.1591 58.0057 24.125 59.1648 23.3977C60.3239 22.6705 61.6477 22.3068 63.1364 22.3068C64.017 22.3068 64.8438 22.4347 65.6165 22.6903C66.3949 22.946 67.0966 23.321 67.7216 23.8153C68.3466 24.304 68.8693 24.9006 69.2898 25.6051C69.7102 26.304 70 27.1023 70.1591 28ZM78.9132 32.125V40H76.9018V22.5455H78.9132V28.9545H79.0837C79.3905 28.2784 79.8507 27.7415 80.4643 27.3438C81.0837 26.9403 81.9075 26.7386 82.9359 26.7386C83.828 26.7386 84.6092 26.9176 85.2797 27.2756C85.9501 27.6278 86.47 28.1705 86.8393 28.9034C87.2143 29.6307 87.4018 30.5568 87.4018 31.6818V40H85.3905V31.8182C85.3905 30.7784 85.1206 29.9744 84.5808 29.4062C84.0467 28.8324 83.3053 28.5455 82.3564 28.5455C81.6973 28.5455 81.1064 28.6847 80.5837 28.9631C80.0666 29.2415 79.6575 29.6477 79.3564 30.1818C79.0609 30.7159 78.9132 31.3636 78.9132 32.125ZM100.17 40.2727C98.9088 40.2727 97.8207 39.9943 96.906 39.4375C95.9969 38.875 95.2952 38.0909 94.8009 37.0852C94.3122 36.0739 94.0679 34.8977 94.0679 33.5568C94.0679 32.2159 94.3122 31.0341 94.8009 30.0114C95.2952 28.983 95.9827 28.1818 96.8634 27.608C97.7497 27.0284 98.7838 26.7386 99.9656 26.7386C100.647 26.7386 101.321 26.8523 101.986 27.0795C102.65 27.3068 103.255 27.6761 103.801 28.1875C104.346 28.6932 104.781 29.3636 105.105 30.1989C105.429 31.0341 105.591 32.0625 105.591 33.2841V34.1364H95.4997V32.3977H103.545C103.545 31.6591 103.397 31 103.102 30.4205C102.812 29.8409 102.397 29.3835 101.858 29.0483C101.324 28.7131 100.693 28.5455 99.9656 28.5455C99.1645 28.5455 98.4713 28.7443 97.8861 29.142C97.3065 29.5341 96.8605 30.0455 96.548 30.6761C96.2355 31.3068 96.0793 31.983 96.0793 32.7045V33.8636C96.0793 34.8523 96.2497 35.6903 96.5906 36.3778C96.9372 37.0597 97.4173 37.5795 98.031 37.9375C98.6446 38.2898 99.3577 38.4659 100.17 38.4659C100.699 38.4659 101.176 38.392 101.602 38.2443C102.034 38.0909 102.406 37.8636 102.718 37.5625C103.031 37.2557 103.272 36.875 103.443 36.4205L105.386 36.9659C105.182 37.625 104.838 38.2045 104.355 38.7045C103.872 39.1989 103.275 39.5852 102.565 39.8636C101.855 40.1364 101.057 40.2727 100.17 40.2727ZM117.739 40.2727C116.478 40.2727 115.389 39.9943 114.475 39.4375C113.566 38.875 112.864 38.0909 112.37 37.0852C111.881 36.0739 111.637 34.8977 111.637 33.5568C111.637 32.2159 111.881 31.0341 112.37 30.0114C112.864 28.983 113.551 28.1818 114.432 27.608C115.318 27.0284 116.353 26.7386 117.534 26.7386C118.216 26.7386 118.889 26.8523 119.554 27.0795C120.219 27.3068 120.824 27.6761 121.37 28.1875C121.915 28.6932 122.35 29.3636 122.674 30.1989C122.997 31.0341 123.159 32.0625 123.159 33.2841V34.1364H113.068V32.3977H121.114C121.114 31.6591 120.966 31 120.671 30.4205C120.381 29.8409 119.966 29.3835 119.426 29.0483C118.892 28.7131 118.262 28.5455 117.534 28.5455C116.733 28.5455 116.04 28.7443 115.455 29.142C114.875 29.5341 114.429 30.0455 114.117 30.6761C113.804 31.3068 113.648 31.983 113.648 32.7045V33.8636C113.648 34.8523 113.818 35.6903 114.159 36.3778C114.506 37.0597 114.986 37.5795 115.6 37.9375C116.213 38.2898 116.926 38.4659 117.739 38.4659C118.267 38.4659 118.745 38.392 119.171 38.2443C119.603 38.0909 119.975 37.8636 120.287 37.5625C120.6 37.2557 120.841 36.875 121.012 36.4205L122.955 36.9659C122.75 37.625 122.407 38.2045 121.924 38.7045C121.441 39.1989 120.844 39.5852 120.134 39.8636C119.424 40.1364 118.625 40.2727 117.739 40.2727ZM129.819 40V26.9091H131.762V28.8864H131.899C132.137 28.2386 132.569 27.7131 133.194 27.3097C133.819 26.9062 134.524 26.7045 135.308 26.7045C135.455 26.7045 135.64 26.7074 135.862 26.7131C136.083 26.7187 136.251 26.7273 136.364 26.7386V28.7841C136.296 28.767 136.14 28.7415 135.896 28.7074C135.657 28.6676 135.404 28.6477 135.137 28.6477C134.501 28.6477 133.933 28.7812 133.433 29.0483C132.938 29.3097 132.546 29.6733 132.257 30.1392C131.972 30.5994 131.83 31.125 131.83 31.7159V40H129.819ZM148.999 26.9091V28.6136H141.942V26.9091H148.999ZM144.055 40V25.1023C144.055 24.3523 144.232 23.7273 144.584 23.2273C144.936 22.7273 145.393 22.3523 145.956 22.1023C146.518 21.8523 147.112 21.7273 147.737 21.7273C148.232 21.7273 148.635 21.767 148.947 21.8466C149.26 21.9261 149.493 22 149.646 22.0682L149.067 23.8068C148.964 23.7727 148.822 23.7301 148.641 23.679C148.464 23.6278 148.232 23.6023 147.942 23.6023C147.277 23.6023 146.797 23.7699 146.501 24.1051C146.212 24.4403 146.067 24.9318 146.067 25.5795V40H144.055ZM163.667 34.6477V26.9091H165.679V40H163.667V37.7841H163.531C163.224 38.4489 162.747 39.0142 162.099 39.4801C161.452 39.9403 160.633 40.1705 159.645 40.1705C158.827 40.1705 158.099 39.9915 157.463 39.6335C156.827 39.2699 156.327 38.7244 155.963 37.9972C155.599 37.2642 155.417 36.3409 155.417 35.2273V26.9091H157.429V35.0909C157.429 36.0455 157.696 36.8068 158.23 37.375C158.77 37.9432 159.457 38.2273 160.292 38.2273C160.792 38.2273 161.301 38.0994 161.818 37.8438C162.341 37.5881 162.778 37.196 163.131 36.6676C163.488 36.1392 163.667 35.4659 163.667 34.6477ZM174.974 22.5455V40H172.963V22.5455H174.974ZM196.051 40L191.279 22.5455H193.426L197.074 36.7614H197.244L200.96 22.5455H203.347L207.063 36.7614H207.233L210.881 22.5455H213.029L208.256 40H206.074L202.222 26.0909H202.085L198.233 40H196.051ZM221.001 32.125V40H218.989V22.5455H221.001V28.9545H221.171C221.478 28.2784 221.938 27.7415 222.552 27.3438C223.171 26.9403 223.995 26.7386 225.023 26.7386C225.915 26.7386 226.697 26.9176 227.367 27.2756C228.038 27.6278 228.558 28.1705 228.927 28.9034C229.302 29.6307 229.489 30.5568 229.489 31.6818V40H227.478V31.8182C227.478 30.7784 227.208 29.9744 226.668 29.4062C226.134 28.8324 225.393 28.5455 224.444 28.5455C223.785 28.5455 223.194 28.6847 222.671 28.9631C222.154 29.2415 221.745 29.6477 221.444 30.1818C221.148 30.7159 221.001 31.3636 221.001 32.125ZM236.769 40V26.9091H238.78V40H236.769ZM237.792 24.7273C237.4 24.7273 237.062 24.5938 236.778 24.3267C236.499 24.0597 236.36 23.7386 236.36 23.3636C236.36 22.9886 236.499 22.6676 236.778 22.4006C237.062 22.1335 237.4 22 237.792 22C238.184 22 238.519 22.1335 238.797 22.4006C239.082 22.6676 239.224 22.9886 239.224 23.3636C239.224 23.7386 239.082 24.0597 238.797 24.3267C238.519 24.5938 238.184 24.7273 237.792 24.7273ZM255.337 29.8409L253.53 30.3523C253.417 30.0511 253.249 29.7585 253.027 29.4744C252.812 29.1847 252.516 28.946 252.141 28.7585C251.766 28.571 251.286 28.4773 250.701 28.4773C249.9 28.4773 249.232 28.6619 248.698 29.0312C248.169 29.3949 247.905 29.858 247.905 30.4205C247.905 30.9205 248.087 31.3153 248.451 31.6051C248.814 31.8949 249.383 32.1364 250.155 32.3295L252.098 32.8068C253.269 33.0909 254.141 33.5256 254.715 34.1108C255.289 34.6903 255.576 35.4375 255.576 36.3523C255.576 37.1023 255.36 37.7727 254.928 38.3636C254.502 38.9545 253.905 39.4205 253.138 39.7614C252.371 40.1023 251.479 40.2727 250.462 40.2727C249.127 40.2727 248.022 39.983 247.147 39.4034C246.272 38.8239 245.718 37.9773 245.485 36.8636L247.394 36.3864C247.576 37.0909 247.919 37.6193 248.425 37.9716C248.937 38.3239 249.604 38.5 250.428 38.5C251.365 38.5 252.11 38.3011 252.661 37.9034C253.218 37.5 253.496 37.017 253.496 36.4545C253.496 36 253.337 35.6193 253.019 35.3125C252.701 35 252.212 34.767 251.553 34.6136L249.371 34.1023C248.172 33.8182 247.292 33.3778 246.729 32.7812C246.172 32.179 245.894 31.4261 245.894 30.5227C245.894 29.7841 246.101 29.1307 246.516 28.5625C246.937 27.9943 247.508 27.5483 248.229 27.2244C248.956 26.9006 249.78 26.7386 250.701 26.7386C251.996 26.7386 253.013 27.0227 253.752 27.5909C254.496 28.1591 255.025 28.9091 255.337 29.8409ZM264.078 35.2273L264.044 32.7386H264.453L270.181 26.9091H272.669L266.567 33.0795H266.397L264.078 35.2273ZM262.203 40V22.5455H264.215V40H262.203ZM270.522 40L265.408 33.5227L266.84 32.125L273.078 40H270.522ZM283.808 40.2727C282.546 40.2727 281.458 39.9943 280.543 39.4375C279.634 38.875 278.933 38.0909 278.438 37.0852C277.95 36.0739 277.705 34.8977 277.705 33.5568C277.705 32.2159 277.95 31.0341 278.438 30.0114C278.933 28.983 279.62 28.1818 280.501 27.608C281.387 27.0284 282.421 26.7386 283.603 26.7386C284.285 26.7386 284.958 26.8523 285.623 27.0795C286.288 27.3068 286.893 27.6761 287.438 28.1875C287.984 28.6932 288.418 29.3636 288.742 30.1989C289.066 31.0341 289.228 32.0625 289.228 33.2841V34.1364H279.137V32.3977H287.183C287.183 31.6591 287.035 31 286.739 30.4205C286.45 29.8409 286.035 29.3835 285.495 29.0483C284.961 28.7131 284.33 28.5455 283.603 28.5455C282.802 28.5455 282.109 28.7443 281.524 29.142C280.944 29.5341 280.498 30.0455 280.186 30.6761C279.873 31.3068 279.717 31.983 279.717 32.7045V33.8636C279.717 34.8523 279.887 35.6903 280.228 36.3778C280.575 37.0597 281.055 37.5795 281.668 37.9375C282.282 38.2898 282.995 38.4659 283.808 38.4659C284.336 38.4659 284.813 38.392 285.239 38.2443C285.671 38.0909 286.043 37.8636 286.356 37.5625C286.668 37.2557 286.91 36.875 287.08 36.4205L289.024 36.9659C288.819 37.625 288.475 38.2045 287.992 38.7045C287.509 39.1989 286.913 39.5852 286.203 39.8636C285.492 40.1364 284.694 40.2727 283.808 40.2727ZM295.888 40V26.9091H297.831V28.8864H297.967C298.206 28.2386 298.638 27.7131 299.263 27.3097C299.888 26.9062 300.592 26.7045 301.376 26.7045C301.524 26.7045 301.709 26.7074 301.93 26.7131C302.152 26.7187 302.32 26.7273 302.433 26.7386V28.7841C302.365 28.767 302.209 28.7415 301.964 28.7074C301.726 28.6676 301.473 28.6477 301.206 28.6477C300.57 28.6477 300.001 28.7812 299.501 29.0483C299.007 29.3097 298.615 29.6733 298.325 30.1392C298.041 30.5994 297.899 31.125 297.899 31.7159V40H295.888ZM317.69 29.8409L315.883 30.3523C315.77 30.0511 315.602 29.7585 315.381 29.4744C315.165 29.1847 314.869 28.946 314.494 28.7585C314.119 28.571 313.639 28.4773 313.054 28.4773C312.253 28.4773 311.585 28.6619 311.051 29.0312C310.523 29.3949 310.258 29.858 310.258 30.4205C310.258 30.9205 310.44 31.3153 310.804 31.6051C311.167 31.8949 311.736 32.1364 312.508 32.3295L314.452 32.8068C315.622 33.0909 316.494 33.5256 317.068 34.1108C317.642 34.6903 317.929 35.4375 317.929 36.3523C317.929 37.1023 317.713 37.7727 317.281 38.3636C316.855 38.9545 316.258 39.4205 315.491 39.7614C314.724 40.1023 313.832 40.2727 312.815 40.2727C311.48 40.2727 310.375 39.983 309.5 39.4034C308.625 38.8239 308.071 37.9773 307.838 36.8636L309.747 36.3864C309.929 37.0909 310.273 37.6193 310.778 37.9716C311.29 38.3239 311.957 38.5 312.781 38.5C313.719 38.5 314.463 38.3011 315.014 37.9034C315.571 37.5 315.849 37.017 315.849 36.4545C315.849 36 315.69 35.6193 315.372 35.3125C315.054 35 314.565 34.767 313.906 34.6136L311.724 34.1023C310.525 33.8182 309.645 33.3778 309.082 32.7812C308.525 32.179 308.247 31.4261 308.247 30.5227C308.247 29.7841 308.454 29.1307 308.869 28.5625C309.29 27.9943 309.861 27.5483 310.582 27.2244C311.31 26.9006 312.133 26.7386 313.054 26.7386C314.349 26.7386 315.366 27.0227 316.105 27.5909C316.849 28.1591 317.378 28.9091 317.69 29.8409ZM327.557 37.6136L327.42 38.5341C327.324 39.1818 327.176 39.875 326.977 40.6136C326.784 41.3523 326.582 42.0483 326.372 42.7017C326.162 43.3551 325.988 43.875 325.852 44.2614H324.318C324.392 43.8977 324.488 43.4176 324.608 42.821C324.727 42.2244 324.846 41.5568 324.966 40.8182C325.091 40.0852 325.193 39.3352 325.272 38.5682L325.375 37.6136H327.557ZM345.506 40V22.5455H347.619V31.2045H347.824L355.665 22.5455H358.426L351.097 30.4205L358.426 40H355.869L349.801 31.8864L347.619 34.3409V40H345.506ZM365.31 40V26.9091H367.321V40H365.31ZM366.332 24.7273C365.94 24.7273 365.602 24.5938 365.318 24.3267C365.04 24.0597 364.901 23.7386 364.901 23.3636C364.901 22.9886 365.04 22.6676 365.318 22.4006C365.602 22.1335 365.94 22 366.332 22C366.724 22 367.06 22.1335 367.338 22.4006C367.622 22.6676 367.764 22.9886 367.764 23.3636C367.764 23.7386 367.622 24.0597 367.338 24.3267C367.06 24.5938 366.724 24.7273 366.332 24.7273ZM376.616 32.125V40H374.605V26.9091H376.548V28.9545H376.719C377.025 28.2898 377.491 27.7557 378.116 27.3523C378.741 26.9432 379.548 26.7386 380.537 26.7386C381.423 26.7386 382.199 26.9205 382.864 27.2841C383.528 27.642 384.045 28.1875 384.415 28.9205C384.784 29.6477 384.969 30.5682 384.969 31.6818V40H382.957V31.8182C382.957 30.7898 382.69 29.9886 382.156 29.4148C381.622 28.8352 380.889 28.5455 379.957 28.5455C379.315 28.5455 378.741 28.6847 378.236 28.9631C377.736 29.2415 377.341 29.6477 377.051 30.1818C376.761 30.7159 376.616 31.3636 376.616 32.125ZM397.187 40.2727C396.096 40.2727 395.133 39.9972 394.298 39.446C393.463 38.8892 392.809 38.1051 392.338 37.0938C391.866 36.0767 391.63 34.875 391.63 33.4886C391.63 32.1136 391.866 30.9205 392.338 29.9091C392.809 28.8977 393.466 28.1165 394.307 27.5653C395.147 27.0142 396.119 26.7386 397.221 26.7386C398.074 26.7386 398.747 26.8807 399.241 27.1648C399.741 27.4432 400.122 27.7614 400.383 28.1193C400.65 28.4716 400.858 28.7614 401.005 28.9886H401.176V22.5455H403.187V40H401.244V37.9886H401.005C400.858 38.2273 400.647 38.5284 400.375 38.892C400.102 39.25 399.713 39.571 399.207 39.8551C398.701 40.1335 398.028 40.2727 397.187 40.2727ZM397.46 38.4659C398.267 38.4659 398.949 38.2557 399.505 37.8352C400.062 37.4091 400.486 36.821 400.775 36.071C401.065 35.3153 401.21 34.4432 401.21 33.4545C401.21 32.4773 401.068 31.6222 400.784 30.8892C400.5 30.1506 400.079 29.5767 399.522 29.1676C398.966 28.7528 398.278 28.5455 397.46 28.5455C396.608 28.5455 395.897 28.7642 395.329 29.2017C394.767 29.6335 394.343 30.2216 394.059 30.9659C393.781 31.7045 393.642 32.5341 393.642 33.4545C393.642 34.3864 393.784 35.233 394.068 35.9943C394.358 36.75 394.784 37.3523 395.346 37.8011C395.915 38.2443 396.619 38.4659 397.46 38.4659ZM421.373 40V22.5455H423.487V30.3182H432.793V22.5455H434.907V40H432.793V32.1932H423.487V40H421.373ZM447.955 40.2727C446.693 40.2727 445.605 39.9943 444.69 39.4375C443.781 38.875 443.08 38.0909 442.585 37.0852C442.097 36.0739 441.852 34.8977 441.852 33.5568C441.852 32.2159 442.097 31.0341 442.585 30.0114C443.08 28.983 443.767 28.1818 444.648 27.608C445.534 27.0284 446.568 26.7386 447.75 26.7386C448.432 26.7386 449.105 26.8523 449.77 27.0795C450.435 27.3068 451.04 27.6761 451.585 28.1875C452.131 28.6932 452.565 29.3636 452.889 30.1989C453.213 31.0341 453.375 32.0625 453.375 33.2841V34.1364H443.284V32.3977H451.33C451.33 31.6591 451.182 31 450.886 30.4205C450.597 29.8409 450.182 29.3835 449.642 29.0483C449.108 28.7131 448.477 28.5455 447.75 28.5455C446.949 28.5455 446.256 28.7443 445.67 29.142C445.091 29.5341 444.645 30.0455 444.332 30.6761C444.02 31.3068 443.864 31.983 443.864 32.7045V33.8636C443.864 34.8523 444.034 35.6903 444.375 36.3778C444.722 37.0597 445.202 37.5795 445.815 37.9375C446.429 38.2898 447.142 38.4659 447.955 38.4659C448.483 38.4659 448.96 38.392 449.386 38.2443C449.818 38.0909 450.19 37.8636 450.503 37.5625C450.815 37.2557 451.057 36.875 451.227 36.4205L453.17 36.9659C452.966 37.625 452.622 38.2045 452.139 38.7045C451.656 39.1989 451.06 39.5852 450.349 39.8636C449.639 40.1364 448.841 40.2727 447.955 40.2727ZM463.887 40.3068C463.057 40.3068 462.305 40.1506 461.628 39.8381C460.952 39.5199 460.415 39.0625 460.018 38.4659C459.62 37.8636 459.421 37.1364 459.421 36.2841C459.421 35.5341 459.569 34.9261 459.864 34.4602C460.16 33.9886 460.555 33.6193 461.049 33.3523C461.543 33.0852 462.089 32.8864 462.685 32.7557C463.288 32.6193 463.893 32.5114 464.501 32.4318C465.296 32.3295 465.941 32.2528 466.435 32.2017C466.935 32.1449 467.299 32.0511 467.526 31.9205C467.759 31.7898 467.876 31.5625 467.876 31.2386V31.1705C467.876 30.3295 467.645 29.6761 467.185 29.2102C466.731 28.7443 466.04 28.5114 465.114 28.5114C464.154 28.5114 463.401 28.7216 462.856 29.142C462.31 29.5625 461.927 30.0114 461.705 30.4886L459.796 29.8068C460.137 29.0114 460.591 28.392 461.16 27.9489C461.734 27.5 462.359 27.1875 463.035 27.0114C463.716 26.8295 464.387 26.7386 465.046 26.7386C465.466 26.7386 465.949 26.7898 466.495 26.892C467.046 26.9886 467.577 27.1903 468.089 27.4972C468.606 27.804 469.035 28.267 469.376 28.8864C469.716 29.5057 469.887 30.3352 469.887 31.375V40H467.876V38.2273H467.773C467.637 38.5114 467.41 38.8153 467.091 39.1392C466.773 39.4631 466.35 39.7386 465.822 39.9659C465.293 40.1932 464.648 40.3068 463.887 40.3068ZM464.194 38.5C464.989 38.5 465.66 38.3438 466.205 38.0312C466.756 37.7188 467.171 37.3153 467.449 36.821C467.734 36.3267 467.876 35.8068 467.876 35.2614V33.4205C467.79 33.5227 467.603 33.6165 467.313 33.7017C467.029 33.7812 466.699 33.8523 466.324 33.9148C465.955 33.9716 465.594 34.0227 465.242 34.0682C464.895 34.108 464.614 34.142 464.398 34.1705C463.876 34.2386 463.387 34.3494 462.932 34.5028C462.484 34.6506 462.12 34.875 461.841 35.1761C461.569 35.4716 461.432 35.875 461.432 36.3864C461.432 37.0852 461.691 37.6136 462.208 37.9716C462.731 38.3239 463.393 38.5 464.194 38.5ZM477.158 40V26.9091H479.101V28.8864H479.238C479.476 28.2386 479.908 27.7131 480.533 27.3097C481.158 26.9062 481.863 26.7045 482.647 26.7045C482.794 26.7045 482.979 26.7074 483.201 26.7131C483.422 26.7187 483.59 26.7273 483.704 26.7386V28.7841C483.635 28.767 483.479 28.7415 483.235 28.7074C482.996 28.6676 482.743 28.6477 482.476 28.6477C481.84 28.6477 481.272 28.7812 480.772 29.0483C480.277 29.3097 479.885 29.6733 479.596 30.1392C479.312 30.5994 479.169 31.125 479.169 31.7159V40H477.158ZM496.201 26.9091V28.6136H489.417V26.9091H496.201ZM491.394 23.7727H493.406V36.25C493.406 36.8182 493.488 37.2443 493.653 37.5284C493.823 37.8068 494.039 37.9943 494.301 38.0909C494.568 38.1818 494.849 38.2273 495.144 38.2273C495.366 38.2273 495.548 38.2159 495.69 38.1932C495.832 38.1648 495.946 38.142 496.031 38.125L496.44 39.9318C496.304 39.983 496.113 40.0341 495.869 40.0852C495.625 40.142 495.315 40.1705 494.94 40.1705C494.372 40.1705 493.815 40.0483 493.269 39.804C492.73 39.5597 492.281 39.1875 491.923 38.6875C491.571 38.1875 491.394 37.5568 491.394 36.7955V23.7727ZM511.865 29.8409L510.058 30.3523C509.945 30.0511 509.777 29.7585 509.556 29.4744C509.34 29.1847 509.044 28.946 508.669 28.7585C508.294 28.571 507.814 28.4773 507.229 28.4773C506.428 28.4773 505.76 28.6619 505.226 29.0312C504.698 29.3949 504.433 29.858 504.433 30.4205C504.433 30.9205 504.615 31.3153 504.979 31.6051C505.342 31.8949 505.911 32.1364 506.683 32.3295L508.627 32.8068C509.797 33.0909 510.669 33.5256 511.243 34.1108C511.817 34.6903 512.104 35.4375 512.104 36.3523C512.104 37.1023 511.888 37.7727 511.456 38.3636C511.03 38.9545 510.433 39.4205 509.666 39.7614C508.899 40.1023 508.007 40.2727 506.99 40.2727C505.655 40.2727 504.55 39.983 503.675 39.4034C502.8 38.8239 502.246 37.9773 502.013 36.8636L503.922 36.3864C504.104 37.0909 504.448 37.6193 504.953 37.9716C505.465 38.3239 506.132 38.5 506.956 38.5C507.894 38.5 508.638 38.3011 509.189 37.9034C509.746 37.5 510.024 37.017 510.024 36.4545C510.024 36 509.865 35.6193 509.547 35.3125C509.229 35 508.74 34.767 508.081 34.6136L505.899 34.1023C504.7 33.8182 503.82 33.3778 503.257 32.7812C502.7 32.179 502.422 31.4261 502.422 30.5227C502.422 29.7841 502.629 29.1307 503.044 28.5625C503.465 27.9943 504.036 27.5483 504.757 27.2244C505.485 26.9006 506.308 26.7386 507.229 26.7386C508.524 26.7386 509.541 27.0227 510.28 27.5909C511.024 28.1591 511.553 28.9091 511.865 29.8409ZM520.197 40.1364C519.777 40.1364 519.416 39.9858 519.115 39.6847C518.814 39.3835 518.663 39.0227 518.663 38.6023C518.663 38.1818 518.814 37.821 519.115 37.5199C519.416 37.2187 519.777 37.0682 520.197 37.0682C520.618 37.0682 520.979 37.2187 521.28 37.5199C521.581 37.821 521.732 38.1818 521.732 38.6023C521.732 38.8807 521.661 39.1364 521.518 39.3693C521.382 39.6023 521.197 39.7898 520.964 39.9318C520.737 40.0682 520.482 40.1364 520.197 40.1364Z" fill="white"/>
<path d="M647.159 28H645.045C644.92 27.392 644.702 26.858 644.389 26.3977C644.082 25.9375 643.707 25.5511 643.264 25.2386C642.827 24.9205 642.341 24.6818 641.807 24.5227C641.273 24.3636 640.716 24.2841 640.136 24.2841C639.08 24.2841 638.122 24.5511 637.264 25.0852C636.412 25.6193 635.733 26.4062 635.227 27.446C634.727 28.4858 634.477 29.7614 634.477 31.2727C634.477 32.7841 634.727 34.0597 635.227 35.0994C635.733 36.1392 636.412 36.9261 637.264 37.4602C638.122 37.9943 639.08 38.2614 640.136 38.2614C640.716 38.2614 641.273 38.1818 641.807 38.0227C642.341 37.8636 642.827 37.6278 643.264 37.3153C643.707 36.9972 644.082 36.608 644.389 36.1477C644.702 35.6818 644.92 35.1477 645.045 34.5455H647.159C647 35.4375 646.71 36.2358 646.29 36.9403C645.869 37.6449 645.347 38.2443 644.722 38.7386C644.097 39.2273 643.395 39.5994 642.616 39.8551C641.844 40.1108 641.017 40.2386 640.136 40.2386C638.648 40.2386 637.324 39.875 636.165 39.1477C635.006 38.4205 634.094 37.3864 633.429 36.0455C632.764 34.7045 632.432 33.1136 632.432 31.2727C632.432 29.4318 632.764 27.8409 633.429 26.5C634.094 25.1591 635.006 24.125 636.165 23.3977C637.324 22.6705 638.648 22.3068 640.136 22.3068C641.017 22.3068 641.844 22.4347 642.616 22.6903C643.395 22.946 644.097 23.321 644.722 23.8153C645.347 24.304 645.869 24.9006 646.29 25.6051C646.71 26.304 647 27.1023 647.159 28ZM655.913 32.125V40H653.902V22.5455H655.913V28.9545H656.084C656.39 28.2784 656.851 27.7415 657.464 27.3438C658.084 26.9403 658.908 26.7386 659.936 26.7386C660.828 26.7386 661.609 26.9176 662.28 27.2756C662.95 27.6278 663.47 28.1705 663.839 28.9034C664.214 29.6307 664.402 30.5568 664.402 31.6818V40H662.39V31.8182C662.39 30.7784 662.121 29.9744 661.581 29.4062C661.047 28.8324 660.305 28.5455 659.356 28.5455C658.697 28.5455 658.106 28.6847 657.584 28.9631C657.067 29.2415 656.658 29.6477 656.356 30.1818C656.061 30.7159 655.913 31.3636 655.913 32.125ZM677.17 40.2727C675.909 40.2727 674.821 39.9943 673.906 39.4375C672.997 38.875 672.295 38.0909 671.801 37.0852C671.312 36.0739 671.068 34.8977 671.068 33.5568C671.068 32.2159 671.312 31.0341 671.801 30.0114C672.295 28.983 672.983 28.1818 673.863 27.608C674.75 27.0284 675.784 26.7386 676.966 26.7386C677.647 26.7386 678.321 26.8523 678.986 27.0795C679.65 27.3068 680.255 27.6761 680.801 28.1875C681.346 28.6932 681.781 29.3636 682.105 30.1989C682.429 31.0341 682.591 32.0625 682.591 33.2841V34.1364H672.5V32.3977H680.545C680.545 31.6591 680.397 31 680.102 30.4205C679.812 29.8409 679.397 29.3835 678.858 29.0483C678.324 28.7131 677.693 28.5455 676.966 28.5455C676.164 28.5455 675.471 28.7443 674.886 29.142C674.307 29.5341 673.861 30.0455 673.548 30.6761C673.236 31.3068 673.079 31.983 673.079 32.7045V33.8636C673.079 34.8523 673.25 35.6903 673.591 36.3778C673.937 37.0597 674.417 37.5795 675.031 37.9375C675.645 38.2898 676.358 38.4659 677.17 38.4659C677.699 38.4659 678.176 38.392 678.602 38.2443C679.034 38.0909 679.406 37.8636 679.718 37.5625C680.031 37.2557 680.272 36.875 680.443 36.4205L682.386 36.9659C682.182 37.625 681.838 38.2045 681.355 38.7045C680.872 39.1989 680.275 39.5852 679.565 39.8636C678.855 40.1364 678.057 40.2727 677.17 40.2727ZM694.739 40.2727C693.478 40.2727 692.389 39.9943 691.475 39.4375C690.566 38.875 689.864 38.0909 689.37 37.0852C688.881 36.0739 688.637 34.8977 688.637 33.5568C688.637 32.2159 688.881 31.0341 689.37 30.0114C689.864 28.983 690.551 28.1818 691.432 27.608C692.318 27.0284 693.353 26.7386 694.534 26.7386C695.216 26.7386 695.889 26.8523 696.554 27.0795C697.219 27.3068 697.824 27.6761 698.37 28.1875C698.915 28.6932 699.35 29.3636 699.674 30.1989C699.997 31.0341 700.159 32.0625 700.159 33.2841V34.1364H690.068V32.3977H698.114C698.114 31.6591 697.966 31 697.671 30.4205C697.381 29.8409 696.966 29.3835 696.426 29.0483C695.892 28.7131 695.262 28.5455 694.534 28.5455C693.733 28.5455 693.04 28.7443 692.455 29.142C691.875 29.5341 691.429 30.0455 691.117 30.6761C690.804 31.3068 690.648 31.983 690.648 32.7045V33.8636C690.648 34.8523 690.818 35.6903 691.159 36.3778C691.506 37.0597 691.986 37.5795 692.6 37.9375C693.213 38.2898 693.926 38.4659 694.739 38.4659C695.267 38.4659 695.745 38.392 696.171 38.2443C696.603 38.0909 696.975 37.8636 697.287 37.5625C697.6 37.2557 697.841 36.875 698.012 36.4205L699.955 36.9659C699.75 37.625 699.407 38.2045 698.924 38.7045C698.441 39.1989 697.844 39.5852 697.134 39.8636C696.424 40.1364 695.625 40.2727 694.739 40.2727ZM706.819 40V26.9091H708.762V28.8864H708.899C709.137 28.2386 709.569 27.7131 710.194 27.3097C710.819 26.9062 711.524 26.7045 712.308 26.7045C712.455 26.7045 712.64 26.7074 712.862 26.7131C713.083 26.7187 713.251 26.7273 713.364 26.7386V28.7841C713.296 28.767 713.14 28.7415 712.896 28.7074C712.657 28.6676 712.404 28.6477 712.137 28.6477C711.501 28.6477 710.933 28.7812 710.433 29.0483C709.938 29.3097 709.546 29.6733 709.257 30.1392C708.972 30.5994 708.83 31.125 708.83 31.7159V40H706.819ZM725.999 26.9091V28.6136H718.942V26.9091H725.999ZM721.055 40V25.1023C721.055 24.3523 721.232 23.7273 721.584 23.2273C721.936 22.7273 722.393 22.3523 722.956 22.1023C723.518 21.8523 724.112 21.7273 724.737 21.7273C725.232 21.7273 725.635 21.767 725.947 21.8466C726.26 21.9261 726.493 22 726.646 22.0682L726.067 23.8068C725.964 23.7727 725.822 23.7301 725.641 23.679C725.464 23.6278 725.232 23.6023 724.942 23.6023C724.277 23.6023 723.797 23.7699 723.501 24.1051C723.212 24.4403 723.067 24.9318 723.067 25.5795V40H721.055ZM740.667 34.6477V26.9091H742.679V40H740.667V37.7841H740.531C740.224 38.4489 739.747 39.0142 739.099 39.4801C738.452 39.9403 737.633 40.1705 736.645 40.1705C735.827 40.1705 735.099 39.9915 734.463 39.6335C733.827 39.2699 733.327 38.7244 732.963 37.9972C732.599 37.2642 732.417 36.3409 732.417 35.2273V26.9091H734.429V35.0909C734.429 36.0455 734.696 36.8068 735.23 37.375C735.77 37.9432 736.457 38.2273 737.292 38.2273C737.792 38.2273 738.301 38.0994 738.818 37.8438C739.341 37.5881 739.778 37.196 740.131 36.6676C740.488 36.1392 740.667 35.4659 740.667 34.6477ZM751.974 22.5455V40H749.963V22.5455H751.974ZM773.051 40L768.279 22.5455H770.426L774.074 36.7614H774.244L777.96 22.5455H780.347L784.063 36.7614H784.233L787.881 22.5455H790.029L785.256 40H783.074L779.222 26.0909H779.085L775.233 40H773.051ZM798.001 32.125V40H795.989V22.5455H798.001V28.9545H798.171C798.478 28.2784 798.938 27.7415 799.552 27.3438C800.171 26.9403 800.995 26.7386 802.023 26.7386C802.915 26.7386 803.697 26.9176 804.367 27.2756C805.038 27.6278 805.558 28.1705 805.927 28.9034C806.302 29.6307 806.489 30.5568 806.489 31.6818V40H804.478V31.8182C804.478 30.7784 804.208 29.9744 803.668 29.4062C803.134 28.8324 802.393 28.5455 801.444 28.5455C800.785 28.5455 800.194 28.6847 799.671 28.9631C799.154 29.2415 798.745 29.6477 798.444 30.1818C798.148 30.7159 798.001 31.3636 798.001 32.125ZM813.769 40V26.9091H815.78V40H813.769ZM814.792 24.7273C814.4 24.7273 814.062 24.5938 813.778 24.3267C813.499 24.0597 813.36 23.7386 813.36 23.3636C813.36 22.9886 813.499 22.6676 813.778 22.4006C814.062 22.1335 814.4 22 814.792 22C815.184 22 815.519 22.1335 815.797 22.4006C816.082 22.6676 816.224 22.9886 816.224 23.3636C816.224 23.7386 816.082 24.0597 815.797 24.3267C815.519 24.5938 815.184 24.7273 814.792 24.7273ZM832.337 29.8409L830.53 30.3523C830.417 30.0511 830.249 29.7585 830.027 29.4744C829.812 29.1847 829.516 28.946 829.141 28.7585C828.766 28.571 828.286 28.4773 827.701 28.4773C826.9 28.4773 826.232 28.6619 825.698 29.0312C825.169 29.3949 824.905 29.858 824.905 30.4205C824.905 30.9205 825.087 31.3153 825.451 31.6051C825.814 31.8949 826.383 32.1364 827.155 32.3295L829.098 32.8068C830.269 33.0909 831.141 33.5256 831.715 34.1108C832.289 34.6903 832.576 35.4375 832.576 36.3523C832.576 37.1023 832.36 37.7727 831.928 38.3636C831.502 38.9545 830.905 39.4205 830.138 39.7614C829.371 40.1023 828.479 40.2727 827.462 40.2727C826.127 40.2727 825.022 39.983 824.147 39.4034C823.272 38.8239 822.718 37.9773 822.485 36.8636L824.394 36.3864C824.576 37.0909 824.919 37.6193 825.425 37.9716C825.937 38.3239 826.604 38.5 827.428 38.5C828.365 38.5 829.11 38.3011 829.661 37.9034C830.218 37.5 830.496 37.017 830.496 36.4545C830.496 36 830.337 35.6193 830.019 35.3125C829.701 35 829.212 34.767 828.553 34.6136L826.371 34.1023C825.172 33.8182 824.292 33.3778 823.729 32.7812C823.172 32.179 822.894 31.4261 822.894 30.5227C822.894 29.7841 823.101 29.1307 823.516 28.5625C823.937 27.9943 824.508 27.5483 825.229 27.2244C825.956 26.9006 826.78 26.7386 827.701 26.7386C828.996 26.7386 830.013 27.0227 830.752 27.5909C831.496 28.1591 832.025 28.9091 832.337 29.8409ZM841.078 35.2273L841.044 32.7386H841.453L847.181 26.9091H849.669L843.567 33.0795H843.397L841.078 35.2273ZM839.203 40V22.5455H841.215V40H839.203ZM847.522 40L842.408 33.5227L843.84 32.125L850.078 40H847.522ZM860.808 40.2727C859.546 40.2727 858.458 39.9943 857.543 39.4375C856.634 38.875 855.933 38.0909 855.438 37.0852C854.95 36.0739 854.705 34.8977 854.705 33.5568C854.705 32.2159 854.95 31.0341 855.438 30.0114C855.933 28.983 856.62 28.1818 857.501 27.608C858.387 27.0284 859.421 26.7386 860.603 26.7386C861.285 26.7386 861.958 26.8523 862.623 27.0795C863.288 27.3068 863.893 27.6761 864.438 28.1875C864.984 28.6932 865.418 29.3636 865.742 30.1989C866.066 31.0341 866.228 32.0625 866.228 33.2841V34.1364H856.137V32.3977H864.183C864.183 31.6591 864.035 31 863.739 30.4205C863.45 29.8409 863.035 29.3835 862.495 29.0483C861.961 28.7131 861.33 28.5455 860.603 28.5455C859.802 28.5455 859.109 28.7443 858.524 29.142C857.944 29.5341 857.498 30.0455 857.186 30.6761C856.873 31.3068 856.717 31.983 856.717 32.7045V33.8636C856.717 34.8523 856.887 35.6903 857.228 36.3778C857.575 37.0597 858.055 37.5795 858.668 37.9375C859.282 38.2898 859.995 38.4659 860.808 38.4659C861.336 38.4659 861.813 38.392 862.239 38.2443C862.671 38.0909 863.043 37.8636 863.356 37.5625C863.668 37.2557 863.91 36.875 864.08 36.4205L866.024 36.9659C865.819 37.625 865.475 38.2045 864.992 38.7045C864.509 39.1989 863.913 39.5852 863.203 39.8636C862.492 40.1364 861.694 40.2727 860.808 40.2727ZM872.888 40V26.9091H874.831V28.8864H874.967C875.206 28.2386 875.638 27.7131 876.263 27.3097C876.888 26.9062 877.592 26.7045 878.376 26.7045C878.524 26.7045 878.709 26.7074 878.93 26.7131C879.152 26.7187 879.32 26.7273 879.433 26.7386V28.7841C879.365 28.767 879.209 28.7415 878.964 28.7074C878.726 28.6676 878.473 28.6477 878.206 28.6477C877.57 28.6477 877.001 28.7812 876.501 29.0483C876.007 29.3097 875.615 29.6733 875.325 30.1392C875.041 30.5994 874.899 31.125 874.899 31.7159V40H872.888ZM894.69 29.8409L892.883 30.3523C892.77 30.0511 892.602 29.7585 892.381 29.4744C892.165 29.1847 891.869 28.946 891.494 28.7585C891.119 28.571 890.639 28.4773 890.054 28.4773C889.253 28.4773 888.585 28.6619 888.051 29.0312C887.523 29.3949 887.258 29.858 887.258 30.4205C887.258 30.9205 887.44 31.3153 887.804 31.6051C888.167 31.8949 888.736 32.1364 889.508 32.3295L891.452 32.8068C892.622 33.0909 893.494 33.5256 894.068 34.1108C894.642 34.6903 894.929 35.4375 894.929 36.3523C894.929 37.1023 894.713 37.7727 894.281 38.3636C893.855 38.9545 893.258 39.4205 892.491 39.7614C891.724 40.1023 890.832 40.2727 889.815 40.2727C888.48 40.2727 887.375 39.983 886.5 39.4034C885.625 38.8239 885.071 37.9773 884.838 36.8636L886.747 36.3864C886.929 37.0909 887.273 37.6193 887.778 37.9716C888.29 38.3239 888.957 38.5 889.781 38.5C890.719 38.5 891.463 38.3011 892.014 37.9034C892.571 37.5 892.849 37.017 892.849 36.4545C892.849 36 892.69 35.6193 892.372 35.3125C892.054 35 891.565 34.767 890.906 34.6136L888.724 34.1023C887.525 33.8182 886.645 33.3778 886.082 32.7812C885.525 32.179 885.247 31.4261 885.247 30.5227C885.247 29.7841 885.454 29.1307 885.869 28.5625C886.29 27.9943 886.861 27.5483 887.582 27.2244C888.31 26.9006 889.133 26.7386 890.054 26.7386C891.349 26.7386 892.366 27.0227 893.105 27.5909C893.849 28.1591 894.378 28.9091 894.69 29.8409ZM904.557 37.6136L904.42 38.5341C904.324 39.1818 904.176 39.875 903.977 40.6136C903.784 41.3523 903.582 42.0483 903.372 42.7017C903.162 43.3551 902.988 43.875 902.852 44.2614H901.318C901.392 43.8977 901.488 43.4176 901.608 42.821C901.727 42.2244 901.846 41.5568 901.966 40.8182C902.091 40.0852 902.193 39.3352 902.272 38.5682L902.375 37.6136H904.557ZM922.506 40V22.5455H924.619V31.2045H924.824L932.665 22.5455H935.426L928.097 30.4205L935.426 40H932.869L926.801 31.8864L924.619 34.3409V40H922.506ZM942.31 40V26.9091H944.321V40H942.31ZM943.332 24.7273C942.94 24.7273 942.602 24.5938 942.318 24.3267C942.04 24.0597 941.901 23.7386 941.901 23.3636C941.901 22.9886 942.04 22.6676 942.318 22.4006C942.602 22.1335 942.94 22 943.332 22C943.724 22 944.06 22.1335 944.338 22.4006C944.622 22.6676 944.764 22.9886 944.764 23.3636C944.764 23.7386 944.622 24.0597 944.338 24.3267C944.06 24.5938 943.724 24.7273 943.332 24.7273ZM953.616 32.125V40H951.605V26.9091H953.548V28.9545H953.719C954.025 28.2898 954.491 27.7557 955.116 27.3523C955.741 26.9432 956.548 26.7386 957.537 26.7386C958.423 26.7386 959.199 26.9205 959.864 27.2841C960.528 27.642 961.045 28.1875 961.415 28.9205C961.784 29.6477 961.969 30.5682 961.969 31.6818V40H959.957V31.8182C959.957 30.7898 959.69 29.9886 959.156 29.4148C958.622 28.8352 957.889 28.5455 956.957 28.5455C956.315 28.5455 955.741 28.6847 955.236 28.9631C954.736 29.2415 954.341 29.6477 954.051 30.1818C953.761 30.7159 953.616 31.3636 953.616 32.125ZM974.187 40.2727C973.096 40.2727 972.133 39.9972 971.298 39.446C970.463 38.8892 969.809 38.1051 969.338 37.0938C968.866 36.0767 968.63 34.875 968.63 33.4886C968.63 32.1136 968.866 30.9205 969.338 29.9091C969.809 28.8977 970.466 28.1165 971.307 27.5653C972.147 27.0142 973.119 26.7386 974.221 26.7386C975.074 26.7386 975.747 26.8807 976.241 27.1648C976.741 27.4432 977.122 27.7614 977.383 28.1193C977.65 28.4716 977.858 28.7614 978.005 28.9886H978.176V22.5455H980.187V40H978.244V37.9886H978.005C977.858 38.2273 977.647 38.5284 977.375 38.892C977.102 39.25 976.713 39.571 976.207 39.8551C975.701 40.1335 975.028 40.2727 974.187 40.2727ZM974.46 38.4659C975.267 38.4659 975.949 38.2557 976.505 37.8352C977.062 37.4091 977.486 36.821 977.775 36.071C978.065 35.3153 978.21 34.4432 978.21 33.4545C978.21 32.4773 978.068 31.6222 977.784 30.8892C977.5 30.1506 977.079 29.5767 976.522 29.1676C975.966 28.7528 975.278 28.5455 974.46 28.5455C973.608 28.5455 972.897 28.7642 972.329 29.2017C971.767 29.6335 971.343 30.2216 971.059 30.9659C970.781 31.7045 970.642 32.5341 970.642 33.4545C970.642 34.3864 970.784 35.233 971.068 35.9943C971.358 36.75 971.784 37.3523 972.346 37.8011C972.915 38.2443 973.619 38.4659 974.46 38.4659ZM998.373 40V22.5455H1000.49V30.3182H1009.79V22.5455H1011.91V40H1009.79V32.1932H1000.49V40H998.373ZM1024.95 40.2727C1023.69 40.2727 1022.61 39.9943 1021.69 39.4375C1020.78 38.875 1020.08 38.0909 1019.59 37.0852C1019.1 36.0739 1018.85 34.8977 1018.85 33.5568C1018.85 32.2159 1019.1 31.0341 1019.59 30.0114C1020.08 28.983 1020.77 28.1818 1021.65 27.608C1022.53 27.0284 1023.57 26.7386 1024.75 26.7386C1025.43 26.7386 1026.11 26.8523 1026.77 27.0795C1027.43 27.3068 1028.04 27.6761 1028.59 28.1875C1029.13 28.6932 1029.57 29.3636 1029.89 30.1989C1030.21 31.0341 1030.38 32.0625 1030.38 33.2841V34.1364H1020.28V32.3977H1028.33C1028.33 31.6591 1028.18 31 1027.89 30.4205C1027.6 29.8409 1027.18 29.3835 1026.64 29.0483C1026.11 28.7131 1025.48 28.5455 1024.75 28.5455C1023.95 28.5455 1023.26 28.7443 1022.67 29.142C1022.09 29.5341 1021.64 30.0455 1021.33 30.6761C1021.02 31.3068 1020.86 31.983 1020.86 32.7045V33.8636C1020.86 34.8523 1021.03 35.6903 1021.38 36.3778C1021.72 37.0597 1022.2 37.5795 1022.82 37.9375C1023.43 38.2898 1024.14 38.4659 1024.95 38.4659C1025.48 38.4659 1025.96 38.392 1026.39 38.2443C1026.82 38.0909 1027.19 37.8636 1027.5 37.5625C1027.82 37.2557 1028.06 36.875 1028.23 36.4205L1030.17 36.9659C1029.97 37.625 1029.62 38.2045 1029.14 38.7045C1028.66 39.1989 1028.06 39.5852 1027.35 39.8636C1026.64 40.1364 1025.84 40.2727 1024.95 40.2727ZM1040.89 40.3068C1040.06 40.3068 1039.3 40.1506 1038.63 39.8381C1037.95 39.5199 1037.42 39.0625 1037.02 38.4659C1036.62 37.8636 1036.42 37.1364 1036.42 36.2841C1036.42 35.5341 1036.57 34.9261 1036.86 34.4602C1037.16 33.9886 1037.55 33.6193 1038.05 33.3523C1038.54 33.0852 1039.09 32.8864 1039.69 32.7557C1040.29 32.6193 1040.89 32.5114 1041.5 32.4318C1042.3 32.3295 1042.94 32.2528 1043.44 32.2017C1043.94 32.1449 1044.3 32.0511 1044.53 31.9205C1044.76 31.7898 1044.88 31.5625 1044.88 31.2386V31.1705C1044.88 30.3295 1044.65 29.6761 1044.19 29.2102C1043.73 28.7443 1043.04 28.5114 1042.11 28.5114C1041.15 28.5114 1040.4 28.7216 1039.86 29.142C1039.31 29.5625 1038.93 30.0114 1038.71 30.4886L1036.8 29.8068C1037.14 29.0114 1037.59 28.392 1038.16 27.9489C1038.73 27.5 1039.36 27.1875 1040.03 27.0114C1040.72 26.8295 1041.39 26.7386 1042.05 26.7386C1042.47 26.7386 1042.95 26.7898 1043.49 26.892C1044.05 26.9886 1044.58 27.1903 1045.09 27.4972C1045.61 27.804 1046.03 28.267 1046.38 28.8864C1046.72 29.5057 1046.89 30.3352 1046.89 31.375V40H1044.88V38.2273H1044.77C1044.64 38.5114 1044.41 38.8153 1044.09 39.1392C1043.77 39.4631 1043.35 39.7386 1042.82 39.9659C1042.29 40.1932 1041.65 40.3068 1040.89 40.3068ZM1041.19 38.5C1041.99 38.5 1042.66 38.3438 1043.21 38.0312C1043.76 37.7188 1044.17 37.3153 1044.45 36.821C1044.73 36.3267 1044.88 35.8068 1044.88 35.2614V33.4205C1044.79 33.5227 1044.6 33.6165 1044.31 33.7017C1044.03 33.7812 1043.7 33.8523 1043.32 33.9148C1042.96 33.9716 1042.59 34.0227 1042.24 34.0682C1041.9 34.108 1041.61 34.142 1041.4 34.1705C1040.88 34.2386 1040.39 34.3494 1039.93 34.5028C1039.48 34.6506 1039.12 34.875 1038.84 35.1761C1038.57 35.4716 1038.43 35.875 1038.43 36.3864C1038.43 37.0852 1038.69 37.6136 1039.21 37.9716C1039.73 38.3239 1040.39 38.5 1041.19 38.5ZM1054.16 40V26.9091H1056.1V28.8864H1056.24C1056.48 28.2386 1056.91 27.7131 1057.53 27.3097C1058.16 26.9062 1058.86 26.7045 1059.65 26.7045C1059.79 26.7045 1059.98 26.7074 1060.2 26.7131C1060.42 26.7187 1060.59 26.7273 1060.7 26.7386V28.7841C1060.64 28.767 1060.48 28.7415 1060.23 28.7074C1060 28.6676 1059.74 28.6477 1059.48 28.6477C1058.84 28.6477 1058.27 28.7812 1057.77 29.0483C1057.28 29.3097 1056.89 29.6733 1056.6 30.1392C1056.31 30.5994 1056.17 31.125 1056.17 31.7159V40H1054.16ZM1073.2 26.9091V28.6136H1066.42V26.9091H1073.2ZM1068.39 23.7727H1070.41V36.25C1070.41 36.8182 1070.49 37.2443 1070.65 37.5284C1070.82 37.8068 1071.04 37.9943 1071.3 38.0909C1071.57 38.1818 1071.85 38.2273 1072.14 38.2273C1072.37 38.2273 1072.55 38.2159 1072.69 38.1932C1072.83 38.1648 1072.95 38.142 1073.03 38.125L1073.44 39.9318C1073.3 39.983 1073.11 40.0341 1072.87 40.0852C1072.62 40.142 1072.31 40.1705 1071.94 40.1705C1071.37 40.1705 1070.81 40.0483 1070.27 39.804C1069.73 39.5597 1069.28 39.1875 1068.92 38.6875C1068.57 38.1875 1068.39 37.5568 1068.39 36.7955V23.7727ZM1088.87 29.8409L1087.06 30.3523C1086.94 30.0511 1086.78 29.7585 1086.56 29.4744C1086.34 29.1847 1086.04 28.946 1085.67 28.7585C1085.29 28.571 1084.81 28.4773 1084.23 28.4773C1083.43 28.4773 1082.76 28.6619 1082.23 29.0312C1081.7 29.3949 1081.43 29.858 1081.43 30.4205C1081.43 30.9205 1081.62 31.3153 1081.98 31.6051C1082.34 31.8949 1082.91 32.1364 1083.68 32.3295L1085.63 32.8068C1086.8 33.0909 1087.67 33.5256 1088.24 34.1108C1088.82 34.6903 1089.1 35.4375 1089.1 36.3523C1089.1 37.1023 1088.89 37.7727 1088.46 38.3636C1088.03 38.9545 1087.43 39.4205 1086.67 39.7614C1085.9 40.1023 1085.01 40.2727 1083.99 40.2727C1082.65 40.2727 1081.55 39.983 1080.67 39.4034C1079.8 38.8239 1079.25 37.9773 1079.01 36.8636L1080.92 36.3864C1081.1 37.0909 1081.45 37.6193 1081.95 37.9716C1082.46 38.3239 1083.13 38.5 1083.96 38.5C1084.89 38.5 1085.64 38.3011 1086.19 37.9034C1086.75 37.5 1087.02 37.017 1087.02 36.4545C1087.02 36 1086.87 35.6193 1086.55 35.3125C1086.23 35 1085.74 34.767 1085.08 34.6136L1082.9 34.1023C1081.7 33.8182 1080.82 33.3778 1080.26 32.7812C1079.7 32.179 1079.42 31.4261 1079.42 30.5227C1079.42 29.7841 1079.63 29.1307 1080.04 28.5625C1080.46 27.9943 1081.04 27.5483 1081.76 27.2244C1082.48 26.9006 1083.31 26.7386 1084.23 26.7386C1085.52 26.7386 1086.54 27.0227 1087.28 27.5909C1088.02 28.1591 1088.55 28.9091 1088.87 29.8409ZM1097.2 40.1364C1096.78 40.1364 1096.42 39.9858 1096.12 39.6847C1095.81 39.3835 1095.66 39.0227 1095.66 38.6023C1095.66 38.1818 1095.81 37.821 1096.12 37.5199C1096.42 37.2187 1096.78 37.0682 1097.2 37.0682C1097.62 37.0682 1097.98 37.2187 1098.28 37.5199C1098.58 37.821 1098.73 38.1818 1098.73 38.6023C1098.73 38.8807 1098.66 39.1364 1098.52 39.3693C1098.38 39.6023 1098.2 39.7898 1097.96 39.9318C1097.74 40.0682 1097.48 40.1364 1097.2 40.1364Z" fill="white"/>
<path d="M548 45.897L544.979 43.0593C534.25 33.02 527.167 26.3773 527.167 18.2728C527.167 11.6301 532.208 6.44922 538.625 6.44922C542.25 6.44922 545.729 8.19051 548 10.9207C550.271 8.19051 553.75 6.44922 557.375 6.44922C563.792 6.44922 568.833 11.6301 568.833 18.2728C568.833 26.3773 561.75 33.02 551.021 43.0593L548 45.897Z" fill="#FEF7D2"/>
<path fill-rule="evenodd" clip-rule="evenodd" d="M24.4792 14.3459C21.3958 14.3459 21.0875 14.673 19.4917 14.673C18.1625 14.673 14.1708 11.4167 12.1771 11.4167C10.1812 11.4167 7.85416 12.5897 7.85416 15.9751V19.8813C7.85833 20.9063 8.22916 24.048 9.68749 23.2084C7.96458 25.2459 7.79166 27.623 7.81458 29.923C7.34999 30.0563 6.87708 30.2084 6.41666 30.3647C4.99166 30.8522 3.47916 31.473 2.79791 31.9147C2.44981 32.1395 2.20531 32.4935 2.11818 32.8987C2.03105 33.3038 2.10844 33.727 2.33333 34.0751C2.55821 34.4232 2.91216 34.6677 3.31732 34.7548C3.72247 34.8419 4.14565 34.7645 4.49374 34.5397C4.81874 34.3292 5.99583 33.8105 7.42708 33.3209L7.90208 33.1647C7.99791 34.0667 8.23749 34.8938 8.59374 35.6438L8.54374 35.6709C7.68958 36.1209 6.89791 36.6397 6.39374 36.9688L6.15833 37.123C5.81023 37.3479 5.56572 37.7018 5.4786 38.107C5.39147 38.5121 5.46886 38.9353 5.69374 39.2834C5.91862 39.6315 6.27258 39.876 6.67773 39.9631C7.08289 40.0503 7.50606 39.9729 7.85416 39.748L8.12708 39.5688C8.63749 39.2355 9.29166 38.8084 10.0042 38.4334C10.1708 38.3438 10.3312 38.2647 10.4854 38.1917C14.0896 41.573 20.5625 42.6667 24.4792 42.6667C28.3958 42.6667 34.8687 41.573 38.4729 38.1917C38.6271 38.2647 38.7854 38.3438 38.9542 38.4334C39.6667 38.8084 40.3208 39.2355 40.8312 39.5688L41.1042 39.748C41.4523 39.9729 41.8754 40.0503 42.2806 39.9631C42.6857 39.876 43.0397 39.6315 43.2646 39.2834C43.4895 38.9353 43.5668 38.5121 43.4797 38.107C43.3926 37.7018 43.1481 37.3479 42.8 37.123L42.5646 36.9688C41.8684 36.5032 41.1509 36.0701 40.4146 35.6709L40.3646 35.6438C40.7208 34.8938 40.9604 34.0667 41.0562 33.1647L41.5312 33.3209C42.9625 33.8105 44.1396 34.3292 44.4667 34.5397C44.8146 34.7519 45.2317 34.8198 45.629 34.7289C46.0263 34.638 46.3724 34.3954 46.5933 34.0529C46.8143 33.7105 46.8927 33.2952 46.8119 32.8957C46.731 32.4963 46.4972 32.1442 46.1604 31.9147C45.4792 31.473 43.9667 30.8522 42.5437 30.3647C42.0803 30.2067 41.6135 30.0587 41.1437 29.9209C41.1687 27.6209 40.9937 25.2459 39.2687 23.2084C40.7271 24.048 41.1021 20.9063 41.1042 19.8792V15.9751C41.1042 12.5897 38.7771 11.4167 36.7812 11.4167C34.7875 11.4167 30.7958 14.673 29.4687 14.673C27.8708 14.673 27.5625 14.3459 24.4792 14.3459ZM23.0729 33.5001C23.4937 33.3563 23.9917 33.2917 24.4792 33.2917C24.9667 33.2917 25.4646 33.3563 25.8875 33.5001C26.0958 33.5709 26.3458 33.6834 26.5708 33.8626C26.7251 33.9789 26.8512 34.1284 26.9399 34.3001C27.0286 34.4717 27.0776 34.6611 27.0833 34.8542C27.0833 35.3334 26.7937 35.6667 26.5708 35.8459C26.3479 36.0251 26.0937 36.1376 25.8875 36.2084C25.4322 36.3525 24.9567 36.4228 24.4792 36.4167C24.0023 36.423 23.5275 36.3526 23.0729 36.2084C22.8251 36.1282 22.5932 36.0056 22.3875 35.8459C22.2332 35.7296 22.1071 35.5801 22.0184 35.4084C21.9297 35.2368 21.8807 35.0474 21.875 34.8542C21.875 34.3751 22.1646 34.0417 22.3875 33.8626C22.6104 33.6834 22.8667 33.5709 23.0729 33.5001ZM29 27.0417C29.2854 26.5667 29.8458 26.0001 30.6875 26.0001C31.5292 26.0001 32.0917 26.5667 32.375 27.0417C32.6708 27.5397 32.8125 28.1397 32.8125 28.7355C32.8125 29.3292 32.6708 29.9292 32.375 30.4251C32.0917 30.9022 31.5292 31.4688 30.6875 31.4688C29.8458 31.4688 29.2854 30.9022 29 30.4272C28.706 29.9124 28.5549 29.3283 28.5625 28.7355C28.5625 28.1397 28.7042 27.5397 29 27.0438M16.5833 27.0438C16.8687 26.5688 17.4292 26.0022 18.2708 26.0022C19.1125 26.0022 19.675 26.5688 19.9583 27.0438C20.2542 27.5417 20.3958 28.1417 20.3958 28.7376C20.3958 29.3313 20.2542 29.9313 19.9583 30.4272C19.675 30.9042 19.1125 31.4709 18.2708 31.4709C17.4292 31.4709 16.8687 30.9042 16.5833 30.4292C16.2893 29.9144 16.1382 29.3304 16.1458 28.7376C16.1458 28.1417 16.2875 27.5397 16.5833 27.0438Z" fill="#FEF7D2"/>
<path fill-rule="evenodd" clip-rule="evenodd" d="M597.479 14.3459C594.396 14.3459 594.087 14.673 592.492 14.673C591.162 14.673 587.171 11.4167 585.177 11.4167C583.181 11.4167 580.854 12.5897 580.854 15.9751V19.8813C580.858 20.9063 581.229 24.048 582.687 23.2084C580.965 25.2459 580.792 27.623 580.815 29.923C580.35 30.0563 579.877 30.2084 579.417 30.3647C577.992 30.8522 576.479 31.473 575.798 31.9147C575.45 32.1395 575.205 32.4935 575.118 32.8987C575.031 33.3038 575.108 33.727 575.333 34.0751C575.558 34.4232 575.912 34.6677 576.317 34.7548C576.722 34.8419 577.146 34.7645 577.494 34.5397C577.819 34.3292 578.996 33.8105 580.427 33.3209L580.902 33.1647C580.998 34.0667 581.237 34.8938 581.594 35.6438L581.544 35.6709C580.69 36.1209 579.898 36.6397 579.394 36.9688L579.158 37.123C578.81 37.3479 578.566 37.7018 578.479 38.107C578.391 38.5121 578.469 38.9353 578.694 39.2834C578.919 39.6315 579.273 39.876 579.678 39.9631C580.083 40.0503 580.506 39.9729 580.854 39.748L581.127 39.5688C581.637 39.2355 582.292 38.8084 583.004 38.4334C583.171 38.3438 583.331 38.2647 583.485 38.1917C587.09 41.573 593.562 42.6667 597.479 42.6667C601.396 42.6667 607.869 41.573 611.473 38.1917C611.627 38.2647 611.785 38.3438 611.954 38.4334C612.667 38.8084 613.321 39.2355 613.831 39.5688L614.104 39.748C614.452 39.9729 614.875 40.0503 615.281 39.9631C615.686 39.876 616.04 39.6315 616.265 39.2834C616.489 38.9353 616.567 38.5121 616.48 38.107C616.393 37.7018 616.148 37.3479 615.8 37.123L615.565 36.9688C614.868 36.5032 614.151 36.0701 613.415 35.6709L613.365 35.6438C613.721 34.8938 613.96 34.0667 614.056 33.1647L614.531 33.3209C615.962 33.8105 617.14 34.3292 617.467 34.5397C617.815 34.7519 618.232 34.8198 618.629 34.7289C619.026 34.638 619.372 34.3954 619.593 34.0529C619.814 33.7105 619.893 33.2952 619.812 32.8957C619.731 32.4963 619.497 32.1442 619.16 31.9147C618.479 31.473 616.967 30.8522 615.544 30.3647C615.08 30.2067 614.614 30.0587 614.144 29.9209C614.169 27.6209 613.994 25.2459 612.269 23.2084C613.727 24.048 614.102 20.9063 614.104 19.8792V15.9751C614.104 12.5897 611.777 11.4167 609.781 11.4167C607.787 11.4167 603.796 14.673 602.469 14.673C600.871 14.673 600.562 14.3459 597.479 14.3459ZM596.073 33.5001C596.494 33.3563 596.992 33.2917 597.479 33.2917C597.967 33.2917 598.465 33.3563 598.887 33.5001C599.096 33.5709 599.346 33.6834 599.571 33.8626C599.725 33.9789 599.851 34.1284 599.94 34.3001C600.029 34.4717 600.078 34.6611 600.083 34.8542C600.083 35.3334 599.794 35.6667 599.571 35.8459C599.348 36.0251 599.094 36.1376 598.887 36.2084C598.432 36.3525 597.957 36.4228 597.479 36.4167C597.002 36.423 596.527 36.3526 596.073 36.2084C595.825 36.1282 595.593 36.0056 595.387 35.8459C595.233 35.7296 595.107 35.5801 595.018 35.4084C594.93 35.2368 594.881 35.0474 594.875 34.8542C594.875 34.3751 595.165 34.0417 595.387 33.8626C595.61 33.6834 595.867 33.5709 596.073 33.5001ZM602 27.0417C602.285 26.5667 602.846 26.0001 603.687 26.0001C604.529 26.0001 605.092 26.5667 605.375 27.0417C605.671 27.5397 605.812 28.1397 605.812 28.7355C605.812 29.3292 605.671 29.9292 605.375 30.4251C605.092 30.9022 604.529 31.4688 603.687 31.4688C602.846 31.4688 602.285 30.9022 602 30.4272C601.706 29.9124 601.555 29.3283 601.562 28.7355C601.562 28.1397 601.704 27.5397 602 27.0438M589.583 27.0438C589.869 26.5688 590.429 26.0022 591.271 26.0022C592.112 26.0022 592.675 26.5688 592.958 27.0438C593.254 27.5417 593.396 28.1417 593.396 28.7376C593.396 29.3313 593.254 29.9313 592.958 30.4272C592.675 30.9042 592.112 31.4709 591.271 31.4709C590.429 31.4709 589.869 30.9042 589.583 30.4292C589.289 29.9144 589.138 29.3304 589.146 28.7376C589.146 28.1417 589.287 27.5397 589.583 27.0438Z" fill="#FEF7D2"/>
</svg>
