<svg width="623" height="52" viewBox="0 0 623 52" fill="none" xmlns="http://www.w3.org/2000/svg">
<path d="M70.1591 28H68.0455C67.9205 27.392 67.7017 26.858 67.3892 26.3977C67.0824 25.9375 66.7074 25.5511 66.2642 25.2386C65.8267 24.9205 65.3409 24.6818 64.8068 24.5227C64.2727 24.3636 63.7159 24.2841 63.1364 24.2841C62.0795 24.2841 61.1222 24.5511 60.2642 25.0852C59.4119 25.6193 58.733 26.4062 58.2273 27.446C57.7273 28.4858 57.4773 29.7614 57.4773 31.2727C57.4773 32.7841 57.7273 34.0597 58.2273 35.0994C58.733 36.1392 59.4119 36.9261 60.2642 37.4602C61.1222 37.9943 62.0795 38.2614 63.1364 38.2614C63.7159 38.2614 64.2727 38.1818 64.8068 38.0227C65.3409 37.8636 65.8267 37.6278 66.2642 37.3153C66.7074 36.9972 67.0824 36.608 67.3892 36.1477C67.7017 35.6818 67.9205 35.1477 68.0455 34.5455H70.1591C70 35.4375 69.7102 36.2358 69.2898 36.9403C68.8693 37.6449 68.3466 38.2443 67.7216 38.7386C67.0966 39.2273 66.3949 39.5994 65.6165 39.8551C64.8438 40.1108 64.017 40.2386 63.1364 40.2386C61.6477 40.2386 60.3239 39.875 59.1648 39.1477C58.0057 38.4205 57.0938 37.3864 56.429 36.0455C55.7642 34.7045 55.4318 33.1136 55.4318 31.2727C55.4318 29.4318 55.7642 27.8409 56.429 26.5C57.0938 25.1591 58.0057 24.125 59.1648 23.3977C60.3239 22.6705 61.6477 22.3068 63.1364 22.3068C64.017 22.3068 64.8438 22.4347 65.6165 22.6903C66.3949 22.946 67.0966 23.321 67.7216 23.8153C68.3466 24.304 68.8693 24.9006 69.2898 25.6051C69.7102 26.304 70 27.1023 70.1591 28ZM78.9132 32.125V40H76.9018V22.5455H78.9132V28.9545H79.0837C79.3905 28.2784 79.8507 27.7415 80.4643 27.3438C81.0837 26.9403 81.9075 26.7386 82.9359 26.7386C83.828 26.7386 84.6092 26.9176 85.2797 27.2756C85.9501 27.6278 86.47 28.1705 86.8393 28.9034C87.2143 29.6307 87.4018 30.5568 87.4018 31.6818V40H85.3905V31.8182C85.3905 30.7784 85.1206 29.9744 84.5808 29.4062C84.0467 28.8324 83.3053 28.5455 82.3564 28.5455C81.6973 28.5455 81.1064 28.6847 80.5837 28.9631C80.0666 29.2415 79.6575 29.6477 79.3564 30.1818C79.0609 30.7159 78.9132 31.3636 78.9132 32.125ZM100.17 40.2727C98.9088 40.2727 97.8207 39.9943 96.906 39.4375C95.9969 38.875 95.2952 38.0909 94.8009 37.0852C94.3122 36.0739 94.0679 34.8977 94.0679 33.5568C94.0679 32.2159 94.3122 31.0341 94.8009 30.0114C95.2952 28.983 95.9827 28.1818 96.8634 27.608C97.7497 27.0284 98.7838 26.7386 99.9656 26.7386C100.647 26.7386 101.321 26.8523 101.986 27.0795C102.65 27.3068 103.255 27.6761 103.801 28.1875C104.346 28.6932 104.781 29.3636 105.105 30.1989C105.429 31.0341 105.591 32.0625 105.591 33.2841V34.1364H95.4997V32.3977H103.545C103.545 31.6591 103.397 31 103.102 30.4205C102.812 29.8409 102.397 29.3835 101.858 29.0483C101.324 28.7131 100.693 28.5455 99.9656 28.5455C99.1645 28.5455 98.4713 28.7443 97.8861 29.142C97.3065 29.5341 96.8605 30.0455 96.548 30.6761C96.2355 31.3068 96.0793 31.983 96.0793 32.7045V33.8636C96.0793 34.8523 96.2497 35.6903 96.5906 36.3778C96.9372 37.0597 97.4173 37.5795 98.031 37.9375C98.6446 38.2898 99.3577 38.4659 100.17 38.4659C100.699 38.4659 101.176 38.392 101.602 38.2443C102.034 38.0909 102.406 37.8636 102.718 37.5625C103.031 37.2557 103.272 36.875 103.443 36.4205L105.386 36.9659C105.182 37.625 104.838 38.2045 104.355 38.7045C103.872 39.1989 103.275 39.5852 102.565 39.8636C101.855 40.1364 101.057 40.2727 100.17 40.2727ZM117.739 40.2727C116.478 40.2727 115.389 39.9943 114.475 39.4375C113.566 38.875 112.864 38.0909 112.37 37.0852C111.881 36.0739 111.637 34.8977 111.637 33.5568C111.637 32.2159 111.881 31.0341 112.37 30.0114C112.864 28.983 113.551 28.1818 114.432 27.608C115.318 27.0284 116.353 26.7386 117.534 26.7386C118.216 26.7386 118.889 26.8523 119.554 27.0795C120.219 27.3068 120.824 27.6761 121.37 28.1875C121.915 28.6932 122.35 29.3636 122.674 30.1989C122.997 31.0341 123.159 32.0625 123.159 33.2841V34.1364H113.068V32.3977H121.114C121.114 31.6591 120.966 31 120.671 30.4205C120.381 29.8409 119.966 29.3835 119.426 29.0483C118.892 28.7131 118.262 28.5455 117.534 28.5455C116.733 28.5455 116.04 28.7443 115.455 29.142C114.875 29.5341 114.429 30.0455 114.117 30.6761C113.804 31.3068 113.648 31.983 113.648 32.7045V33.8636C113.648 34.8523 113.818 35.6903 114.159 36.3778C114.506 37.0597 114.986 37.5795 115.6 37.9375C116.213 38.2898 116.926 38.4659 117.739 38.4659C118.267 38.4659 118.745 38.392 119.171 38.2443C119.603 38.0909 119.975 37.8636 120.287 37.5625C120.6 37.2557 120.841 36.875 121.012 36.4205L122.955 36.9659C122.75 37.625 122.407 38.2045 121.924 38.7045C121.441 39.1989 120.844 39.5852 120.134 39.8636C119.424 40.1364 118.625 40.2727 117.739 40.2727ZM129.819 40V26.9091H131.762V28.8864H131.899C132.137 28.2386 132.569 27.7131 133.194 27.3097C133.819 26.9062 134.524 26.7045 135.308 26.7045C135.455 26.7045 135.64 26.7074 135.862 26.7131C136.083 26.7187 136.251 26.7273 136.364 26.7386V28.7841C136.296 28.767 136.14 28.7415 135.896 28.7074C135.657 28.6676 135.404 28.6477 135.137 28.6477C134.501 28.6477 133.933 28.7812 133.433 29.0483C132.938 29.3097 132.546 29.6733 132.257 30.1392C131.972 30.5994 131.83 31.125 131.83 31.7159V40H129.819ZM148.999 26.9091V28.6136H141.942V26.9091H148.999ZM144.055 40V25.1023C144.055 24.3523 144.232 23.7273 144.584 23.2273C144.936 22.7273 145.393 22.3523 145.956 22.1023C146.518 21.8523 147.112 21.7273 147.737 21.7273C148.232 21.7273 148.635 21.767 148.947 21.8466C149.26 21.9261 149.493 22 149.646 22.0682L149.067 23.8068C148.964 23.7727 148.822 23.7301 148.641 23.679C148.464 23.6278 148.232 23.6023 147.942 23.6023C147.277 23.6023 146.797 23.7699 146.501 24.1051C146.212 24.4403 146.067 24.9318 146.067 25.5795V40H144.055ZM163.667 34.6477V26.9091H165.679V40H163.667V37.7841H163.531C163.224 38.4489 162.747 39.0142 162.099 39.4801C161.452 39.9403 160.633 40.1705 159.645 40.1705C158.827 40.1705 158.099 39.9915 157.463 39.6335C156.827 39.2699 156.327 38.7244 155.963 37.9972C155.599 37.2642 155.417 36.3409 155.417 35.2273V26.9091H157.429V35.0909C157.429 36.0455 157.696 36.8068 158.23 37.375C158.77 37.9432 159.457 38.2273 160.292 38.2273C160.792 38.2273 161.301 38.0994 161.818 37.8438C162.341 37.5881 162.778 37.196 163.131 36.6676C163.488 36.1392 163.667 35.4659 163.667 34.6477ZM174.974 22.5455V40H172.963V22.5455H174.974ZM196.051 40L191.279 22.5455H193.426L197.074 36.7614H197.244L200.96 22.5455H203.347L207.063 36.7614H207.233L210.881 22.5455H213.029L208.256 40H206.074L202.222 26.0909H202.085L198.233 40H196.051ZM221.001 32.125V40H218.989V22.5455H221.001V28.9545H221.171C221.478 28.2784 221.938 27.7415 222.552 27.3438C223.171 26.9403 223.995 26.7386 225.023 26.7386C225.915 26.7386 226.697 26.9176 227.367 27.2756C228.038 27.6278 228.558 28.1705 228.927 28.9034C229.302 29.6307 229.489 30.5568 229.489 31.6818V40H227.478V31.8182C227.478 30.7784 227.208 29.9744 226.668 29.4062C226.134 28.8324 225.393 28.5455 224.444 28.5455C223.785 28.5455 223.194 28.6847 222.671 28.9631C222.154 29.2415 221.745 29.6477 221.444 30.1818C221.148 30.7159 221.001 31.3636 221.001 32.125ZM236.769 40V26.9091H238.78V40H236.769ZM237.792 24.7273C237.4 24.7273 237.062 24.5938 236.778 24.3267C236.499 24.0597 236.36 23.7386 236.36 23.3636C236.36 22.9886 236.499 22.6676 236.778 22.4006C237.062 22.1335 237.4 22 237.792 22C238.184 22 238.519 22.1335 238.797 22.4006C239.082 22.6676 239.224 22.9886 239.224 23.3636C239.224 23.7386 239.082 24.0597 238.797 24.3267C238.519 24.5938 238.184 24.7273 237.792 24.7273ZM255.337 29.8409L253.53 30.3523C253.417 30.0511 253.249 29.7585 253.027 29.4744C252.812 29.1847 252.516 28.946 252.141 28.7585C251.766 28.571 251.286 28.4773 250.701 28.4773C249.9 28.4773 249.232 28.6619 248.698 29.0312C248.169 29.3949 247.905 29.858 247.905 30.4205C247.905 30.9205 248.087 31.3153 248.451 31.6051C248.814 31.8949 249.383 32.1364 250.155 32.3295L252.098 32.8068C253.269 33.0909 254.141 33.5256 254.715 34.1108C255.289 34.6903 255.576 35.4375 255.576 36.3523C255.576 37.1023 255.36 37.7727 254.928 38.3636C254.502 38.9545 253.905 39.4205 253.138 39.7614C252.371 40.1023 251.479 40.2727 250.462 40.2727C249.127 40.2727 248.022 39.983 247.147 39.4034C246.272 38.8239 245.718 37.9773 245.485 36.8636L247.394 36.3864C247.576 37.0909 247.919 37.6193 248.425 37.9716C248.937 38.3239 249.604 38.5 250.428 38.5C251.365 38.5 252.11 38.3011 252.661 37.9034C253.218 37.5 253.496 37.017 253.496 36.4545C253.496 36 253.337 35.6193 253.019 35.3125C252.701 35 252.212 34.767 251.553 34.6136L249.371 34.1023C248.172 33.8182 247.292 33.3778 246.729 32.7812C246.172 32.179 245.894 31.4261 245.894 30.5227C245.894 29.7841 246.101 29.1307 246.516 28.5625C246.937 27.9943 247.508 27.5483 248.229 27.2244C248.956 26.9006 249.78 26.7386 250.701 26.7386C251.996 26.7386 253.013 27.0227 253.752 27.5909C254.496 28.1591 255.025 28.9091 255.337 29.8409ZM264.078 35.2273L264.044 32.7386H264.453L270.181 26.9091H272.669L266.567 33.0795H266.397L264.078 35.2273ZM262.203 40V22.5455H264.215V40H262.203ZM270.522 40L265.408 33.5227L266.84 32.125L273.078 40H270.522ZM283.808 40.2727C282.546 40.2727 281.458 39.9943 280.543 39.4375C279.634 38.875 278.933 38.0909 278.438 37.0852C277.95 36.0739 277.705 34.8977 277.705 33.5568C277.705 32.2159 277.95 31.0341 278.438 30.0114C278.933 28.983 279.62 28.1818 280.501 27.608C281.387 27.0284 282.421 26.7386 283.603 26.7386C284.285 26.7386 284.958 26.8523 285.623 27.0795C286.288 27.3068 286.893 27.6761 287.438 28.1875C287.984 28.6932 288.418 29.3636 288.742 30.1989C289.066 31.0341 289.228 32.0625 289.228 33.2841V34.1364H279.137V32.3977H287.183C287.183 31.6591 287.035 31 286.739 30.4205C286.45 29.8409 286.035 29.3835 285.495 29.0483C284.961 28.7131 284.33 28.5455 283.603 28.5455C282.802 28.5455 282.109 28.7443 281.524 29.142C280.944 29.5341 280.498 30.0455 280.186 30.6761C279.873 31.3068 279.717 31.983 279.717 32.7045V33.8636C279.717 34.8523 279.887 35.6903 280.228 36.3778C280.575 37.0597 281.055 37.5795 281.668 37.9375C282.282 38.2898 282.995 38.4659 283.808 38.4659C284.336 38.4659 284.813 38.392 285.239 38.2443C285.671 38.0909 286.043 37.8636 286.356 37.5625C286.668 37.2557 286.91 36.875 287.08 36.4205L289.024 36.9659C288.819 37.625 288.475 38.2045 287.992 38.7045C287.509 39.1989 286.913 39.5852 286.203 39.8636C285.492 40.1364 284.694 40.2727 283.808 40.2727ZM295.888 40V26.9091H297.831V28.8864H297.967C298.206 28.2386 298.638 27.7131 299.263 27.3097C299.888 26.9062 300.592 26.7045 301.376 26.7045C301.524 26.7045 301.709 26.7074 301.93 26.7131C302.152 26.7187 302.32 26.7273 302.433 26.7386V28.7841C302.365 28.767 302.209 28.7415 301.964 28.7074C301.726 28.6676 301.473 28.6477 301.206 28.6477C300.57 28.6477 300.001 28.7812 299.501 29.0483C299.007 29.3097 298.615 29.6733 298.325 30.1392C298.041 30.5994 297.899 31.125 297.899 31.7159V40H295.888ZM317.69 29.8409L315.883 30.3523C315.77 30.0511 315.602 29.7585 315.381 29.4744C315.165 29.1847 314.869 28.946 314.494 28.7585C314.119 28.571 313.639 28.4773 313.054 28.4773C312.253 28.4773 311.585 28.6619 311.051 29.0312C310.523 29.3949 310.258 29.858 310.258 30.4205C310.258 30.9205 310.44 31.3153 310.804 31.6051C311.167 31.8949 311.736 32.1364 312.508 32.3295L314.452 32.8068C315.622 33.0909 316.494 33.5256 317.068 34.1108C317.642 34.6903 317.929 35.4375 317.929 36.3523C317.929 37.1023 317.713 37.7727 317.281 38.3636C316.855 38.9545 316.258 39.4205 315.491 39.7614C314.724 40.1023 313.832 40.2727 312.815 40.2727C311.48 40.2727 310.375 39.983 309.5 39.4034C308.625 38.8239 308.071 37.9773 307.838 36.8636L309.747 36.3864C309.929 37.0909 310.273 37.6193 310.778 37.9716C311.29 38.3239 311.957 38.5 312.781 38.5C313.719 38.5 314.463 38.3011 315.014 37.9034C315.571 37.5 315.849 37.017 315.849 36.4545C315.849 36 315.69 35.6193 315.372 35.3125C315.054 35 314.565 34.767 313.906 34.6136L311.724 34.1023C310.525 33.8182 309.645 33.3778 309.082 32.7812C308.525 32.179 308.247 31.4261 308.247 30.5227C308.247 29.7841 308.454 29.1307 308.869 28.5625C309.29 27.9943 309.861 27.5483 310.582 27.2244C311.31 26.9006 312.133 26.7386 313.054 26.7386C314.349 26.7386 315.366 27.0227 316.105 27.5909C316.849 28.1591 317.378 28.9091 317.69 29.8409ZM327.557 37.6136L327.42 38.5341C327.324 39.1818 327.176 39.875 326.977 40.6136C326.784 41.3523 326.582 42.0483 326.372 42.7017C326.162 43.3551 325.988 43.875 325.852 44.2614H324.318C324.392 43.8977 324.488 43.4176 324.608 42.821C324.727 42.2244 324.846 41.5568 324.966 40.8182C325.091 40.0852 325.193 39.3352 325.272 38.5682L325.375 37.6136H327.557ZM345.506 40V22.5455H347.619V31.2045H347.824L355.665 22.5455H358.426L351.097 30.4205L358.426 40H355.869L349.801 31.8864L347.619 34.3409V40H345.506ZM365.31 40V26.9091H367.321V40H365.31ZM366.332 24.7273C365.94 24.7273 365.602 24.5938 365.318 24.3267C365.04 24.0597 364.901 23.7386 364.901 23.3636C364.901 22.9886 365.04 22.6676 365.318 22.4006C365.602 22.1335 365.94 22 366.332 22C366.724 22 367.06 22.1335 367.338 22.4006C367.622 22.6676 367.764 22.9886 367.764 23.3636C367.764 23.7386 367.622 24.0597 367.338 24.3267C367.06 24.5938 366.724 24.7273 366.332 24.7273ZM376.616 32.125V40H374.605V26.9091H376.548V28.9545H376.719C377.025 28.2898 377.491 27.7557 378.116 27.3523C378.741 26.9432 379.548 26.7386 380.537 26.7386C381.423 26.7386 382.199 26.9205 382.864 27.2841C383.528 27.642 384.045 28.1875 384.415 28.9205C384.784 29.6477 384.969 30.5682 384.969 31.6818V40H382.957V31.8182C382.957 30.7898 382.69 29.9886 382.156 29.4148C381.622 28.8352 380.889 28.5455 379.957 28.5455C379.315 28.5455 378.741 28.6847 378.236 28.9631C377.736 29.2415 377.341 29.6477 377.051 30.1818C376.761 30.7159 376.616 31.3636 376.616 32.125ZM397.187 40.2727C396.096 40.2727 395.133 39.9972 394.298 39.446C393.463 38.8892 392.809 38.1051 392.338 37.0938C391.866 36.0767 391.63 34.875 391.63 33.4886C391.63 32.1136 391.866 30.9205 392.338 29.9091C392.809 28.8977 393.466 28.1165 394.307 27.5653C395.147 27.0142 396.119 26.7386 397.221 26.7386C398.074 26.7386 398.747 26.8807 399.241 27.1648C399.741 27.4432 400.122 27.7614 400.383 28.1193C400.65 28.4716 400.858 28.7614 401.005 28.9886H401.176V22.5455H403.187V40H401.244V37.9886H401.005C400.858 38.2273 400.647 38.5284 400.375 38.892C400.102 39.25 399.713 39.571 399.207 39.8551C398.701 40.1335 398.028 40.2727 397.187 40.2727ZM397.46 38.4659C398.267 38.4659 398.949 38.2557 399.505 37.8352C400.062 37.4091 400.486 36.821 400.775 36.071C401.065 35.3153 401.21 34.4432 401.21 33.4545C401.21 32.4773 401.068 31.6222 400.784 30.8892C400.5 30.1506 400.079 29.5767 399.522 29.1676C398.966 28.7528 398.278 28.5455 397.46 28.5455C396.608 28.5455 395.897 28.7642 395.329 29.2017C394.767 29.6335 394.343 30.2216 394.059 30.9659C393.781 31.7045 393.642 32.5341 393.642 33.4545C393.642 34.3864 393.784 35.233 394.068 35.9943C394.358 36.75 394.784 37.3523 395.346 37.8011C395.915 38.2443 396.619 38.4659 397.46 38.4659ZM421.373 40V22.5455H423.487V30.3182H432.793V22.5455H434.907V40H432.793V32.1932H423.487V40H421.373ZM447.955 40.2727C446.693 40.2727 445.605 39.9943 444.69 39.4375C443.781 38.875 443.08 38.0909 442.585 37.0852C442.097 36.0739 441.852 34.8977 441.852 33.5568C441.852 32.2159 442.097 31.0341 442.585 30.0114C443.08 28.983 443.767 28.1818 444.648 27.608C445.534 27.0284 446.568 26.7386 447.75 26.7386C448.432 26.7386 449.105 26.8523 449.77 27.0795C450.435 27.3068 451.04 27.6761 451.585 28.1875C452.131 28.6932 452.565 29.3636 452.889 30.1989C453.213 31.0341 453.375 32.0625 453.375 33.2841V34.1364H443.284V32.3977H451.33C451.33 31.6591 451.182 31 450.886 30.4205C450.597 29.8409 450.182 29.3835 449.642 29.0483C449.108 28.7131 448.477 28.5455 447.75 28.5455C446.949 28.5455 446.256 28.7443 445.67 29.142C445.091 29.5341 444.645 30.0455 444.332 30.6761C444.02 31.3068 443.864 31.983 443.864 32.7045V33.8636C443.864 34.8523 444.034 35.6903 444.375 36.3778C444.722 37.0597 445.202 37.5795 445.815 37.9375C446.429 38.2898 447.142 38.4659 447.955 38.4659C448.483 38.4659 448.96 38.392 449.386 38.2443C449.818 38.0909 450.19 37.8636 450.503 37.5625C450.815 37.2557 451.057 36.875 451.227 36.4205L453.17 36.9659C452.966 37.625 452.622 38.2045 452.139 38.7045C451.656 39.1989 451.06 39.5852 450.349 39.8636C449.639 40.1364 448.841 40.2727 447.955 40.2727ZM463.887 40.3068C463.057 40.3068 462.305 40.1506 461.628 39.8381C460.952 39.5199 460.415 39.0625 460.018 38.4659C459.62 37.8636 459.421 37.1364 459.421 36.2841C459.421 35.5341 459.569 34.9261 459.864 34.4602C460.16 33.9886 460.555 33.6193 461.049 33.3523C461.543 33.0852 462.089 32.8864 462.685 32.7557C463.288 32.6193 463.893 32.5114 464.501 32.4318C465.296 32.3295 465.941 32.2528 466.435 32.2017C466.935 32.1449 467.299 32.0511 467.526 31.9205C467.759 31.7898 467.876 31.5625 467.876 31.2386V31.1705C467.876 30.3295 467.645 29.6761 467.185 29.2102C466.731 28.7443 466.04 28.5114 465.114 28.5114C464.154 28.5114 463.401 28.7216 462.856 29.142C462.31 29.5625 461.927 30.0114 461.705 30.4886L459.796 29.8068C460.137 29.0114 460.591 28.392 461.16 27.9489C461.734 27.5 462.359 27.1875 463.035 27.0114C463.716 26.8295 464.387 26.7386 465.046 26.7386C465.466 26.7386 465.949 26.7898 466.495 26.892C467.046 26.9886 467.577 27.1903 468.089 27.4972C468.606 27.804 469.035 28.267 469.376 28.8864C469.716 29.5057 469.887 30.3352 469.887 31.375V40H467.876V38.2273H467.773C467.637 38.5114 467.41 38.8153 467.091 39.1392C466.773 39.4631 466.35 39.7386 465.822 39.9659C465.293 40.1932 464.648 40.3068 463.887 40.3068ZM464.194 38.5C464.989 38.5 465.66 38.3438 466.205 38.0312C466.756 37.7188 467.171 37.3153 467.449 36.821C467.734 36.3267 467.876 35.8068 467.876 35.2614V33.4205C467.79 33.5227 467.603 33.6165 467.313 33.7017C467.029 33.7812 466.699 33.8523 466.324 33.9148C465.955 33.9716 465.594 34.0227 465.242 34.0682C464.895 34.108 464.614 34.142 464.398 34.1705C463.876 34.2386 463.387 34.3494 462.932 34.5028C462.484 34.6506 462.12 34.875 461.841 35.1761C461.569 35.4716 461.432 35.875 461.432 36.3864C461.432 37.0852 461.691 37.6136 462.208 37.9716C462.731 38.3239 463.393 38.5 464.194 38.5ZM477.158 40V26.9091H479.101V28.8864H479.238C479.476 28.2386 479.908 27.7131 480.533 27.3097C481.158 26.9062 481.863 26.7045 482.647 26.7045C482.794 26.7045 482.979 26.7074 483.201 26.7131C483.422 26.7187 483.59 26.7273 483.704 26.7386V28.7841C483.635 28.767 483.479 28.7415 483.235 28.7074C482.996 28.6676 482.743 28.6477 482.476 28.6477C481.84 28.6477 481.272 28.7812 480.772 29.0483C480.277 29.3097 479.885 29.6733 479.596 30.1392C479.312 30.5994 479.169 31.125 479.169 31.7159V40H477.158ZM496.201 26.9091V28.6136H489.417V26.9091H496.201ZM491.394 23.7727H493.406V36.25C493.406 36.8182 493.488 37.2443 493.653 37.5284C493.823 37.8068 494.039 37.9943 494.301 38.0909C494.568 38.1818 494.849 38.2273 495.144 38.2273C495.366 38.2273 495.548 38.2159 495.69 38.1932C495.832 38.1648 495.946 38.142 496.031 38.125L496.44 39.9318C496.304 39.983 496.113 40.0341 495.869 40.0852C495.625 40.142 495.315 40.1705 494.94 40.1705C494.372 40.1705 493.815 40.0483 493.269 39.804C492.73 39.5597 492.281 39.1875 491.923 38.6875C491.571 38.1875 491.394 37.5568 491.394 36.7955V23.7727ZM511.865 29.8409L510.058 30.3523C509.945 30.0511 509.777 29.7585 509.556 29.4744C509.34 29.1847 509.044 28.946 508.669 28.7585C508.294 28.571 507.814 28.4773 507.229 28.4773C506.428 28.4773 505.76 28.6619 505.226 29.0312C504.698 29.3949 504.433 29.858 504.433 30.4205C504.433 30.9205 504.615 31.3153 504.979 31.6051C505.342 31.8949 505.911 32.1364 506.683 32.3295L508.627 32.8068C509.797 33.0909 510.669 33.5256 511.243 34.1108C511.817 34.6903 512.104 35.4375 512.104 36.3523C512.104 37.1023 511.888 37.7727 511.456 38.3636C511.03 38.9545 510.433 39.4205 509.666 39.7614C508.899 40.1023 508.007 40.2727 506.99 40.2727C505.655 40.2727 504.55 39.983 503.675 39.4034C502.8 38.8239 502.246 37.9773 502.013 36.8636L503.922 36.3864C504.104 37.0909 504.448 37.6193 504.953 37.9716C505.465 38.3239 506.132 38.5 506.956 38.5C507.894 38.5 508.638 38.3011 509.189 37.9034C509.746 37.5 510.024 37.017 510.024 36.4545C510.024 36 509.865 35.6193 509.547 35.3125C509.229 35 508.74 34.767 508.081 34.6136L505.899 34.1023C504.7 33.8182 503.82 33.3778 503.257 32.7812C502.7 32.179 502.422 31.4261 502.422 30.5227C502.422 29.7841 502.629 29.1307 503.044 28.5625C503.465 27.9943 504.036 27.5483 504.757 27.2244C505.485 26.9006 506.308 26.7386 507.229 26.7386C508.524 26.7386 509.541 27.0227 510.28 27.5909C511.024 28.1591 511.553 28.9091 511.865 29.8409ZM520.197 40.1364C519.777 40.1364 519.416 39.9858 519.115 39.6847C518.814 39.3835 518.663 39.0227 518.663 38.6023C518.663 38.1818 518.814 37.821 519.115 37.5199C519.416 37.2187 519.777 37.0682 520.197 37.0682C520.618 37.0682 520.979 37.2187 521.28 37.5199C521.581 37.821 521.732 38.1818 521.732 38.6023C521.732 38.8807 521.661 39.1364 521.518 39.3693C521.382 39.6023 521.197 39.7898 520.964 39.9318C520.737 40.0682 520.482 40.1364 520.197 40.1364Z" fill="white"/>
<path d="M548 45.897L544.979 43.0593C534.25 33.02 527.167 26.3773 527.167 18.2728C527.167 11.6301 532.208 6.44922 538.625 6.44922C542.25 6.44922 545.729 8.19051 548 10.9207C550.271 8.19051 553.75 6.44922 557.375 6.44922C563.792 6.44922 568.833 11.6301 568.833 18.2728C568.833 26.3773 561.75 33.02 551.021 43.0593L548 45.897Z" fill="#FEF7D2"/>
<path fill-rule="evenodd" clip-rule="evenodd" d="M24.4792 14.3458C21.3958 14.3458 21.0875 14.6729 19.4917 14.6729C18.1625 14.6729 14.1708 11.4166 12.1771 11.4166C10.1812 11.4166 7.85416 12.5895 7.85416 15.975V19.8812C7.85833 20.9062 8.22916 24.0479 9.68749 23.2083C7.96458 25.2458 7.79166 27.6229 7.81458 29.9229C7.34999 30.0562 6.87708 30.2083 6.41666 30.3645C4.99166 30.852 3.47916 31.4729 2.79791 31.9145C2.44981 32.1394 2.20531 32.4934 2.11818 32.8985C2.03105 33.3037 2.10844 33.7269 2.33333 34.075C2.55821 34.4231 2.91216 34.6676 3.31732 34.7547C3.72247 34.8418 4.14565 34.7644 4.49374 34.5395C4.81874 34.3291 5.99583 33.8104 7.42708 33.3208L7.90208 33.1645C7.99791 34.0666 8.23749 34.8937 8.59374 35.6437L8.54374 35.6708C7.68958 36.1208 6.89791 36.6395 6.39374 36.9687L6.15833 37.1229C5.81023 37.3478 5.56572 37.7017 5.4786 38.1069C5.39147 38.512 5.46886 38.9352 5.69374 39.2833C5.91862 39.6314 6.27258 39.8759 6.67773 39.963C7.08289 40.0501 7.50606 39.9728 7.85416 39.7479L8.12708 39.5687C8.63749 39.2354 9.29166 38.8083 10.0042 38.4333C10.1708 38.3437 10.3312 38.2645 10.4854 38.1916C14.0896 41.5729 20.5625 42.6666 24.4792 42.6666C28.3958 42.6666 34.8687 41.5729 38.4729 38.1916C38.6271 38.2645 38.7854 38.3437 38.9542 38.4333C39.6667 38.8083 40.3208 39.2354 40.8312 39.5687L41.1042 39.7479C41.4523 39.9728 41.8754 40.0501 42.2806 39.963C42.6857 39.8759 43.0397 39.6314 43.2646 39.2833C43.4895 38.9352 43.5668 38.512 43.4797 38.1069C43.3926 37.7017 43.1481 37.3478 42.8 37.1229L42.5646 36.9687C41.8684 36.5031 41.1509 36.07 40.4146 35.6708L40.3646 35.6437C40.7208 34.8937 40.9604 34.0666 41.0562 33.1645L41.5312 33.3208C42.9625 33.8104 44.1396 34.3291 44.4667 34.5395C44.8146 34.7518 45.2317 34.8197 45.629 34.7288C46.0263 34.6379 46.3724 34.3953 46.5933 34.0528C46.8143 33.7103 46.8927 33.2951 46.8119 32.8956C46.731 32.4961 46.4972 32.1441 46.1604 31.9145C45.4792 31.4729 43.9667 30.852 42.5437 30.3645C42.0803 30.2066 41.6135 30.0586 41.1437 29.9208C41.1687 27.6208 40.9937 25.2458 39.2687 23.2083C40.7271 24.0479 41.1021 20.9062 41.1042 19.8791V15.975C41.1042 12.5895 38.7771 11.4166 36.7812 11.4166C34.7875 11.4166 30.7958 14.6729 29.4687 14.6729C27.8708 14.6729 27.5625 14.3458 24.4792 14.3458ZM23.0729 33.5C23.4937 33.3562 23.9917 33.2916 24.4792 33.2916C24.9667 33.2916 25.4646 33.3562 25.8875 33.5C26.0958 33.5708 26.3458 33.6833 26.5708 33.8625C26.7251 33.9788 26.8512 34.1283 26.9399 34.3C27.0286 34.4716 27.0776 34.661 27.0833 34.8541C27.0833 35.3333 26.7937 35.6666 26.5708 35.8458C26.3479 36.025 26.0937 36.1375 25.8875 36.2083C25.4322 36.3524 24.9567 36.4227 24.4792 36.4166C24.0023 36.4228 23.5275 36.3525 23.0729 36.2083C22.8251 36.1281 22.5932 36.0054 22.3875 35.8458C22.2332 35.7294 22.1071 35.5799 22.0184 35.4083C21.9297 35.2366 21.8807 35.0473 21.875 34.8541C21.875 34.375 22.1646 34.0416 22.3875 33.8625C22.6104 33.6833 22.8667 33.5708 23.0729 33.5ZM29 27.0416C29.2854 26.5666 29.8458 26 30.6875 26C31.5292 26 32.0917 26.5666 32.375 27.0416C32.6708 27.5395 32.8125 28.1395 32.8125 28.7354C32.8125 29.3291 32.6708 29.9291 32.375 30.425C32.0917 30.902 31.5292 31.4687 30.6875 31.4687C29.8458 31.4687 29.2854 30.902 29 30.427C28.706 29.9122 28.5549 29.3282 28.5625 28.7354C28.5625 28.1395 28.7042 27.5395 29 27.0437M16.5833 27.0437C16.8687 26.5687 17.4292 26.002 18.2708 26.002C19.1125 26.002 19.675 26.5687 19.9583 27.0437C20.2542 27.5416 20.3958 28.1416 20.3958 28.7375C20.3958 29.3312 20.2542 29.9312 19.9583 30.427C19.675 30.9041 19.1125 31.4708 18.2708 31.4708C17.4292 31.4708 16.8687 30.9041 16.5833 30.4291C16.2893 29.9143 16.1382 29.3303 16.1458 28.7375C16.1458 28.1416 16.2875 27.5395 16.5833 27.0437Z" fill="#FEF7D2"/>
<path fill-rule="evenodd" clip-rule="evenodd" d="M597.479 14.3458C594.396 14.3458 594.087 14.6729 592.492 14.6729C591.162 14.6729 587.171 11.4166 585.177 11.4166C583.181 11.4166 580.854 12.5895 580.854 15.975V19.8812C580.858 20.9062 581.229 24.0479 582.687 23.2083C580.965 25.2458 580.792 27.6229 580.815 29.9229C580.35 30.0562 579.877 30.2083 579.417 30.3645C577.992 30.852 576.479 31.4729 575.798 31.9145C575.45 32.1394 575.205 32.4934 575.118 32.8985C575.031 33.3037 575.108 33.7269 575.333 34.075C575.558 34.4231 575.912 34.6676 576.317 34.7547C576.722 34.8418 577.146 34.7644 577.494 34.5395C577.819 34.3291 578.996 33.8104 580.427 33.3208L580.902 33.1645C580.998 34.0666 581.237 34.8937 581.594 35.6437L581.544 35.6708C580.69 36.1208 579.898 36.6395 579.394 36.9687L579.158 37.1229C578.81 37.3478 578.566 37.7017 578.479 38.1069C578.391 38.512 578.469 38.9352 578.694 39.2833C578.919 39.6314 579.273 39.8759 579.678 39.963C580.083 40.0501 580.506 39.9728 580.854 39.7479L581.127 39.5687C581.637 39.2354 582.292 38.8083 583.004 38.4333C583.171 38.3437 583.331 38.2645 583.485 38.1916C587.09 41.5729 593.562 42.6666 597.479 42.6666C601.396 42.6666 607.869 41.5729 611.473 38.1916C611.627 38.2645 611.785 38.3437 611.954 38.4333C612.667 38.8083 613.321 39.2354 613.831 39.5687L614.104 39.7479C614.452 39.9728 614.875 40.0501 615.281 39.963C615.686 39.8759 616.04 39.6314 616.265 39.2833C616.489 38.9352 616.567 38.512 616.48 38.1069C616.393 37.7017 616.148 37.3478 615.8 37.1229L615.565 36.9687C614.868 36.5031 614.151 36.07 613.415 35.6708L613.365 35.6437C613.721 34.8937 613.96 34.0666 614.056 33.1645L614.531 33.3208C615.962 33.8104 617.14 34.3291 617.467 34.5395C617.815 34.7518 618.232 34.8197 618.629 34.7288C619.026 34.6379 619.372 34.3953 619.593 34.0528C619.814 33.7103 619.893 33.2951 619.812 32.8956C619.731 32.4961 619.497 32.1441 619.16 31.9145C618.479 31.4729 616.967 30.852 615.544 30.3645C615.08 30.2066 614.614 30.0586 614.144 29.9208C614.169 27.6208 613.994 25.2458 612.269 23.2083C613.727 24.0479 614.102 20.9062 614.104 19.8791V15.975C614.104 12.5895 611.777 11.4166 609.781 11.4166C607.787 11.4166 603.796 14.6729 602.469 14.6729C600.871 14.6729 600.562 14.3458 597.479 14.3458ZM596.073 33.5C596.494 33.3562 596.992 33.2916 597.479 33.2916C597.967 33.2916 598.465 33.3562 598.887 33.5C599.096 33.5708 599.346 33.6833 599.571 33.8625C599.725 33.9788 599.851 34.1283 599.94 34.3C600.029 34.4716 600.078 34.661 600.083 34.8541C600.083 35.3333 599.794 35.6666 599.571 35.8458C599.348 36.025 599.094 36.1375 598.887 36.2083C598.432 36.3524 597.957 36.4227 597.479 36.4166C597.002 36.4228 596.527 36.3525 596.073 36.2083C595.825 36.1281 595.593 36.0054 595.387 35.8458C595.233 35.7294 595.107 35.5799 595.018 35.4083C594.93 35.2366 594.881 35.0473 594.875 34.8541C594.875 34.375 595.165 34.0416 595.387 33.8625C595.61 33.6833 595.867 33.5708 596.073 33.5ZM602 27.0416C602.285 26.5666 602.846 26 603.687 26C604.529 26 605.092 26.5666 605.375 27.0416C605.671 27.5395 605.812 28.1395 605.812 28.7354C605.812 29.3291 605.671 29.9291 605.375 30.425C605.092 30.902 604.529 31.4687 603.687 31.4687C602.846 31.4687 602.285 30.902 602 30.427C601.706 29.9122 601.555 29.3282 601.562 28.7354C601.562 28.1395 601.704 27.5395 602 27.0437M589.583 27.0437C589.869 26.5687 590.429 26.002 591.271 26.002C592.112 26.002 592.675 26.5687 592.958 27.0437C593.254 27.5416 593.396 28.1416 593.396 28.7375C593.396 29.3312 593.254 29.9312 592.958 30.427C592.675 30.9041 592.112 31.4708 591.271 31.4708C590.429 31.4708 589.869 30.9041 589.583 30.4291C589.289 29.9143 589.138 29.3303 589.146 28.7375C589.146 28.1416 589.287 27.5395 589.583 27.0437Z" fill="#FEF7D2"/>
</svg>
