<svg width="768" height="104" viewBox="0 0 768 104" fill="none" xmlns="http://www.w3.org/2000/svg">
<path d="M0 1.5H768" stroke="black"/>
<path d="M62 0H212V93.4483C212 98.9711 207.523 103.448 202 103.448H72C66.4772 103.448 62 98.9711 62 93.4483V0Z" fill="#347781"/>
<path d="M222 0H372V93.4483C372 98.9711 367.523 103.448 362 103.448H232C226.477 103.448 222 98.9711 222 93.4483V0Z" fill="#347781"/>
<path d="M382 0H532V93.4483C532 98.9711 527.523 103.448 522 103.448H392C386.477 103.448 382 98.9711 382 93.4483V0Z" fill="#347781"/>
<path d="M542 0H692V93.4483C692 98.9711 687.523 103.448 682 103.448H552C546.477 103.448 542 98.9711 542 93.4483V0Z" fill="#347781"/>
<path d="M659.437 62.75C660.912 62.5375 662.475 64.15 662.925 66.375C663.375 68.5875 662.562 70.5625 661.087 70.7875C659.625 71.0125 658.05 69.4 657.587 67.175C657.125 64.9625 657.962 62.9875 659.437 62.75ZM668.375 62.75C669.862 62.9875 670.687 64.9625 670.25 67.175C669.775 69.4 668.212 71.0125 666.737 70.7875C665.25 70.5625 664.437 68.5875 664.9 66.375C665.35 64.15 666.912 62.5375 668.375 62.75ZM652.75 68.5C654.175 67.8875 656.112 69 657.125 70.9375C658.075 72.9125 657.75 74.9875 656.337 75.6C654.925 76.2125 653 75.1125 652.012 73.15C651.025 71.1875 651.375 69.1 652.75 68.5ZM675.25 68.5C676.625 69.1 676.975 71.1875 675.987 73.15C675 75.1125 673.075 76.2125 671.662 75.6C670.25 74.9875 669.925 72.9125 670.875 70.9375C671.887 69 673.825 67.8875 675.25 68.5ZM673.162 81.975C673.212 83.15 672.312 84.45 671.237 84.9375C669 85.9625 666.35 83.8375 663.862 83.8375C661.375 83.8375 658.7 86.05 656.5 84.9375C655.25 84.325 654.387 82.7 654.55 81.35C654.775 79.4875 657.012 78.4875 658.337 77.125C660.1 75.3625 661.35 72.05 663.862 72.05C666.362 72.05 667.687 75.3125 669.375 77.125C670.762 78.65 673.075 79.9375 673.162 81.975Z" fill="white"/>
<path d="M331.437 25.75C332.912 25.5375 334.475 27.15 334.925 29.375C335.375 31.5875 334.562 33.5625 333.087 33.7875C331.625 34.0125 330.05 32.4 329.587 30.175C329.125 27.9625 329.962 25.9875 331.437 25.75ZM340.375 25.75C341.862 25.9875 342.687 27.9625 342.25 30.175C341.775 32.4 340.212 34.0125 338.737 33.7875C337.25 33.5625 336.437 31.5875 336.9 29.375C337.35 27.15 338.912 25.5375 340.375 25.75ZM324.75 31.5C326.175 30.8875 328.112 32 329.125 33.9375C330.075 35.9125 329.75 37.9875 328.337 38.6C326.925 39.2125 325 38.1125 324.012 36.15C323.025 34.1875 323.375 32.1 324.75 31.5ZM347.25 31.5C348.625 32.1 348.975 34.1875 347.987 36.15C347 38.1125 345.075 39.2125 343.662 38.6C342.25 37.9875 341.925 35.9125 342.875 33.9375C343.887 32 345.825 30.8875 347.25 31.5ZM345.162 44.975C345.212 46.15 344.312 47.45 343.237 47.9375C341 48.9625 338.35 46.8375 335.862 46.8375C333.375 46.8375 330.7 49.05 328.5 47.9375C327.25 47.325 326.387 45.7 326.55 44.35C326.775 42.4875 329.012 41.4875 330.337 40.125C332.1 38.3625 333.35 35.05 335.862 35.05C338.362 35.05 339.687 38.3125 341.375 40.125C342.762 41.65 345.075 42.9375 345.162 44.975Z" fill="white"/>
<path d="M105.977 28.5635C116.611 28.5635 127.246 28.5635 137.881 28.5635C147.645 28.5635 157.116 28.8615 166.571 26.4978" stroke="white" stroke-width="3" stroke-linecap="round"/>
<path d="M138.339 30.6292C135.72 35.8685 131.216 39.0127 126.94 42.8705C120.679 48.5183 114.479 54.1023 108.042 59.5494" stroke="white" stroke-width="3" stroke-linecap="round"/>
<path d="M134.208 37.5149C134.208 50.846 134.897 64.1326 134.897 77.4523" stroke="white" stroke-width="3" stroke-linecap="round"/>
<path d="M134.896 39.5808C141.229 43.5805 145.098 50.3249 152.111 53.8879C156.742 56.2409 161.945 57.2364 166.571 59.5495" stroke="white" stroke-width="3" stroke-linecap="round"/>
<path d="M262.972 16.169C268.352 16.169 273.672 15.5467 279.038 15.4804C281.711 15.4474 284.376 16.1104 286.383 14.1033" stroke="white" stroke-width="3" stroke-linecap="round"/>
<path d="M262.972 37.5149C262.972 53.5164 266.415 69.0589 266.415 85.0267" stroke="white" stroke-width="3" stroke-linecap="round"/>
<path d="M264.35 35.4492C271.265 35.4492 278.282 34.9585 285.007 34.7607C286.166 34.7266 291.134 33.5587 291.74 34.2251C292.583 35.1528 291.88 39.1598 291.893 40.2693C291.934 43.9671 292.521 47.5218 293.27 51.1335C295.427 61.5389 296.545 72.0989 298.625 82.502C299.63 87.5226 288.068 83.6496 285.695 83.6496" stroke="white" stroke-width="3" stroke-linecap="round"/>
<path d="M269.169 49.9094C271.487 49.9094 289.826 51.6279 289.826 49.9094" stroke="white" stroke-width="3" stroke-linecap="round"/>
<path d="M276.743 27.1863C276.743 38.9067 277.14 51.1004 280.875 62.3037" stroke="white" stroke-width="3" stroke-linecap="round"/>
<path d="M253.332 65.7467C264.304 65.3078 275.632 65.0456 286.537 63.834C292.414 63.1809 298.36 61.6152 304.287 61.6152" stroke="white" stroke-width="3" stroke-linecap="round"/>
<path d="M406.885 32.6948C409.576 32.6948 415.588 33.3275 416.525 36.1377" stroke="white" stroke-width="3" stroke-linecap="round"/>
<path d="M406.885 52.6636C409.735 52.6636 412.313 52.8797 415.148 53.3522" stroke="white" stroke-width="3" stroke-linecap="round"/>
<path d="M411.016 80.2068C416.211 80.2068 423.191 76.9831 426.853 73.321" stroke="white" stroke-width="3" stroke-linecap="round"/>
<path d="M434.428 29.2522C443.842 29.2522 454.258 30.6021 463.348 27.875" stroke="white" stroke-width="3" stroke-linecap="round"/>
<path d="M452.33 20.989C451.878 23.7018 450.021 26.8004 448.849 29.2902C446.418 34.4566 444.205 40.7219 443.111 46.3133C442.817 47.818 441.576 51.975 444.068 51.975C449.377 51.975 455.47 49.8129 460.593 48.5321" stroke="white" stroke-width="3" stroke-linecap="round"/>
<path d="M458.528 40.2693C458.528 45.7167 461.755 52.3394 464.726 56.7951" stroke="white" stroke-width="3" stroke-linecap="round"/>
<path d="M445.445 67.1238C445.445 71.3511 445.817 74.8069 446.822 78.8296" stroke="white" stroke-width="3" stroke-linecap="round"/>
<path d="M455.773 65.0581C457.128 65.2274 457.088 74.5722 457.839 76.0753" stroke="white" stroke-width="3" stroke-linecap="round"/>
<path d="M470.922 62.9924C471.064 67.9838 472.657 72.877 473.676 77.7203C474.297 80.6696 483.824 76.637 486.071 76.0754" stroke="white" stroke-width="3" stroke-linecap="round"/>
<path d="M579.065 36.2146C581.665 36.359 583.593 38.1827 585.951 38.9689" stroke="white" stroke-width="3" stroke-linecap="round"/>
<path d="M577 52.7405C580.152 52.7405 583.039 54.1176 585.951 54.1176" stroke="white" stroke-width="3" stroke-linecap="round"/>
<path d="M579.065 78.2176C579.065 71.8893 591.46 69.7603 591.46 62.3804" stroke="white" stroke-width="3" stroke-linecap="round"/>
<path d="M610.74 19C610.74 22.8076 610.711 25.8119 612.117 29.3287" stroke="white" stroke-width="3" stroke-linecap="round"/>
<path d="M602.478 41.7231C604.311 41.3563 623.562 34.4854 623.823 35.3346C625.597 41.0994 624.512 48.1265 624.512 54.1174" stroke="white" stroke-width="3" stroke-linecap="round"/>
<path d="M607.297 51.3632C610.807 51.3632 614.091 49.9861 617.626 49.9861" stroke="white" stroke-width="3" stroke-linecap="round"/>
<path d="M607.297 63.7575C610.662 63.3836 614.825 59.1091 618.008 57.5604C619.57 56.8004 623.08 56.9796 623.823 55.4946" stroke="white" stroke-width="3" stroke-linecap="round"/>
<path d="M600.411 43.1003C600.629 47.0182 602.127 51.0246 602.821 54.8827C603.87 60.7077 604.27 67.0396 605.92 72.7091C606.164 73.5489 607.005 79.5184 608.406 79.5184C609.859 79.5184 614.284 78.0145 614.871 76.8406" stroke="white" stroke-width="3" stroke-linecap="round"/>
<path d="M627.266 63.7576C627.266 65.6878 626.832 71.8934 625.2 72.7091" stroke="white" stroke-width="3" stroke-linecap="round"/>
<path d="M615.631 70.2112C622.46 70.4738 626.593 79.5596 633.437 79.5596" stroke="white" stroke-width="3" stroke-linecap="round"/>
</svg>
