<svg width="645" height="538" viewBox="0 0 645 538" fill="none" xmlns="http://www.w3.org/2000/svg">
<path d="M561.837 355.484C534.042 400.582 509.844 449.299 460.726 477.638C413.355 504.969 356.368 497.156 301.99 505.405C237.468 515.192 170.075 552.236 112.859 530.406C53.5983 507.795 24.2904 449.298 9.10269 393.655C-5.60257 339.779 -1.4083 279.483 30.2138 227.616C59.5171 179.552 125.345 162.29 172.36 125.879C225.82 84.4763 255.809 0.974942 324.028 0.0698378C392.942 -0.844488 402.523 89.5034 457.079 122.101C512.158 155.012 614.425 133.433 639.053 188.3C663.235 242.173 595.495 300.873 561.837 355.484Z" fill="#BAE6EC"/>
</svg>
