<svg width="120" height="120" viewBox="0 0 120 120" fill="none" xmlns="http://www.w3.org/2000/svg">
<path d="M31.65 78.2419C31.65 78.2419 11.7188 76.9088 7.55255 69.2532C3.3638 61.6126 -2.00245 42.6076 17.7563 40.7757C37.5019 38.9476 35.2163 50.9776 32.3138 53.9569C29.3907 56.9213 18.7032 56.8988 15.84 55.8957C12.9769 54.8888 8.40942 58.5094 11.0663 64.4401C13.7157 70.3801 31.65 78.2494 31.65 78.2494" fill="#926C48"/>
<path d="M96.1481 16.5731C98.4356 18.0975 99.8625 20.8988 100.854 23.3044C103.511 29.7206 99.27 31.0819 99.2194 31.0781C96.3694 32.25 92.9662 33.8381 91.4043 18.9225C91.1681 16.5431 93.9281 15.0919 96.1481 16.5731Z" fill="#A87C51"/>
<path d="M59.1582 65.3287C60.1098 65.2682 61.0625 65.225 62.0157 65.1993C65.8482 65.1187 68.7788 66.1349 69.6751 67.8637C70.5413 69.5399 69.7201 72.2118 67.3594 75.4012C63.9038 80.0699 61.7157 80.7412 60.3807 80.8218C59.1001 80.9118 57.7538 80.4805 56.1994 79.9874C55.1841 79.6444 54.1522 79.3528 53.1076 79.1137C47.8088 77.9905 43.4926 79.3687 40.7476 82.978C35.7451 89.5612 37.3651 101.338 38.2088 105.812C37.2751 107.036 34.1757 109.689 31.2282 109.886C30.4069 109.939 27.8757 110.113 25.7082 105.666C25.2413 103.352 24.2513 89.3343 32.1019 78.4705C37.8076 70.5824 46.9051 66.163 59.1582 65.3287Z" fill="#926C48"/>
<path d="M35.1562 64.892C36.1445 64.8259 37.1341 64.7815 38.1243 64.7588C42.0975 64.6745 45.1481 65.7357 46.0875 67.5301C46.9762 69.2738 46.125 72.0526 43.6743 75.3563C40.0856 80.2145 37.8056 80.9007 36.4293 81.0001C35.0906 81.0938 33.6918 80.6513 32.0718 80.1301C31.0188 79.7716 29.9465 79.4724 28.8599 79.2338C23.3531 78.062 18.8681 79.487 16.0106 83.2351C10.8093 90.0807 12.4874 102.326 13.3762 106.961C12.3993 108.249 9.18932 110.998 6.1237 111.203C5.26682 111.257 2.63995 111.443 0.388073 106.817C-0.108799 104.411 -1.1288 89.8482 7.03495 78.5607C12.9543 70.3613 22.4118 65.7657 35.1562 64.907" fill="#A87C51"/>
<path d="M73.8787 79.1438C77.4075 74.2557 82.2637 70.7044 88.3462 68.5088C88.3837 70.9032 88.1475 73.2488 87.2587 75.3732C86.3044 77.6494 83.0175 83.0044 82.5225 83.6513C77.52 90.2325 79.1325 102.017 79.9837 106.487C79.0444 107.711 75.9506 110.361 73.005 110.561C72.1762 110.618 69.645 110.786 67.4906 106.339C67.0031 104.027 66.0262 90.0075 73.8787 79.1438Z" fill="#926C48"/>
<path d="M76.92 65.5763C77.9084 65.5124 78.898 65.468 79.8882 65.4432C83.8707 65.3588 86.9269 66.4126 87.8513 68.2126C88.7475 69.9544 87.9038 72.7313 85.4457 76.0369C81.8419 80.8969 79.5769 81.5851 78.1932 81.6807C76.8619 81.7669 75.4613 81.3282 73.8413 80.8107C72.8344 80.4863 71.7844 80.1488 70.6369 79.9088C65.13 78.7369 60.6375 80.1619 57.7819 83.9176C52.5863 90.7538 54.2588 103.005 55.14 107.644C54.1707 108.924 50.9513 111.671 47.895 111.881C47.0288 111.939 44.4113 112.118 42.1594 107.496C41.6625 105.09 40.6482 90.5269 48.8044 79.2394C54.7332 71.0344 64.1907 66.4463 76.92 65.5876" fill="#A87C51"/>
<path d="M64.5093 57.017C79.815 55.682 91.0031 54.4933 91.98 65.6533C92.9493 76.817 81.3375 86.9514 66.0412 88.2845C57.3 89.0495 49.2487 86.762 43.7737 82.577C43.0781 82.6483 42.39 82.7364 41.6793 82.7251C32.85 82.5845 25.7962 76.3051 25.9162 68.687C26.0418 61.487 55.17 57.827 64.5093 57.0133" fill="#A87C51"/>
<path d="M33.1312 61.7176C40.8731 60.5476 46.5487 59.5351 46.9931 68.6083C47.43 77.6964 26.6475 83.9101 21.4237 82.7683C17.0493 81.8101 13.4156 77.6139 13.5037 71.4058C13.6012 65.5426 28.3875 62.4151 33.1312 61.7101" fill="#A87C51"/>
<path d="M30.2606 57.8476C53.025 57.7257 43.4794 68.4451 43.9219 77.522C44.3644 86.6139 23.7844 80.042 18.5606 78.902C14.1937 77.9382 10.545 73.7457 10.6556 67.5395C10.7438 61.6745 25.4644 57.8626 30.2606 57.842M55.2375 67.7251C54.3263 60.3432 84.765 24.2626 90.6563 25.9857C96.7313 27.7764 104.91 28.9932 104.556 34.2864C103.238 54.1145 83.2406 82.9314 78.1556 82.3051C71.0063 81.4051 56.1694 75.1201 55.2375 67.7251Z" fill="#A87C51"/>
<path d="M84.8907 28.7475C85.6969 28.8956 86.5107 29.0325 87.3244 29.1731C87.1313 29.7619 86.865 30.3131 86.6663 30.8869C85.4082 30.5137 83.9944 30.6206 82.7138 31.6856C74.4694 38.5687 64.2038 52.8525 62.7244 63.7106C61.9988 69.0169 63.36 74.0569 66.0469 78.2925C60.615 75.6094 55.7532 71.8462 55.2357 67.7212C54.495 61.7625 74.1732 37.1325 84.8907 28.7475ZM78.7782 74.3943C70.2675 71.3381 81.1913 60.1294 83.4188 57.0619C88.8 49.6387 93.0263 39.945 95.7938 30.8494C98.8557 31.6181 101.831 32.6437 104.556 34.245V34.2825C103.674 47.6737 94.2694 65.1356 86.6757 74.8894C84.1144 75.4237 81.4425 75.3487 78.7782 74.3943Z" fill="#926C48"/>
<path d="M113.094 48.0994C106.804 50.73 99.5007 49.6631 93.5644 48.2644C77.7338 44.5275 81.6563 33.5344 81.7238 33.4556C83.8763 25.6744 86.0382 20.3981 115.869 38.8781C120.615 41.8163 119.171 45.5531 113.094 48.0994Z" fill="#A87C51"/>
<path d="M84.4163 15.8137C87.555 17.9043 89.5013 21.735 90.8625 25.02C94.4888 33.7968 88.695 35.6587 88.635 35.6512C84.7275 37.26 80.0644 39.4387 77.9325 19.0293C77.5931 15.7837 81.3825 13.7925 84.4163 15.8137Z" fill="#A87C51"/>
<path d="M91.1437 33.2024C91.1137 35.1524 92.3868 36.748 94.0012 36.7743C95.6137 36.8043 96.9318 35.2462 96.9693 33.2999C96.9993 31.3462 95.7262 29.7468 94.1137 29.7205C92.5068 29.6943 91.1737 31.2505 91.1437 33.2024Z" fill="#25333A"/>
<path d="M66.2343 49.7136C68.685 59.8855 83.7956 65.488 92.5781 66.3093C97.7362 66.7893 95.2425 70.9124 92.0306 70.6124C81.2775 69.6093 62.8125 67.0893 59.8368 54.7311C59.4225 53.0118 65.6531 47.3399 66.2231 49.7136" fill="#BE202E"/>
<path d="M77.1488 72.3038C77.1488 75.0488 78.9844 77.2725 81.2419 77.2725C83.5069 77.2725 85.3481 75.0488 85.3481 72.3038C85.3481 69.5663 83.505 67.3425 81.2419 67.3425C78.9844 67.3425 77.1488 69.5663 77.1488 72.3038Z" fill="#F7EC35"/>
<path d="M120 39.8757C120 35.9513 116.663 36.0225 112.104 36.0225C107.544 36.0225 103.506 35.9513 103.506 39.8757C103.506 43.8057 107.199 46.9894 111.757 46.9894C116.306 46.9894 120 43.8057 120 39.8757Z" fill="#25333A"/>
</svg>
