<svg width="100" height="100" viewBox="0 0 100 100" fill="none" xmlns="http://www.w3.org/2000/svg">
<g clip-path="url(#clip0_138_836)">
<path d="M70.8945 62.3306C70.8945 62.3306 68.9445 68.6667 71.8306 84.5333C72.3473 87.3806 73.1084 90.2889 73.4945 92.6722C78.375 92.6722 78.6361 98.2333 77.6 98.2333H71.7834C68.0695 98.2333 63.5306 88.9722 61.0778 76.1195C58.625 63.2667 70.8945 62.3306 70.8945 62.3306ZM34.6667 72.6139C34.6667 72.6139 28.3556 76.0028 28.5889 83.95C28.6806 87.0917 29.2806 89.7583 29.575 92.35C34.6639 92.35 34.6834 97.8639 33.2 97.8639H28.0445C25.4806 97.8639 19.7084 89.0917 18.6584 77.6389C17.6056 66.1889 34.6667 72.6139 34.6667 72.6139Z" fill="#F18F26"/>
<path d="M-3.05176e-05 23.4639C-3.05176e-05 9.79172 11.5027 2.77783 25 2.77783C25.7367 2.77783 26.4432 3.07049 26.9642 3.59142C27.4851 4.11236 27.7777 4.8189 27.7777 5.55561C27.7777 6.29232 27.4851 6.99886 26.9642 7.5198C26.4432 8.04073 25.7367 8.33339 25 8.33339C19.9889 8.33339 6.34164 10.9278 6.34164 23.4639C6.34164 31.4667 10.6944 38.6362 16.8139 40.0806C17.2694 39.8778 17.7722 39.7917 18.2278 39.5473C38.3361 28.6667 55.6083 42.0528 60.5222 38.7417C65.3889 35.4584 62.0194 29.7001 68.3666 24.1778C69.2833 19.0639 71.3472 11.7417 73.35 11.7417C74.875 11.7417 76.8639 16.8112 78.1833 21.8973C79.825 18.0612 81.9694 14.2417 83.35 14.2417C85.1278 14.2417 86.9 20.5556 87.7778 26.0056C92.4444 29.1917 95.85 33.8084 95.85 39.2417C95.85 46.7417 84.6 48.5667 80.85 48.7167C77.1 48.8667 72.4528 58.6112 70.8916 62.8056C67.4416 74.9362 65.1944 86.9695 63.3972 93.8695C67.9778 93.8695 68.4083 99.7334 67.1416 99.7334C65.1611 99.7334 61.7166 99.7251 60.9611 99.7334C57.125 99.7723 55.3333 86.6612 55.3333 75.1528C55.3333 74.5639 55.3639 73.4112 55.3639 73.4112C55.3639 73.4112 50.0027 74.8139 38.5916 72.8334C31.8027 71.6556 24.6194 75.1917 22.6305 81.6195C21.1666 86.3528 18.7444 90.8001 17.4416 94.0751C21.8555 94.0751 21.7333 99.7334 20.4528 99.7334C18.2666 99.7334 15.45 99.7723 14.3889 99.7334C10.3111 99.5806 12.6027 78.6945 11.5277 71.6862C10.4527 64.6778 8.0083 56.1917 12.1639 47.2501C3.17497 42.3223 -3.05176e-05 31.9584 -3.05176e-05 23.4639Z" fill="#FFCC4E"/>
<path d="M83.35 35.189C81.9693 35.189 80.85 34.0697 80.85 32.689C80.85 31.3083 81.9693 30.189 83.35 30.189C84.7307 30.189 85.85 31.3083 85.85 32.689C85.85 34.0697 84.7307 35.189 83.35 35.189Z" fill="#292F33"/>
<path d="M91.7111 35.7221C93.5916 36.8971 93.5916 40.6582 94.5305 40.6582C95.4694 40.6582 97.35 38.4471 97.35 35.7221C97.3528 32.9971 89.4 34.2777 91.7111 35.7221Z" fill="#E75A70"/>
<path d="M81.7277 39.8417C81.8416 39.9139 81.9777 39.9417 82.1222 39.9139C82.1722 39.9028 86.4222 39.2445 89.1916 40.3195C89.55 40.4584 90.1388 40.2556 90.3388 39.7889C90.5388 39.3223 90.275 38.775 89.9166 38.6361C85.9166 37.0556 81.9805 37.9861 81.7666 38.0306C81.3805 38.1111 81.225 38.5584 81.2444 39.0639C81.2555 39.3806 81.5333 39.7167 81.7277 39.8417ZM83.0388 46.3389C83.1066 46.3514 83.1761 46.3502 83.2434 46.3354C83.3106 46.3206 83.3743 46.2925 83.4305 46.2528C83.4722 46.225 87.1277 43.9473 90.1027 43.8834C90.4861 43.875 90.95 43.4556 90.95 42.9361C90.95 42.4195 90.4916 42.0056 90.1055 42.0111C85.7944 42.0778 82.5388 44.4861 82.3583 44.6139C82.0333 44.8417 82.0694 45.3223 82.2833 45.7917C82.4194 46.0889 82.8083 46.2972 83.0388 46.3389Z" fill="#FEE7B8"/>
<path d="M78.1833 21.8916C78.1833 21.8916 77.15 21.7833 75.7972 21.9833C75.1944 20.7055 74.1722 19.5194 74.1722 19.5194C74.1722 19.5194 73.3916 21.3749 73.1 22.7944C73.0305 23.1277 72.4944 23.1194 72.2055 23.3194C72.2055 23.3194 72.1 13.6999 74.6027 12.6638C74.6 12.6583 76.7 15.786 78.1833 21.8916ZM87.7805 25.9999C87.7805 25.9999 86.7139 25.2583 85.3277 24.4055C84.725 22.6722 83.75 20.7027 83.75 20.7027C83.75 20.7027 82.8972 22.3749 82.7916 22.9527C82.2083 22.636 82.2083 22.6583 81.6722 22.4249C81.6722 22.4249 81.9889 16.0749 84.725 15.4055C84.725 15.4055 86.7583 19.2166 87.7805 25.9999Z" fill="#F18F26"/>
<path d="M48.75 65.6779C56.1084 67.2612 55.3612 73.4057 55.3612 73.4057C55.3612 73.4057 50 74.8084 38.5889 72.8279C35.6712 72.3405 32.6749 72.7041 29.9584 73.8751C34.4223 65.4112 41.9445 64.2112 48.75 65.6779Z" fill="#FFDD99"/>
<path d="M59.2056 39.1916C57.8833 41.0694 52.5472 45.7694 51.5806 45.1888C50.6417 44.6249 49.9417 39.4805 50.6306 37.6721C54.3222 38.6694 57.2556 39.4999 59.2056 39.1916ZM39.6945 46.661C37.9639 47.0444 35.5083 38.386 35.7778 35.2083C39.8028 35.2555 43.5 35.9194 46.7917 36.6999C45.8611 39.6999 41.3667 46.2888 39.6945 46.661ZM32.3972 35.3221C32.2806 37.3305 29.6695 42.5527 28.8278 42.9249C27.975 43.3055 24.1472 39.261 23.6445 37.1999C26.4694 36.2011 29.4112 35.57 32.3972 35.3221Z" fill="#F18F26"/>
</g>
<defs>
<clipPath id="clip0_138_836">
<rect width="100" height="100" fill="white" transform="matrix(-1 0 0 1 100 0)"/>
</clipPath>
</defs>
</svg>
