<svg width="50" height="50" viewBox="0 0 50 50" fill="none" xmlns="http://www.w3.org/2000/svg">
<path d="M50 25C50 38.8071 38.8071 50 25 50C11.1929 50 0 38.8071 0 25C0 11.1929 11.1929 0 25 0C38.8071 0 50 11.1929 50 25Z" fill="#9A8470"/>
<path d="M14.9674 24.0452L28.1338 10.6922C29.0438 9.76926 30.5153 9.76926 31.4157 10.6922L33.6036 12.9111C34.5136 13.8341 34.5136 15.3265 33.6036 16.2396L24.271 25.7045L33.6036 35.1694C34.5136 36.0923 34.5136 37.5847 33.6036 38.4978L31.4254 40.7364C30.5153 41.6593 29.0438 41.6593 28.1435 40.7364L14.9771 27.3834C14.0574 26.4605 14.0574 24.9681 14.9674 24.0452Z" fill="white"/>
</svg>
