<svg width="40" height="40" viewBox="0 0 40 40" fill="none" xmlns="http://www.w3.org/2000/svg">
<path d="M20 0C31.0547 0 40 8.94531 40 20C40 31.0547 31.0547 40 20 40C8.94531 40 0 31.0547 0 20C0 8.94531 8.94531 0 20 0ZM20 37.5391C29.6484 37.5391 37.5 29.6484 37.5 20C37.5 10.3516 29.6484 2.5 20 2.5C10.3516 2.5 2.5 10.3516 2.5 20C2.5 29.6484 10.3516 37.5391 20 37.5391ZM18.6328 21.25H11.25C10.5469 21.25 10 20.7031 10 20C10 19.2969 10.5469 18.75 11.25 18.75H28.75C29.4531 18.75 30 19.2969 30 20C30 20.7031 29.4531 21.25 28.75 21.25H18.6328Z" fill="#30322A"/>
</svg>
