<svg width="44" height="50" viewBox="0 0 44 50" fill="none" xmlns="http://www.w3.org/2000/svg">
<path fill-rule="evenodd" clip-rule="evenodd" d="M8.90389 2.74022C8.90389 2.01347 8.61518 1.31648 8.10129 0.802592C7.5874 0.288701 6.89042 0 6.16367 0C5.43692 0 4.73993 0.288701 4.22604 0.802592C3.71215 1.31648 3.42345 2.01347 3.42345 2.74022V25.685H2.74022C2.01347 25.685 1.31648 25.9737 0.802592 26.4876C0.288701 27.0015 0 27.6985 0 28.4252C0 29.152 0.288701 29.8489 0.802592 30.3628C1.31648 30.8767 2.01347 31.1654 2.74022 31.1654H5.31237L16.7373 39.0207L8.03432 45.0017C7.43548 45.4135 7.02476 46.0464 6.89252 46.761C6.82704 47.1149 6.8319 47.4782 6.90682 47.8302C6.98174 48.1821 7.12526 48.5159 7.32917 48.8124C7.53309 49.109 7.79341 49.3624 8.09528 49.5583C8.39714 49.7542 8.73464 49.8888 9.0885 49.9542C9.80315 50.0865 10.5411 49.9294 11.1399 49.5176L21.5747 42.3455L32.0094 49.5176C32.3059 49.7215 32.6397 49.865 32.9917 49.9399C33.3437 50.0149 33.707 50.0197 34.0608 49.9542C34.4147 49.8888 34.7522 49.7542 35.054 49.5583C35.3559 49.3624 35.6162 49.109 35.8201 48.8124C36.0241 48.5159 36.1676 48.1821 36.2425 47.8302C36.3174 47.4782 36.3223 47.1149 36.2568 46.761C36.1913 46.4072 36.0568 46.0697 35.8609 45.7678C35.665 45.4659 35.4115 45.2056 35.115 45.0017L26.4121 39.0207L37.8369 31.1654H40.4091C41.1358 31.1654 41.8328 30.8767 42.3467 30.3628C42.8606 29.8489 43.1493 29.152 43.1493 28.4252C43.1493 27.6985 42.8606 27.0015 42.3467 26.4876C41.8328 25.9737 41.1358 25.685 40.4091 25.685H39.7259V2.74022C39.7259 2.01347 39.4372 1.31648 38.9233 0.802592C38.4094 0.288701 37.7124 0 36.9857 0C36.2589 0 35.5619 0.288701 35.048 0.802592C34.5341 1.31648 34.2454 2.01347 34.2454 2.74022H8.90389ZM28.1621 31.1654H14.9872L21.5747 35.6959L28.1621 31.1654ZM8.90389 18.2206V25.685H34.2454V18.2206H8.90389Z" fill="#3EB3C2"/>
</svg>
