<svg width="40" height="50" viewBox="0 0 40 50" fill="none" xmlns="http://www.w3.org/2000/svg">
<path fill-rule="evenodd" clip-rule="evenodd" d="M39.8554 34.1596C39.9658 34.4689 40.0141 34.7969 39.9977 35.1248C39.9813 35.4528 39.9004 35.7743 39.7598 36.071C39.6191 36.3677 39.4213 36.6337 39.1778 36.854C38.9343 37.0742 38.6497 37.2444 38.3404 37.3546L27.4329 41.2497L38.3404 45.1447C38.965 45.3674 39.4755 45.8292 39.7596 46.4284C40.0438 47.0276 40.0782 47.7151 39.8554 48.3397C39.6327 48.9643 39.1709 49.4748 38.5717 49.7589C37.9725 50.043 37.285 50.0775 36.6604 49.8547L20.0004 43.9047L3.34033 49.8547C2.71575 50.0775 2.02824 50.043 1.42906 49.7589C0.829882 49.4748 0.368109 48.9643 0.145326 48.3397C-0.0774561 47.7151 -0.0429976 47.0276 0.241121 46.4284C0.525239 45.8292 1.03574 45.3674 1.66033 45.1447L12.5679 41.2497L1.66033 37.3546C1.35107 37.2443 1.06656 37.0742 0.82305 36.8539C0.579541 36.6337 0.381801 36.3676 0.24112 36.0709C0.100438 35.7742 0.0195719 35.4527 0.00313553 35.1248C-0.0133009 34.7969 0.0350157 34.4689 0.145326 34.1596C0.255637 33.8504 0.425781 33.5659 0.646045 33.3223C0.866309 33.0788 1.13238 32.8811 1.42906 32.7404C1.72575 32.5997 2.04724 32.5189 2.37517 32.5024C2.70311 32.486 3.03107 32.5343 3.34033 32.6446L20.0004 38.5946L36.6604 32.6446C36.9697 32.5343 37.2977 32.4859 37.6256 32.5023C37.9536 32.5188 38.2751 32.5996 38.5718 32.7403C38.8685 32.881 39.1345 33.0787 39.3548 33.3223C39.575 33.5658 39.7452 33.8503 39.8554 34.1596ZM21.3804 0.264538C21.7941 0.0574088 22.2571 -0.0308586 22.718 0.00955933C23.1789 0.0499772 23.6196 0.217495 23.9909 0.493468C24.3622 0.769442 24.6497 1.14304 24.8213 1.5727C24.9929 2.00235 25.0419 2.47119 24.9629 2.92705L24.8604 3.37205C24.8529 3.41358 24.8462 3.45525 24.8404 3.49705L24.8079 3.83955C24.7954 4.04455 24.7979 4.28955 24.8279 4.56705C24.9279 5.44955 25.3229 6.78706 26.7679 8.23206L27.1554 8.60706L28.8554 10.1571L29.7129 10.9671C31.7429 12.9471 33.9829 15.6171 34.9254 19.3921C36.0604 23.9271 34.9404 27.9946 31.9704 30.8596C29.1029 33.6296 24.8029 34.9996 20.0004 34.9996C12.0779 34.9996 5.00034 29.8696 5.00034 21.2496C5.00034 14.5096 9.45535 9.18706 13.3554 5.77455C15.3554 4.02455 17.3479 2.65454 18.8304 1.72704C19.6604 1.20954 20.5054 0.702039 21.3804 0.264538ZM20.4104 22.1896L20.0004 21.5796L19.5904 22.1946C18.3604 24.0946 17.5004 26.0021 17.5004 27.2946C17.5004 28.8871 18.7154 30.0021 20.0004 30.0021C21.2854 30.0021 22.5004 28.8871 22.5004 27.2946C22.5004 26.0021 21.6404 24.0946 20.4104 22.1946M20.1979 6.80956C19.1104 7.54956 17.8754 8.46706 16.6479 9.54206C13.0479 12.6871 10.0004 16.7396 10.0004 21.2496C10.0004 23.6971 10.9154 25.7821 12.5004 27.2996C12.5004 24.6221 13.9054 21.8521 15.1154 19.9096L16.1779 18.2396L16.6504 17.5421C17.5604 16.2571 18.7104 14.9996 20.0004 14.9996C21.3329 14.9996 22.4604 16.2396 23.3554 17.5246L23.8204 18.2246L24.6079 19.4746C25.8729 21.4246 27.5004 24.4171 27.5004 27.2921C27.5004 27.5621 27.4879 27.8321 27.4604 28.0971C27.8454 27.8371 28.1929 27.5571 28.4979 27.2646C30.0604 25.7546 30.8179 23.5721 30.0729 20.6046C29.4804 18.2296 28.2654 16.6246 26.7854 15.1296L25.9529 14.3246L25.0804 13.5171C24.4779 12.9621 23.8554 12.3921 23.2304 11.7671C21.5604 10.0946 20.6529 8.36706 20.1979 6.80456" fill="#3EB3C2"/>
</svg>
