<svg width="50" height="50" viewBox="0 0 50 50" fill="none" xmlns="http://www.w3.org/2000/svg">
<path d="M14.3474 0C10.4 0.537436 6.97056 2.9277 4.41803 5.98315C2.04272 8.81419 0.4868 12.2091 0 14.9136C8.08686 18.0783 16.0391 19.5859 24.5437 15.489C23.8187 10.1722 21.6321 3.31093 14.3474 0ZM36.6274 6.12125C30.8963 8.23877 29.147 12.4163 28.5141 15.7882C35.2694 18.343 41.645 17.4109 48.0896 15.3854C47.6293 13.7743 46.4439 11.7603 44.6717 10.0456C42.6347 8.06615 39.8497 6.48952 36.6274 6.12125ZM38.3997 19.3788C37.7897 19.4018 37.1683 19.4133 36.5468 19.4018L33.1059 35.9967C33.6352 36.5031 34.0956 36.9749 34.4984 37.4813C34.9587 38.0567 35.3269 38.6782 35.6492 39.3917C36.1786 38.3444 36.8115 37.2626 37.5365 36.1578L38.3997 19.3788ZM11.781 19.9657C11.2516 23.6368 11.033 27.2965 11.2056 30.9561C13.6914 33.0046 15.3371 34.8459 16.5685 37.5503C16.8332 36.8944 17.1209 36.2384 17.4086 35.5939C16.0736 30.5763 15.0494 25.4436 14.7732 20.0232C13.772 20.0578 12.7707 20.0348 11.781 19.9657ZM46.6396 27.9064C45.2126 29.5176 43.774 31.2093 42.4391 32.924C39.6541 36.4571 37.3294 40.0592 36.5123 42.6945L35.396 46.2851L34.5099 42.6255C34.038 40.6576 33.6237 39.7024 32.8872 38.7702C32.4038 38.1718 31.6673 37.4928 30.7582 36.6872C30.7582 37.8496 30.7006 38.9313 30.4244 39.9556C29.9641 41.6013 28.8938 43.0628 26.9029 44.5704L26.0743 45.1918L25.4529 44.3632C22.7714 40.7727 22.5413 35.1221 23.1282 29.8973C20.5043 33.5455 18.9046 36.8829 17.5697 40.7842L16.557 43.7648L15.6018 40.7612C14.1978 36.2959 12.5521 34.5352 8.70831 31.6006C8.973 33.1657 9.2492 34.7423 9.32976 36.3535C9.45635 38.8278 9.08808 41.4056 7.49994 43.9835L6.00732 46.3887L5.58957 43.5922C4.77248 38.1258 3.11989 35.6975 0.329137 33.2808C2.13594 38.517 1.96561 43.8224 0.383226 49.2773H50C48.8146 46.078 48.0896 42.5219 49.1024 38.2639C46.9618 39.1385 44.7522 40.9568 44.1883 44.1561L43.5669 47.6431L42.2089 44.3748C40.8279 41.0604 42.37 36.9174 44.2344 32.8435C44.9939 31.1517 45.8455 29.4946 46.6396 27.9064Z" fill="#3EB3C2"/>
</svg>
