<svg width="46" height="50" viewBox="0 0 46 50" fill="none" xmlns="http://www.w3.org/2000/svg">
<path d="M37.4509 7.35102L31.4321 11.9662L33.597 19.2459L27.3403 14.9399L21.0836 19.2459L23.2485 11.9662L17.2297 7.35102L24.8186 7.13691L27.3403 0L29.862 7.13691L37.4509 7.35102ZM45.7773 23.7897L41.8758 26.7634L43.2794 31.4738L39.2352 28.6904L35.1909 31.4738L36.5945 26.7634L32.693 23.7897L37.5937 23.6708L39.2352 19.0318L40.8766 23.6708L45.7773 23.7897ZM40.3533 35.5656C42.3278 35.3753 44.4451 38.1825 43.1842 39.9667C42.423 41.0372 41.6141 42.0364 40.615 42.988C31.3132 52.3373 16.2543 52.3373 6.97633 42.988C-2.32544 33.71 -2.32544 18.6273 6.97633 9.34935C7.92792 8.39776 8.92708 7.54133 9.99762 6.78006C11.7818 5.51921 14.589 7.63649 14.3987 9.61104C13.7564 16.4149 16.0402 23.4804 21.2739 28.6904C23.7471 31.1769 26.7415 33.0835 30.0409 34.2724C33.3403 35.4613 36.8625 35.903 40.3533 35.5656ZM36.4518 40.3711C29.4679 39.9696 22.8702 37.0345 17.8958 32.1161C12.7334 26.9061 9.97383 20.2212 9.59319 13.5125C2.90829 20.9825 3.16998 32.4491 10.3307 39.6336C17.5152 46.7943 28.9818 47.056 36.4518 40.3711Z" fill="#3EB3C2"/>
</svg>
