<svg width="28" height="29" viewBox="0 0 28 29" fill="none" xmlns="http://www.w3.org/2000/svg">
<path d="M0.128705 14.6777C0.128523 14.4223 0.178707 14.1693 0.276385 13.9332C0.374064 13.6972 0.517321 13.4827 0.697963 13.302C0.878605 13.1214 1.09309 12.9781 1.32914 12.8805C1.5652 12.7828 1.81819 12.7326 2.07366 12.7328L12.0535 12.7309L12.0553 2.75112C12.0553 2.4957 12.1056 2.24279 12.2034 2.00681C12.3011 1.77084 12.4444 1.55643 12.625 1.37582C12.8056 1.19522 13.02 1.05195 13.256 0.954211C13.4919 0.856468 13.7449 0.80616 14.0003 0.806161C14.2557 0.80616 14.5086 0.856467 14.7446 0.954211C14.9806 1.05195 15.195 1.19522 15.3756 1.37582C15.5562 1.55643 15.6994 1.77084 15.7972 2.00681C15.8949 2.24279 15.9452 2.4957 15.9452 2.75112L15.9471 12.7309L25.9269 12.7328C26.4427 12.7328 26.9374 12.9377 27.3022 13.3024C27.6669 13.6672 27.8719 14.1619 27.8719 14.6777C27.8719 15.1936 27.6669 15.6883 27.3022 16.053C26.9374 16.4178 26.4427 16.6227 25.9269 16.6227L15.9471 16.6245L15.9452 26.6044C15.9452 27.1202 15.7403 27.6149 15.3756 27.9796C15.0108 28.3444 14.5161 28.5493 14.0003 28.5493C13.4844 28.5493 12.9897 28.3444 12.625 27.9796C12.2602 27.6149 12.0553 27.1202 12.0553 26.6044L12.0535 16.6245L2.07366 16.6227C1.81819 16.6229 1.5652 16.5727 1.32914 16.475C1.09309 16.3773 0.878605 16.2341 0.697963 16.0534C0.517321 15.8728 0.374064 15.6583 0.276385 15.4223C0.178707 15.1862 0.128523 14.9332 0.128705 14.6777Z" fill="#30322A"/>
</svg>
