<svg width="63" height="50" viewBox="0 0 63 50" fill="none" xmlns="http://www.w3.org/2000/svg">
<path d="M32.7642 0.395469L60.8864 16.0189C62.3902 16.8587 62.937 18.7628 62.0973 20.2666C61.2575 21.7703 59.3534 22.3172 57.8496 21.4774L31.2507 6.70345L4.64193 21.4872C3.13817 22.3269 1.23406 21.7801 0.3943 20.2763C-0.445462 18.7726 0.101359 16.8685 1.60512 16.0287L29.7371 0.395469C30.6843 -0.131823 31.8268 -0.131823 32.7739 0.395469H32.7642ZM31.2507 15.6284C32.2866 15.6284 33.28 16.0399 34.0125 16.7724C34.745 17.5049 35.1565 18.4983 35.1565 19.5342C35.1565 20.5701 34.745 21.5636 34.0125 22.2961C33.28 23.0286 32.2866 23.4401 31.2507 23.4401C30.2148 23.4401 29.2213 23.0286 28.4888 22.2961C27.7563 21.5636 27.3448 20.5701 27.3448 19.5342C27.3448 18.4983 27.7563 17.5049 28.4888 16.7724C29.2213 16.0399 30.2148 15.6284 31.2507 15.6284ZM14.0648 25.0024C15.1007 25.0024 16.0942 25.4139 16.8267 26.1464C17.5592 26.8789 17.9707 27.8724 17.9707 28.9083C17.9707 29.9442 17.5592 30.9377 16.8267 31.6702C16.0942 32.4027 15.1007 32.8142 14.0648 32.8142C13.0289 32.8142 12.0355 32.4027 11.303 31.6702C10.5705 30.9377 10.159 29.9442 10.159 28.9083C10.159 27.8724 10.5705 26.8789 11.303 26.1464C12.0355 25.4139 13.0289 25.0024 14.0648 25.0024ZM44.5306 28.9083C44.5306 27.8724 44.9421 26.8789 45.6746 26.1464C46.4071 25.4139 47.4006 25.0024 48.4365 25.0024C49.4724 25.0024 50.4659 25.4139 51.1984 26.1464C51.9308 26.8789 52.3424 27.8724 52.3424 28.9083C52.3424 29.9442 51.9308 30.9377 51.1984 31.6702C50.4659 32.4027 49.4724 32.8142 48.4365 32.8142C47.4006 32.8142 46.4071 32.4027 45.6746 31.6702C44.9421 30.9377 44.5306 29.9442 44.5306 28.9083ZM22.1598 47.9885L19.5331 43.1159V46.8753C19.5331 48.6036 18.1367 50 16.4084 50H11.7213C9.99297 50 8.59662 48.6036 8.59662 46.8753V43.1159L5.96993 47.9885C5.35475 49.1309 3.93888 49.5508 2.79641 48.9454C1.65394 48.34 1.23406 46.9144 1.83947 45.7719L5.54028 38.9073C7.03428 36.1244 9.94415 34.3863 13.1079 34.3863H15.012C16.6037 34.3863 18.1269 34.8257 19.4452 35.6166L22.7261 29.5332C24.2201 26.7503 27.13 25.0122 30.2937 25.0122H32.1978C35.3616 25.0122 38.2617 26.7503 39.7655 29.5332L43.0464 35.6166C44.3646 34.8257 45.8879 34.3863 47.4795 34.3863H49.3837C52.5474 34.3863 55.4475 36.1244 56.9513 38.9073L60.6521 45.7719C61.2673 46.9144 60.8376 48.3302 59.6951 48.9454C58.5527 49.5606 57.1368 49.1309 56.5216 47.9885L53.9047 43.1159V46.8753C53.9047 48.6036 52.5084 50 50.78 50H46.093C44.3646 50 42.9683 48.6036 42.9683 46.8753V43.1159L40.3416 47.9885C39.7264 49.1309 38.3105 49.5508 37.1681 48.9454C36.0256 48.34 35.6057 46.9144 36.2111 45.7719L39.7557 39.1807C39.5897 39.0147 39.4432 38.8292 39.3358 38.6144L36.7189 33.7418V39.0636C36.7189 40.7919 35.3225 42.1883 33.5942 42.1883H28.9071C27.1788 42.1883 25.7824 40.7919 25.7824 39.0636V33.7418L23.1557 38.6144C23.0386 38.8292 22.9019 39.0147 22.7359 39.1807L26.2804 45.7719C26.8956 46.9144 26.466 48.3302 25.3235 48.9454C24.181 49.5606 22.7652 49.1309 22.15 47.9885H22.1598Z" fill="#3EB3C2"/>
</svg>
