<svg width="50" height="47" viewBox="0 0 50 47" fill="none" xmlns="http://www.w3.org/2000/svg">
<path d="M25.9824 18.7517L40.625 23.9809V45.3126C40.625 45.727 40.4604 46.1244 40.1674 46.4174C39.8743 46.7104 39.4769 46.875 39.0625 46.875H32.8125C32.3981 46.875 32.0007 46.7104 31.7076 46.4174C31.4146 46.1244 31.25 45.727 31.25 45.3126V34.3757H15.625V45.3126C15.625 45.727 15.4604 46.1244 15.1674 46.4174C14.8743 46.7104 14.4769 46.875 14.0625 46.875H7.8125C7.3981 46.875 7.00067 46.7104 6.70765 46.4174C6.41462 46.1244 6.25 45.727 6.25 45.3126V24.4242C2.62109 23.1303 0 19.695 0 15.6269C0 14.7981 0.32924 14.0033 0.915291 13.4173C1.50134 12.8313 2.2962 12.502 3.125 12.502C3.9538 12.502 4.74866 12.8313 5.33471 13.4173C5.92076 14.0033 6.25 14.7981 6.25 15.6269C6.25155 16.4551 6.58129 17.249 7.167 17.8347C7.75272 18.4204 8.54667 18.7501 9.375 18.7517H25.9824ZM50 7.81483V10.9396C50 12.5971 49.3415 14.1868 48.1694 15.3588C46.9973 16.5308 45.4076 17.1893 43.75 17.1893H40.625V20.6637L28.125 16.2001V1.5652C28.125 0.173679 29.8066 -0.523545 30.792 0.460771L33.4561 3.1276H38.6934C39.7588 3.1276 41.0127 3.901 41.4883 4.85504L42.1875 6.25242H48.4375C48.8519 6.25242 49.2493 6.41703 49.5424 6.71004C49.8354 7.00305 50 7.40045 50 7.81483ZM39.0625 7.81483C39.0625 7.50581 38.9709 7.20374 38.7992 6.9468C38.6275 6.68986 38.3834 6.4896 38.0979 6.37135C37.8124 6.25309 37.4983 6.22215 37.1952 6.28244C36.8921 6.34273 36.6137 6.49153 36.3951 6.71004C36.1766 6.92854 36.0278 7.20694 35.9675 7.51002C35.9072 7.81309 35.9382 8.12724 36.0564 8.41273C36.1747 8.69823 36.375 8.94224 36.6319 9.11392C36.8889 9.2856 37.191 9.37723 37.5 9.37723C37.9144 9.37723 38.3118 9.21262 38.6049 8.91961C38.8979 8.62661 39.0625 8.2292 39.0625 7.81483Z" fill="#BAE6EC"/>
</svg>
