<svg width="502" height="309" viewBox="0 0 502 309" fill="none" xmlns="http://www.w3.org/2000/svg">
<path d="M353.954 302.848C398.511 296.403 362.09 231.166 338.309 199.353L309.522 182L292 235.917C336.557 247.32 341.438 267.936 338.309 276.819C298.258 300.121 332.051 303.881 353.954 302.848Z" fill="#898888"/>
<path d="M15.9751 277.726C59.2019 236.192 55.9309 184.603 48.8921 164C56.3447 179.823 93.4026 205.617 111 216.537C93.6099 218.515 67.7315 264.747 56.966 287.616C1.31767 310.361 6.4519 290.5 15.9751 277.726Z" fill="#898888"/>
<path d="M108.609 277.923C121.045 273.454 113.79 233.446 108.609 214L154 223.93C153.585 236.135 151.886 264.021 148.404 277.923C144.051 295.3 126.641 299.023 108.609 297.782C90.5765 296.541 93.0637 283.508 108.609 277.923Z" fill="#898888"/>
<path d="M253.456 254.879L215 223.804C286.453 213.86 310.105 196.458 313 189L304.937 215.103C292.532 223.058 299.768 244.935 304.937 254.879C302.952 267.309 269.789 296.105 253.456 308.949C213.263 309.944 217.688 296.105 224.924 289.061C248.742 289.061 253.869 266.273 253.456 254.879Z" fill="#898888"/>
<path d="M483.142 123C415.185 200.527 359.704 160.727 339.242 130.702L307 184.747C315.433 204.129 372.361 202.308 397.576 205C425.85 205 459.373 183.465 472.601 172.697C520.22 138.407 499.47 125.278 483.142 123Z" fill="#898888"/>
<path d="M10.5991 51.2587C13.2882 16.3006 26.6095 -35.7436 58.3821 35.7448C70.1727 36.1584 95.2433 39.8402 101.201 51.2587C133.263 26.4365 184.107 -0.991922 130.987 87.8721C249.142 65.0355 319.637 108.299 340.116 132.785L312.811 177.853C313.804 213.908 246.205 223.904 212.281 224.395C86.3073 237.427 58.3821 177.853 45.971 167.304C36.0422 158.864 36.8695 140.775 38.5243 132.785C11.507 119.127 -15.4897 91.9728 10.5991 51.2587Z" fill="#898888"/>
<path d="M22.3895 44.4331C32.3184 43.4402 44.3159 41.9509 49.0735 41.3303C53.5415 34.3801 40.1788 14.8532 32.939 5.9585C25.2854 19.1971 12.4605 45.426 22.3895 44.4331Z" fill="#D9D9D9"/>
<path d="M127.885 80.4257C127.885 76.4542 117.128 63.4638 111.75 57.4651C119.817 49.6047 137.193 34.5044 142.157 36.9866C148.363 40.0894 127.885 85.3902 127.885 80.4257Z" fill="#D9D9D9"/>
<ellipse cx="53.2738" cy="72.2113" rx="3.72335" ry="4.96447" transform="rotate(24.388 53.2738 72.2113)" fill="#404040"/>
<ellipse cx="99.1948" cy="85.864" rx="3.72335" ry="4.96447" transform="rotate(15.6263 99.1948 85.864)" fill="#404040"/>
<path d="M70.7935 99.0422C65.4153 93.8709 58.3823 85.2658 73.2757 92.2161C79.895 92.6299 88.6655 94.5744 70.7935 99.0422Z" fill="#F4C7B5"/>
</svg>
