<svg width="80" height="80" viewBox="0 0 80 80" fill="none" xmlns="http://www.w3.org/2000/svg">
<g clip-path="url(#clip0_1241_27128)">
<path d="M56.7157 49.8633C56.7157 49.8633 55.1557 54.9322 57.4646 67.6255C57.8779 69.9033 58.4868 72.2299 58.7957 74.1366C62.7001 74.1366 62.909 78.5855 62.0801 78.5855H57.4268C54.4557 78.5855 50.8246 71.1766 48.8623 60.8944C46.9001 50.6122 56.7157 49.8633 56.7157 49.8633ZM27.7335 58.09C27.7335 58.09 22.6846 60.8011 22.8712 67.1588C22.9446 69.6722 23.4246 71.8055 23.6601 73.8788C27.7312 73.8788 27.7468 78.2899 26.5601 78.2899H22.4357C20.3846 78.2899 15.7668 71.2722 14.9268 62.11C14.0846 52.95 27.7335 58.09 27.7335 58.09Z" fill="#292F33"/>
<path d="M-0.000312805 18.7715C-0.000312805 7.83377 9.20191 2.22266 19.9997 2.22266C20.5891 2.22266 21.1543 2.45678 21.571 2.87353C21.9878 3.29028 22.2219 3.85551 22.2219 4.44488C22.2219 5.03425 21.9878 5.59948 21.571 6.01623C21.1543 6.43297 20.5891 6.6671 19.9997 6.6671C15.9908 6.6671 5.07303 8.74266 5.07303 18.7715C5.07303 25.1738 8.55524 30.9093 13.4508 32.0649C13.8152 31.9027 14.2175 31.8338 14.5819 31.6382C30.6686 22.9338 44.4864 33.6427 48.4175 30.9938C52.3108 28.3671 49.6152 23.7604 54.693 19.3427C55.4264 15.2515 57.0775 9.39377 58.6797 9.39377C59.8997 9.39377 61.4908 13.4493 62.5464 17.5182C63.8597 14.4493 65.5752 11.3938 66.6797 11.3938C68.1019 11.3938 69.5197 16.4449 70.2219 20.8049C73.9552 23.3538 76.6797 27.0471 76.6797 31.3938C76.6797 37.3938 67.6797 38.8538 64.6797 38.9738C61.6797 39.0938 57.9619 46.8893 56.713 50.2449C53.953 59.9493 52.1552 69.576 50.7175 75.096C54.3819 75.096 54.7264 79.7871 53.713 79.7871C52.1286 79.7871 49.373 79.7804 48.7686 79.7871C45.6997 79.8182 44.2664 69.3293 44.2664 60.1227C44.2664 59.6516 44.2908 58.7293 44.2908 58.7293C44.2908 58.7293 40.0019 59.8515 30.873 58.2671C25.4419 57.3249 19.6952 60.1538 18.1041 65.296C16.933 69.0827 14.9952 72.6404 13.953 75.2604C17.4841 75.2604 17.3864 79.7871 16.3619 79.7871C14.613 79.7871 12.3597 79.8182 11.5108 79.7871C8.24858 79.6649 10.0819 62.956 9.22191 57.3493C8.36192 51.7427 6.40636 44.9538 9.7308 37.8004C2.53969 33.8582 -0.000312805 25.5671 -0.000312805 18.7715Z" fill="#292F33"/>
<path d="M66.6797 28.1523C65.5751 28.1523 64.6797 27.2569 64.6797 26.1523C64.6797 25.0478 65.5751 24.1523 66.6797 24.1523C67.7843 24.1523 68.6797 25.0478 68.6797 26.1523C68.6797 27.2569 67.7843 28.1523 66.6797 28.1523Z" fill="#C3C914"/>
<path d="M73.3697 28.5759C74.8742 29.5159 74.8742 32.5248 75.6253 32.5248C76.3764 32.5248 77.8809 30.7559 77.8809 28.5759C77.8831 26.3959 71.5209 27.4204 73.3697 28.5759ZM65.3831 31.8715C65.4742 31.9293 65.5831 31.9515 65.6986 31.9293C65.7386 31.9204 69.1386 31.3937 71.3542 32.2537C71.6409 32.3648 72.112 32.2026 72.272 31.8293C72.432 31.4559 72.2209 31.0182 71.9342 30.9071C68.7342 29.6426 65.5853 30.3871 65.4142 30.4226C65.1053 30.4871 64.9809 30.8448 64.9964 31.2493C65.0053 31.5026 65.2275 31.7715 65.3831 31.8715ZM66.432 37.0693C66.4862 37.0793 66.5418 37.0783 66.5956 37.0665C66.6494 37.0546 66.7003 37.0322 66.7453 37.0004C66.7786 36.9782 69.7031 35.1559 72.0831 35.1048C72.3897 35.0982 72.7609 34.7626 72.7609 34.3471C72.7609 33.9337 72.3942 33.6026 72.0853 33.6071C68.6364 33.6604 66.032 35.5871 65.8875 35.6893C65.6275 35.8715 65.6564 36.2559 65.8275 36.6315C65.9364 36.8693 66.2475 37.0359 66.432 37.0693Z" fill="#66757F"/>
<path d="M62.5468 17.515C62.5468 17.515 61.7202 17.4284 60.6379 17.5884C60.1557 16.5662 59.3379 15.6173 59.3379 15.6173C59.3379 15.6173 58.7135 17.1017 58.4802 18.2373C58.4246 18.5039 57.9957 18.4973 57.7646 18.6573C57.7646 18.6573 57.6802 10.9617 59.6824 10.1328C59.6802 10.1284 61.3602 12.6306 62.5468 17.515ZM70.2246 20.8017C70.2246 20.8017 69.3713 20.2084 68.2624 19.5262C67.7802 18.1395 67.0002 16.5639 67.0002 16.5639C67.0002 16.5639 66.3179 17.9017 66.2335 18.3639C65.7668 18.1106 65.7668 18.1284 65.3379 17.9417C65.3379 17.9417 65.5913 12.8617 67.7802 12.3262C67.7802 12.3262 69.4068 15.375 70.2246 20.8017Z" fill="#7F676D"/>
<path d="M39.0007 52.5435C44.8874 53.8101 44.2896 58.7257 44.2896 58.7257C44.2896 58.7257 40.0007 59.8479 30.8718 58.2635C28.5377 57.8736 26.1406 58.1644 23.9674 59.1013C27.5385 52.3301 33.5563 51.3701 39.0007 52.5435Z" fill="#66757F"/>
<path d="M66.7196 24.4062C66.7196 24.4062 65.9796 25.1774 66.0107 26.1351C66.0418 27.0907 66.5663 27.9863 66.5663 27.9863C66.5663 27.9863 67.2152 27.2151 67.2752 26.1507C67.3352 25.084 66.7196 24.4062 66.7196 24.4062Z" fill="#292F33"/>
</g>
<defs>
<clipPath id="clip0_1241_27128">
<rect width="80" height="80" fill="white" transform="matrix(-1 0 0 1 80 0)"/>
</clipPath>
</defs>
</svg>
