<svg width="368" height="227" viewBox="0 0 368 227" fill="none" xmlns="http://www.w3.org/2000/svg">
<path d="M330.402 51.2587C327.713 16.3006 314.391 -35.7436 282.619 35.7448C270.828 36.1584 245.758 39.8402 239.8 51.2587C207.738 26.4365 156.894 -0.991922 210.014 87.8721C91.8593 65.0355 21.3637 108.299 0.885193 132.785L28.1898 177.853C27.1969 213.908 94.7964 223.904 128.72 224.395C254.694 237.427 282.619 177.853 295.03 167.304C304.959 158.864 304.131 140.775 302.477 132.785C329.494 119.127 356.491 91.9728 330.402 51.2587Z" fill="#898888"/>
<path d="M211.501 91.5C212.501 113.167 231.701 151.9 300.501 133.5" stroke="#7B7B7B"/>
<path d="M318.611 44.4326C308.682 43.4397 296.684 41.9504 291.927 41.3298C287.458 34.3796 300.821 14.8527 308.061 5.95801C315.715 19.1966 328.539 45.4255 318.611 44.4326Z" fill="#D9D9D9"/>
<path d="M213.116 80.4252C213.116 76.4537 223.873 63.4633 229.251 57.4646C221.184 49.6042 203.808 34.5039 198.844 36.9861C192.638 40.0889 213.116 85.3897 213.116 80.4252Z" fill="#D9D9D9"/>
<ellipse cx="3.72335" cy="4.96447" rx="3.72335" ry="4.96447" transform="matrix(-0.977817 0.20946 0.20946 0.977817 301.328 63.5771)" fill="#404040"/>
<ellipse cx="3.72335" cy="4.96447" rx="3.72335" ry="4.96447" transform="matrix(-0.916755 0.39945 0.39945 0.916755 254.236 76.8252)" fill="#404040"/>
<path d="M291.571 98.428C296.949 93.2566 303.982 84.6516 289.089 91.6018C282.469 92.0156 273.699 93.9601 291.571 98.428Z" fill="#F4C7B5"/>
<path d="M252.001 103C240.668 105.833 215.401 111.4 205.001 111" stroke="#7B7B7B"/>
<path d="M320 84.8271C331.026 80.9665 355.194 71.733 363.664 65.6839" stroke="#7B7B7B"/>
<path d="M256.001 111C244.668 113.833 219.401 119.4 209.001 119" stroke="#7B7B7B"/>
<path d="M320.001 94.1524C331.55 92.3887 357.006 87.7649 366.444 83.3792" stroke="#7B7B7B"/>
<path d="M262.167 113C252.879 120.086 231.876 135.193 222.166 138.94" stroke="#7B7B7B"/>
<path d="M320.001 103.187C331.654 104.003 357.504 105.083 367.676 102.878" stroke="#7B7B7B"/>
</svg>
