<svg width="768" height="202" viewBox="0 0 768 202" fill="none" xmlns="http://www.w3.org/2000/svg">
<path d="M0.792969 17.793C164.189 98.1263 544.817 205.593 768.793 12.793" stroke="black" stroke-width="3"/>
<path d="M36.2301 111.508L104.837 58.6578L24.7639 25.6677L36.2301 111.508Z" fill="#3EB3C2"/>
<path d="M126.465 143.32L190.558 85.0781L108.073 58.6926L126.465 143.32Z" fill="#BAE6EC"/>
<path d="M222.12 168.766L280.647 104.933L196.103 86.1641L222.12 168.766Z" fill="#D5FAFF"/>
<path d="M323.419 186.148L375.554 116.996L289.599 106.422L323.419 186.148Z" fill="#347781"/>
<path d="M424.715 192.791L469.637 118.751L383.055 116.867L424.715 192.791Z" fill="#CED38C"/>
<path d="M527.844 187.01L562.587 107.682L476.515 117.258L527.844 187.01Z" fill="#8F9546"/>
<path d="M636.584 163.76L654.687 79.0704L572.292 105.738L636.584 163.76Z" fill="#C0A790"/>
<path d="M735.09 122.47L736.461 35.878L660.785 77.9868L735.09 122.47Z" fill="#FEF7D2"/>
<path d="M68.4036 60.093L60.8274 82.098L58.2487 81.2102L52.2062 59.8044L51.9913 59.7304L46.0428 77.0078L43.3781 76.0903L50.9543 54.0853L53.533 54.9732L59.6037 76.4367L59.8186 76.5107L65.7819 59.1904L68.4036 60.093Z" fill="#D5FAFF"/>
<path d="M151.983 102.011C151.499 104.417 150.646 106.409 149.424 107.987C148.202 109.564 146.738 110.676 145.032 111.322C143.325 111.967 141.499 112.094 139.553 111.703C137.608 111.311 135.973 110.487 134.649 109.232C133.326 107.976 132.406 106.384 131.89 104.457C131.373 102.529 131.358 100.362 131.842 97.9558C132.326 95.5496 133.18 93.5575 134.401 91.9798C135.623 90.402 137.087 89.2903 138.794 88.6447C140.5 87.999 142.326 87.8721 144.272 88.2638C146.218 88.6555 147.853 89.4792 149.176 90.7348C150.5 91.9905 151.42 93.5821 151.936 95.5098C152.452 97.4374 152.468 99.6044 151.983 102.011ZM149.31 101.472C149.707 99.4969 149.713 97.763 149.325 96.2709C148.945 94.7802 148.265 93.5729 147.284 92.649C146.311 91.7267 145.133 91.1264 143.752 90.8483C142.37 90.5702 141.049 90.6674 139.787 91.1397C138.532 91.6136 137.438 92.4635 136.503 93.6895C135.576 94.9171 134.913 96.5186 134.516 98.4941C134.118 100.47 134.109 102.203 134.489 103.693C134.876 105.186 135.557 106.393 136.53 107.315C137.511 108.239 138.692 108.84 140.074 109.118C141.455 109.396 142.773 109.298 144.028 108.825C145.29 108.352 146.384 107.502 147.311 106.275C148.246 105.049 148.912 103.448 149.31 101.472Z" fill="#347781"/>
<path d="M224.638 133.799L227.768 110.738L235.56 111.796C237.362 112.04 238.799 112.549 239.871 113.321C240.945 114.086 241.687 115.039 242.098 116.181C242.509 117.322 242.622 118.572 242.437 119.931C242.253 121.29 241.812 122.457 241.113 123.433C240.415 124.408 239.451 125.118 238.221 125.563C236.992 126 235.484 126.097 233.698 125.855L227.392 124.999L227.734 122.477L233.95 123.32C235.181 123.487 236.196 123.442 236.996 123.183C237.803 122.926 238.42 122.49 238.848 121.875C239.284 121.254 239.565 120.482 239.69 119.558C239.815 118.635 239.752 117.804 239.5 117.067C239.249 116.329 238.769 115.721 238.062 115.243C237.356 114.757 236.38 114.43 235.134 114.261L230.224 113.595L227.43 134.179L224.638 133.799ZM236.899 124.913L241.168 136.043L237.925 135.603L233.746 124.485L236.899 124.913Z" fill="#347781"/>
<path d="M322.221 152.67L319.274 152.455L329.492 129.866L332.393 130.078L339.221 153.911L336.275 153.696L330.765 133.65L330.584 133.637L322.221 152.67ZM323.971 143.682L335.849 144.549L335.666 147.043L323.789 146.176L323.971 143.682Z" fill="#D5FAFF"/>
<path d="M433.523 140.858L430.704 140.849C430.54 140.038 430.251 139.325 429.836 138.71C429.429 138.095 428.93 137.579 428.341 137.16C427.759 136.734 427.112 136.414 426.4 136.2C425.689 135.986 424.947 135.877 424.174 135.875C422.765 135.871 421.487 136.223 420.341 136.932C419.203 137.64 418.294 138.687 417.616 140.071C416.945 141.456 416.607 143.155 416.6 145.17C416.594 147.186 416.923 148.887 417.585 150.276C418.255 151.664 419.157 152.716 420.291 153.432C421.433 154.147 422.709 154.507 424.118 154.511C424.891 154.514 425.633 154.41 426.346 154.2C427.059 153.99 427.707 153.677 428.292 153.263C428.884 152.84 429.386 152.323 429.797 151.71C430.215 151.09 430.509 150.379 430.678 149.577L433.496 149.585C433.281 150.774 432.891 151.837 432.328 152.775C431.764 153.712 431.065 154.51 430.229 155.166C429.394 155.815 428.457 156.309 427.418 156.646C426.387 156.984 425.284 157.151 424.11 157.148C422.125 157.142 420.361 156.652 418.819 155.677C417.276 154.703 416.065 153.32 415.184 151.53C414.303 149.739 413.866 147.617 413.873 145.162C413.881 142.708 414.33 140.588 415.222 138.803C416.114 137.017 417.334 135.642 418.882 134.677C420.431 133.712 422.197 133.233 424.182 133.239C425.356 133.242 426.458 133.416 427.487 133.76C428.524 134.104 429.458 134.607 430.29 135.269C431.121 135.923 431.815 136.72 432.373 137.661C432.931 138.595 433.314 139.66 433.523 140.858Z" fill="#FEF7D2"/>
<path d="M517.624 153.712L514.672 153.846L522.153 130.21L525.059 130.078L534.651 152.939L531.7 153.073L523.864 133.818L523.682 133.826L517.624 153.712ZM518.301 144.581L530.198 144.041L530.311 146.538L518.414 147.079L518.301 144.581Z" fill="#FEF7D2"/>
<path d="M609.431 111.553L612.661 110.617L625.631 126.973L625.893 126.897L628.117 106.142L631.348 105.206L637.821 127.56L635.289 128.294L630.371 111.31L630.153 111.373L628.085 130.38L625.64 131.088L613.736 116.126L613.518 116.19L618.436 133.174L615.903 133.907L609.431 111.553Z" fill="#FEF7D2"/>
<path d="M716.376 99.9137L706.211 78.978L713.285 75.5436C714.928 74.7462 716.414 74.3908 717.745 74.4775C719.079 74.554 720.241 74.9708 721.232 75.7277C722.222 76.4847 723.017 77.4799 723.616 78.7134C724.215 79.947 724.507 81.1905 724.493 82.4439C724.485 83.6941 724.105 84.8721 723.354 85.9781C722.599 87.0772 721.407 88.0222 719.778 88.813L714.708 91.2747L713.616 89.0257L718.604 86.6037C719.729 86.0578 720.538 85.4252 721.03 84.7058C721.523 83.9865 721.763 83.2219 721.748 82.4119C721.738 81.5918 721.529 80.7627 721.122 79.9244C720.715 79.0862 720.194 78.4126 719.56 77.9038C718.932 77.3916 718.183 77.1152 717.313 77.0746C716.439 77.0271 715.433 77.2797 714.295 77.8322L709.838 79.9961L718.911 98.6829L716.376 99.9137Z" fill="#9A8470"/>
</svg>
