<svg width="789" height="199" viewBox="0 0 789 199" fill="none" xmlns="http://www.w3.org/2000/svg">
<path d="M10.7925 14.7921C174.188 95.1255 554.816 202.592 778.792 9.79213" stroke="black" stroke-width="3"/>
<path d="M35.3742 26.459L46.611 110.582L113.846 58.7893L35.3742 26.459Z" stroke="black"/>
<path d="M118.745 59.4333L136.769 142.368L199.58 85.2911L118.745 59.4333Z" stroke="black"/>
<path d="M206.839 86.841L232.336 167.791L289.692 105.235L206.839 86.841Z" stroke="black"/>
<path d="M300.397 107.025L333.54 185.157L384.633 117.388L300.397 107.025Z" stroke="black"/>
<path d="M393.911 117.385L434.737 191.791L478.762 119.232L393.911 117.385Z" stroke="black"/>
<path d="M487.432 117.658L537.734 186.015L571.782 108.273L487.432 117.658Z" stroke="black"/>
<path d="M583.271 105.946L646.277 162.808L664.017 79.812L583.271 105.946Z" stroke="black"/>
<path d="M671.784 78.0008L744.603 121.594L745.946 36.7342L671.784 78.0008Z" stroke="black"/>
<path d="M78.4031 57.0912L70.8269 79.0962L68.2482 78.2084L62.2057 56.8026L61.9908 56.7286L56.0423 74.006L53.3776 73.0885L60.9538 51.0835L63.5325 51.9713L69.6032 73.4349L69.8181 73.5089L75.7814 56.1886L78.4031 57.0912Z" fill="black"/>
<path d="M161.983 99.0098C161.499 101.416 160.645 103.408 159.424 104.986C158.202 106.564 156.738 107.675 155.031 108.321C153.325 108.967 151.499 109.094 149.553 108.702C147.607 108.31 145.972 107.486 144.649 106.231C143.325 104.975 142.405 103.384 141.889 101.456C141.373 99.5282 141.357 97.3613 141.842 94.955C142.326 92.5487 143.179 90.5567 144.401 88.9789C145.623 87.4011 147.087 86.2894 148.793 85.6438C150.5 84.9982 152.326 84.8713 154.272 85.263C156.217 85.6547 157.852 86.4784 159.176 87.734C160.499 88.9896 161.419 90.5813 161.935 92.5089C162.452 94.4366 162.467 96.6035 161.983 99.0098ZM159.309 98.4715C159.707 96.496 159.712 94.7622 159.325 93.27C158.945 91.7794 158.264 90.5721 157.284 89.6482C156.31 88.7258 155.133 88.1256 153.751 87.8475C152.37 87.5694 151.048 87.6665 149.786 88.1389C148.532 88.6127 147.437 89.4627 146.502 90.6887C145.575 91.9162 144.913 93.5177 144.515 95.4933C144.117 97.4688 144.109 99.2019 144.489 100.693C144.876 102.185 145.556 103.392 146.53 104.314C147.511 105.238 148.692 105.839 150.073 106.117C151.455 106.395 152.773 106.298 154.027 105.824C155.289 105.351 156.384 104.501 157.311 103.274C158.245 102.048 158.912 100.447 159.309 98.4715Z" fill="black"/>
<path d="M234.637 130.799L237.767 107.737L245.559 108.795C247.361 109.04 248.798 109.548 249.871 110.321C250.944 111.085 251.686 112.039 252.097 113.18C252.508 114.321 252.621 115.571 252.437 116.93C252.252 118.289 251.811 119.456 251.113 120.432C250.415 121.407 249.451 122.117 248.221 122.562C246.992 122.999 245.484 123.097 243.697 122.854L237.391 121.998L237.734 119.476L243.949 120.32C245.181 120.487 246.196 120.441 246.995 120.182C247.803 119.925 248.42 119.489 248.847 118.874C249.283 118.253 249.564 117.481 249.689 116.557C249.815 115.634 249.752 114.804 249.5 114.066C249.248 113.329 248.769 112.721 248.062 112.242C247.355 111.757 246.379 111.429 245.133 111.26L240.224 110.594L237.43 131.178L234.637 130.799ZM246.898 121.912L251.167 133.042L247.924 132.602L243.745 121.484L246.898 121.912Z" fill="black"/>
<path d="M332.221 149.668L329.274 149.453L339.491 126.865L342.392 127.076L349.221 150.909L346.274 150.694L340.764 130.649L340.583 130.636L332.221 149.668ZM333.971 140.681L345.848 141.548L345.666 144.041L333.789 143.174L333.971 140.681Z" fill="black"/>
<path d="M443.522 137.857L440.704 137.849C440.54 137.037 440.25 136.324 439.835 135.71C439.428 135.095 438.93 134.578 438.34 134.16C437.758 133.734 437.111 133.413 436.4 133.199C435.688 132.985 434.946 132.877 434.174 132.874C432.764 132.87 431.487 133.222 430.341 133.931C429.202 134.64 428.294 135.686 427.615 137.07C426.945 138.455 426.606 140.154 426.6 142.17C426.594 144.185 426.922 145.887 427.585 147.275C428.255 148.663 429.157 149.715 430.291 150.431C431.433 151.146 432.708 151.506 434.117 151.511C434.89 151.513 435.633 151.409 436.346 151.199C437.058 150.989 437.707 150.677 438.292 150.262C438.884 149.839 439.385 149.322 439.796 148.709C440.215 148.09 440.509 147.378 440.678 146.576L443.496 146.584C443.28 147.773 442.891 148.836 442.327 149.774C441.764 150.712 441.064 151.509 440.229 152.165C439.394 152.814 438.457 153.308 437.418 153.645C436.386 153.983 435.284 154.15 434.109 154.147C432.125 154.141 430.361 153.651 428.818 152.676C427.276 151.702 426.064 150.32 425.183 148.529C424.302 146.738 423.865 144.616 423.873 142.161C423.88 139.707 424.33 137.587 425.221 135.802C426.113 134.017 427.333 132.641 428.882 131.676C430.43 130.711 432.197 130.232 434.181 130.238C435.356 130.241 436.457 130.415 437.487 130.759C438.524 131.103 439.458 131.606 440.289 132.268C441.12 132.922 441.815 133.719 442.373 134.66C442.931 135.594 443.314 136.659 443.522 137.857Z" fill="black"/>
<path d="M527.624 150.711L524.672 150.846L532.153 127.209L535.059 127.077L544.651 149.938L541.7 150.072L533.864 130.817L533.682 130.825L527.624 150.711ZM528.301 141.58L540.198 141.04L540.311 143.537L528.414 144.078L528.301 141.58Z" fill="black"/>
<path d="M619.43 108.552L622.661 107.617L635.631 123.973L635.893 123.897L638.117 103.141L641.348 102.206L647.821 124.56L645.288 125.293L640.371 108.309L640.152 108.372L638.084 127.379L635.639 128.087L623.736 113.126L623.517 113.189L628.435 130.173L625.903 130.907L619.43 108.552Z" fill="black"/>
<path d="M726.376 96.9149L716.211 75.9791L723.285 72.5447C724.928 71.7473 726.414 71.3919 727.745 71.4786C729.079 71.5551 730.241 71.9719 731.232 72.7288C732.222 73.4858 733.017 74.481 733.616 75.7146C734.215 76.9481 734.507 78.1916 734.493 79.445C734.485 80.6952 734.105 81.8733 733.354 82.9792C732.599 84.0784 731.407 85.0233 729.778 85.8141L724.708 88.2758L723.616 86.0268L728.604 83.6049C729.729 83.0589 730.538 82.4263 731.03 81.7069C731.523 80.9876 731.763 80.223 731.748 79.413C731.738 78.593 731.529 77.7638 731.122 76.9256C730.715 76.0873 730.194 75.4138 729.56 74.9049C728.932 74.3927 728.183 74.1163 727.313 74.0757C726.439 74.0282 725.433 74.2808 724.295 74.8333L719.838 76.9972L728.911 95.684L726.376 96.9149Z" fill="black"/>
</svg>
