<svg width="672" height="603" viewBox="0 0 672 603" fill="none" xmlns="http://www.w3.org/2000/svg">
<path d="M308.265 503.922L349.265 487.922L415.5 495C402.7 524.6 326.167 532 299.5 528.5L308.265 503.922Z" fill="#A87C51"/>
<path d="M476.764 511.922L460.764 494.422C507.564 501.622 562.931 447.756 584.764 419.922L595.764 446.422C622.764 522.922 476.764 575.922 435.764 572.422C402.964 569.622 399.764 556.922 402.264 550.922L476.764 511.922Z" fill="#A87C51"/>
<path d="M637.765 588.922C717.365 481.322 636.598 433.089 586.265 422.422C586.265 433.089 590.465 459.322 607.265 478.922C624.065 498.522 621.598 569.756 618.265 602.922L637.765 588.922Z" fill="#A87C51"/>
<path d="M223.765 537.922C226.965 530.722 209.098 425.589 199.765 373.922L246.765 408.422C271.565 485.222 257.098 548.756 246.765 570.922C172.265 571.922 219.765 546.922 223.765 537.922Z" fill="#A87C51"/>
<path d="M297.265 573.922L318.765 457.922L250.765 407.422C277.565 453.422 261.931 537.589 250.765 573.922C269.165 594.322 289.431 582.422 297.265 573.922Z" fill="#A87C51"/>
<path d="M311.764 211.422C236.564 217.022 221.431 91.0888 223.264 27.4222C248.864 -9.37784 277.598 0.0888233 288.765 9.42216C403.765 58.9222 405.764 204.422 311.764 211.422Z" fill="#A87C51"/>
<path d="M58.2646 92.9228C69.4646 23.7228 121.26 9.00014 140.26 10.0001C117.46 10.0001 92.7646 55.4228 88.7646 78.4227L58.2646 92.9228Z" fill="#A87C51"/>
<path d="M84.7645 78.4225C112.764 -22.3775 195.764 -4.91087 233.764 16.4225C218.431 30.5891 224.665 74.5224 372.265 136.922C519.865 199.322 576.765 352.256 586.765 420.922C568.931 446.256 513.465 498.022 434.265 502.422C335.265 507.922 326.265 452.422 233.764 401.422C159.764 360.622 130.931 253.089 125.764 204.422C23.7645 217.222 12.2645 150.756 19.2645 115.922L84.7645 78.4225Z" fill="#FEF7D2"/>
<ellipse cx="119.302" cy="66.9743" rx="8.5" ry="15" transform="rotate(8.13582 119.302 66.9743)" fill="#404040"/>
<ellipse cx="181.947" cy="67.6426" rx="8.5" ry="15" transform="rotate(4.08154 181.947 67.6426)" fill="#404040"/>
<path d="M62.4141 99.2775C53.3385 97.2091 14.4874 90.5585 3.76486 104.923C-9.63835 122.878 76.6601 125.191 62.4141 99.2775Z" fill="#A87C51"/>
</svg>
