<svg width="80" height="80" viewBox="0 0 80 80" fill="none" xmlns="http://www.w3.org/2000/svg">
<path d="M5.41937 35.4536C3.30281 41.4361 -0.955037 54.9291 0.19312 63.5856C0.19312 63.5856 6.71582 59.6234 7.71793 45.5893C8.54478 34.0039 10.3311 27.4803 10.3311 27.4803C10.3311 27.4803 6.93826 31.156 5.41937 35.4536Z" fill="#D99E82"/>
<path d="M57.3312 46.3826C57.3312 46.3826 55.0484 52.1423 55.8123 66.5658C55.9494 69.1542 56.2819 71.7965 56.3561 73.9661C60.4274 73.9661 60.0679 79.0205 59.2051 79.0205H52.6847C51.1501 79.0205 48.4313 70.6014 47.7146 58.9181C46.9978 47.2324 57.3312 46.3826 57.3312 46.3826ZM30.6158 45.5721C30.6158 45.5721 29.3238 54.2115 22.4124 61.2763C21.835 64.1243 20.6846 71.6397 20.2801 73.9979C24.5245 73.9979 23.1606 79.0107 21.9226 79.0107H15.9773C13.8406 79.0107 13.5238 70.5818 15.5145 60.1695C17.503 49.7596 30.6158 45.5721 30.6158 45.5721Z" fill="#C1694F"/>
<path d="M8.16737 31.0016C10.9827 21.8137 24.3764 22.1173 39.617 24.2307C46.4812 25.1833 47.7956 13.3261 47.7956 11.2862C47.7956 2.40683 55.0845 -2.07205 62.3914 0.930194C64.1417 1.6477 65.5415 4.18712 66.3324 5.51438C70.7745 12.9514 76.7984 5.55111 77.3804 12.4249C78.0836 20.7387 73.5135 23.5279 66.0314 24.2307C61.7802 24.6298 60.5827 26.8485 59.6547 36.5188C59.3087 40.1235 57.9942 50.4036 51.9681 53.9103C50.2155 61.1564 47.8428 70.1092 46.9126 74.664C51.9726 75.8297 49.9257 80 49.9257 80C49.9257 80 42.8458 79.8947 41.3067 79.8947C39.4777 79.8947 40.8775 65.2606 43.4075 55.9281C32.7033 56.0334 25.8189 52.6541 23.6372 51.6133C21.3274 58.8618 14.3081 60.5099 12.7375 63.5929C11.7646 65.503 8.51789 71.8773 8.24152 74.6028C11.841 75.8762 10.6929 78.8442 10.2839 79.7992C7.85056 79.6939 3.04897 79.6939 2.42434 79.6939C-0.0697028 79.6939 4.97904 62.7873 7.1046 58.3574C9.53572 53.2859 5.34978 40.1896 8.16737 31.0016Z" fill="#D99E82"/>
<path d="M43.9736 52.5758C43.8747 53.4843 43.6568 54.7577 43.4051 55.9282C32.701 56.0335 25.8165 52.6542 23.6348 51.6134C24.1179 49.7033 24.1516 48.5034 24.019 47.8471C31.645 49.2111 34.2379 53.2468 43.9736 52.5758ZM66.0312 24.2308C61.7801 24.6299 60.5826 26.8485 59.6546 36.5189C59.3086 40.1236 57.9941 50.4037 51.968 53.9104C53.5858 47.0831 56.3697 23.5745 66.0312 24.2308Z" fill="#F4C7B5"/>
<path d="M74.8973 13.0567C75.1422 14.9227 76.0073 15.9757 76.8723 15.8312C78.58 15.5447 80 13.1693 80 11.2862C80 9.40305 78.5979 8.92798 76.8723 9.01369C74.5288 9.13123 74.621 10.9434 74.8973 13.0567Z" fill="#272B2B"/>
<path d="M46.4432 15.9194C45.6613 22.0781 49.0428 23.016 51.7975 23.016C54.5522 23.016 58.6595 19.955 57.972 13.784C57.6709 11.0732 56.7249 8.41375 56.1542 6.00901C55.3993 2.8182 53.4602 1.76766 51.8986 2.66148C48.1576 4.79929 46.9488 11.9572 46.4432 15.9194Z" fill="#662113"/>
<path d="M62.3915 11.2863C61.2399 11.2863 60.3063 10.2688 60.3063 9.01377C60.3063 7.75871 61.2399 6.74127 62.3915 6.74127C63.543 6.74127 64.4766 7.75871 64.4766 9.01377C64.4766 10.2688 63.543 11.2863 62.3915 11.2863Z" fill="#292F33"/>
<path d="M73.6618 19.5828C73.0563 19.5828 72.5653 19.0478 72.5653 18.3878C72.5653 17.7278 73.0563 17.1927 73.6618 17.1927C74.2674 17.1927 74.7583 17.7278 74.7583 18.3878C74.7583 19.0478 74.2674 19.5828 73.6618 19.5828Z" fill="#C1694F"/>
<path d="M72.2193 17.3348C71.8855 17.3348 71.6149 17.0399 71.6149 16.6761C71.6149 16.3123 71.8855 16.0173 72.2193 16.0173C72.5531 16.0173 72.8237 16.3123 72.8237 16.6761C72.8237 17.0399 72.5531 17.3348 72.2193 17.3348Z" fill="#C1694F"/>
<path d="M71.3092 19.0465C70.9754 19.0465 70.7048 18.7516 70.7048 18.3878C70.7048 18.024 70.9754 17.7291 71.3092 17.7291C71.643 17.7291 71.9136 18.024 71.9136 18.3878C71.9136 18.7516 71.643 19.0465 71.3092 19.0465Z" fill="#C1694F"/>
<path d="M59.4234 38.0444C57.4641 38.3016 53.5703 37.6991 51.82 37.2755C50.0696 36.8519 31.2834 30.7837 31.2834 30.7837L30.342 34.1998C30.342 34.1998 49.7169 40.7406 51.6604 41.3748C53.604 42.0115 58.2438 44.5362 58.2438 44.5362C58.2438 44.5362 59.0347 43.1502 59.4234 41.5462C59.8144 39.9227 59.4234 38.0444 59.4234 38.0444ZM38.6487 39.2272L35.0425 38.0322C35.0425 38.0322 31.7508 48.7947 32.8473 55.1176L36.7681 55.6441C36.7681 55.6441 36.485 51.8239 37.0804 47.7711C37.7095 43.4979 38.6487 39.2272 38.6487 39.2272Z" fill="#377700"/>
<path d="M61.6948 27.3676C59.3468 26.4077 50.7794 26.5595 45.0791 21.8994C43.8253 20.8733 41.8391 24.0225 42.7266 24.6323C49.9368 29.5862 58.5491 30.1837 60.441 30.4409C61.6948 30.6123 62.9485 27.8794 61.6948 27.3676Z" fill="#292F33"/>
<path d="M39.6145 24.2307C39.6145 24.2307 38.181 28.7317 39.9044 30.7838C41.6278 32.8334 44.7644 33.0048 44.7644 35.9091C44.7644 38.8134 42.8838 41.2059 41.4727 40.8631C40.0617 40.5203 32.6941 39.837 30.0293 37.7874C27.3645 35.7377 30.8135 23.0945 30.8135 23.0945C30.8135 23.0945 33.166 22.4113 35.6735 23.0945C38.181 23.7777 39.6145 24.2307 39.6145 24.2307Z" fill="#489C00"/>
</svg>
