<svg width="511" height="331" viewBox="0 0 511 331" fill="none" xmlns="http://www.w3.org/2000/svg">
<path d="M47.9726 85.9736C45.8061 57.1902 84.9835 44.5781 104.843 41.87C122.485 6.58704 143.401 -0.170364 151.654 0.8613V50.3812C167.439 57.1902 180.412 87.0053 184.925 101.062C219.28 157.391 280.741 154.966 307.178 146.713C440.262 134.952 498.293 191.074 510.673 220.606C511.602 349.048 406.604 338.344 353.989 316.937C338.205 334.888 193.695 309.458 123.412 294.499C128.364 274.691 98.3946 202.423 82.7907 168.765C78.7672 156.075 47.9726 161.414 17.4094 146.713C-23.135 111.43 20.8913 91.5188 47.9726 85.9736Z" fill="#A87C51"/>
<path d="M138.113 12.8545C126.636 20.8499 108.866 38.0787 129.602 43.0307C150.339 47.9827 143.916 24.9765 138.113 12.8545Z" fill="#F4C7B5"/>
<ellipse cx="12.9493" cy="102.073" rx="10.8326" ry="7.20587" transform="rotate(-28.08 12.9493 102.073)" fill="#3A3A3A"/>
<ellipse cx="78.9676" cy="86.5346" rx="7.15134" ry="5.77385" transform="rotate(-60.3356 78.9676 86.5346)" fill="#3A3A3A"/>
</svg>
