<svg width="100" height="100" viewBox="0 0 100 100" fill="none" xmlns="http://www.w3.org/2000/svg">
<path d="M61.0503 56.7349C60.9075 54.5739 60.6786 52.4194 60.3642 50.2766C59.3759 43.6776 57.6186 37.2169 55.128 31.0266C53.6642 27.4182 52.5086 25.3516 52.5086 25.3516L42.4725 26.646C42.4725 26.646 43.6308 29.0627 44.8836 33.7988C45.3919 35.721 45.9141 38.0321 46.3836 40.7293C46.6225 42.0905 46.8447 43.5405 47.0447 45.0988C47.3225 47.2682 47.553 49.6321 47.7169 52.1793C47.8114 53.6182 47.878 55.1182 47.9225 56.6766C47.9392 57.2432 47.9642 57.7905 47.9725 58.3738C47.9899 60.2208 47.8803 62.0668 47.6447 63.8988C47.4392 65.5655 47.1391 67.2238 46.7808 68.8682C46.2729 71.1889 45.6518 73.4833 44.9197 75.7432C44.3612 77.4636 43.7544 79.168 43.1003 80.8543C42.1447 83.3293 41.1836 85.5543 40.353 87.4071C38.9586 90.5155 37.9336 92.5821 37.9336 93.0127C37.9336 94.3738 38.9058 96.9238 45.703 98.6238C56.3336 101.279 57.3586 96.8988 57.3586 96.8988C57.3586 96.8988 58.0336 94.8488 58.8197 90.8099C59.2086 88.8155 59.6225 86.3516 59.9975 83.371C60.2225 81.5877 60.4308 79.6266 60.6141 77.4932C60.9951 72.9993 61.199 68.4921 61.2253 63.9821C61.2308 63.2988 61.2475 62.6377 61.2475 61.9349C61.2475 60.1571 61.1642 58.4321 61.0503 56.7349Z" fill="#C1694F"/>
<path d="M50.8499 83.5207C46.9527 82.8429 44.4666 81.7068 43.1027 80.8568C42.1471 83.3318 41.186 85.5568 40.3555 87.4095C42.8999 88.7957 46.1305 89.8957 49.636 90.504C51.661 90.8568 53.6694 91.0346 55.5555 91.0346C56.7055 91.0346 57.786 90.9429 58.8221 90.8123C59.211 88.8179 59.6249 86.354 59.9999 83.3734C58.7666 83.8096 55.6999 84.3651 50.8499 83.5207ZM53.7944 70.5401C50.7582 70.2401 48.4221 69.5734 46.7805 68.8679C46.2726 71.1885 45.6515 73.4829 44.9194 75.7429C47.3194 76.6484 50.1444 77.3012 53.0999 77.5929C54.2916 77.7095 55.4749 77.7707 56.6277 77.7707C58.0221 77.7707 59.3444 77.6623 60.6138 77.4957C60.8027 75.2734 60.961 72.8651 61.0721 70.2596C59.3277 70.6346 56.8805 70.8429 53.7944 70.5401ZM54.6527 64.6151C56.936 64.6151 59.1805 64.3846 61.2249 63.9818C61.2305 63.2984 61.2471 62.6373 61.2471 61.9346C61.2471 60.154 61.1666 58.429 61.0499 56.7318C59.5805 57.1151 57.4805 57.4873 54.5166 57.5262C51.5055 57.5123 49.386 57.0957 47.9221 56.6762C47.9388 57.2429 47.9638 57.7901 47.9721 58.3734C47.9895 60.2204 47.88 62.0665 47.6444 63.8984C49.7638 64.3457 52.1027 64.6012 54.4805 64.6123L54.6527 64.6151ZM53.961 51.9012C56.1426 51.5713 58.2863 51.027 60.361 50.2762C60.0103 47.9315 59.5609 45.6025 59.0138 43.2957C57.636 43.8623 55.6832 44.4929 52.9555 44.8846C50.9995 45.189 49.0144 45.2607 47.0416 45.0984C47.3194 47.2679 47.5499 49.6318 47.7138 52.179C48.136 52.1957 48.5194 52.2595 48.9527 52.2595C50.586 52.2623 52.286 52.1401 53.961 51.9012ZM57.4916 37.6901C56.7967 35.4356 56.0071 33.2114 55.1249 31.0234C53.5806 31.7906 51.9645 32.4037 50.2999 32.854C48.5324 33.3613 46.7155 33.677 44.8805 33.7957C45.3888 35.7179 45.911 38.029 46.3805 40.7262C48.3457 40.5451 50.2917 40.1956 52.1971 39.6818C54.0832 39.1596 55.836 38.4596 57.4916 37.6901Z" fill="#D99E82"/>
<path d="M90.584 11.9581C90.4618 11.7887 78.1395 -4.69186 62.1562 2.54147C54.9868 5.78314 50.359 11.0804 48.6812 17.9165C45.5562 13.5609 40.8062 10.7915 34.534 9.67203C17.3146 6.5998 6.96455 25.6942 6.86178 25.8887C6.71178 26.172 6.77567 26.5248 7.01733 26.7359C7.259 26.947 7.62011 26.9609 7.88122 26.7776C7.959 26.722 15.7868 21.2415 28.834 23.5637C42.1701 25.9359 51.5201 28.2692 51.6145 28.2915C51.7358 28.3209 51.8626 28.3176 51.9822 28.2819C52.1018 28.2463 52.2097 28.1796 52.2951 28.0887C52.384 27.9915 61.2395 18.4776 69.3868 14.7915C81.4396 9.34425 89.659 12.9609 89.7368 12.997C89.877 13.06 90.034 13.075 90.1836 13.0399C90.3332 13.0048 90.467 12.9214 90.5646 12.8026C90.662 12.6844 90.7168 12.5369 90.7204 12.3837C90.7239 12.2306 90.6759 12.0807 90.584 11.9581Z" fill="#3E721D"/>
<path d="M77.4554 21.1937C65.2192 14.727 55.6526 17.8798 49.6915 21.8048C42.5387 20.452 29.3192 20.5298 18.1248 34.8798C4.28313 52.6215 16.4081 74.7187 16.5331 74.9409C16.6353 75.1201 16.7883 75.2651 16.9728 75.3574C17.1573 75.4498 17.365 75.4854 17.5698 75.4599C17.7745 75.4343 17.9671 75.3487 18.1232 75.2138C18.2793 75.079 18.392 74.9009 18.447 74.702C18.4887 74.552 22.6887 59.3687 33.3081 46.5965C39.0692 39.6631 45.947 33.2465 50.8304 28.9854C55.7248 29.8131 62.8498 31.6159 69.847 35.5242C83.6192 43.227 89.9415 56.2631 90.0054 56.3937C90.0971 56.5897 90.248 56.752 90.4369 56.8577C90.6258 56.9634 90.8431 57.007 91.0581 56.9826C91.2724 56.9588 91.474 56.8694 91.6356 56.7267C91.7972 56.584 91.9108 56.395 91.9609 56.1853C92.0165 55.9409 97.4276 31.7409 77.4554 21.1937Z" fill="#5C913B"/>
</svg>
