<svg width="100" height="100" viewBox="0 0 100 100" fill="none" xmlns="http://www.w3.org/2000/svg">
<path d="M84.375 87.5V54.75C84.3745 53.745 84.132 52.7548 83.668 51.8633C83.2041 50.9718 82.5322 50.2051 81.7094 49.6281L53.125 29.625V25H71.875V6.25H46.875V29.625L18.2906 49.6312C17.468 50.2078 16.7963 50.9739 16.3323 51.8649C15.8683 52.7559 15.6257 53.7455 15.625 54.75V87.5H6.25V93.75H93.75V87.5H84.375ZM53.125 12.5H65.625V18.75H53.125V12.5ZM21.875 54.75L50 35.0625L78.125 54.75V87.5H53.125V62.5H46.875V87.5H21.875V54.75Z" fill="white"/>
</svg>
