<svg width="150" height="102" viewBox="0 0 150 102" fill="none" xmlns="http://www.w3.org/2000/svg">
<path d="M56.6279 98.1197L63.4985 32.4947C64.7702 53.8705 64.2708 78.5395 70.219 91.2215C72.3369 74.3533 73.1878 57.8171 72.2154 41.7625C75.0931 56.0017 78.9334 69.9033 79.6753 84.8914C81.0731 73.7815 82.0695 62.741 85.6855 51.2427C85.5419 64.191 82.4421 76.0507 88.0816 82.5199C90.8096 72.3881 93.5615 62.2802 94.0279 49.7709C98.0482 62.0581 97.4948 76.7479 98.7434 90.4926C100.334 76.9743 101.632 39.2797 107.609 27.2968C107.022 52.1206 106.879 71.7764 112.788 81.7651C118.628 74.0838 119.132 59.0347 119.267 44.7537C123.39 57.0187 126.158 70.9918 126.423 88.121C128.053 73.8291 129.951 59.5372 134.624 45.2463C133.538 62.7827 134.381 76.4202 138.314 83.8129C140.915 72.7794 143.135 61.7459 143.818 50.7104C147.3 67.1524 146.276 82.4086 146.976 98.1197H56.6279Z" fill="#8F9546"/>
<path d="M3.4021 98.1197L10.2727 32.4947C11.5444 53.8705 11.045 78.5395 16.9932 91.2215C19.1111 74.3533 19.962 57.8171 18.9896 41.7625C21.8673 56.0017 25.7076 69.9033 26.4495 84.8914C27.8472 73.7815 28.8437 62.741 32.4597 51.2427C32.316 64.191 29.2162 76.0507 34.8558 82.5199C37.5838 72.3881 40.3356 62.2802 40.8021 49.7709C44.8224 62.0581 44.269 76.7479 45.5176 90.4926C47.1085 76.9743 48.4057 39.2797 54.3836 27.2968C53.7958 52.1206 53.6536 71.7764 59.5621 81.7651C65.402 74.0838 65.9065 59.0347 66.0415 44.7537C70.1642 57.0187 72.9323 70.9918 73.1969 88.121C74.8273 73.8291 76.7252 59.5372 81.3981 45.2463C80.3117 62.7827 81.1554 76.4202 85.0886 83.8129C87.6894 72.7794 89.9092 61.7459 90.5926 50.7104C94.0742 67.1524 93.0498 82.4086 93.7503 98.1197H3.4021Z" fill="#8F9546"/>
</svg>
