<svg width="1942" height="217" viewBox="0 0 1942 217" fill="none" xmlns="http://www.w3.org/2000/svg">
<path d="M0 217L25 25L35 146.5C35 146.5 37.5 217 60.5 196C83.5 175 74.5179 152.727 83.5 125L129.5 196C145.902 153.628 171.5 146.5 171.5 87.5C171.5 28.5 184.5 196 184.5 196C207.15 168.273 242.5 154.5 242.5 125C242.5 95.4999 280 196 280 196C280 196 317.5 7.99997 317.5 66.5C317.5 125 332.737 145.427 342.5 196C373 160 437.4 75.4 451 25C464.6 -25.4 456.667 104 451 175L501 87.5C513.5 116.667 554.4 179.2 618 196C627.763 129.22 661.75 100 643 25L680.5 175C701.784 155.474 735 175 735 125C735 75 785 196 785 196L810 66.5C797.5 131.25 840.779 145.427 860.5 196C896.233 129.22 939 112.5 952 25C965 -62.5001 977 217 977 217C994.964 181.072 1023 175 1023 125C1023 75 1056.5 175 1056.5 175C1085.79 132.628 1131.5 125 1131.5 66.5C1131.5 7.99997 1173.5 196 1173.5 196C1210.99 153.628 1269.5 146.5 1269.5 87.5C1269.5 28.5 1303.06 179.594 1349 175C1380.1 171.89 1411.5 75 1411.5 125C1411.5 175 1464.83 155.474 1499 175C1499 175 1445 -19.4998 1499 47C1553 113.5 1541.6 106.658 1603.5 175L1649.5 0L1658 154.5L1712 66.5L1737 125C1737 125 1799.5 7.99998 1799.5 66.5C1799.5 125 1822.66 145.427 1837.5 196L1891.5 125L1941.5 217H977H0Z" fill="#94D774"/>
</svg>
