<svg width="100" height="67" viewBox="0 0 100 67" fill="none" xmlns="http://www.w3.org/2000/svg">
<path d="M37.752 64.3229L42.3323 21.3021C43.1801 35.3151 42.8472 51.487 46.8127 59.8008C48.2246 48.7427 48.7919 37.9023 48.1436 27.3776C50.0621 36.7122 52.6223 45.8255 53.1169 55.651C54.0487 48.3678 54.713 41.1302 57.1237 33.5924C57.0279 42.0807 54.9614 49.8555 58.7211 54.0964C60.5398 47.4544 62.3743 40.8281 62.6853 32.6276C65.3655 40.6826 64.9965 50.3125 65.8289 59.3229C66.8896 50.4609 67.7544 25.75 71.7396 17.8945C71.3477 34.168 71.253 47.0534 75.192 53.6016C79.0852 48.566 79.4216 38.7005 79.5115 29.3385C82.26 37.3789 84.1054 46.5391 84.2818 57.7682C85.3688 48.3991 86.634 39.0299 89.7493 29.6615C89.025 41.1576 89.5875 50.0977 92.2096 54.944C93.9435 47.7109 95.4233 40.4779 95.879 33.2435C98.2 44.0221 97.5171 54.0234 97.9841 64.3229H37.752Z" fill="#8F9546"/>
<path d="M2.26807 64.3229L6.84846 21.3021C7.69624 35.3151 7.36333 51.487 11.3288 59.8008C12.7407 48.7427 13.308 37.9023 12.6597 27.3776C14.5782 36.7122 17.1384 45.8255 17.633 55.651C18.5648 48.3678 19.2291 41.1302 21.6398 33.5924C21.544 42.0807 19.4775 49.8555 23.2372 54.0964C25.0559 47.4544 26.8904 40.8281 27.2014 32.6276C29.8816 40.6826 29.5127 50.3125 30.3451 59.3229C31.4057 50.4609 32.2705 25.75 36.2557 17.8945C35.8638 34.168 35.7691 47.0534 39.7081 53.6016C43.6014 48.566 43.9377 38.7005 44.0276 29.3385C46.7761 37.3789 48.6215 46.5391 48.7979 57.7682C49.8849 48.3991 51.1501 39.0299 54.2654 29.6615C53.5411 41.1576 54.1036 50.0977 56.7257 54.944C58.4596 47.7109 59.9394 40.4779 60.3951 33.2435C62.7162 44.0221 62.0332 54.0234 62.5002 64.3229H2.26807Z" fill="#8F9546"/>
</svg>
