<svg width="80" height="80" viewBox="0 0 80 80" fill="none" xmlns="http://www.w3.org/2000/svg">
<path d="M53.7875 50.4937C53.7875 50.4937 56.425 55.125 57.25 58.5312C58.0688 61.9312 57.6188 63.2625 56.725 66.0375C55.7 69.2062 54.4563 71.7812 52.0625 70.2625C50.125 69.0312 49.9188 66.0687 50.2125 64.8937C50.5063 63.7187 50.7688 62.0812 50.65 61.375C50.5313 60.6687 49.2125 57.475 48.1563 55.95C47.1 54.425 47.1 52.1937 47.275 52.0187C47.4563 51.8437 53.7875 50.4937 53.7875 50.4937ZM47.6563 73.3437C47.6563 73.3437 48.4063 77.4812 48.0063 77.4812C47.6125 77.4812 44.8375 77.35 43.8688 76.6875C42.9 76.025 42.0313 73.7812 41.2313 71.2312C40.2625 68.15 38.9125 64.2 38.5938 63.225C38.0063 61.4375 37.3625 59.6187 37.3625 59.6187C37.3625 59.6187 34.375 59.35 32.525 59.2687C29.575 59.1375 27.525 59 27.0688 59.3125C26.4938 59.7062 23.85 61.4875 23.2 62.4375C22.2313 63.8437 25.575 70.4437 25.575 70.4437C25.575 70.4437 27.95 72.5562 27.8625 73.7437C27.775 74.9312 25.4875 74.8 23.4625 74.7125C21.4375 74.625 20.3563 74.05 20.075 73.7437C19.0188 72.6 17.9188 69.475 17.2125 66.925C16.5375 64.4812 15.6313 62.9625 15.8938 61.3812C16.1563 59.8 24.1625 53.025 24.1625 53.025L43.825 57.775L47.6563 73.3437ZM58.7375 18.225L48.4125 14.0625C48.4125 14.0625 49.4125 11.425 50.7 9.13749C51.9875 6.84999 54.8625 2.56874 56.2125 2.91874C57.5625 3.26874 58.975 9.79374 59.2938 11.5437C59.9438 15.1125 58.7375 18.225 58.7375 18.225Z" fill="#4D4D4D"/>
<path d="M68.3001 27.3438C68.3188 27.3438 70.4376 27.3438 71.8813 27.3C73.3313 27.2563 74.6813 27.2125 74.6813 27.2125C74.6813 27.2125 75.3501 27.1938 75.3501 26.5375C75.3501 25.875 74.6563 25.9063 74.6563 25.9063C74.6563 25.9063 73.3001 25.95 71.8438 25.9938C70.4188 26.0375 68.3188 26.0375 68.3001 26.0375C67.9376 26.0375 67.6438 26.3313 67.6438 26.6938C67.6438 27.0563 67.9376 27.3438 68.3001 27.3438ZM74.6438 31.3125C74.6438 31.3125 75.2626 31.4813 75.4001 30.8063C75.5376 30.125 74.9251 30.0313 74.9251 30.0313C74.9251 30.0313 73.1313 29.5 71.8938 29.2375C70.6688 28.975 68.1188 28.4938 68.0938 28.4875C67.7376 28.4188 67.3938 28.6563 67.3251 29.0125C67.2563 29.3688 67.4938 29.7125 67.8501 29.7813C67.8751 29.7875 70.4063 30.2688 71.6188 30.525C72.8501 30.7813 74.6438 31.3125 74.6438 31.3125ZM71.6126 34.6938C71.8251 34.6938 72.0313 34.5875 72.1626 34.4C72.2583 34.2546 72.293 34.0773 72.259 33.9066C72.2251 33.7358 72.1254 33.5853 71.9813 33.4875L68.5563 30.8063C68.4109 30.7105 68.2336 30.6758 68.0629 30.7098C67.8921 30.7437 67.7416 30.8435 67.6438 30.9875C67.4438 31.2875 67.5251 31.6938 67.8251 31.9L71.0376 34.4313C71.1501 34.5063 71.4876 34.6938 71.6126 34.6938Z" fill="#B0B1B2"/>
<path d="M57.1625 42.1062C57.1625 42.6312 56.7938 46.5312 56.3688 49.3187C55.9313 52.225 54.6063 54.425 51.9688 56.1812C48.8001 58.2937 45.9876 58.6437 45.9876 58.6437C45.9876 58.6437 46.9563 64.625 48.275 68.5875C48.5125 69.3062 49.9438 72.2375 50.2563 72.725C50.5688 73.2125 51.4 74.6188 51.2688 75.6313C51.125 76.7313 50.3 78.0062 46.7813 77.3C43.9313 76.7312 43.6563 73.8563 42.8188 71.525C42.5063 70.65 40.5626 65.25 40.1813 63.9875C39.3376 61.1937 38.8626 59.3125 38.4188 58.825C37.9813 58.3437 33.3126 58.1187 30.4126 57.9437C27.5063 57.7687 22.8438 57.6812 22.8438 57.6812C22.8438 57.6812 20.8626 59.3062 18.6626 60.3187C15.2376 61.8937 12.0188 62.3437 10.525 64.3687C9.0813 66.3187 9.3188 68.2 9.6438 69.7812C10.1688 72.3312 11.1313 73.7375 10.9626 74.6625C10.7438 75.8937 9.5563 76.025 7.0938 76.0687C4.71255 76.1125 4.25005 75.6375 3.7938 74.4875C1.98755 69.925 4.8938 64.0188 5.11255 60.1C5.2188 58.2438 8.15005 57.725 8.8063 54.9937C9.4688 52.2687 9.6688 49.4937 10.4625 46.7687C11.325 43.7937 12.4 41.2813 12.4 41.2813C12.4 41.2813 9.33755 39.4187 7.4438 37.35C5.55005 35.2812 2.85005 32.5375 3.9563 27.1125C4.83755 22.8 7.71255 19.925 14.5313 17.7687C21.2751 15.6375 22.6501 18.1125 22.8438 19.7312C23.1063 21.9312 20.2938 22.6937 17.3001 23.2625C14.3063 23.8312 8.57505 25.6562 10.2625 30.6562C11.3188 33.7812 15.9813 35.6875 15.9813 35.6875C15.9813 35.6875 20.4688 35.0125 26.5375 35.675C31.4376 36.2187 33.7626 37.5 34.2876 37.2687C35.0813 36.9187 34.5501 35.775 33.7126 34.4562C32.3876 32.3625 30.7626 29.6187 30.7626 26.1875C30.7626 22.7562 32.3876 20.9062 32.3876 20.9062C32.3876 20.9062 32.4313 14.175 33.4001 10.35C34.3688 6.52499 36.1751 2.07499 38.0688 1.98749C39.9626 1.89999 43.3063 6.51874 44.1813 7.96874C45.0563 9.41874 46.5125 12.4125 46.5125 12.4125C46.5125 12.4125 51.6375 11.7937 55.925 13.8625C59.6875 15.675 61.9938 21.3437 63.1375 21.7812C64.2813 22.2187 66.9813 22.1187 68.0375 23.8812C68.475 24.6062 68.5188 29.4375 68.5188 29.4375C68.5188 29.4375 68.1875 30.5812 67.8375 31.5812C67.5625 32.3625 66.1375 34.4562 64.425 35.7125C62.2 37.3437 59.225 39.65 58.5688 40.175C57.9125 40.7 57.1625 42.1062 57.1625 42.1062Z" fill="#5D6265"/>
<path d="M44.2249 15.1375C44.1812 16.0625 42.0687 17.2937 40.9687 18.0875C39.8687 18.8812 38.2874 20.6187 37.6687 20.5062C36.5749 20.3125 36.6562 15.6687 36.8749 13.6C37.0937 11.5312 38.1937 8.09999 38.8999 7.83749C39.6062 7.57499 41.4312 10.2062 41.8937 10.9187C42.6874 12.15 44.2687 14.3062 44.2249 15.1375Z" fill="#FFAB93"/>
<path d="M66.4812 27.8813C66.1875 27.5313 61.75 26.3563 61.6062 25.5625C61.4625 24.7688 62.5125 24.125 64.3625 23.6875C66.025 23.2938 67.5437 23.45 67.9187 23.7188C68.4187 24.0688 68.975 25.8625 68.825 27.6813C68.675 29.5625 68.0375 31.1 67.2125 31.9313C66.6375 32.5125 65.2375 33.425 64.0062 33.5125C62.775 33.6 61.6312 33.075 61.0125 32.4563C60.3937 31.8375 60.8375 30.8438 61.775 31.4C62.7125 31.9563 63.3375 32.125 64.15 31.9C65 31.6625 66.2187 30.8313 66.475 29.4688C66.6375 28.6563 66.4812 27.8813 66.4812 27.8813Z" fill="#2F2F2F"/>
<path d="M48.05 33.525C48.15 33.525 48.25 33.5 48.3437 33.4562C48.3625 33.45 50.1 32.5687 51.6062 32.125C53.1562 31.6687 54.6062 31.3187 54.625 31.3125C54.975 31.225 55.1937 30.875 55.1125 30.5187C55.025 30.1687 54.675 29.95 54.3187 30.0312C54.3062 30.0375 52.8187 30.3937 51.2375 30.8625C49.6125 31.3437 47.8312 32.25 47.7562 32.2875C47.625 32.3537 47.5198 32.4622 47.4578 32.5955C47.3958 32.7288 47.3805 32.8792 47.4145 33.0222C47.4485 33.1653 47.5296 33.2927 47.645 33.384C47.7603 33.4752 47.903 33.5249 48.05 33.525ZM48.725 38.0437C48.8625 38.0437 49 38 49.1125 37.9125C49.1312 37.9 51.1437 36.4125 52.4375 35.5187C53.6937 34.6562 55.4312 33.85 55.45 33.8437C55.6024 33.768 55.7195 33.636 55.7764 33.4756C55.8334 33.3152 55.8258 33.1389 55.7552 32.984C55.6847 32.8291 55.5567 32.7077 55.3983 32.6453C55.2399 32.583 55.0634 32.5847 54.9062 32.65C54.8312 32.6875 53.05 33.5062 51.7 34.4375C50.3875 35.3437 48.3562 36.8375 48.3375 36.8562C48.0437 37.0687 47.9875 37.4812 48.2 37.775C48.325 37.95 48.525 38.0437 48.725 38.0437ZM51.8312 40.3312C51.9875 40.3312 52.1437 40.275 52.2687 40.1625L56.6062 36.2937C56.875 36.05 56.9 35.6375 56.6562 35.3687C56.4125 35.1 56 35.075 55.7312 35.3187L51.3937 39.1875C51.2953 39.2762 51.226 39.3927 51.195 39.5216C51.164 39.6504 51.1728 39.7857 51.2201 39.9095C51.2675 40.0333 51.3512 40.1398 51.4603 40.2151C51.5694 40.2904 51.6987 40.3309 51.8312 40.3312Z" fill="#B0B1B2"/>
<path d="M51.7653 25.3609C50.9437 23.9379 51.1865 22.2598 52.3075 21.6126C53.4285 20.9654 55.0032 21.5942 55.8248 23.0171C56.6463 24.44 56.4035 26.1182 55.2825 26.7654C54.1615 27.4126 52.5868 26.7838 51.7653 25.3609Z" fill="#010000"/>
<path d="M53.9937 23.7438C54.3374 24.3875 54.9374 24.8 55.4312 24.4938C55.9249 24.1875 55.6437 23.2063 55.3687 22.8375C55.0937 22.4688 54.5999 22.0063 54.1124 22.3125C53.6124 22.625 53.7624 23.3188 53.9937 23.7438Z" fill="#DEDEDE"/>
</svg>
