<svg width="602" height="402" viewBox="0 0 602 402" fill="none" xmlns="http://www.w3.org/2000/svg">
<path d="M101.722 166.252L301.93 1L500.279 166.252L543.668 367.105C335.401 439.901 53.374 369.231 60.8121 367.105C66.7626 365.405 90.5644 232.495 101.722 166.252Z" fill="#E5B03A" stroke="#DAA636"/>
<path d="M102.34 168.379C185.192 180.6 380.648 197.71 499.657 168.379" stroke="#DAA636"/>
<path d="M298.831 184.882C220.979 182.488 184.16 321.034 184.16 391.018C226.516 397.926 332.798 407.172 416.6 395.269C414.947 325.783 376.683 187.276 298.831 184.882Z" fill="#F4C543" stroke="#DAA636"/>
<path d="M101.721 168.91L23.6216 361.793M23.6216 361.793C25.2745 357.365 30.1919 349.147 36.6382 351.697C43.0845 354.248 30.6464 359.49 23.6216 361.793ZM23.6216 361.793C19.4893 355.062 9.48921 343.62 2.547 351.697C-4.39521 359.774 13.7041 361.793 23.6216 361.793Z" stroke="#347781" stroke-width="2"/>
<path d="M500.279 167.848L578.378 360.73M578.378 360.73C576.726 356.302 571.808 348.084 565.362 350.635C558.915 353.185 571.354 358.428 578.378 360.73ZM578.378 360.73C582.511 354 592.511 342.558 599.453 350.635C606.395 358.711 588.296 360.73 578.378 360.73Z" stroke="#347781" stroke-width="2"/>
</svg>
