<svg width="30" height="29" viewBox="0 0 30 29" fill="none" xmlns="http://www.w3.org/2000/svg">
<path opacity="0.2" d="M27.1875 10.4318C27.1875 17.7563 15 23.9709 15 23.9709C15 23.9709 2.8125 17.7563 2.8125 10.4318C2.8125 8.84243 3.47921 7.31815 4.66596 6.1943C5.85272 5.07044 7.4623 4.43906 9.14062 4.43906C11.7879 4.43906 14.0555 5.80519 15 7.99031C15.9445 5.80519 18.2121 4.43906 20.8594 4.43906C22.5377 4.43906 24.1473 5.07044 25.334 6.1943C26.5208 7.31815 27.1875 8.84243 27.1875 10.4318Z" fill="#FEF7D2"/>
<path d="M20.8594 3.55125C18.4395 3.55125 16.3207 4.53672 15 6.20248C13.6793 4.53672 11.5605 3.55125 9.14062 3.55125C7.21433 3.55331 5.36755 4.27888 4.00545 5.56879C2.64335 6.85869 1.87717 8.60759 1.875 10.4318C1.875 18.2002 14.0379 24.4881 14.5559 24.7478C14.6924 24.8173 14.845 24.8537 15 24.8537C15.155 24.8537 15.3076 24.8173 15.4441 24.7478C15.9621 24.4881 28.125 18.2002 28.125 10.4318C28.1228 8.60759 27.3566 6.85869 25.9945 5.56879C24.6325 4.27888 22.7857 3.55331 20.8594 3.55125ZM15 22.95C12.8602 21.7692 3.75 16.3901 3.75 10.4318C3.75186 9.07843 4.3204 7.781 5.33093 6.82402C6.34147 5.86704 7.71151 5.32864 9.14062 5.32688C11.4199 5.32688 13.3336 6.47659 14.1328 8.32324C14.2034 8.48608 14.3236 8.62535 14.478 8.72337C14.6324 8.82138 14.8141 8.87372 15 8.87372C15.1859 8.87372 15.3676 8.82138 15.522 8.72337C15.6764 8.62535 15.7966 8.48608 15.8672 8.32324C16.6664 6.47326 18.5801 5.32688 20.8594 5.32688C22.2885 5.32864 23.6585 5.86704 24.6691 6.82402C25.6796 7.781 26.2481 9.07843 26.25 10.4318C26.25 16.3813 17.1375 21.7681 15 22.95Z" fill="#FEF7D2"/>
</svg>
