<svg width="80" height="80" viewBox="0 0 80 80" fill="none" xmlns="http://www.w3.org/2000/svg">
<path d="M40.0089 19.489C28.6581 19.489 19.5025 28.6467 19.5025 40C19.5025 51.3533 28.6581 60.511 40.0089 60.511C51.3597 60.511 60.5153 51.3533 60.5153 40C60.5153 28.6467 51.3597 19.489 40.0089 19.489ZM40.0089 53.3348C32.6737 53.3348 26.6771 47.3547 26.6771 40C26.6771 32.6453 32.6559 26.6652 40.0089 26.6652C47.362 26.6652 53.3408 32.6453 53.3408 40C53.3408 47.3547 47.3441 53.3348 40.0089 53.3348ZM66.1372 18.65C66.1372 21.3098 63.9955 23.4341 61.3542 23.4341C58.6949 23.4341 56.5711 21.292 56.5711 18.65C56.5711 16.008 58.7128 13.8659 61.3542 13.8659C63.9955 13.8659 66.1372 16.008 66.1372 18.65ZM79.7189 23.5055C79.4155 17.097 77.952 11.4203 73.2582 6.74328C68.5823 2.06627 62.9069 0.602477 56.4997 0.281156C49.8963 -0.0937186 30.1037 -0.0937186 23.5003 0.281156C17.111 0.584626 11.4356 2.04842 6.74177 6.72543C2.04796 11.4024 0.602342 17.0791 0.281093 23.4877C-0.0936977 30.0926 -0.0936977 49.8895 0.281093 56.4945C0.584495 62.903 2.04796 68.5797 6.74177 73.2567C11.4356 77.9337 17.0931 79.3975 23.5003 79.7188C30.1037 80.0937 49.8963 80.0937 56.4997 79.7188C62.9069 79.4154 68.5823 77.9516 73.2582 73.2567C77.9342 68.5797 79.3977 62.903 79.7189 56.4945C80.0937 49.8895 80.0937 30.1105 79.7189 23.5055ZM71.188 63.5814C69.7959 67.0802 67.101 69.7757 63.5851 71.186C58.3201 73.2746 45.8271 72.7926 40.0089 72.7926C34.1907 72.7926 21.6799 73.2567 16.4328 71.186C12.9347 69.7936 10.2398 67.0981 8.82989 63.5814C6.74177 58.3153 7.22365 45.8195 7.22365 40C7.22365 34.1805 6.75962 21.6669 8.82989 16.4186C10.222 12.9198 12.9169 10.2243 16.4328 8.81401C21.6977 6.72543 34.1907 7.20741 40.0089 7.20741C45.8271 7.20741 58.338 6.74328 63.5851 8.81401C67.0831 10.2064 69.778 12.9019 71.188 16.4186C73.2761 21.6847 72.7942 34.1805 72.7942 40C72.7942 45.8195 73.2761 58.3331 71.188 63.5814Z" fill="white"/>
</svg>
