<svg width="171" height="127" viewBox="0 0 171 127" fill="none" xmlns="http://www.w3.org/2000/svg">
<path d="M2.86497 126.483L82.035 22L82.0868 23.8494L3.79382 126.974L2.86497 126.483Z" fill="black"/>
<path d="M167.743 56.6255L90.9315 2.08935L46.9915 68.0588L167.743 56.6255Z" fill="#B73535"/>
<path d="M97.1744 21.5945L92.2822 28.8216L91.1052 28.0521L90.9957 20.8789L90.9351 20.8392L87.6028 25.762L86.2795 24.8968L91.1717 17.6697L92.3559 18.4439L92.4594 25.6183L92.5236 25.6603L95.8583 20.734L97.1744 21.5945ZM103.701 31.0751C103.174 31.8538 102.575 32.4243 101.905 32.7868C101.238 33.1484 100.552 33.3107 99.8464 33.2736C99.1432 33.2381 98.4718 33.0112 97.8322 32.593C97.1926 32.1748 96.7191 31.6531 96.4117 31.0279C96.1083 30.4019 95.9963 29.716 96.0757 28.9704C96.159 28.224 96.4635 27.4626 96.989 26.6862C97.5161 25.9075 98.113 25.3373 98.7797 24.9757C99.4504 24.6133 100.137 24.4498 100.84 24.4853C101.546 24.5224 102.219 24.7501 102.858 25.1683C103.498 25.5865 103.97 26.1074 104.275 26.7311C104.583 27.3563 104.695 28.0421 104.611 28.7886C104.532 29.5342 104.229 30.2964 103.701 31.0751ZM102.371 30.2052C102.742 29.6571 102.968 29.138 103.049 28.6481C103.135 28.1574 103.09 27.7161 102.917 27.3242C102.744 26.93 102.46 26.603 102.063 26.3434C101.666 26.0837 101.249 25.9521 100.812 25.9483C100.377 25.9422 99.9449 26.0718 99.5149 26.3371C99.0889 26.6016 98.6904 27.0079 98.3194 27.5561C97.9483 28.1042 97.7202 28.6236 97.635 29.1143C97.5538 29.6042 97.5992 30.0463 97.7714 30.4406C97.9452 30.8325 98.2306 31.1583 98.6277 31.4179C99.0248 31.6775 99.4408 31.8104 99.8757 31.8165C100.312 31.8202 100.744 31.6898 101.17 31.4254C101.599 31.1601 102 30.7534 102.371 30.2052ZM103.511 36.1633L108.403 28.9361L111.142 30.7271C111.703 31.094 112.109 31.4983 112.359 31.94C112.611 32.3832 112.717 32.8426 112.676 33.3183C112.639 33.7932 112.465 34.2612 112.153 34.7223C111.839 35.1857 111.467 35.5227 111.036 35.7333C110.609 35.943 110.14 36.0149 109.629 35.9489C109.12 35.8805 108.585 35.6629 108.024 35.296L106.073 34.0203L106.808 32.9335L108.581 34.0925C108.909 34.307 109.208 34.438 109.478 34.4854C109.749 34.5305 109.994 34.4986 110.211 34.3898C110.433 34.2802 110.631 34.0972 110.804 33.8408C110.978 33.5843 111.075 33.3321 111.095 33.0841C111.117 32.8338 111.055 32.5931 110.91 32.3622C110.766 32.1289 110.529 31.9043 110.198 31.6882L108.986 30.8953L104.834 37.0285L103.511 36.1633ZM109.501 35.3558L109.092 39.8129L107.616 38.8474L108.056 34.4113L109.501 35.3558ZM111.985 41.7044L110.573 40.7809L118.037 35.2352L119.67 36.3032L117.353 45.2141L115.941 44.2906L117.879 37.27L117.822 37.2327L111.985 41.7044ZM113.95 38.901L117.802 41.4196L117.09 42.4712L113.238 39.9526L113.95 38.901ZM85.6504 37.8861L84.3165 37.0139C84.4249 36.7726 84.4846 36.535 84.4954 36.3011C84.5078 36.0649 84.4778 35.8382 84.4052 35.6211C84.3327 35.4039 84.2188 35.2022 84.0636 35.0159C83.9125 34.8288 83.7251 34.6622 83.5016 34.5161C83.1045 34.2564 82.6857 34.1251 82.2452 34.1222C81.8063 34.1169 81.3719 34.2469 80.9419 34.5122C80.5135 34.7751 80.1154 35.1783 79.7475 35.7217C79.3733 36.2746 79.1447 36.7972 79.0619 37.2894C78.9831 37.7809 79.0305 38.2226 79.2043 38.6145C79.382 39.0056 79.6683 39.3302 80.063 39.5883C80.2817 39.7313 80.5053 39.8368 80.7338 39.9047C80.9662 39.9718 81.1967 39.9986 81.4253 39.9852C81.6563 39.9733 81.8798 39.9193 82.0959 39.823C82.3144 39.7283 82.5155 39.5883 82.6993 39.4029L84.0284 40.2822C83.746 40.593 83.4196 40.8446 83.0493 41.0369C82.6814 41.2307 82.2863 41.3559 81.8639 41.4123C81.4431 41.4664 81.0106 41.4415 80.5664 41.3377C80.1237 41.2315 79.6848 41.0362 79.2497 40.7517C78.6077 40.3319 78.1342 39.8102 77.8292 39.1866C77.5241 38.5629 77.4145 37.8786 77.5002 37.1337C77.586 36.3889 77.8916 35.6283 78.4172 34.8519C78.9443 34.0732 79.5412 33.503 80.2079 33.1414C80.8762 32.7774 81.5619 32.6132 82.2651 32.6487C82.9682 32.6842 83.6384 32.9103 84.2757 33.3269C84.6822 33.5928 85.0221 33.8965 85.2952 34.2379C85.5683 34.5794 85.7675 34.9489 85.8928 35.3465C86.0198 35.7417 86.0645 36.1545 86.0271 36.5848C85.9936 37.0142 85.868 37.448 85.6504 37.8861ZM85.4747 44.6794L84.0623 43.7559L91.5261 38.2101L93.1596 39.2782L90.8425 48.189L89.4301 47.2656L91.3681 40.2449L91.311 40.2076L85.4747 44.6794ZM87.4393 41.876L91.2912 44.3946L90.5794 45.4462L86.7274 42.9276L87.4393 41.876ZM97.7012 42.2477L99.3204 43.3064L97.944 49.9611L98.0296 50.0171L103.743 46.1981L105.362 47.2568L100.47 54.484L99.2004 53.6538L102.561 48.6886L102.494 48.6443L97.1282 52.2684L96.1795 51.6481L97.5146 45.3736L97.4469 45.3293L94.0787 50.305L92.809 49.4748L97.7012 42.2477ZM102.915 56.0828L107.808 48.8557L110.547 50.6467C111.108 51.0136 111.509 51.4249 111.749 51.8807C111.992 52.338 112.088 52.8116 112.038 53.3013C111.991 53.7903 111.813 54.2642 111.502 54.723C111.189 55.1864 110.811 55.5336 110.37 55.7645C109.929 55.9954 109.446 56.0885 108.921 56.0436C108.397 55.9964 107.853 55.7886 107.29 55.4202L105.474 54.2332L106.203 53.1569L107.84 54.2272C108.168 54.4418 108.475 54.561 108.761 54.5849C109.046 54.6088 109.306 54.5546 109.54 54.4222C109.776 54.2915 109.981 54.0979 110.154 53.8415C110.328 53.585 110.429 53.3257 110.459 53.0636C110.492 52.8031 110.439 52.5495 110.3 52.3029C110.166 52.0555 109.933 51.8238 109.603 51.6077L108.39 50.8148L104.239 56.948L102.915 56.0828Z" fill="white"/>
</svg>
