<svg width="20" height="20" viewBox="0 0 20 20" fill="none" xmlns="http://www.w3.org/2000/svg">
<path d="M20 10C20 15.5228 15.5228 20 10 20C4.47715 20 0 15.5228 0 10C0 4.47715 4.47715 0 10 0C15.5228 0 20 4.47715 20 10Z" fill="#9A8470"/>
<path d="M5.98698 9.61806L11.2535 4.27687C11.6175 3.9077 12.2061 3.9077 12.5663 4.27687L13.4414 5.16446C13.8055 5.53363 13.8055 6.13058 13.4414 6.49582L9.7084 10.2818L13.4414 14.0677C13.8055 14.4369 13.8055 15.0339 13.4414 15.3991L12.5701 16.2945C12.2061 16.6637 11.6175 16.6637 11.2574 16.2945L5.99085 10.9534C5.62297 10.5842 5.62297 9.98723 5.98698 9.61806Z" fill="white"/>
</svg>
