<svg width="80" height="80" viewBox="0 0 80 80" fill="none" xmlns="http://www.w3.org/2000/svg">
<path d="M48.5893 30.75V43.4464C48.5893 43.7679 48.3393 44.0179 48.0178 44.0179H45.9821C45.7857 44.0179 45.6071 43.9107 45.5178 43.7857L39.6964 35.9286V43.4643C39.6964 43.7857 39.4464 44.0357 39.125 44.0357H37.0893C36.7679 44.0357 36.5179 43.7857 36.5179 43.4643V30.7679C36.5179 30.4464 36.7679 30.1964 37.0893 30.1964H39.1071C39.2857 30.1964 39.4821 30.2857 39.5714 30.4464L45.3929 38.3036V30.7679C45.3929 30.4464 45.6428 30.1964 45.9643 30.1964H48C48.3214 30.1786 48.5893 30.4464 48.5893 30.75ZM33.9464 30.1786H31.9107C31.5893 30.1786 31.3393 30.4286 31.3393 30.75V43.4464C31.3393 43.7679 31.5893 44.0179 31.9107 44.0179H33.9464C34.2679 44.0179 34.5179 43.7679 34.5179 43.4464V30.75C34.5179 30.4464 34.2679 30.1786 33.9464 30.1786ZM29.0357 40.8214H23.4822V30.75C23.4822 30.4286 23.2322 30.1786 22.9107 30.1786H20.875C20.5536 30.1786 20.3036 30.4286 20.3036 30.75V43.4464C20.3036 43.6071 20.3572 43.7321 20.4643 43.8393C20.5714 43.9286 20.6964 44 20.8572 44H29.0179C29.3393 44 29.5893 43.75 29.5893 43.4286V41.3929C29.5893 41.0893 29.3393 40.8214 29.0357 40.8214ZM59.3036 30.1786H51.1428C50.8393 30.1786 50.5714 30.4286 50.5714 30.75V43.4464C50.5714 43.75 50.8214 44.0179 51.1428 44.0179H59.3036C59.625 44.0179 59.875 43.7679 59.875 43.4464V41.4107C59.875 41.0893 59.625 40.8393 59.3036 40.8393H53.75V38.6964H59.3036C59.625 38.6964 59.875 38.4464 59.875 38.125V36.0714C59.875 35.75 59.625 35.5 59.3036 35.5H53.75V33.3571H59.3036C59.625 33.3571 59.875 33.1071 59.875 32.7857V30.75C59.8571 30.4464 59.6071 30.1786 59.3036 30.1786ZM80 14.5893V65.5357C79.9821 73.5357 73.4285 80.0178 65.4107 80H14.4643C6.46432 79.9821 -0.0178203 73.4107 3.68065e-05 65.4107V14.4643C0.0178939 6.46432 6.58932 -0.0178203 14.5893 3.68065e-05H65.5357C73.5357 0.0178939 80.0178 6.57146 80 14.5893ZM69 36.4821C69 23.4464 55.9286 12.8393 39.875 12.8393C23.8214 12.8393 10.75 23.4464 10.75 36.4821C10.75 48.1607 21.1072 57.9464 35.1071 59.8036C38.5179 60.5357 38.125 61.7857 37.3571 66.375C37.2321 67.1071 36.7679 69.25 39.875 67.9464C42.9821 66.6428 56.6428 58.0714 62.7678 51.0357C66.9821 46.3928 69 41.6964 69 36.4821Z" fill="white"/>
</svg>
