<svg width="68" height="68" viewBox="0 0 68 68" fill="none" xmlns="http://www.w3.org/2000/svg">
<g clip-path="url(#clip0_1241_27122)">
<path d="M35.7398 13.413C38.0944 14.2035 39.2097 17.7757 38.2098 21.4246C37.2194 25.0549 34.5282 27.3844 32.1643 26.6125C29.819 25.8499 28.685 22.2684 29.6663 18.6101C30.6382 14.9704 33.3665 12.6597 35.7398 13.413ZM49.0406 20.1194C51.0761 21.589 50.8219 25.1472 48.5106 28.1116C46.1342 31.0664 42.5989 32.2937 40.5726 30.852C38.5278 29.401 38.8006 25.8522 41.149 22.9066C43.4883 19.933 47.0236 18.7057 49.0406 20.1194ZM21.4729 16.9521C24.0532 17.1098 26.1018 20.2193 26.1548 23.8624C26.0866 27.5144 24.0459 30.3586 21.4842 30.2102C18.9226 30.0619 16.8832 26.9804 16.8862 23.3188C16.8892 19.6572 18.9764 16.8133 21.4729 16.9521ZM54.9574 33.8352C56.5534 35.7599 55.5079 39.1292 52.5657 41.3088C49.6235 43.4884 45.9334 43.6809 44.2909 41.7095C42.6484 39.7381 43.7217 36.4062 46.6175 34.1799C49.5781 32.0563 53.2963 31.8545 54.9574 33.8352ZM41.7396 52.3223C40.9324 54.1085 38.6175 55.3678 36.6519 55.2867C32.5529 55.1331 30.2037 49.9823 26.5018 48.1157C22.7999 46.2492 17.1588 47.5346 14.7196 44.2282C13.3189 42.3787 13.2547 39.3132 14.5095 37.4261C16.2419 34.8231 20.3221 35.0139 23.3163 33.9804C27.2618 32.68 31.6076 28.6883 35.3467 30.5736C39.0672 32.4495 38.591 38.299 39.7423 42.2626C40.6629 45.5732 43.1383 49.2245 41.7396 52.3223Z" fill="#9A8470"/>
</g>
<defs>
<clipPath id="clip0_1241_27122">
<rect width="50" height="50" fill="white" transform="translate(23.0215) rotate(26.7576)"/>
</clipPath>
</defs>
</svg>
