<svg width="70" height="70" viewBox="0 0 70 70" fill="none" xmlns="http://www.w3.org/2000/svg">
<g clip-path="url(#clip0_1241_27114)">
<path d="M17.822 23.8741C19.6285 22.1695 23.3049 22.8684 26.0526 25.4693C28.7883 28.0531 29.5755 31.5243 27.781 33.2459C26.0035 34.9554 22.3101 34.2686 19.5454 31.6797C16.7926 29.1079 16.0395 25.6127 17.822 23.8741ZM30.0032 15.3006C32.2584 14.1974 35.2774 16.0978 36.8035 19.533C38.2905 23.0212 37.7077 26.7177 35.4816 27.826C33.2384 28.9462 30.2364 27.0339 28.7444 23.5747C27.2234 20.1105 27.8061 16.4139 30.0032 15.3006ZM14.2232 38.1261C15.5779 35.9243 19.2857 35.582 22.5243 37.2514C25.7136 39.0319 27.2611 42.1717 25.9235 44.3615C24.586 46.5513 20.9071 46.8986 17.6787 45.1711C14.4502 43.4437 12.9248 40.2628 14.2232 38.1261ZM44.8892 16.5425C47.3388 16.0413 49.8183 18.5507 50.3549 22.1727C50.8916 25.7947 49.3232 29.1405 46.8105 29.6607C44.2978 30.1809 41.8643 27.6646 41.2646 24.0615C40.786 20.4495 42.3595 17.0747 44.8892 16.5425ZM54.9702 36.9105C56.1655 38.464 56.1859 41.0991 55.1884 42.7948C53.1221 46.3381 47.4719 45.984 44.0816 48.3702C40.6913 50.7563 39.1678 56.3379 35.1022 56.932C32.811 57.2963 30.0766 55.9089 29.0031 53.913C27.5231 51.1587 29.6134 47.6495 30.1123 44.5214C30.8238 40.4286 29.3498 34.7148 32.7742 32.3046C36.1815 29.9064 41.117 33.082 45.1557 33.9335C48.5096 34.681 52.8964 34.2175 54.9702 36.9105Z" fill="#FEF7D2"/>
</g>
<defs>
<clipPath id="clip0_1241_27114">
<rect width="50" height="50" fill="white" transform="translate(0 28.7773) rotate(-35.1389)"/>
</clipPath>
</defs>
</svg>
