<svg width="50" height="50" viewBox="0 0 50 50" fill="none" xmlns="http://www.w3.org/2000/svg">
<path d="M0 25C0 38.8071 11.1929 50 25 50C38.8071 50 50 38.8071 50 25C50 11.1929 38.8071 0 25 0C11.1929 0 0 11.1929 0 25Z" fill="#9A8470"/>
<path d="M35.0326 24.0452L21.8662 10.6922C20.9562 9.76926 19.4847 9.76926 18.5843 10.6922L16.3964 12.9111C15.4864 13.8341 15.4864 15.3265 16.3964 16.2396L25.729 25.7045L16.3964 35.1694C15.4864 36.0923 15.4864 37.5847 16.3964 38.4978L18.5746 40.7364C19.4847 41.6593 20.9562 41.6593 21.8565 40.7364L35.0229 27.3834C35.9426 26.4605 35.9426 24.9681 35.0326 24.0452Z" fill="white"/>
</svg>
