<svg width="171" height="127" viewBox="0 0 171 127" fill="none" xmlns="http://www.w3.org/2000/svg">
<path d="M167.484 126.483L88.3144 22L88.2625 23.8494L166.556 126.974L167.484 126.483Z" fill="black"/>
<path d="M2.60676 56.6255L79.4179 2.08935L123.358 68.0588L2.60676 56.6255Z" fill="#FFD390"/>
<path d="M54.8478 33.7809L59.6199 41.0879L58.455 41.8756L51.7978 39.2017L51.7378 39.2423L54.9883 44.2195L53.6787 45.105L48.9066 37.798L50.0786 37.0056L56.7345 39.6853L56.798 39.6424L53.5452 34.6616L54.8478 33.7809ZM66.1152 31.4293C66.6294 32.2166 66.9238 32.9896 66.9986 33.7483C67.0742 34.503 66.9584 35.1984 66.6513 35.8347C66.3466 36.4694 65.8777 37.0007 65.2446 37.4288C64.6115 37.8568 63.9473 38.0917 63.2518 38.1333C62.5571 38.1709 61.8814 38.0089 61.2245 37.6473C60.5684 37.2816 59.9841 36.7064 59.4714 35.9214C58.9573 35.1341 58.6624 34.3631 58.5868 33.6084C58.512 32.8498 58.627 32.1531 58.9318 31.5184C59.2389 30.8822 59.709 30.35 60.342 29.922C60.9751 29.4939 61.6382 29.2599 62.3313 29.2198C63.0268 29.1782 63.7025 29.3402 64.3586 29.7059C65.0155 30.0675 65.601 30.642 66.1152 31.4293ZM64.7984 32.3196C64.4365 31.7654 64.0454 31.3561 63.625 31.0917C63.2055 30.8233 62.7814 30.6934 62.3528 30.7021C61.9226 30.7083 61.511 30.8443 61.118 31.1101C60.7249 31.3758 60.4423 31.7092 60.27 32.1103C60.0961 32.5091 60.0483 32.958 60.1266 33.4571C60.2057 33.9522 60.4262 34.4769 60.7882 35.0311C61.1501 35.5853 61.5409 35.9966 61.9604 36.265C62.3808 36.5294 62.806 36.6585 63.2362 36.6522C63.6648 36.6436 64.0756 36.5064 64.4687 36.2407C64.8617 35.9749 65.1451 35.6427 65.319 35.244C65.4913 34.8429 65.5379 34.3947 65.4588 33.8996C65.3805 33.4005 65.1604 32.8738 64.7984 32.3196ZM70.7335 33.5735L65.9614 26.2664L68.6726 24.4333C69.228 24.0578 69.7577 23.8402 70.2616 23.7807C70.7679 23.7195 71.2325 23.7997 71.6554 24.0213C72.079 24.2388 72.4431 24.5807 72.7476 25.0469C73.0536 25.5155 73.2204 25.9891 73.248 26.4676C73.2763 26.9422 73.1612 27.4024 72.9027 27.8481C72.6426 28.2914 72.2348 28.7008 71.6794 29.0763L69.7484 30.382L69.0308 29.2831L70.7852 28.0968C71.11 27.8772 71.3464 27.6522 71.4945 27.4218C71.641 27.189 71.7062 26.9512 71.6901 26.7083C71.6748 26.4615 71.5825 26.2084 71.4132 25.9492C71.2439 25.6899 71.0488 25.5029 70.828 25.3882C70.6056 25.2711 70.3598 25.235 70.0906 25.2799C69.8198 25.3224 69.5208 25.4542 69.1937 25.6754L67.9935 26.4869L72.0432 32.6879L70.7335 33.5735ZM72.3061 27.7371L76.2582 29.838L74.7967 30.8261L70.8764 28.7038L72.3061 27.7371ZM79.1215 27.902L77.7236 28.8472L75.4967 19.8192L77.1135 18.726L84.4344 24.3097L83.0364 25.2549L77.312 20.752L77.2555 20.7902L79.1215 27.902ZM77.2963 25.0059L81.1089 22.4281L81.8033 23.4913L77.9907 26.0691L77.2963 25.0059ZM65.4133 50.7098L64.0931 51.6025C63.9125 51.4091 63.7165 51.2622 63.505 51.1617C63.2919 51.0589 63.0713 50.9989 62.843 50.9818C62.6147 50.9648 62.3846 50.9917 62.1528 51.0627C61.9218 51.1298 61.6957 51.2381 61.4744 51.3877C61.0814 51.6534 60.7984 51.9888 60.6253 52.3939C60.4506 52.7966 60.4024 53.2475 60.4807 53.7466C60.5575 54.2434 60.7753 54.7664 61.1341 55.3159C61.4991 55.8749 61.8926 56.2877 62.3145 56.5545C62.7372 56.8174 63.1629 56.9444 63.5915 56.9358C64.0209 56.9232 64.431 56.7848 64.8216 56.5207C65.0381 56.3743 65.2219 56.2089 65.3729 56.0245C65.5247 55.8361 65.6386 55.634 65.7147 55.4179C65.7931 55.2003 65.8297 54.9733 65.8245 54.7368C65.8217 54.4987 65.7703 54.259 65.6705 54.0179L66.9955 53.1324C67.1729 53.513 67.2786 53.9113 67.3127 54.3272C67.3491 54.7414 67.3117 55.1542 67.2003 55.5655C67.0874 55.9745 66.8972 56.3637 66.6296 56.7332C66.3605 57.1003 66.0106 57.4295 65.5799 57.7207C64.9445 58.1504 64.2802 58.3852 63.5871 58.4252C62.894 58.4652 62.2206 58.3016 61.5669 57.9344C60.9131 57.5672 60.33 56.9911 59.8173 56.2062C59.3032 55.4189 59.0083 54.6479 58.9327 53.8932C58.8556 53.1361 58.9694 52.4403 59.2741 51.8056C59.5789 51.1709 60.0466 50.6404 60.6773 50.2139C61.0798 49.9418 61.4913 49.7459 61.9118 49.6261C62.3323 49.5064 62.7501 49.4656 63.1652 49.5038C63.5788 49.5397 63.9767 49.6581 64.359 49.859C64.7421 50.0561 65.0936 50.3396 65.4133 50.7098ZM71.6098 53.4996L70.2119 54.4448L67.985 45.4168L69.6018 44.3236L76.9227 49.9073L75.5248 50.8525L69.8003 46.3497L69.7438 46.3879L71.6098 53.4996ZM69.7846 50.6036L73.5972 48.0257L74.2916 49.0889L70.479 51.6668L69.7846 50.6036ZM74.097 41.2843L75.6996 40.2006L81.3039 44.0441L81.3886 43.9869L80.077 37.2409L81.6797 36.1572L86.4518 43.4643L85.1951 44.314L81.9166 39.294L81.8495 39.3393L83.116 45.6889L82.1769 46.3238L76.9074 42.6655L76.8403 42.7109L80.1258 47.7416L78.869 48.5913L74.097 41.2843ZM88.8721 41.8278L84.1 34.5208L86.8111 32.6877C87.3666 32.3121 87.9009 32.1017 88.4141 32.0564C88.9297 32.0095 89.4036 32.104 89.8359 32.3398C90.2689 32.5717 90.6368 32.9195 90.9397 33.3833C91.2458 33.8519 91.4199 34.3342 91.4623 34.8302C91.5046 35.3262 91.4035 35.8078 91.1589 36.2749C90.9128 36.7396 90.5109 37.1605 89.9531 37.5376L88.1563 38.7526L87.4456 37.6644L89.0659 36.5688C89.3907 36.3492 89.6194 36.1123 89.7519 35.8581C89.8845 35.6039 89.9349 35.3435 89.9033 35.0768C89.874 34.8086 89.7747 34.5449 89.6053 34.2856C89.436 34.0263 89.2363 33.8322 89.0062 33.7032C88.7784 33.5726 88.524 33.5234 88.2431 33.5556C87.963 33.5839 87.6594 33.7086 87.3323 33.9298L86.132 34.7413L90.1818 40.9423L88.8721 41.8278Z" fill="#870000"/>
</svg>
