<svg width="20" height="20" viewBox="0 0 20 20" fill="none" xmlns="http://www.w3.org/2000/svg">
<path d="M-2.98023e-07 10C-2.98023e-07 15.5228 4.47715 20 10 20C15.5228 20 20 15.5228 20 10C20 4.47715 15.5228 0 10 0C4.47715 0 -2.98023e-07 4.47715 -2.98023e-07 10Z" fill="#9A8470"/>
<path d="M14.013 9.61806L8.74649 4.27687C8.38248 3.9077 7.79386 3.9077 7.43373 4.27687L6.55855 5.16446C6.19454 5.53363 6.19454 6.13058 6.55855 6.49582L10.2916 10.2818L6.55855 14.0677C6.19454 14.4369 6.19454 15.0339 6.55855 15.3991L7.42986 16.2945C7.79387 16.6637 8.38248 16.6637 8.74262 16.2945L14.0091 10.9534C14.377 10.5842 14.377 9.98723 14.013 9.61806Z" fill="white"/>
</svg>
