<svg width="60" height="60" viewBox="0 0 60 60" fill="none" xmlns="http://www.w3.org/2000/svg">
<path d="M13.5648 29.6017C13.5648 29.6017 12.4445 32.8361 13.1008 36.2674C13.7617 39.6986 14.6852 42.8674 14.6852 42.8674C14.6852 42.8674 14.882 49.5986 14.6852 50.3252C14.4883 51.0517 12.9695 51.9752 12.9695 53.2971C12.9695 54.6189 13.4523 56.2877 15.8945 56.6861C18.3367 57.0846 20.3148 56.2689 21.1305 55.2799C22.307 53.8502 22.0773 52.8377 22.0773 51.783C22.0773 50.7283 22.143 44.658 22.4055 43.7299C22.668 42.8064 23.0664 42.2767 23.793 42.3424C24.5195 42.408 25.3117 43.5283 25.3773 45.6424C25.443 47.7517 25.5086 51.4502 25.443 52.1767C25.3773 52.9033 24.7164 55.3455 25.2461 56.3346C25.7758 57.3236 28.1711 58.2846 30.018 58.1814C32.4367 58.0502 33.8898 56.5314 34.0211 55.3455C34.1523 54.1596 33.3602 51.4502 33.3602 50.658C33.3602 49.8658 34.2836 44.4564 34.5461 44.1236C34.8086 43.7955 35.6148 43.8658 37.382 43.0689C38.9898 42.3424 39.8477 41.6158 39.8477 41.6158C39.8477 41.6158 39.8898 46.3033 39.8242 46.8283C39.7586 47.358 38.1742 49.008 38.4367 50.2596C38.6992 51.5111 40.2461 52.2424 41.6242 52.3689C43.9539 52.5892 46.2227 50.7846 46.8133 49.2002C47.4086 47.6158 47.1414 45.6377 47.0102 44.583C46.8789 43.5283 46.8789 39.8299 47.0102 38.8408C47.1414 37.8517 47.357 37.2517 47.4414 36.7314C47.5727 35.8736 47.5398 34.9174 47.5398 34.9174C47.5398 34.9174 49.818 34.9174 51.168 34.0267C52.518 33.1361 53.9383 31.5846 54.5664 29.6721C55.1805 27.8017 55.0305 27.2299 54.5008 27.1642C53.9711 27.0986 51.5992 30.4267 49.5836 30.5299C46.382 30.6939 46.7008 27.2627 44.2586 25.1861C41.507 22.8424 37.218 22.5471 37.218 22.5471C37.218 22.5471 37.9586 19.7767 37.968 17.7283C38.0008 8.78456 33.6461 5.75174 33.6461 5.75174C33.6461 5.75174 28.4102 1.85174 22.4711 2.11424C16.532 2.37674 12.1773 7.09706 12.1773 7.09706L8.91016 21.5158C8.91016 21.5158 9.73516 24.2861 11.057 26.3017C12.4445 28.4111 13.5648 29.6017 13.5648 29.6017Z" fill="#FFD2B1"/>
<path d="M9.44092 3.90107C4.58936 3.9995 2.02529 8.13388 1.95029 10.6651C1.90811 12.1511 1.32217 22.9511 7.29404 23.1714C9.68936 23.2604 11.4706 20.4808 12.3753 17.3308C13.5144 13.3604 13.4628 9.38075 13.594 8.32138C13.805 6.62919 14.1565 5.387 14.1565 5.387C14.1565 5.387 13.5659 3.81669 9.44092 3.90107ZM35.4097 2.25107C40.6878 2.44794 42.4878 4.787 42.9987 6.14638C43.5612 7.63232 44.0534 12.9339 43.2284 16.4729C42.5581 19.3604 41.5456 20.8276 39.169 20.7292C36.994 20.6401 35.8925 17.5042 34.2519 13.2386C32.6675 9.11357 31.4534 5.41982 31.2472 4.89013C30.9847 4.19638 30.4222 3.90107 30.4222 3.90107C30.4222 3.90107 31.4769 2.10107 35.4097 2.25107Z" fill="#865B52"/>
<path d="M29.3725 12.9701C26.7662 13.1341 25.5194 16.031 26.0725 18.942C26.6678 22.0779 28.7256 23.5638 31.3178 23.231C34.1537 22.8701 35.0115 19.6357 34.6506 17.1935C34.3178 14.9716 33.0615 12.7357 29.3725 12.9701Z" fill="#D27856"/>
<path d="M32.4369 18.2832C32.4369 19.6519 31.6775 20.7957 30.4728 20.7629C28.8369 20.716 28.4103 19.2675 28.4431 18.0488C28.4806 16.6238 29.3338 15.9488 30.5525 15.9816C31.64 16.005 32.4369 16.9144 32.4369 18.2832ZM18.6791 19.0379C18.6791 20.4629 17.9197 21.6535 16.715 21.616C15.0791 21.5691 14.6525 20.0597 14.6853 18.7894C14.7228 17.3035 15.74 16.6707 16.6963 16.741C17.7791 16.8207 18.6791 17.6129 18.6791 19.0379ZM24.9463 26.9972C24.9463 26.9972 27.815 26.7019 27.6838 24.6207C27.5525 22.5441 25.6072 22.4082 24.0884 22.441C22.5697 22.4738 20.3947 23.266 20.6244 25.0144C20.8541 26.7629 23.3291 26.9925 23.3291 26.9925C23.3291 26.9925 23.3244 28.2863 22.4713 28.38C21.5478 28.4785 20.2259 27.0582 19.865 26.6972C19.5041 26.3363 18.9416 26.4675 18.7447 26.7629C18.5478 27.0582 18.6791 27.7191 19.2416 28.2816C19.8041 28.8441 21.1213 30.2597 22.4431 30.1285C23.765 29.9972 23.7978 29.3035 24.3228 29.2707C24.8525 29.2379 24.8197 30.03 26.1369 29.9972C27.065 29.9738 28.9353 28.3425 29.2728 28.0519C30.0322 27.391 30.2291 26.73 29.9009 26.3035C29.5728 25.8769 28.6494 26.5004 28.1525 26.866C27.6556 27.2269 26.8541 28.08 26.0759 28.2207C24.7822 28.4504 24.9463 26.9972 24.9463 26.9972Z" fill="#060401"/>
<path d="M36.6605 23.9034C36.6605 23.9034 36.0371 25.2722 35.5168 26.3691C34.8886 27.6909 33.9886 28.8441 33.9886 28.8441C33.9886 28.8441 35.0058 35.8003 41.0574 35.2003C43.223 34.9847 44.8636 33.2878 45.0183 31.4878C45.2808 28.4503 44.1277 27.03 42.3371 25.6425C39.4355 23.4019 36.6605 23.9034 36.6605 23.9034ZM32.4699 34.7831C31.3965 35.7675 31.973 37.6191 33.3933 37.8206C34.8136 38.0175 35.5777 36.8362 35.4699 35.9409C35.3105 34.5534 33.6933 33.6628 32.4699 34.7831ZM18.4496 32.955C18.4496 32.955 17.5027 35.5519 19.5043 38.805C20.3574 40.1878 22.2558 40.9659 23.5965 40.9144C25.0121 40.8628 26.2918 40.3706 27.3886 39.0019C29.1371 36.8222 28.6402 33.1941 28.6402 33.1941C28.6402 33.1941 25.8699 34.3331 23.3293 34.2487C20.6246 34.1644 18.4496 32.955 18.4496 32.955ZM14.9949 52.83C14.3058 52.6191 14.0293 53.6878 13.9824 54.3675C13.9355 55.0472 13.9402 55.9284 14.5543 56.1487C15.1683 56.3691 15.0465 55.0612 15.1027 54.63C15.2152 53.8003 15.7215 53.0503 14.9949 52.83ZM17.6996 53.2284C17.2871 53.2097 16.8511 53.6269 16.7996 54.8362C16.7574 55.8487 16.7996 56.6831 17.3715 56.73C18.1402 56.7909 17.9246 55.8066 17.9668 54.9909C17.9855 54.5269 18.5574 53.2706 17.6996 53.2284ZM28.1949 54.5456C27.534 54.5456 27.5152 55.2956 27.5152 56.1066C27.5152 56.9222 27.3465 57.93 28.0871 58.0191C28.9871 58.1269 28.8136 56.9175 28.8136 56.2378C28.809 55.6472 28.9168 54.5456 28.1949 54.5456ZM31.1855 54.3956C30.6558 54.5034 30.7027 55.23 30.7215 56.1112C30.7449 56.9925 30.6136 57.9253 31.359 57.8503C31.9965 57.7847 31.9543 56.7487 31.9308 55.9566C31.9121 55.2722 32.0011 54.2222 31.1855 54.3956ZM40.2465 48.6628C39.7918 48.5737 39.2761 48.9581 39.1449 49.9847C39.0371 50.8659 39.0793 51.6394 39.848 51.8081C40.2418 51.8972 40.3121 50.8847 40.3308 50.1581C40.3543 49.53 40.8183 48.7753 40.2465 48.6628ZM42.7308 49.1972C42.2949 49.1269 41.8683 49.3941 41.7558 50.4862C41.6902 51.1237 41.4558 52.2675 42.248 52.3097C42.8621 52.3378 42.8152 51.33 42.8715 50.805C42.9605 49.9753 43.448 49.3191 42.7308 49.1972Z" fill="#D27856"/>
</svg>
