<svg width="60" height="60" viewBox="0 0 60 60" fill="none" xmlns="http://www.w3.org/2000/svg">
<path d="M9.23469 21.4066C9.21594 21.4066 9.19719 21.4066 9.17844 21.4019C9.15032 21.3972 8.44719 21.3175 7.25188 21.1019C5.94875 20.8628 5.09094 20.7644 5.08157 20.7644C4.80032 20.7316 4.59407 20.4784 4.62688 20.1925C4.65969 19.9112 4.9175 19.705 5.19875 19.7378C5.23625 19.7425 6.09875 19.8409 7.43938 20.0847C8.59719 20.2956 9.29094 20.3753 9.29563 20.3753C9.57688 20.4081 9.78313 20.6612 9.75032 20.9472C9.7175 21.2097 9.4925 21.4066 9.23469 21.4066ZM5.05344 23.4737C4.79563 23.4737 4.57063 23.2816 4.5425 23.0191C4.53467 22.9516 4.54024 22.8833 4.55887 22.818C4.5775 22.7528 4.60884 22.6918 4.65109 22.6387C4.69333 22.5856 4.74565 22.5413 4.80504 22.5084C4.86444 22.4756 4.92973 22.4548 4.99719 22.4472C5.01125 22.4472 6.31438 22.2925 6.97532 22.1847C7.65969 22.0769 9.19719 21.8331 9.19719 21.8331L9.35656 22.8503L7.13938 23.2019C6.455 23.3144 5.17063 23.4644 5.11438 23.4691C5.09094 23.4691 5.07219 23.4737 5.05344 23.4737ZM5.86438 25.63C5.63938 25.63 5.43313 25.4847 5.3675 25.255C5.28782 24.9831 5.44719 24.6972 5.72375 24.6175L9.4175 23.5628C9.54801 23.5295 9.68638 23.5484 9.80311 23.6157C9.91984 23.6829 10.0057 23.793 10.0424 23.9226C10.0791 24.0522 10.0637 24.1911 9.99947 24.3095C9.93528 24.4279 9.82737 24.5166 9.69875 24.5566L6.005 25.6112C5.96282 25.6206 5.91125 25.63 5.86438 25.63Z" fill="#888071"/>
<path d="M24.9788 39.5664L19.8976 43.4617C19.8976 43.4617 20.0945 51.5805 19.9632 51.9086C19.832 52.2367 18.0507 54.2852 18.2476 55.4711C18.4023 56.3945 19.1054 56.7227 21.0179 56.793C22.9304 56.8633 26.8257 56.0008 26.8257 56.0008L24.9788 39.5664ZM39.8945 42.6648L36.1351 44.7742C36.1351 44.7742 36.6648 46.3586 36.6648 48.6039C36.6648 50.8492 36.4679 52.2555 36.3367 52.7195C36.2054 53.1836 35.1038 54.0602 35.2163 55.3352C35.2679 55.9258 36.0085 56.3898 37.3257 56.3242C38.6429 56.2586 40.5601 56.1273 40.5601 56.1273L42.4726 43.6539L39.8945 42.6648Z" fill="#B85C3E"/>
<path d="M15.5904 13.0372C15.5904 13.0372 14.9764 10.8809 15.5014 7.44967C16.031 4.01842 16.9076 2.21374 17.7467 2.12467C18.581 2.03561 20.1654 3.61999 21.3982 5.51374C22.631 7.40749 23.6435 10.7497 23.6435 10.7497L15.5904 13.0372ZM29.9295 45.5919C29.9295 45.5919 29.9717 49.5528 30.0607 51.3106C30.1498 53.0684 30.0654 56.9731 29.7092 57.4044C29.1607 58.0653 28.6076 58.084 27.4217 58.1309C26.7139 58.159 27.642 53.7762 27.642 53.5981C27.642 53.42 27.6842 42.9059 27.6842 42.9059L29.9295 45.5919Z" fill="#FB8B02"/>
<path d="M18.183 31.914C18.183 31.914 17.1283 35.2562 17.3908 37.764C17.6533 40.2718 19.1064 43.4405 20.5596 44.7155C22.0127 45.9905 23.3299 46.6515 23.4611 46.9609C23.5924 47.2702 24.1221 51.6249 23.9439 52.5484C23.7658 53.4718 22.4908 55.8484 22.7111 56.7718C22.9314 57.6952 23.8033 58.2765 26.0533 58.2249C28.9783 58.1593 28.8236 57.7187 29.0439 55.8952C29.1939 54.6671 29.0018 46.1734 29.0018 46.1734C29.0018 46.1734 30.8064 46.3515 33.3564 46.1734C35.9064 45.9952 39.0752 44.8515 39.0752 44.8515C39.0752 44.8515 40.8799 50.4812 40.2611 52.1968C39.6471 53.9124 38.6346 54.8827 38.808 56.0687C38.9861 57.2546 40.5236 57.7843 42.4174 57.6062C44.3111 57.428 45.7596 56.1999 45.8486 54.5687C45.9377 52.9421 45.8908 43.9234 46.158 43.2202C46.4205 42.5171 47.3908 40.0984 47.3018 37.6749C47.2127 35.2515 47.0393 34.2859 47.0393 34.2859C47.0393 34.2859 49.3127 33.4187 51.4174 31.8249C53.0205 30.6109 54.2252 29.0124 54.8674 26.6312C55.9221 22.7171 54.4736 18.8452 51.5674 17.5234C48.7736 16.2531 46.0221 16.7312 45.9377 18.7562C45.8533 20.7812 47.6533 20.3405 49.0174 20.8655C50.3814 21.3952 51.9189 23.814 50.2924 26.1905C48.6658 28.5671 45.8064 29.3124 44.9252 29.4015C44.0439 29.4906 42.4174 28.1265 39.0283 28.0374C35.6393 27.9484 30.7596 30.414 30.6236 30.1046C30.4924 29.7952 35.4611 26.5843 35.8127 22.4077C36.1408 18.5359 35.3299 16.7312 35.3299 16.7312C35.3299 16.7312 34.7158 10.1781 33.8346 7.09836C32.9533 4.01868 31.7346 1.73118 30.9424 1.77805C30.1502 1.82024 27.6002 4.59524 26.6768 5.9593C25.7533 7.32336 24.7408 9.5218 24.7408 9.5218C24.7408 9.5218 20.8033 9.37649 19.0643 10.0046C17.4799 10.5765 15.6752 11.5421 14.5314 13.3468C13.3877 15.1515 13.0361 16.2062 12.5064 16.4687C11.9768 16.7312 9.46895 17.2609 9.24863 17.5702C9.02832 17.8796 8.45645 21.9718 8.5877 22.5859C8.71895 23.1999 8.82207 24.6343 9.55332 25.4452C10.3877 26.3687 12.6986 27.9296 14.5268 29.0968C16.2939 30.2218 18.0096 31.1218 18.183 31.914Z" fill="#FFB800"/>
<path d="M34.3966 36.2212C36.0232 36.1977 35.981 34.243 36.0044 31.8196C36.0232 29.7009 35.9388 28.454 35.9388 28.454C35.9388 28.454 35.006 28.5805 34.181 28.8946C33.3653 29.204 32.6622 29.4899 32.6622 29.4899V32.8977C32.6575 34.0649 32.7888 36.2446 34.3966 36.2212ZM37.256 28.1493C37.256 28.1493 37.256 30.193 37.2794 31.9321C37.3028 33.8024 37.1247 35.8274 38.995 35.804C40.6029 35.7852 40.6029 33.7368 40.6216 31.4259C40.631 30.2165 40.6638 28.1493 40.6638 28.1493C40.6638 28.1493 39.8716 27.9946 38.9247 28.018C38.1794 28.0368 37.256 28.1493 37.256 28.1493Z" fill="#FF9B31"/>
<path d="M21.005 19.2295C20.6629 20.0592 19.9269 21.2452 18.7129 20.9358C17.9347 20.7389 17.8785 19.0655 18.3332 18.0717C18.8722 16.8998 19.5894 16.3702 20.4285 16.4686C21.3519 16.5811 21.441 18.1655 21.005 19.2295ZM12.9707 18.9764C12.9472 18.4467 11.5832 18.0764 10.5285 17.678C9.63316 17.3452 9.14098 17.3264 8.90191 17.5467C8.66285 17.767 8.37223 18.3389 8.24098 19.2202C8.10973 20.1014 8.1566 21.592 8.37223 22.5202C8.59254 23.467 8.9441 24.653 10.505 25.2717C11.8457 25.8014 12.6379 25.0748 13.2097 24.6764C13.9363 24.1748 13.6222 22.9842 12.5957 23.5983C11.8269 24.0623 11.2972 24.1936 10.7019 23.753C9.88629 23.1483 9.68941 21.3577 9.75504 21.203C10.041 20.5327 11.1847 20.3686 11.6488 20.1905C12.1129 20.0123 12.9941 19.4405 12.9707 18.9764Z" fill="#2C312C"/>
<path d="M22.19 23.6471H22.1525C22.1385 23.6471 20.6572 23.5393 19.7338 23.5159L17.0947 23.4503C17.0947 23.4503 16.5416 23.4971 16.5416 22.9534C16.5416 22.3768 17.1182 22.4659 17.1182 22.4659L19.7572 22.5315C20.7041 22.555 22.1619 22.6581 22.2228 22.6628C22.4947 22.6815 22.6963 22.9206 22.6775 23.1878C22.6588 23.4503 22.4432 23.6471 22.19 23.6471ZM21.351 26.8581C21.2807 26.8581 21.2057 26.844 21.14 26.8112C21.1307 26.8065 19.9635 26.2487 18.9088 25.8878C17.8119 25.5175 16.5838 25.119 16.5838 25.119C16.326 25.0346 16.1807 24.7581 16.265 24.5003C16.3494 24.2425 16.626 24.0971 16.8838 24.1815C16.8838 24.1815 18.1213 24.58 19.2228 24.955C20.3385 25.3346 21.515 25.8971 21.5666 25.9253C21.8103 26.0425 21.9135 26.3378 21.7963 26.5815C21.7119 26.755 21.5338 26.8581 21.351 26.8581ZM18.9557 28.6862C18.8619 28.6862 18.7635 28.6581 18.6791 28.6018C18.6697 28.5971 17.8447 28.0346 17.2916 27.6925C16.715 27.3409 15.6791 26.6753 15.6791 26.6753C15.6791 26.6753 15.215 26.4034 15.515 25.9721C15.815 25.5409 16.2088 25.8409 16.2088 25.8409C16.2088 25.8409 17.24 26.4971 17.8072 26.8487C18.3838 27.2003 19.1994 27.7628 19.2369 27.7862C19.4619 27.9409 19.5182 28.2456 19.3635 28.4706C19.265 28.6112 19.1103 28.6862 18.9557 28.6862Z" fill="#888071"/>
<path d="M30.1648 5.78005C29.9398 5.70036 28.482 7.39723 27.7554 9.08005C27.0289 10.7629 26.7664 11.6863 26.832 11.9816C26.8601 12.1129 27.6992 12.8394 28.9414 13.8285C30.2304 14.8504 31.0507 15.4785 31.4163 15.4457C31.7773 15.4129 31.8804 12.6097 31.5804 10.0691C31.2804 7.52848 30.5257 5.9113 30.1648 5.78005Z" fill="#FED0AB"/>
</svg>
