<svg width="30" height="29" viewBox="0 0 30 29" fill="none" xmlns="http://www.w3.org/2000/svg">
<path d="M0 27.4867V23.3201C0 23.0234 0.0444443 22.7401 0.133333 22.4701C0.224444 22.2012 0.359444 21.9462 0.538333 21.7051L13.975 3.62839L12.6033 1.78173C12.5278 1.69395 12.4783 1.59395 12.455 1.48173C12.4317 1.37061 12.4283 1.26395 12.445 1.16172C12.4617 1.0595 12.4994 0.959503 12.5583 0.861725C12.6161 0.763947 12.6883 0.677836 12.775 0.603392C12.9717 0.453391 13.175 0.395614 13.385 0.430059C13.5939 0.463392 13.7733 0.578392 13.9233 0.775058L15 2.24672L16.0767 0.775058C16.2267 0.578392 16.4117 0.463392 16.6317 0.430059C16.8517 0.395614 17.06 0.453391 17.2567 0.603392C17.4533 0.753392 17.5689 0.937836 17.6033 1.15673C17.6367 1.37673 17.5789 1.58506 17.43 1.78173L16.0583 3.62839L29.4617 21.7051C29.6406 21.9462 29.775 22.2017 29.865 22.4717C29.955 22.7406 30 23.0239 30 23.3217V27.4884C30 27.8739 29.8722 28.1945 29.6167 28.4501C29.3611 28.7056 29.04 28.8334 28.6533 28.8334H1.34667C0.96 28.8334 0.638889 28.7056 0.383333 28.4501C0.127778 28.1945 0 27.8734 0 27.4867ZM8.13167 27.1667H21.8683L15 17.5417L8.13167 27.1667Z" fill="white"/>
</svg>
