<svg width="1257" height="682" viewBox="0 0 1257 682" fill="none" xmlns="http://www.w3.org/2000/svg">
<path d="M1085.17 517.999L1057.33 477.165H1078.21L1050.38 436.332H1064.29L1029.5 387.332L994.709 436.332H1008.63L980.792 477.165H1001.67L973.834 517.999H1022.54V550.665H1036.46V517.999H1085.17Z" fill="#4D9A27"/>
<path d="M166.667 531.999L133.334 491.165H158.334L125.001 450.332H141.667L100.001 401.332L58.334 450.332H75.0006L41.6673 491.165H66.6673L33.334 531.999H91.6673V564.665H108.334V531.999H166.667Z" fill="#93C32E"/>
<path d="M1220.33 499.749L1183.67 437.04H1211.17L1174.5 374.332H1192.83L1147 299.082L1101.17 374.332H1119.5L1082.83 437.04H1110.33L1073.67 499.749H1137.83V549.915H1156.17V499.749H1220.33Z" fill="#93C32E"/>
<path d="M299.333 511.749L262.666 449.04H290.166L253.499 386.332H271.833L225.999 311.082L180.166 386.332H198.499L161.833 449.04H189.333L152.666 511.749H216.833V561.915H235.166V511.749H299.333Z" fill="#4D9A27"/>
<path d="M300.868 281.929L634.549 1L965.13 281.929L1037.44 623.379C690.334 747.132 220.289 626.992 232.686 623.379C242.603 620.488 282.273 394.541 300.868 281.929Z" fill="#E5B03A" stroke="#DAA636"/>
<path d="M301.902 285.543C439.989 306.319 765.749 335.406 964.098 285.543" stroke="#DAA636"/>
<path d="M629.385 313.595C499.632 309.526 438.268 545.053 438.268 664.026C508.86 675.769 685.997 691.487 825.668 671.253C822.913 553.127 759.138 317.664 629.385 313.595Z" fill="#F4C543" stroke="#DAA636"/>
<path d="M300.869 286.445L170.703 614.346M170.703 614.346C173.457 606.818 181.653 592.847 192.397 597.183C203.141 601.519 182.411 610.432 170.703 614.346ZM170.703 614.346C163.815 602.904 147.149 583.453 135.578 597.183C124.008 610.913 154.174 614.346 170.703 614.346Z" stroke="#347781" stroke-width="2"/>
<path d="M965.131 284.637L1095.3 612.537M1095.3 612.537C1092.54 605.01 1084.35 591.039 1073.6 595.374C1062.86 599.71 1083.59 608.623 1095.3 612.537ZM1095.3 612.537C1102.18 601.095 1118.85 581.644 1130.42 595.374C1141.99 609.105 1111.83 612.537 1095.3 612.537Z" stroke="#347781" stroke-width="2"/>
</svg>
